<svg width="443" height="392" viewBox="0 0 443 392" fill="none" xmlns="http://www.w3.org/2000/svg">
<path d="M65.2395 358.098C151.526 403.077 291.424 403.077 377.711 358.098C463.997 313.118 463.997 240.175 377.711 195.196C291.424 150.217 151.526 150.207 65.2299 195.196C-21.0661 240.185 -21.0565 313.109 65.2395 358.098Z" fill="#FAFAFA"/>
<path d="M155.872 362.005C170.693 362.005 182.707 356.29 182.707 349.241C182.707 342.192 170.693 336.477 155.872 336.477C141.052 336.477 129.038 342.192 129.038 349.241C129.038 356.29 141.052 362.005 155.872 362.005Z" fill="#EBEBEB"/>
<path d="M66.9918 211.61L71.4148 210.492C72.8232 204.661 73.7422 198.724 74.1624 192.741C75.3017 178.41 69.7203 167.595 62.7699 163.124C54.5175 157.822 50.1902 162.666 50.6881 166.477C51.2146 170.5 55.5706 176.184 57.648 180.111C60.6541 185.795 65.2111 194.413 66.9918 211.61Z" fill="#0EA362"/>
<path opacity="0.2" d="M66.9918 211.61L71.4148 210.492C72.8232 204.661 73.7422 198.724 74.1624 192.741C75.3017 178.41 69.7203 167.595 62.7699 163.124C54.5175 157.822 50.1902 162.666 50.6881 166.477C51.2146 170.5 55.5706 176.184 57.648 180.111C60.6541 185.795 65.2111 194.413 66.9918 211.61Z" fill="black"/>
<path d="M69.1459 211.399H69.0789C69.0367 211.391 68.9965 211.375 68.9606 211.351C68.9248 211.328 68.8939 211.297 68.8699 211.262C68.8459 211.226 68.8291 211.186 68.8206 211.144C68.8121 211.102 68.812 211.059 68.8204 211.017C74.105 185.518 63.2486 167.337 56.5375 163.697C56.463 163.655 56.4081 163.585 56.3848 163.503C56.3615 163.421 56.3717 163.333 56.4131 163.258C56.4322 163.219 56.459 163.185 56.4919 163.157C56.5248 163.129 56.563 163.108 56.6043 163.096C56.6455 163.083 56.6889 163.079 56.7318 163.084C56.7746 163.089 56.816 163.103 56.8534 163.124C63.9187 166.946 74.8709 184.993 69.4618 211.151C69.4432 211.221 69.4023 211.283 69.3453 211.328C69.2884 211.372 69.2184 211.398 69.1459 211.399Z" fill="white"/>
<path d="M66.9917 211.609C67.309 206.829 66.6879 202.032 65.1631 197.489C62.6548 190.467 58.7201 183.961 50.8028 181.553C42.8854 179.146 36.7297 184.859 40.6261 190.094C44.5225 195.33 59.0265 198.588 61.8507 215.011L66.9917 211.609Z" fill="#0EA362"/>
<path d="M64.7418 213.434C64.6563 213.425 64.5778 213.383 64.5226 213.317C64.4673 213.251 64.4395 213.166 64.445 213.081C65.6321 199.858 56.6904 186.741 44.9341 184.419C44.8919 184.411 44.8517 184.395 44.8159 184.372C44.78 184.348 44.7492 184.318 44.7251 184.282C44.7011 184.247 44.6844 184.207 44.6759 184.165C44.6674 184.123 44.6673 184.079 44.6756 184.037C44.6824 183.995 44.6979 183.954 44.7212 183.917C44.7445 183.881 44.775 183.849 44.8109 183.825C44.8468 183.801 44.8873 183.784 44.9299 183.777C44.9726 183.769 45.0163 183.77 45.0586 183.779C57.1308 186.149 66.3023 199.581 65.096 213.119C65.0963 213.164 65.0871 213.208 65.0689 213.249C65.0507 213.29 65.0239 213.327 64.9904 213.357C64.9569 213.386 64.9173 213.409 64.8745 213.422C64.8316 213.436 64.7864 213.44 64.7418 213.434Z" fill="white"/>
<path d="M353.691 318.316C353.691 318.316 355.194 304.138 364.05 294.613C372.905 285.088 382.373 285.174 386.069 288.594C389.764 292.014 385.963 297.336 377.74 302.523C370.694 306.966 361.378 317.045 358.516 323.847L353.691 318.316Z" fill="#0EA362"/>
<path opacity="0.2" d="M353.691 318.316C353.691 318.316 355.194 304.138 364.05 294.613C372.905 285.088 382.373 285.174 386.069 288.594C389.764 292.014 385.963 297.336 377.74 302.523C370.694 306.966 361.378 317.045 358.516 323.847L353.691 318.316Z" fill="black"/>
<path d="M355.73 320.991H355.644C355.56 320.972 355.487 320.922 355.441 320.85C355.394 320.779 355.378 320.692 355.395 320.608C359.157 306.144 371.794 291.575 382.44 289.434C382.482 289.426 382.526 289.425 382.568 289.433C382.61 289.441 382.65 289.457 382.686 289.481C382.722 289.504 382.753 289.535 382.778 289.57C382.802 289.606 382.819 289.646 382.828 289.688C382.837 289.73 382.837 289.773 382.829 289.815C382.821 289.857 382.805 289.898 382.781 289.934C382.758 289.969 382.727 290 382.692 290.025C382.656 290.049 382.616 290.066 382.574 290.075C372.148 292.176 359.741 306.526 356.027 320.78C356.004 320.841 355.963 320.893 355.91 320.931C355.858 320.968 355.795 320.989 355.73 320.991Z" fill="white"/>
<path d="M355.223 351.544C355.223 351.544 361.761 353.397 366.481 350.158C370.512 347.388 369.506 344.426 369.975 342.162C370.445 339.898 372.417 338.656 375.72 338.226C379.779 337.7 383.57 337.06 384.278 332.78C384.91 329.006 378.668 326.971 380.525 323.284C381.933 320.503 385.092 318.65 387.696 316.596C390.3 314.542 388.749 310.052 382.526 310.042C374.81 310.042 373.202 312.908 369.765 313.357C366.328 313.806 364.404 311.829 360.641 312.325C356.477 312.87 354.438 316.844 354.342 321.803L355.223 351.544Z" fill="#0EA362"/>
<path d="M354.792 337.395H354.687C354.645 337.381 354.607 337.359 354.575 337.33C354.542 337.301 354.516 337.266 354.497 337.227C354.478 337.187 354.468 337.145 354.466 337.102C354.464 337.058 354.47 337.015 354.486 336.974C357.922 327.296 376.457 313.825 384.221 312.45C384.264 312.441 384.308 312.442 384.35 312.451C384.393 312.46 384.433 312.477 384.469 312.502C384.505 312.527 384.535 312.559 384.558 312.596C384.582 312.633 384.597 312.674 384.604 312.717C384.612 312.76 384.612 312.804 384.603 312.846C384.594 312.889 384.576 312.929 384.551 312.965C384.526 313 384.494 313.031 384.457 313.054C384.42 313.077 384.379 313.092 384.336 313.099C376.677 314.456 358.487 327.678 355.108 337.175C355.083 337.239 355.04 337.294 354.983 337.333C354.927 337.372 354.86 337.393 354.792 337.395Z" fill="white"/>
<path d="M380.124 331.72C380.073 331.733 380.021 331.733 379.97 331.72C375.184 329.245 366.989 327.439 360.708 328.787C360.626 328.796 360.543 328.775 360.475 328.727C360.408 328.679 360.361 328.607 360.343 328.526C360.325 328.446 360.338 328.361 360.379 328.289C360.42 328.217 360.486 328.163 360.565 328.137C366.998 326.761 375.346 328.605 380.277 331.137C380.315 331.156 380.35 331.183 380.378 331.215C380.406 331.248 380.427 331.286 380.441 331.327C380.454 331.367 380.459 331.411 380.456 331.453C380.452 331.496 380.44 331.538 380.42 331.576C380.386 331.622 380.341 331.659 380.29 331.684C380.238 331.709 380.181 331.721 380.124 331.72Z" fill="white"/>
<path d="M364.011 325.385C363.925 325.385 363.842 325.351 363.781 325.29C363.72 325.229 363.686 325.147 363.686 325.061C363.686 319.281 361.771 316.462 361.723 316.462C361.672 316.391 361.652 316.303 361.666 316.217C361.68 316.131 361.728 316.054 361.8 316.004C361.871 315.953 361.959 315.933 362.045 315.947C362.131 315.961 362.208 316.009 362.259 316.08C362.345 316.195 364.356 319.07 364.346 325.08C364.339 325.163 364.3 325.241 364.238 325.298C364.176 325.354 364.095 325.386 364.011 325.385Z" fill="white"/>
<path d="M122.02 0.728939L122.595 0.394558C123.108 0.135166 123.676 0 124.251 0C124.827 0 125.394 0.135166 125.907 0.394558L219.814 54.5072C220.297 54.8215 220.698 55.2448 220.986 55.7427C221.273 56.2407 221.439 56.7993 221.471 57.3733V187.983C221.438 188.557 221.271 189.115 220.984 189.612C220.696 190.11 220.296 190.534 219.814 190.849L219.24 191.174C218.728 191.438 218.16 191.576 217.584 191.576C217.007 191.576 216.44 191.438 215.927 191.174L122.02 137.071C121.537 136.758 121.135 136.335 120.847 135.836C120.559 135.338 120.394 134.779 120.364 134.205V3.59507C120.395 3.02091 120.56 2.46202 120.848 1.96395C121.136 1.46588 121.538 1.04271 122.02 0.728939Z" fill="#FAFAFA"/>
<path d="M221.471 122.673V57.3733C221.454 56.7954 221.286 56.232 220.982 55.7396L215.621 58.835V191.011L215.918 191.174C216.43 191.438 216.998 191.576 217.574 191.576C218.15 191.576 218.718 191.438 219.23 191.174L219.805 190.849C220.286 190.534 220.686 190.11 220.974 189.612C221.262 189.115 221.428 188.557 221.461 187.983L221.471 122.673Z" fill="#E0E0E0"/>
<path d="M122.02 2.63969L215.927 56.7427C216.409 57.0582 216.809 57.4818 217.097 57.9795C217.384 58.4772 217.551 59.0352 217.584 59.6089V190.219C217.584 191.279 216.837 191.709 215.927 191.174L122.02 137.071C121.537 136.758 121.135 136.335 120.847 135.836C120.559 135.338 120.394 134.779 120.364 134.205V3.59507C120.364 2.54416 121.101 2.11424 122.02 2.63969Z" fill="#F5F5F5"/>
<path d="M133.681 18.327L204.257 58.9879C204.741 59.3011 205.143 59.7241 205.431 60.2223C205.719 60.7205 205.884 61.2797 205.914 61.854V66.9939C205.914 68.0448 205.176 68.4748 204.257 67.9493L133.681 27.3075C133.2 26.9921 132.799 26.5685 132.512 26.0708C132.224 25.5731 132.057 25.015 132.025 24.4414V19.2824C132.025 18.2219 132.772 17.7538 133.681 18.327Z" fill="#E0E0E0"/>
<path d="M148.626 63.9721C152.422 61.7851 152.422 54.6927 148.626 48.1309C144.829 41.5691 138.675 38.0227 134.879 40.2097C131.083 42.3968 131.083 49.4892 134.879 56.051C138.675 62.6128 144.83 66.1592 148.626 63.9721Z" fill="#E0E0E0"/>
<path d="M141.829 44.5043C139.914 43.4152 138.42 44.2941 138.42 46.4628C138.482 47.6441 138.823 48.7942 139.415 49.8188C140.007 50.8433 140.834 51.7133 141.829 52.3575C143.743 53.4466 145.237 52.5677 145.237 50.4468C145.181 49.2576 144.843 48.0985 144.251 47.0653C143.658 46.0321 142.828 45.1543 141.829 44.5043Z" fill="#0EA362"/>
<path d="M142.719 53.953L140.804 52.8352C137.702 51.0582 135.194 52.5008 135.194 56.0644V56.5516C136.804 59.3 139.062 61.6152 141.771 63.2966C144.308 64.7583 146.558 64.959 148.338 64.1182V63.6119C148.227 61.6748 147.66 59.791 146.684 58.113C145.708 56.435 144.349 55.0099 142.719 53.953Z" fill="#0EA362"/>
<path d="M134.102 67.8633L149.42 76.6815C150.011 77.0528 150.506 77.5576 150.865 78.155C151.224 78.7525 151.438 79.4259 151.488 80.1208C151.488 81.3533 150.531 81.8214 149.42 81.1622L134.102 72.3536C133.51 71.9834 133.013 71.4791 132.652 70.8816C132.291 70.284 132.076 69.6101 132.025 68.9143C132.025 67.6723 132.954 67.2041 134.102 67.8633Z" fill="#E0E0E0"/>
<path d="M134.102 76.8248L149.42 85.6429C150.01 86.0132 150.504 86.5165 150.863 87.1122C151.222 87.7079 151.436 88.3794 151.488 89.0727C151.488 90.3147 150.531 90.7828 149.42 90.1236L134.102 81.3055C133.509 80.9358 133.012 80.4317 132.651 79.834C132.29 79.2364 132.075 78.5621 132.025 77.8661C132.025 76.6337 132.954 76.1655 134.102 76.8248Z" fill="#E0E0E0"/>
<path d="M134.103 85.7767L149.42 94.5948C150.006 94.9643 150.496 95.4651 150.854 96.0572C151.211 96.6493 151.425 97.3164 151.479 98.0055C151.479 99.2379 150.521 99.7061 149.411 99.0469L134.093 90.2383C133.5 89.8681 133.004 89.3638 132.643 88.7662C132.282 88.1687 132.067 87.4947 132.016 86.7989C132.025 85.5856 132.954 85.1175 134.103 85.7767Z" fill="#E0E0E0"/>
<path d="M134.103 94.7381L149.42 103.556C150.008 103.928 150.501 104.431 150.858 105.027C151.215 105.623 151.428 106.294 151.479 106.986C151.479 108.228 150.521 108.696 149.411 108.037L134.093 99.2188C133.5 98.8491 133.003 98.345 132.642 97.7473C132.281 97.1497 132.066 96.4754 132.016 95.7794C132.025 94.547 132.954 94.0789 134.103 94.7381Z" fill="#E0E0E0"/>
<path d="M134.102 108.19L149.42 116.998C150.022 117.392 150.522 117.922 150.882 118.544C151.241 119.166 151.448 119.864 151.488 120.581V129.246C151.488 130.565 150.531 131.1 149.42 130.441L134.102 121.632C133.498 121.24 132.995 120.712 132.634 120.089C132.273 119.466 132.064 118.768 132.025 118.049V109.384C132.025 108.056 132.954 107.559 134.102 108.19Z" fill="#0EA362"/>
<path d="M165.207 49.9309L203.845 72.2103C204.435 72.5807 204.929 73.0839 205.288 73.6796C205.648 74.2753 205.862 74.9468 205.913 75.6401C205.913 76.8821 204.956 77.3502 203.845 76.691L165.207 54.4307C164.617 54.0604 164.123 53.5571 163.764 52.9614C163.404 52.3657 163.19 51.6942 163.139 51.0009C163.139 49.7398 164.067 49.2812 165.207 49.9309Z" fill="#0EA362"/>
<path d="M165.207 58.8923L203.845 81.1526C204.435 81.523 204.929 82.0262 205.288 82.6219C205.648 83.2176 205.862 83.8891 205.913 84.5824C205.913 85.8244 204.956 86.2926 203.845 85.6334L165.207 63.373C164.617 63.0027 164.123 62.4994 163.764 61.9037C163.404 61.308 163.19 60.6365 163.139 59.9432C163.139 58.7013 164.067 58.2331 165.207 58.8923Z" fill="#0EA362"/>
<path d="M165.207 67.8537L203.845 90.114C204.435 90.4844 204.929 90.9877 205.288 91.5834C205.648 92.179 205.862 92.8506 205.913 93.5438C205.913 94.7858 204.956 95.254 203.845 94.5948L165.207 72.3345C164.617 71.9641 164.123 71.4608 163.764 70.8651C163.404 70.2694 163.19 69.5979 163.139 68.9047C163.139 67.6627 164.067 67.1945 165.207 67.8537Z" fill="#0EA362"/>
<path d="M297.427 83.3882L301.065 81.2959C301.707 80.9711 302.417 80.8018 303.138 80.8018C303.858 80.8018 304.568 80.9711 305.21 81.2959L386.585 128.205C387.19 128.597 387.693 129.125 388.054 129.748C388.415 130.37 388.624 131.069 388.663 131.788V234.558C388.624 235.276 388.415 235.975 388.054 236.597C387.693 237.22 387.19 237.749 386.585 238.14L382.957 240.233C382.315 240.557 381.605 240.727 380.884 240.727C380.164 240.727 379.454 240.557 378.812 240.233L297.389 193.324C296.787 192.93 296.286 192.4 295.927 191.778C295.568 191.156 295.36 190.458 295.321 189.741V86.9709C295.365 86.2504 295.578 85.5505 295.944 84.9279C296.31 84.3054 296.818 83.7778 297.427 83.3882Z" fill="#455A64"/>
<path d="M388.692 183.168V131.788C388.668 131.065 388.457 130.36 388.079 129.743L377.021 136.116V239.182L378.84 240.233C379.483 240.557 380.193 240.727 380.913 240.727C381.633 240.727 382.343 240.557 382.986 240.233L386.614 238.14C387.219 237.749 387.722 237.22 388.083 236.597C388.444 235.975 388.653 235.276 388.692 234.558V183.168Z" fill="#263238"/>
<path d="M297.427 85.7767L378.802 132.686C379.404 133.08 379.904 133.609 380.264 134.231C380.623 134.854 380.83 135.551 380.87 136.268V239.038C380.87 240.357 379.913 240.892 378.802 240.233L297.379 193.324C296.777 192.93 296.277 192.4 295.917 191.778C295.558 191.156 295.351 190.458 295.311 189.741V86.9709C295.359 85.6525 296.288 85.1175 297.427 85.7767Z" fill="#37474F"/>
<path d="M373.001 136.001L303.257 95.8178C302.109 95.1586 301.189 95.6936 301.189 97.012V175.143C301.229 175.86 301.437 176.558 301.796 177.18C302.155 177.802 302.656 178.332 303.257 178.725L373.001 218.909C374.15 219.568 375.078 219.033 375.078 217.714V139.584C375.039 138.865 374.831 138.167 374.47 137.544C374.108 136.921 373.605 136.393 373.001 136.001Z" fill="white"/>
<path d="M317.33 113.292C319.282 114.565 320.906 116.28 322.071 118.297C323.235 120.313 323.907 122.575 324.032 124.899C324.032 129.18 321.026 130.909 317.33 128.769C315.377 127.496 313.753 125.782 312.588 123.765C311.424 121.748 310.752 119.485 310.629 117.161C310.619 112.871 313.625 111.142 317.33 113.292Z" fill="#0EA362"/>
<path d="M334.773 160.831L322.328 142.048C320.308 139.01 316.823 138.848 314.535 141.695L301.189 158.194V175.171C301.229 175.89 301.437 176.589 301.798 177.211C302.159 177.834 302.662 178.362 303.267 178.754L373.001 218.88C374.15 219.539 375.078 219.004 375.078 217.686V173.643L357.75 137.042C356.19 133.746 353.26 133.517 351.221 136.536L334.773 160.831Z" fill="#0EA362"/>
<path d="M315.061 315.22L337.875 302.074C339.082 301.29 340.087 300.232 340.807 298.987C341.528 297.742 341.943 296.345 342.02 294.909V165.541C341.942 164.106 341.526 162.709 340.805 161.464C340.085 160.219 339.081 159.161 337.875 158.376L182.841 69.048C181.556 68.3976 180.136 68.0586 178.696 68.0586C177.255 68.0586 175.835 68.3976 174.55 69.048L151.727 82.194C150.521 82.9796 149.517 84.0377 148.797 85.2825C148.076 86.5274 147.66 87.924 147.582 89.3593V218.727C147.66 220.162 148.076 221.559 148.797 222.804C149.517 224.049 150.521 225.107 151.727 225.892L306.818 315.22C308.097 315.863 309.508 316.198 310.94 316.198C312.371 316.198 313.783 315.863 315.061 315.22Z" fill="#455A64"/>
<path d="M341.992 165.541C341.943 164.101 341.528 162.697 340.786 161.462L307.029 180.932V315.335C308.288 315.923 309.664 316.218 311.054 316.198C312.444 316.178 313.811 315.844 315.052 315.22L337.885 302.065C339.084 301.277 340.081 300.219 340.795 298.976C341.508 297.733 341.918 296.34 341.992 294.909V165.541Z" fill="#37474F"/>
<path d="M306.771 176.346L151.727 87.0186C149.439 85.7002 147.582 86.7702 147.582 89.4071V218.727C147.66 220.162 148.076 221.559 148.797 222.804C149.517 224.049 150.521 225.107 151.727 225.892L306.818 315.22C309.107 316.539 310.964 315.469 310.964 312.832V183.464C310.873 182.033 310.446 180.643 309.717 179.407C308.989 178.17 307.979 177.122 306.771 176.346Z" fill="#37474F"/>
<path d="M320.375 168.465C321.581 169.25 322.585 170.308 323.305 171.553C324.025 172.798 324.441 174.195 324.52 175.63V309.765L328.407 307.529V173.385C328.328 171.949 327.912 170.553 327.192 169.308C326.472 168.063 325.468 167.005 324.261 166.219L165.072 74.5032L161.186 76.7483L320.375 168.465Z" fill="#263238"/>
<path d="M324.261 166.219L165.34 74.656L161.329 76.8247L320.384 168.465C321.609 169.227 322.617 170.289 323.314 171.55L327.201 169.315C326.504 168.048 325.492 166.981 324.261 166.219Z" fill="#37474F"/>
<path d="M300.165 145.612L297.427 144.036C296.784 143.711 296.074 143.541 295.354 143.541C294.634 143.541 293.924 143.711 293.281 144.036L282.75 150.093L280.999 149.567V151.803C281.023 152.06 281.115 152.307 281.267 152.517C281.418 152.727 281.623 152.893 281.86 152.997L285.489 155.089C286.131 155.414 286.841 155.583 287.561 155.583C288.281 155.583 288.991 155.414 289.634 155.089L301.046 148.516C301.281 148.41 301.484 148.244 301.634 148.034C301.783 147.824 301.874 147.579 301.898 147.322V145.077L300.165 145.612Z" fill="#263238"/>
<path d="M301.065 143.864L297.427 141.771C296.784 141.446 296.074 141.277 295.354 141.277C294.634 141.277 293.924 141.446 293.281 141.771L281.879 148.354C281.628 148.436 281.409 148.595 281.254 148.809C281.099 149.022 281.015 149.279 281.015 149.543C281.015 149.807 281.099 150.064 281.254 150.278C281.409 150.491 281.628 150.651 281.879 150.733L285.508 152.835C286.15 153.159 286.86 153.329 287.58 153.329C288.3 153.329 289.01 153.159 289.653 152.835L301.065 146.252C301.315 146.167 301.532 146.007 301.686 145.792C301.839 145.578 301.922 145.321 301.922 145.058C301.922 144.794 301.839 144.537 301.686 144.323C301.532 144.109 301.315 143.948 301.065 143.864Z" fill="#455A64"/>
<path d="M206.832 91.8433L204.133 90.2669C203.489 89.942 202.777 89.7727 202.055 89.7727C201.333 89.7727 200.622 89.942 199.978 90.2669L189.447 96.324L187.695 95.7985V98.0055C187.719 98.2631 187.811 98.5096 187.963 98.7195C188.114 98.9295 188.319 99.0953 188.556 99.1997L192.185 101.292C192.827 101.617 193.537 101.786 194.257 101.786C194.978 101.786 195.688 101.617 196.33 101.292L207.742 94.719C207.978 94.6149 208.183 94.449 208.332 94.2388C208.482 94.0286 208.573 93.7819 208.594 93.5247V91.3178L206.832 91.8433Z" fill="#263238"/>
<path d="M207.732 90.1236L204.094 88.0218C203.452 87.6969 202.742 87.5277 202.021 87.5277C201.301 87.5277 200.591 87.6969 199.949 88.0218L188.547 94.6043C188.297 94.689 188.079 94.8497 187.926 95.0639C187.772 95.2781 187.689 95.535 187.689 95.7986C187.689 96.0621 187.772 96.319 187.926 96.5332C188.079 96.7474 188.297 96.9081 188.547 96.9928L192.175 99.0851C192.817 99.4099 193.527 99.5792 194.248 99.5792C194.968 99.5792 195.678 99.4099 196.32 99.0851L207.732 92.5121C207.982 92.4274 208.199 92.2667 208.353 92.0525C208.507 91.8383 208.59 91.5814 208.59 91.3178C208.59 91.0543 208.507 90.7974 208.353 90.5832C208.199 90.369 207.982 90.2083 207.732 90.1236Z" fill="#455A64"/>
<path d="M237.028 91.3178V104.76L229.254 109.241V88.7383C229.254 87.6778 229.991 87.2575 230.91 87.7829L237.028 91.3178Z" fill="#263238"/>
<path d="M277.849 105.563V130.546L272.105 133.88L268.218 131.635V111.142C268.185 110.568 268.019 110.01 267.731 109.513C267.443 109.015 267.043 108.591 266.562 108.276L237.027 91.3178L230.938 87.7829C229.981 87.2575 229.282 87.6778 229.282 88.7383V109.231L225.386 106.986V82.0124C225.377 81.9044 225.377 81.7957 225.386 81.6876C225.463 81.1725 225.649 80.6796 225.931 80.2415C226.213 79.8034 226.585 79.4301 227.023 79.1463L229.483 77.7228C229.997 77.4634 230.564 77.3282 231.14 77.3282C231.715 77.3282 232.282 77.4634 232.796 77.7228L276.145 102.696C276.635 103.006 277.046 103.427 277.342 103.925C277.638 104.423 277.812 104.984 277.849 105.563Z" fill="#455A64"/>
<path d="M272.028 108.897V133.88L268.141 131.635V111.142C268.109 110.568 267.942 110.01 267.654 109.513C267.367 109.015 266.966 108.591 266.485 108.276L237.027 91.3178L230.938 87.7829C229.981 87.2575 229.282 87.6778 229.282 88.7383V109.231L225.386 106.986V82.0125C225.377 81.9044 225.377 81.7957 225.386 81.6876C225.529 80.8756 226.209 80.5889 227.023 81.0571L270.372 106.031C270.853 106.347 271.253 106.77 271.54 107.268C271.828 107.766 271.995 108.323 272.028 108.897Z" fill="#37474F"/>
<path d="M330.36 360.161L334.247 357.916L330.36 246.089C330.318 245.371 330.109 244.673 329.748 244.051C329.387 243.429 328.885 242.9 328.282 242.506L254.652 200.078C253.36 199.252 252.357 198.047 251.78 196.629L249.454 189.941C248.879 188.529 247.874 187.333 246.582 186.521L211.877 167.146C210.729 166.506 209.781 167.051 209.781 168.369V288.317C209.823 289.034 210.033 289.732 210.393 290.354C210.754 290.976 211.256 291.505 211.858 291.899L330.36 360.161Z" fill="#0EA362"/>
<path opacity="0.2" d="M330.36 360.161L334.247 357.916L330.36 246.089C330.318 245.371 330.109 244.673 329.748 244.051C329.387 243.429 328.885 242.9 328.282 242.506L254.652 200.078C253.36 199.252 252.357 198.047 251.78 196.629L249.454 189.941C248.879 188.529 247.874 187.333 246.582 186.521L211.877 167.146C210.729 166.506 209.781 167.051 209.781 168.369V288.317C209.823 289.034 210.033 289.732 210.393 290.354C210.754 290.976 211.256 291.505 211.858 291.899L330.36 360.161Z" fill="black"/>
<path d="M273.684 170.671L355.921 218.058C356.404 218.371 356.806 218.794 357.094 219.293C357.382 219.791 357.548 220.35 357.577 220.924V356.015C357.577 357.075 356.84 357.496 355.921 356.97L273.684 309.593C273.202 309.278 272.801 308.855 272.514 308.357C272.226 307.859 272.06 307.301 272.028 306.727V171.627C272.028 170.614 272.765 170.146 273.684 170.671Z" fill="white"/>
<g opacity="0.5">
<path d="M356.668 357.677C356.33 357.664 356 357.565 355.711 357.39L273.474 310.004C272.915 309.65 272.45 309.168 272.117 308.598C271.784 308.028 271.592 307.386 271.559 306.727V171.627C271.516 171.335 271.562 171.037 271.691 170.772C271.82 170.507 272.025 170.287 272.281 170.139C272.537 169.992 272.831 169.925 273.126 169.947C273.42 169.968 273.702 170.078 273.933 170.261L356.17 217.638C356.729 217.994 357.194 218.477 357.527 219.049C357.86 219.621 358.051 220.264 358.085 220.924V356.015C358.108 356.304 358.053 356.595 357.927 356.857C357.801 357.118 357.608 357.342 357.367 357.505C357.154 357.625 356.912 357.684 356.668 357.677ZM272.947 170.929C272.881 170.914 272.812 170.914 272.746 170.929C272.656 171.012 272.588 171.115 272.546 171.23C272.505 171.345 272.491 171.468 272.507 171.589V306.727C272.543 307.211 272.689 307.68 272.934 308.099C273.18 308.518 273.518 308.876 273.924 309.144L356.16 356.531C356.258 356.607 356.373 356.657 356.495 356.677C356.617 356.697 356.743 356.686 356.859 356.645C356.95 356.563 357.02 356.46 357.062 356.345C357.103 356.231 357.116 356.107 357.099 355.986V220.924C357.069 220.434 356.925 219.957 356.679 219.531C356.433 219.105 356.092 218.741 355.682 218.469L273.445 171.092C273.297 170.993 273.125 170.936 272.947 170.929Z" fill="#E0E0E0"/>
</g>
<path d="M281.879 188.833L320.509 211.093C321.1 211.464 321.596 211.968 321.956 212.566C322.315 213.164 322.528 213.838 322.577 214.533C322.577 215.765 321.619 216.233 320.509 215.574L281.879 193.323C281.287 192.953 280.79 192.449 280.429 191.851C280.068 191.254 279.853 190.58 279.802 189.884C279.764 188.642 280.721 188.174 281.879 188.833Z" fill="#37474F"/>
<path d="M281.879 202.285L347.736 240.223C348.328 240.592 348.824 241.094 349.185 241.69C349.546 242.286 349.761 242.958 349.813 243.653C349.813 244.895 348.856 245.363 347.745 244.704L281.889 206.766C281.296 206.396 280.798 205.892 280.437 205.294C280.076 204.697 279.862 204.022 279.811 203.326C279.763 202.142 280.721 201.626 281.879 202.285Z" fill="#E0E0E0"/>
<path d="M281.879 215.727L347.736 253.665C348.328 254.034 348.824 254.536 349.185 255.132C349.546 255.728 349.761 256.401 349.813 257.095C349.813 258.337 348.856 258.805 347.745 258.146L281.889 220.208C281.296 219.838 280.798 219.334 280.437 218.736C280.076 218.139 279.862 217.464 279.811 216.768C279.763 215.517 280.721 215.068 281.879 215.727Z" fill="#E0E0E0"/>
<path d="M281.879 229.169L347.736 267.107C348.329 267.477 348.826 267.981 349.187 268.579C349.548 269.176 349.763 269.851 349.813 270.547C349.813 271.779 348.856 272.247 347.745 271.588L281.879 233.669C281.287 233.3 280.791 232.798 280.43 232.202C280.069 231.606 279.854 230.934 279.802 230.239C279.764 228.978 280.721 228.51 281.879 229.169Z" fill="#E0E0E0"/>
<path d="M281.879 242.611L347.736 280.549C348.329 280.919 348.826 281.423 349.187 282.021C349.548 282.619 349.763 283.293 349.813 283.989C349.813 285.221 348.856 285.689 347.745 285.03L281.889 247.092C281.297 246.723 280.8 246.221 280.439 245.625C280.079 245.029 279.863 244.357 279.811 243.662C279.763 242.42 280.721 241.952 281.879 242.611Z" fill="#E0E0E0"/>
<path d="M281.879 256.053L347.736 293.992C348.328 294.362 348.825 294.866 349.186 295.464C349.547 296.061 349.762 296.735 349.813 297.431C349.813 298.673 348.856 299.141 347.745 298.482L281.889 260.534C281.297 260.166 280.8 259.663 280.439 259.067C280.079 258.471 279.863 257.799 279.811 257.104C279.763 255.862 280.721 255.394 281.879 256.053Z" fill="#E0E0E0"/>
<path d="M281.879 269.505L347.736 307.443C348.328 307.812 348.824 308.315 349.185 308.911C349.546 309.506 349.761 310.179 349.813 310.873C349.813 312.115 348.856 312.583 347.745 311.924L281.879 273.986C281.286 273.616 280.789 273.112 280.428 272.515C280.067 271.917 279.852 271.243 279.802 270.547C279.764 269.314 280.721 268.846 281.879 269.505Z" fill="#E0E0E0"/>
<path d="M281.879 282.947L347.736 320.885C348.328 321.254 348.824 321.757 349.185 322.353C349.546 322.949 349.761 323.621 349.813 324.315C349.813 325.557 348.856 326.025 347.745 325.366L281.889 287.428C281.296 287.058 280.798 286.554 280.437 285.957C280.076 285.359 279.862 284.685 279.811 283.989C279.763 282.756 280.721 282.288 281.879 282.947Z" fill="#E0E0E0"/>
<path d="M262.014 177.388L344.251 224.774C344.736 225.087 345.139 225.51 345.429 226.008C345.718 226.506 345.885 227.066 345.917 227.641V362.731C345.917 363.782 345.17 364.212 344.251 363.686L262.014 316.3C261.532 315.985 261.131 315.562 260.843 315.064C260.555 314.566 260.389 314.007 260.358 313.434V178.343C260.358 177.302 261.105 176.862 262.014 177.388Z" fill="white"/>
<path d="M344.998 364.384C344.659 364.371 344.33 364.272 344.04 364.097L261.804 316.72C261.244 316.366 260.778 315.882 260.444 315.31C260.111 314.738 259.921 314.094 259.889 313.434V178.343C259.851 178.053 259.9 177.758 260.03 177.496C260.16 177.234 260.365 177.016 260.619 176.869C260.873 176.723 261.165 176.655 261.457 176.675C261.75 176.694 262.03 176.799 262.263 176.977L344.5 224.354C345.06 224.708 345.527 225.192 345.86 225.764C346.193 226.336 346.384 226.98 346.415 227.641V362.731C346.437 363.02 346.381 363.31 346.253 363.571C346.125 363.831 345.93 364.052 345.687 364.212C345.477 364.33 345.239 364.389 344.998 364.384ZM261.277 177.636C261.21 177.635 261.144 177.651 261.086 177.684C260.992 177.764 260.92 177.867 260.877 177.982C260.833 178.097 260.82 178.221 260.837 178.343V313.434C260.867 313.924 261.01 314.401 261.256 314.827C261.502 315.253 261.843 315.617 262.254 315.889L344.49 363.276C344.571 363.384 344.689 363.459 344.822 363.486C344.954 363.514 345.092 363.492 345.21 363.425C345.327 363.358 345.417 363.251 345.46 363.123C345.504 362.995 345.5 362.856 345.448 362.731V227.641C345.417 227.149 345.273 226.671 345.025 226.245C344.777 225.819 344.434 225.456 344.021 225.185L261.784 177.799C261.632 177.702 261.457 177.646 261.277 177.636Z" fill="#E0E0E0"/>
<path d="M270.19 195.549L308.819 217.81C309.412 218.179 309.909 218.684 310.27 219.281C310.631 219.879 310.846 220.553 310.897 221.249C310.897 222.482 309.939 222.95 308.819 222.29L270.19 200.03C269.598 199.661 269.101 199.159 268.74 198.563C268.38 197.967 268.164 197.295 268.112 196.6C268.131 195.358 269.06 194.89 270.19 195.549Z" fill="#E0E0E0"/>
<path d="M270.19 208.992L336.046 246.93C336.636 247.302 337.13 247.807 337.489 248.404C337.848 249.002 338.062 249.674 338.114 250.369C338.114 251.611 337.157 252.079 336.046 251.42L270.19 213.472C269.598 213.104 269.101 212.601 268.74 212.005C268.38 211.409 268.164 210.737 268.112 210.043C268.131 208.829 269.06 208.332 270.19 208.992Z" fill="#E0E0E0"/>
<path d="M270.19 222.443L336.065 260.42C336.655 260.79 337.149 261.293 337.508 261.889C337.868 262.485 338.082 263.156 338.133 263.849C338.133 265.091 337.176 265.56 336.065 264.9L270.19 226.924C269.597 226.554 269.099 226.05 268.738 225.453C268.377 224.855 268.163 224.181 268.112 223.485C268.131 222.252 269.06 221.784 270.19 222.443Z" fill="#E0E0E0"/>
<path d="M270.19 235.885L336.065 273.795C336.655 274.165 337.149 274.668 337.508 275.264C337.868 275.86 338.082 276.531 338.133 277.225C338.133 278.467 337.176 278.935 336.065 278.276L270.19 240.357C269.597 239.987 269.099 239.483 268.738 238.885C268.377 238.288 268.163 237.613 268.112 236.917C268.131 235.694 269.06 235.226 270.19 235.885Z" fill="#E0E0E0"/>
<path d="M270.19 249.328L336.046 287.266C336.637 287.637 337.132 288.142 337.491 288.739C337.851 289.337 338.064 290.01 338.114 290.705C338.114 291.938 337.157 292.406 336.046 291.746L270.19 253.808C269.598 253.44 269.101 252.937 268.74 252.341C268.38 251.745 268.164 251.073 268.112 250.379C268.131 249.137 269.06 248.668 270.19 249.328Z" fill="#E0E0E0"/>
<path d="M270.19 262.77L336.046 300.708C336.637 301.079 337.132 301.584 337.491 302.181C337.851 302.779 338.064 303.452 338.114 304.147C338.114 305.38 337.157 305.848 336.046 305.189L270.19 267.251C269.598 266.882 269.101 266.379 268.74 265.783C268.38 265.187 268.164 264.515 268.112 263.821C268.131 262.579 269.06 262.111 270.19 262.77Z" fill="#E0E0E0"/>
<path d="M270.19 276.212L336.046 314.15C336.637 314.521 337.132 315.026 337.491 315.624C337.851 316.221 338.064 316.894 338.114 317.589C338.114 318.831 337.157 319.3 336.046 318.64L270.19 280.693C269.598 280.324 269.101 279.821 268.74 279.225C268.38 278.63 268.164 277.957 268.112 277.263C268.131 276.021 269.06 275.553 270.19 276.212Z" fill="#E0E0E0"/>
<path d="M270.19 289.664L336.046 327.602C336.636 327.972 337.13 328.475 337.489 329.071C337.848 329.667 338.062 330.338 338.114 331.032C338.114 332.274 337.157 332.742 336.046 332.083L270.19 294.144C269.597 293.775 269.099 293.271 268.738 292.673C268.377 292.075 268.163 291.401 268.112 290.705C268.131 289.473 269.06 289.005 270.19 289.664Z" fill="#E0E0E0"/>
<path d="M330.36 360.161L311.356 257.2C311 255.744 310.103 254.478 308.848 253.656L192.443 186.588C191.304 185.929 190.528 186.454 190.806 187.744L209.379 288.355C209.736 289.81 210.632 291.077 211.887 291.899L330.36 360.161Z" fill="#0EA362"/>
<path d="M186.47 234.835V301.711C186.509 302.429 186.717 303.128 187.078 303.751C187.439 304.373 187.943 304.902 188.547 305.294L234.95 332.044C235.55 332.42 236.242 332.625 236.95 332.638C237.658 332.651 238.357 332.471 238.97 332.117C239.584 331.763 240.089 331.25 240.431 330.631C240.774 330.012 240.941 329.311 240.914 328.605V261.719C240.875 261.002 240.667 260.304 240.308 259.682C239.949 259.06 239.448 258.53 238.847 258.136L192.434 231.386C191.835 231.011 191.144 230.805 190.437 230.792C189.729 230.779 189.031 230.958 188.418 231.311C187.805 231.663 187.3 232.176 186.957 232.793C186.613 233.411 186.445 234.11 186.47 234.816V234.835Z" fill="#455A64"/>
<path d="M240.914 295.186V261.748C240.89 261.029 240.682 260.329 240.311 259.713L234.471 263.076V331.863L234.95 332.14C235.568 332.466 236.254 332.642 236.952 332.653C237.651 332.665 238.343 332.512 238.971 332.207C239.543 331.813 240.015 331.291 240.347 330.681C240.68 330.072 240.864 329.394 240.885 328.7L240.914 295.186Z" fill="#263238"/>
<path d="M188.547 233.669L234.95 260.42C235.555 260.811 236.058 261.34 236.419 261.962C236.78 262.585 236.989 263.284 237.028 264.002V330.926C237.028 332.245 236.07 332.78 234.95 332.121L188.547 305.37C187.943 304.978 187.439 304.45 187.078 303.827C186.717 303.204 186.509 302.506 186.47 301.787V234.911C186.47 233.516 187.398 232.981 188.547 233.669Z" fill="#37474F"/>
<path d="M192.434 240.357L231.063 262.607C231.667 263 232.169 263.529 232.53 264.152C232.891 264.774 233.1 265.472 233.141 266.19V315.191C233.141 316.51 232.183 317.045 231.063 316.386L192.434 294.125C191.829 293.734 191.326 293.205 190.965 292.582C190.604 291.96 190.396 291.261 190.356 290.543V241.56C190.356 240.242 191.285 239.707 192.434 240.357Z" fill="white"/>
<path d="M199.71 251.821C201.046 252.692 202.157 253.864 202.954 255.244C203.751 256.623 204.211 258.17 204.296 259.76C204.296 262.684 202.247 263.869 199.71 262.407C198.373 261.537 197.26 260.365 196.462 258.985C195.663 257.606 195.202 256.058 195.115 254.468C195.115 251.525 197.173 250.34 199.71 251.821Z" fill="#0EA362"/>
<path d="M219.326 269.219L209.752 283.263L202.524 272.391C202.309 271.989 201.994 271.65 201.608 271.407C201.222 271.164 200.78 271.025 200.325 271.004C199.869 270.983 199.416 271.08 199.009 271.286C198.603 271.493 198.257 271.801 198.006 272.18L190.347 281.734V290.543C190.386 291.261 190.594 291.96 190.955 292.582C191.316 293.205 191.82 293.734 192.424 294.125L231.053 316.386C232.202 317.045 233.131 316.51 233.131 315.191V290.705L223.098 269.515C222.207 267.604 220.513 267.47 219.326 269.219Z" fill="#0EA362"/>
<path opacity="0.2" d="M219.326 269.219L209.752 283.263L202.524 272.391C202.309 271.989 201.994 271.65 201.608 271.407C201.222 271.164 200.78 271.025 200.325 271.004C199.869 270.983 199.416 271.08 199.009 271.286C198.603 271.493 198.257 271.801 198.006 272.18L190.347 281.734V290.543C190.386 291.261 190.594 291.96 190.955 292.582C191.316 293.205 191.82 293.734 192.424 294.125L231.053 316.386C232.202 317.045 233.131 316.51 233.131 315.191V290.705L223.098 269.515C222.207 267.604 220.513 267.47 219.326 269.219Z" fill="black"/>
<path d="M40.3479 222.529C55.2702 213.552 67.6142 200.878 76.1823 185.738C84.7504 170.597 89.2517 153.504 89.2496 136.116V102.181C89.2496 101.13 89.9964 100.7 90.9059 101.225L177.068 150.847C177.549 151.163 177.95 151.586 178.237 152.084C178.525 152.582 178.692 153.14 178.724 153.714V187.649C178.714 204.959 174.241 221.976 165.736 237.063C157.23 252.15 144.978 264.8 130.157 273.795C129.545 274.158 128.845 274.35 128.133 274.35C127.42 274.35 126.72 274.158 126.108 273.795L40.3575 224.459C40.1566 224.39 39.9822 224.261 39.8584 224.088C39.7346 223.916 39.6676 223.71 39.6665 223.498C39.6655 223.286 39.7305 223.079 39.8526 222.905C39.9746 222.732 40.1477 222.6 40.3479 222.529Z" fill="white"/>
<path d="M128.128 274.884C127.334 274.885 126.554 274.674 125.869 274.273L40.1183 224.87C39.8461 224.757 39.6136 224.566 39.45 224.321C39.2865 224.076 39.1992 223.789 39.1992 223.494C39.1992 223.2 39.2865 222.913 39.45 222.668C39.6136 222.423 39.8461 222.232 40.1183 222.119C54.9324 213.148 67.1884 200.529 75.7112 185.472C84.234 170.416 88.7376 153.427 88.7902 136.135V102.181C88.769 101.891 88.8252 101.602 88.953 101.342C89.0809 101.082 89.2758 100.86 89.5178 100.7C89.7771 100.569 90.0671 100.51 90.357 100.53C90.6469 100.55 90.926 100.649 91.1645 100.814L177.326 150.437C177.885 150.79 178.35 151.272 178.683 151.843C179.017 152.413 179.208 153.054 179.241 153.714V187.649C179.179 205.04 174.66 222.126 166.115 237.283C157.569 252.44 145.28 265.164 130.416 274.244C129.728 274.667 128.936 274.889 128.128 274.884ZM40.597 222.94C40.3098 223.112 40.147 223.313 40.147 223.504C40.147 223.695 40.3098 223.877 40.597 224.039L126.347 273.451C126.887 273.768 127.502 273.935 128.128 273.935C128.754 273.935 129.369 273.768 129.909 273.451C144.622 264.449 156.784 251.842 165.239 236.827C173.694 221.813 178.162 204.89 178.217 187.668V153.714C178.185 153.223 178.041 152.747 177.795 152.321C177.55 151.895 177.209 151.532 176.8 151.258L90.6379 101.636C90.5411 101.562 90.4277 101.513 90.3075 101.493C90.1874 101.473 90.0642 101.483 89.9486 101.521C89.8552 101.602 89.7834 101.704 89.74 101.819C89.6965 101.934 89.6826 102.059 89.6997 102.181V136.116C89.6467 153.575 85.1009 170.729 76.4979 185.932C67.8949 201.135 55.5231 213.878 40.5682 222.94H40.597Z" fill="#E0E0E0"/>
<path d="M141.904 144.036L164.986 157.335C165.576 157.705 166.07 158.208 166.429 158.804C166.788 159.4 167.002 160.071 167.054 160.764C167.054 162.006 166.097 162.474 164.986 161.815L141.904 148.516C141.314 148.145 140.819 147.64 140.459 147.043C140.1 146.445 139.887 145.772 139.837 145.077C139.808 143.864 140.737 143.376 141.904 144.036Z" fill="#E0E0E0"/>
<path d="M128.138 156.284C128.138 157.516 127.18 157.984 126.06 157.325L102.988 144.036C102.398 143.665 101.904 143.162 101.545 142.566C101.186 141.971 100.972 141.299 100.92 140.606C100.92 139.364 101.877 138.896 102.988 139.555L126.06 152.844C126.653 153.214 127.15 153.718 127.511 154.316C127.872 154.913 128.087 155.588 128.138 156.284Z" fill="#E0E0E0"/>
<path d="M165.896 195.951C165.723 197.088 164.632 197.47 163.483 196.811L101.533 161.118C100.97 160.788 100.509 160.309 100.201 159.734C99.8939 159.159 99.7517 158.51 99.7904 157.86C99.9627 156.723 101.006 156.331 102.146 156.991L164.115 192.693C164.683 193.02 165.15 193.498 165.464 194.072C165.778 194.647 165.927 195.297 165.896 195.951Z" fill="#E0E0E0"/>
<path d="M163.339 207.931C163.033 208.992 161.846 209.317 160.697 208.657L98.7466 172.955C98.202 172.656 97.7639 172.196 97.4929 171.638C97.2219 171.08 97.1314 170.452 97.234 169.84C97.5308 168.77 98.6796 168.436 99.8188 169.095L161.779 204.798C162.331 205.096 162.777 205.557 163.057 206.118C163.336 206.679 163.435 207.312 163.339 207.931Z" fill="#E0E0E0"/>
<path d="M159.481 219.147C159.07 220.151 157.796 220.418 156.609 219.759L94.6493 184.066C94.1172 183.794 93.6963 183.347 93.4587 182.799C93.2212 182.252 93.1818 181.639 93.3473 181.066C93.4696 180.822 93.6446 180.609 93.8596 180.44C94.0747 180.272 94.3244 180.154 94.5908 180.093C94.8573 180.033 95.1338 180.032 95.4005 180.092C95.6672 180.151 95.9175 180.268 96.1332 180.436L158.179 216.138C158.709 216.415 159.126 216.865 159.363 217.413C159.6 217.961 159.642 218.573 159.481 219.147Z" fill="#E0E0E0"/>
<path d="M154.427 229.685C154.087 230.149 153.578 230.461 153.01 230.552C152.441 230.644 151.86 230.507 151.392 230.172L89.4413 194.499C88.9241 194.253 88.5209 193.819 88.3143 193.286C88.1078 192.753 88.1137 192.161 88.3308 191.632C88.4913 191.401 88.6965 191.204 88.9343 191.052C89.1721 190.901 89.4378 190.798 89.7159 190.75C89.9939 190.702 90.2787 190.709 90.5538 190.772C90.8288 190.835 91.0885 190.952 91.3177 191.117L153.278 226.81C153.799 227.054 154.208 227.487 154.422 228.021C154.635 228.555 154.637 229.15 154.427 229.685Z" fill="#E0E0E0"/>
<path d="M118.65 226.981C118.227 227.409 117.668 227.676 117.07 227.739C116.471 227.802 115.869 227.656 115.366 227.325L80.6334 207.329C80.3862 207.218 80.1655 207.056 79.9857 206.854C79.806 206.651 79.6714 206.413 79.5909 206.155C79.5103 205.896 79.4857 205.624 79.5185 205.355C79.5513 205.087 79.6409 204.828 79.7814 204.597C80.1953 204.166 80.7472 203.893 81.3415 203.825C81.9359 203.757 82.5354 203.898 83.0364 204.224L117.779 224.287C118.928 224.908 119.32 226.15 118.65 226.981Z" fill="#E0E0E0"/>
<path d="M105.965 245.525C105.965 245.525 87.7754 257.506 65.9189 258.337C70.3706 260.907 80.4133 261.968 88.1679 260.907C88.1679 260.907 87.0861 265.407 79.2645 271.158C79.2645 271.158 91.9973 274.588 114.869 250.646L105.965 245.525Z" fill="#0EA362"/>
<path d="M125.208 250.025C121.312 253.981 113.452 254.315 108.081 251.22C102.71 248.124 101.868 242.784 105.764 238.8C109.661 234.816 116.803 233.813 122.173 236.889C127.544 239.965 129.105 246.089 125.208 250.025Z" fill="#0EA362"/>
<path opacity="0.2" d="M125.208 250.025C121.312 253.981 113.452 254.315 108.081 251.22C102.71 248.124 101.868 242.784 105.764 238.8C109.661 234.816 116.803 233.813 122.173 236.889C127.544 239.965 129.105 246.089 125.208 250.025Z" fill="black"/>
<path d="M125.208 248.831C121.312 252.786 113.452 253.111 108.081 250.025C102.71 246.939 101.868 241.58 105.764 237.605C109.661 233.631 116.803 232.609 122.173 235.695C127.544 238.78 129.105 244.876 125.208 248.831Z" fill="#0EA362"/>
<path d="M116.18 249.232C113.837 249.257 111.528 248.674 109.479 247.541C107.564 246.443 106.415 245.01 106.214 243.49C106.165 242.778 106.28 242.063 106.548 241.401C106.817 240.739 107.233 240.147 107.765 239.669C109.772 237.777 112.444 236.748 115.204 236.803C117.129 236.786 119.025 237.277 120.699 238.226C121.648 238.71 122.476 239.4 123.121 240.247C123.766 241.094 124.211 242.075 124.423 243.118C124.517 243.796 124.449 244.487 124.222 245.133C123.996 245.779 123.618 246.363 123.121 246.834C121.207 248.502 118.718 249.362 116.18 249.232Z" fill="#0EA362"/>
<path opacity="0.3" d="M116.18 249.232C113.837 249.257 111.528 248.674 109.479 247.541C107.564 246.443 106.415 245.01 106.214 243.49C106.165 242.778 106.28 242.063 106.548 241.401C106.817 240.739 107.233 240.147 107.765 239.669C109.772 237.777 112.444 236.748 115.204 236.803C117.129 236.786 119.025 237.277 120.699 238.226C121.648 238.71 122.476 239.4 123.121 240.247C123.766 241.094 124.211 242.075 124.423 243.118C124.517 243.796 124.449 244.487 124.222 245.133C123.996 245.779 123.618 246.363 123.121 246.834C121.207 248.502 118.718 249.362 116.18 249.232Z" fill="black"/>
<path d="M120.737 239.401C119.061 238.456 117.167 237.966 115.242 237.978C112.482 237.923 109.81 238.953 107.803 240.844C107.029 241.588 106.496 242.546 106.271 243.596C106.489 244.451 106.893 245.247 107.454 245.929C108.014 246.611 108.719 247.162 109.517 247.541C111.566 248.674 113.876 249.257 116.218 249.232C118.77 249.369 121.275 248.505 123.198 246.825C123.9 246.144 124.357 245.25 124.5 244.283C124.279 243.24 123.826 242.26 123.175 241.415C122.524 240.57 121.691 239.882 120.737 239.401Z" fill="#0EA362"/>
<path opacity="0.2" d="M120.737 239.401C119.061 238.456 117.167 237.966 115.242 237.978C112.482 237.923 109.81 238.953 107.803 240.844C107.029 241.588 106.496 242.546 106.271 243.596C106.489 244.451 106.893 245.247 107.454 245.929C108.014 246.611 108.719 247.162 109.517 247.541C111.566 248.674 113.876 249.257 116.218 249.232C118.77 249.369 121.275 248.505 123.198 246.825C123.9 246.144 124.357 245.25 124.5 244.283C124.279 243.24 123.826 242.26 123.175 241.415C122.524 240.57 121.691 239.882 120.737 239.401Z" fill="black"/>
<path d="M160.981 219.515C161.962 215.665 159.629 211.75 155.77 210.771C151.911 209.792 147.988 212.121 147.008 215.971C146.027 219.822 148.36 223.737 152.219 224.716C156.077 225.694 160 223.366 160.981 219.515Z" fill="#263238"/>
<path d="M171.266 339.458H166.192V348.133H171.266V339.458Z" fill="#FFA8A7"/>
<path d="M153.67 338.999L148.596 339.171L148.338 329.99L153.67 329.818V338.999Z" fill="#FFA8A7"/>
<path d="M170.931 265.139C170.931 269.973 171.563 304.864 171.563 304.864C171.678 306.259 172.99 308.829 172.702 314.169C172.319 321.43 171.486 343.786 171.486 343.786C170.608 344.214 169.647 344.446 168.669 344.464C167.692 344.482 166.722 344.286 165.828 343.891C165.828 343.891 161.358 314.188 160.439 306.994C159.654 300.708 158.304 283.645 158.304 283.645L155.556 304.157C156.139 306.796 156.348 309.504 156.178 312.201C155.939 315.535 153.986 336.143 153.986 336.143C153.102 336.641 152.119 336.939 151.106 337.017C150.094 337.094 149.077 336.949 148.127 336.592C148.127 336.592 145.561 307.205 145.504 304.157C145.437 300.67 147.189 265.13 147.189 265.13L170.931 265.139Z" fill="#37474F"/>
<path d="M168.768 237.653C168.768 237.653 170.683 238.799 170.683 243.385V253.312L170.826 272.047C167.051 274.119 162.76 275.07 158.461 274.785C154.162 274.501 150.035 272.993 146.567 270.441C146.567 270.441 146.94 246.356 146.94 242.411C146.94 238.465 149.142 233.335 155.212 232.981L163.043 234.796L168.768 237.653Z" fill="white"/>
<path d="M146.95 258.366C149.305 248.497 150.08 238.628 150.482 236.086L143.963 246.481C143.963 246.481 142.517 254.554 141.78 258.834C140.813 263.431 139.455 267.938 137.721 272.305C137.248 272.946 136.619 273.456 135.892 273.785C134.757 274.402 133.721 275.184 132.819 276.107C131.977 276.814 131.306 276.938 131.373 277.196C131.486 277.491 131.707 277.733 131.991 277.871C132.276 278.01 132.603 278.035 132.905 277.941C133.572 277.76 134.215 277.5 134.82 277.167C134.239 278.278 133.482 279.287 132.58 280.158C130.531 282.155 130.292 283.502 133.93 283.979C136.208 284.256 138.19 283.024 140.478 278.247C141.358 276.488 142.11 274.668 142.728 272.801C144.192 267.9 146.241 261.375 146.95 258.366Z" fill="#FFA8A7"/>
<path d="M152.177 233C149.984 232.647 148.472 232.838 146.969 234.452C146.011 235.465 145.054 237.147 143.407 247.255C141.981 256.044 137.912 270.556 137.912 270.556C138.596 271.324 139.461 271.909 140.429 272.258C141.397 272.607 142.438 272.708 143.455 272.553L150.616 246.27L152.177 233Z" fill="#37474F"/>
<path d="M155.46 233.421C153.783 234.827 152.568 236.704 151.976 238.809C151.229 242.029 151.104 277.922 151.104 277.922C151.104 277.922 147.275 277.215 145.504 275.82V243.013C145.504 238.312 146.557 231.166 155.46 233.421Z" fill="#37474F"/>
<path d="M163.292 235.236C163.292 235.236 159.041 239.64 158.945 250.388C158.85 261.136 158.677 280.005 158.677 280.005C158.677 280.005 166.164 281.524 171.506 278.343C171.506 278.343 170.903 251.42 170.797 247.379C170.682 242.755 172.032 238.828 169.428 237.529C167.45 236.596 165.397 235.829 163.292 235.236Z" fill="#37474F"/>
<path d="M166.47 222.892C166.038 225.044 165.492 227.171 164.833 229.265C164.52 229.819 164.006 230.232 163.397 230.421L163.474 226.599L166.47 222.892Z" fill="#263238"/>
<path d="M165.005 215.049C165.412 215 165.825 215.045 166.212 215.181C166.599 215.317 166.949 215.54 167.236 215.832C168.193 216.788 167.667 219.883 166.47 222.892L164.268 223.141L165.005 215.049Z" fill="#263238"/>
<path d="M163.608 223.16C164.048 223.427 164.68 222.577 165.226 222.013C165.439 221.771 165.711 221.587 166.016 221.479C166.32 221.37 166.648 221.34 166.967 221.391C167.286 221.443 167.587 221.574 167.842 221.773C168.096 221.972 168.296 222.232 168.423 222.529C169.38 224.44 167.648 226.934 166.25 227.373C163.837 228.128 163.474 226.59 163.474 226.59L163.292 235.255L154.944 240.748C154.65 238.825 154.824 236.859 155.451 235.016V232.379C154.378 232.552 153.29 232.61 152.205 232.551C150.434 232.274 149.333 230.879 148.778 228.969C147.917 225.892 147.591 223.408 148.319 217.361C149.123 210.74 156.849 210.673 161.013 213.291C165.178 215.909 163.608 223.16 163.608 223.16Z" fill="#FFA8A7"/>
<path d="M154.944 240.729L163.321 233.927V232.838C163.321 232.838 165.235 233.22 165.523 235.933L160.439 243.662L158.285 239.64L154.944 240.729Z" fill="#F0F0F0"/>
<path d="M155.46 232.37C154.945 232.444 154.449 232.62 154.001 232.887C153.554 233.154 153.165 233.508 152.856 233.927C152.062 235.245 150.616 240.729 150.616 240.729L153.316 238.647L154.943 240.729C154.789 238.804 154.96 236.866 155.451 234.997L155.46 232.37Z" fill="#F0F0F0"/>
<path d="M163.608 223.886C163.828 223.886 164.67 222.491 165.226 221.975C165.982 221.278 165.006 215.03 165.006 215.03C165.205 214.488 165.241 213.9 165.11 213.339C164.979 212.777 164.686 212.266 164.268 211.867C163.225 210.721 161.482 210.587 158.524 210.129C156.964 209.88 154.599 209.441 153.048 209.173C151.133 208.829 149.65 208.466 148.328 209.603C147.817 210.051 147.455 210.645 147.292 211.304C147.129 211.964 147.174 212.657 147.419 213.291C147.554 213.577 147.731 213.841 147.945 214.074C148.297 214.508 148.761 214.838 149.286 215.03C149.286 215.03 150.1 215.746 152.924 216.09C155.527 216.287 158.143 216.236 160.736 215.937C161.559 215.832 161.693 216.616 162.172 218.803C162.545 220.647 162.861 223.867 163.608 223.886Z" fill="#263238"/>
<path d="M164.996 215.517L167.667 214.084C167.581 213.905 167.461 213.745 167.312 213.613C167.163 213.482 166.988 213.382 166.8 213.319C166.611 213.257 166.412 213.233 166.214 213.25C166.015 213.266 165.823 213.322 165.647 213.415C165.291 213.617 165.025 213.947 164.904 214.337C164.783 214.728 164.816 215.15 164.996 215.517Z" fill="#263238"/>
<path d="M155.46 232.37C157.284 232.025 159.073 231.513 160.802 230.841C161.621 230.414 162.289 229.747 162.717 228.93C162.508 229.737 162.14 230.493 161.635 231.156C160.621 232.446 155.47 233.392 155.47 233.392L155.46 232.37Z" fill="#F28F8F"/>
<path d="M156.408 222.205C156.408 222.415 156.492 222.617 156.641 222.765C156.79 222.914 156.992 222.997 157.203 222.997C157.414 222.997 157.616 222.914 157.765 222.765C157.914 222.617 157.997 222.415 157.997 222.205C157.997 221.994 157.914 221.793 157.765 221.644C157.616 221.495 157.414 221.412 157.203 221.412C156.992 221.412 156.79 221.495 156.641 221.644C156.492 221.793 156.408 221.994 156.408 222.205Z" fill="#263238"/>
<path d="M157.222 219.166L158.917 220.122C159.038 219.89 159.065 219.621 158.992 219.369C158.919 219.118 158.751 218.905 158.524 218.775C158.413 218.715 158.291 218.677 158.165 218.664C158.04 218.651 157.912 218.663 157.791 218.7C157.67 218.736 157.558 218.796 157.46 218.876C157.362 218.956 157.281 219.055 157.222 219.166Z" fill="#263238"/>
<path d="M155.814 227.622L154.015 228.3C154.056 228.42 154.12 228.53 154.204 228.625C154.288 228.719 154.389 228.796 154.503 228.851C154.617 228.906 154.741 228.938 154.868 228.945C154.994 228.952 155.121 228.934 155.24 228.892C155.364 228.85 155.478 228.783 155.575 228.695C155.672 228.607 155.749 228.5 155.803 228.381C155.857 228.262 155.886 228.133 155.888 228.003C155.89 227.872 155.865 227.742 155.814 227.622Z" fill="#F28F8F"/>
<path d="M149.343 219.826L150.894 218.641C150.82 218.538 150.726 218.45 150.618 218.384C150.509 218.317 150.389 218.273 150.263 218.253C150.138 218.234 150.009 218.239 149.886 218.27C149.762 218.3 149.646 218.355 149.544 218.431C149.34 218.595 149.205 218.83 149.168 219.089C149.13 219.348 149.193 219.611 149.343 219.826Z" fill="#263238"/>
<path d="M149.822 221.928C149.828 222.083 149.879 222.233 149.97 222.36C150.06 222.487 150.186 222.584 150.332 222.639C150.478 222.695 150.636 222.707 150.788 222.673C150.941 222.639 151.08 222.561 151.188 222.45C151.296 222.338 151.369 222.196 151.397 222.043C151.426 221.89 151.408 221.732 151.348 221.589C151.287 221.446 151.185 221.324 151.055 221.238C150.925 221.152 150.773 221.106 150.617 221.106C150.51 221.107 150.405 221.129 150.307 221.172C150.21 221.214 150.121 221.275 150.047 221.351C149.973 221.427 149.915 221.518 149.877 221.617C149.838 221.716 149.819 221.821 149.822 221.928Z" fill="#263238"/>
<path d="M153.861 221.182L153.593 225.94L151.114 225.09L153.861 221.182Z" fill="#F28F8F"/>
<path d="M166.193 345.63V344.904C165.704 345.114 164.575 349.413 162.564 351.247C160.965 352.7 158.735 354.391 158.218 356.024C157.701 357.658 161.262 358.642 162.756 358.375C164.498 358.069 167.542 356.846 168.27 355.719C168.998 354.591 169.381 352.919 169.993 352.088C170.606 351.257 172.023 350.33 172.358 349.365C172.457 348.469 172.355 347.562 172.061 346.709C171.831 345.811 171.573 344.799 171.267 344.913V345.448C170.545 346.017 169.649 346.321 168.73 346.308C167.983 346.337 166.183 346.194 166.193 345.63Z" fill="#263238"/>
<path d="M148.539 337.605C148.28 337.605 148.06 337.987 147.486 338.617C146.614 339.489 145.605 340.212 144.499 340.757C142.584 341.713 138.898 343.165 137.223 343.92C136.179 344.388 136.265 345.649 137.309 346.365C138.353 347.082 140.995 347.598 144.125 346.9C145.839 346.518 148.051 344.99 149.458 345.037C150.865 345.085 153.498 345.095 154.532 344.388C155.566 343.681 155.154 342.143 154.857 340.834C154.561 339.525 154.139 337.184 153.67 337.28V337.805C153.057 338.761 149.908 339.105 148.567 338.426L148.539 337.605Z" fill="#263238"/>
<path d="M158.304 283.654C155.68 282.841 153.268 281.461 151.239 279.613C151.239 279.613 152.598 282.164 156.657 284.533L155.786 302.456L158.304 283.654Z" fill="#263238"/>
<path d="M157.394 239.936C157.107 239.249 156.111 238.933 155.173 238.914C154.98 238.911 154.789 238.948 154.611 239.021C154.433 239.095 154.272 239.204 154.138 239.341C154.003 239.479 153.898 239.643 153.83 239.822C153.761 240.002 153.729 240.193 153.737 240.385C153.753 241.171 153.919 241.945 154.225 242.669C154.933 242.511 155.673 242.577 156.341 242.86C156.917 241.981 157.278 240.98 157.394 239.936Z" fill="#263238"/>
<path d="M154.225 242.669C154.225 242.669 152.464 257.124 152.502 257.955C152.54 258.786 154.35 263.811 155.278 263.811C156.207 263.811 157.997 259.311 158.045 258.604C158.093 257.897 156.341 242.841 156.341 242.841C156.052 242.593 155.691 242.443 155.311 242.413C154.931 242.382 154.551 242.471 154.225 242.669Z" fill="#263238"/>
<path d="M166.049 320.866L162.325 318.698C162.129 318.571 161.965 318.398 161.849 318.196C161.732 317.993 161.666 317.766 161.655 317.532V296.476C161.667 296.241 161.733 296.013 161.85 295.808C161.966 295.604 162.129 295.43 162.325 295.301L187.59 280.75C187.8 280.642 188.033 280.586 188.269 280.586C188.506 280.586 188.739 280.642 188.949 280.75L192.664 282.89C192.861 283.017 193.026 283.189 193.144 283.391C193.262 283.594 193.33 283.822 193.343 284.056V305.141C193.323 305.371 193.249 305.594 193.127 305.791C193.006 305.988 192.841 306.155 192.644 306.278L167.38 320.838C167.175 320.943 166.948 321 166.718 321.005C166.487 321.01 166.259 320.963 166.049 320.866Z" fill="#0EA362"/>
<path d="M161.655 296.476C161.663 296.241 161.729 296.011 161.846 295.807L167.361 298.979V320.886C167.156 320.982 166.932 321.033 166.705 321.033C166.478 321.033 166.254 320.982 166.049 320.886L162.325 318.698C162.129 318.571 161.965 318.398 161.849 318.196C161.732 317.993 161.666 317.766 161.655 317.532V296.476Z" fill="#F28F8F"/>
<path d="M161.655 296.476C161.663 296.241 161.729 296.011 161.846 295.807L167.361 298.979V320.886C167.156 320.982 166.932 321.033 166.705 321.033C166.478 321.033 166.254 320.982 166.049 320.886L162.325 318.698C162.129 318.571 161.965 318.398 161.849 318.196C161.732 317.993 161.666 317.766 161.655 317.532V296.476Z" fill="#0EA362"/>
<path opacity="0.2" d="M161.655 296.476C161.663 296.241 161.729 296.011 161.846 295.807L167.361 298.979V320.886C167.156 320.982 166.932 321.033 166.705 321.033C166.478 321.033 166.254 320.982 166.049 320.886L162.325 318.698C162.129 318.571 161.965 318.398 161.849 318.196C161.732 317.993 161.666 317.766 161.655 317.532V296.476Z" fill="black"/>
<path d="M167.399 298.224L192.644 283.664C193.017 283.454 193.324 283.664 193.324 284.056V305.141C193.305 305.37 193.234 305.591 193.116 305.788C192.999 305.985 192.837 306.153 192.644 306.278L167.379 320.838C167.006 321.048 166.7 320.838 166.7 320.446V299.389C166.716 299.154 166.788 298.926 166.909 298.723C167.031 298.521 167.198 298.35 167.399 298.224Z" fill="#0EA362"/>
<path d="M165.177 296.944C164.981 297.074 164.819 297.248 164.702 297.452C164.586 297.656 164.519 297.884 164.507 298.119V319.978L163.923 319.653V297.746C163.936 297.513 164.003 297.286 164.119 297.084C164.236 296.881 164.398 296.709 164.593 296.581L190.538 281.639L191.17 282.002L165.177 296.944Z" fill="#0EA362"/>
<path opacity="0.3" d="M165.177 296.944C164.981 297.074 164.819 297.248 164.702 297.452C164.586 297.656 164.519 297.884 164.507 298.119V319.978L163.923 319.653V297.746C163.936 297.513 164.003 297.286 164.119 297.084C164.236 296.881 164.398 296.709 164.593 296.581L190.538 281.639L191.17 282.002L165.177 296.944Z" fill="black"/>
<path d="M164.546 296.581L190.395 281.658L191.055 282.011L165.13 296.944C164.934 297.074 164.77 297.247 164.651 297.45L164.02 297.087C164.149 296.876 164.33 296.702 164.546 296.581Z" fill="#0EA362"/>
<path opacity="0.2" d="M164.546 296.581L190.395 281.658L191.055 282.011L165.13 296.944C164.934 297.074 164.77 297.247 164.651 297.45L164.02 297.087C164.149 296.876 164.33 296.702 164.546 296.581Z" fill="black"/>
<path d="M168.471 293.227L168.921 292.969C169.025 292.917 169.139 292.89 169.256 292.89C169.372 292.89 169.487 292.917 169.591 292.969L171.305 293.925L171.592 293.839V294.202C171.588 294.244 171.574 294.284 171.551 294.319C171.527 294.355 171.495 294.383 171.458 294.402L170.864 294.737C170.76 294.793 170.643 294.822 170.524 294.822C170.406 294.822 170.289 294.793 170.184 294.737L168.327 293.667C168.288 293.651 168.254 293.625 168.228 293.591C168.203 293.558 168.188 293.518 168.184 293.476V293.113L168.471 293.227Z" fill="#0EA362"/>
<path opacity="0.2" d="M168.471 293.227L168.921 292.969C169.025 292.917 169.139 292.89 169.256 292.89C169.372 292.89 169.487 292.917 169.591 292.969L171.305 293.925L171.592 293.839V294.202C171.588 294.244 171.574 294.284 171.551 294.319C171.527 294.355 171.495 294.383 171.458 294.402L170.864 294.737C170.76 294.793 170.643 294.822 170.524 294.822C170.406 294.822 170.289 294.793 170.184 294.737L168.327 293.667C168.288 293.651 168.254 293.625 168.228 293.591C168.203 293.558 168.188 293.518 168.184 293.476V293.113L168.471 293.227Z" fill="black"/>
<path d="M168.328 292.903L168.921 292.568C169.024 292.512 169.139 292.483 169.256 292.483C169.373 292.483 169.488 292.512 169.591 292.568L171.506 293.638C171.547 293.651 171.582 293.677 171.607 293.711C171.632 293.745 171.646 293.787 171.646 293.829C171.646 293.872 171.632 293.913 171.607 293.948C171.582 293.982 171.547 294.007 171.506 294.02L170.912 294.364C170.807 294.416 170.69 294.443 170.573 294.443C170.455 294.443 170.339 294.416 170.233 294.364L168.375 293.294C168.333 293.284 168.295 293.262 168.267 293.23C168.238 293.198 168.22 293.158 168.214 293.115C168.209 293.072 168.217 293.029 168.237 292.991C168.258 292.953 168.289 292.922 168.328 292.903Z" fill="#0EA362"/>
<path d="M182.831 285.584L183.281 285.326C183.385 285.274 183.5 285.247 183.616 285.247C183.733 285.247 183.847 285.274 183.951 285.326L185.665 286.282L185.952 286.196V286.559C185.949 286.601 185.935 286.641 185.911 286.676C185.888 286.712 185.856 286.74 185.818 286.759L185.225 287.094C185.12 287.15 185.003 287.179 184.885 287.179C184.766 287.179 184.649 287.15 184.545 287.094L182.688 286.024C182.648 286.008 182.614 285.982 182.589 285.948C182.564 285.915 182.548 285.875 182.544 285.833V285.47L182.831 285.584Z" fill="#0EA362"/>
<path opacity="0.2" d="M182.831 285.584L183.281 285.326C183.385 285.274 183.5 285.247 183.616 285.247C183.733 285.247 183.847 285.274 183.951 285.326L185.665 286.282L185.952 286.196V286.559C185.949 286.601 185.935 286.641 185.911 286.676C185.888 286.712 185.856 286.74 185.818 286.759L185.225 287.094C185.12 287.15 185.003 287.179 184.885 287.179C184.766 287.179 184.649 287.15 184.545 287.094L182.688 286.024C182.648 286.008 182.614 285.982 182.589 285.948C182.564 285.915 182.548 285.875 182.544 285.833V285.47L182.831 285.584Z" fill="black"/>
<path d="M182.688 285.26L183.281 284.925C183.384 284.869 183.499 284.84 183.617 284.84C183.734 284.84 183.849 284.869 183.952 284.925L185.866 285.995C185.907 286.008 185.942 286.034 185.967 286.068C185.992 286.102 186.006 286.144 186.006 286.186C186.006 286.229 185.992 286.27 185.967 286.305C185.942 286.339 185.907 286.364 185.866 286.377L185.273 286.721C185.167 286.773 185.051 286.8 184.933 286.8C184.815 286.8 184.699 286.773 184.593 286.721L182.736 285.651C182.694 285.641 182.656 285.619 182.627 285.587C182.598 285.555 182.58 285.515 182.575 285.472C182.57 285.429 182.578 285.386 182.598 285.348C182.618 285.31 182.649 285.279 182.688 285.26Z" fill="#0EA362"/>
<path d="M178.763 284.371V286.568L180.026 287.294V283.96C180.026 283.779 179.912 283.712 179.758 283.798L178.763 284.371Z" fill="#0EA362"/>
<path opacity="0.3" d="M178.763 284.371V286.568L180.026 287.294V283.96C180.026 283.779 179.912 283.712 179.758 283.798L178.763 284.371Z" fill="black"/>
<path d="M172.119 286.702V290.772L173.076 291.317L173.708 290.944V287.61C173.713 287.515 173.741 287.423 173.79 287.342C173.838 287.261 173.905 287.192 173.985 287.142L178.772 284.371L179.73 283.798C179.883 283.712 179.998 283.798 179.998 283.96V287.294L180.639 286.931V282.862C180.644 282.843 180.644 282.823 180.639 282.804C180.625 282.721 180.594 282.642 180.548 282.571C180.502 282.5 180.442 282.44 180.371 282.393L179.969 282.164C179.886 282.121 179.794 282.099 179.701 282.099C179.608 282.099 179.516 282.121 179.433 282.164L172.387 286.215C172.307 286.269 172.241 286.342 172.194 286.426C172.147 286.511 172.122 286.606 172.119 286.702Z" fill="#0EA362"/>
<path d="M173.057 287.237V291.317L173.688 290.944V287.61C173.694 287.515 173.722 287.423 173.77 287.342C173.819 287.26 173.886 287.192 173.966 287.142L178.753 284.371L179.71 283.798C179.863 283.712 179.978 283.798 179.978 283.96V287.294L180.62 286.931V282.861C180.624 282.843 180.624 282.823 180.62 282.804C180.62 282.67 180.486 282.632 180.352 282.709L173.286 286.778C173.217 286.834 173.161 286.903 173.121 286.983C173.081 287.062 173.059 287.149 173.057 287.237Z" fill="#0EA362"/>
<path opacity="0.2" d="M173.057 287.237V291.317L173.688 290.944V287.61C173.694 287.515 173.722 287.423 173.77 287.342C173.819 287.26 173.886 287.192 173.966 287.142L178.753 284.371L179.71 283.798C179.863 283.712 179.978 283.798 179.978 283.96V287.294L180.62 286.931V282.861C180.624 282.843 180.624 282.823 180.62 282.804C180.62 282.67 180.486 282.632 180.352 282.709L173.286 286.778C173.217 286.834 173.161 286.903 173.121 286.983C173.081 287.062 173.059 287.149 173.057 287.237Z" fill="black"/>
<path d="M178.523 277.139C178.523 277.139 178.523 278.4 178.523 278.944C178.879 280.598 179.125 282.274 179.26 283.96C179.394 284.552 178.571 285.728 177.212 286.368C176.628 286.645 175.613 287.581 175.153 287.629C174.732 287.537 174.33 287.372 173.966 287.142L174.541 286.807C174.541 286.807 175.335 285.651 174.464 285.04L172.741 285.995C172.643 285.477 172.643 284.946 172.741 284.428C172.904 283.568 172.923 282.46 173.057 281.562C173.249 280.849 173.574 280.178 174.014 279.584L173.727 276.718L178.523 277.139Z" fill="#FFA8A7"/>
<path d="M167.839 236.793C169.345 237.327 170.782 238.039 172.119 238.914C173.181 239.764 179.385 257.496 179.624 259.092C179.864 260.687 178.945 277.483 178.945 277.483C178.117 278.021 177.164 278.338 176.178 278.401C175.192 278.465 174.206 278.274 173.315 277.846L172.358 261.012L167.016 247.149C167.016 247.149 164.986 241.312 167.839 236.793Z" fill="#37474F"/>
</svg>
