<svg width="405" height="402" viewBox="0 0 405 402" fill="none" xmlns="http://www.w3.org/2000/svg">
<path d="M299.94 18.9152L299.42 19.8817C297.243 23.8367 296.192 28.3111 296.382 32.8197C296.572 37.3283 297.995 41.699 300.496 45.458C301.157 46.4293 301.888 47.3506 302.684 48.2143C305.63 51.3224 309.3 53.6556 313.368 55.0061C317.436 56.3566 321.775 56.6827 326 55.9552C330.968 55.0603 335.909 52.7156 340.85 53.6821C347.271 54.935 351.163 61.1993 354.302 66.8909C357.44 72.5825 361.341 78.8378 367.753 80.0638C371.779 80.8335 375.976 79.3479 379.411 77.0659C388.495 71.0343 393.014 59.5616 392.27 48.8049C391.526 38.0482 386.118 28.0432 378.909 20.0428C368.793 8.8386 354.571 0.909766 339.398 0.0685586C324.224 -0.772649 308.217 6.16284 299.94 18.9152Z" fill="#F5F5F5"/>
<path d="M6.17265 217.557L6.29819 218.451C6.81192 222.089 8.31239 225.518 10.6374 228.367C12.9623 231.215 16.0233 233.375 19.4895 234.613C20.3969 234.928 21.326 235.176 22.2694 235.356C25.7101 235.955 29.2458 235.696 32.5623 234.604C35.8789 233.511 38.8736 231.617 41.2806 229.092C44.0874 226.094 46.1769 222.165 49.8715 220.393C54.6871 218.093 60.2918 220.304 65.1163 222.487C69.9409 224.671 75.5545 226.872 80.3611 224.555C83.3653 223.096 85.3919 220.08 86.5219 216.93C89.517 208.572 86.8716 198.88 81.1413 192.213C75.4111 185.546 66.9636 181.617 58.3458 179.899C46.2755 177.492 33.1112 179.219 22.7626 186.065C12.4141 192.911 5.37454 205.171 6.17265 217.557Z" fill="#F5F5F5"/>
<path d="M386.307 349.018L386.136 348.418C385.487 345.955 384.174 343.716 382.34 341.945C380.507 340.173 378.222 338.936 375.734 338.368C375.084 338.224 374.425 338.128 373.761 338.082C371.346 337.954 368.937 338.423 366.747 339.447C364.557 340.471 362.654 342.019 361.207 343.953C359.521 346.244 358.4 349.116 356.005 350.637C352.876 352.615 348.831 351.532 345.343 350.441C341.855 349.349 337.801 348.266 334.681 350.262C332.789 351.645 331.505 353.703 331.094 356.007C329.713 362.003 332.331 368.464 336.824 372.589C341.317 376.715 347.432 378.711 353.503 379.194C362.014 379.865 370.936 377.601 377.501 372.035C384.065 366.468 387.822 357.475 386.307 349.018Z" fill="#F5F5F5"/>
<path d="M53.8081 347.738C61.7621 347.738 68.21 341.303 68.21 333.366C68.21 325.428 61.7621 318.994 53.8081 318.994C45.8542 318.994 39.4062 325.428 39.4062 333.366C39.4062 341.303 45.8542 347.738 53.8081 347.738Z" fill="#F5F5F5"/>
<path d="M382.146 171.263C390.1 171.263 396.548 164.829 396.548 156.891C396.548 148.954 390.1 142.519 382.146 142.519C374.192 142.519 367.744 148.954 367.744 156.891C367.744 164.829 374.192 171.263 382.146 171.263Z" fill="#F5F5F5"/>
<path d="M178.215 48.2411C186.169 48.2411 192.617 41.8065 192.617 33.869C192.617 25.9315 186.169 19.4969 178.215 19.4969C170.261 19.4969 163.813 25.9315 163.813 33.869C163.813 41.8065 170.261 48.2411 178.215 48.2411Z" fill="#F5F5F5"/>
<path d="M395.059 394.989C395.059 395.248 306.792 395.454 197.934 395.454C89.0775 395.454 0.791992 395.248 0.791992 394.989C0.791992 394.729 89.0416 394.523 197.934 394.523C306.827 394.523 395.059 394.729 395.059 394.989Z" fill="#263238"/>
<path d="M377.599 309.284C377.159 313.262 375.545 317.02 372.964 320.082C370.382 323.145 366.948 325.374 363.096 326.488C359.244 327.602 355.148 327.55 351.325 326.34C347.503 325.129 344.126 322.815 341.623 319.688C339.119 316.562 337.601 312.764 337.261 308.777C336.921 304.789 337.775 300.79 339.713 297.287C341.651 293.783 344.588 290.932 348.15 289.095C351.713 287.258 355.742 286.516 359.727 286.965C365.062 287.561 369.942 290.247 373.293 294.432C376.645 298.617 378.194 303.959 377.599 309.284Z" fill="#0EA362"/>
<g opacity="0.3">
<path d="M358.166 316.345L357.897 319.029L355.512 318.797L355.763 316.193C353.646 315.917 351.648 315.055 349.997 313.705L351.602 310.922C352.887 312.01 354.431 312.75 356.086 313.069L356.471 309.087C353.88 308.192 351.001 307.002 351.342 303.592C351.593 301.069 353.647 299.073 357.467 299.019L357.727 296.335L360.112 296.567L359.861 299.163C361.561 299.427 363.174 300.09 364.569 301.096L363.08 303.914C362.023 303.149 360.821 302.604 359.547 302.313L359.153 306.375C361.744 307.27 364.533 308.416 364.237 311.745C363.986 314.295 361.96 316.264 358.166 316.345ZM356.812 305.606L357.144 302.214C355.844 302.375 355.279 303.02 355.198 303.807C355.117 304.595 355.79 305.132 356.812 305.57V305.606ZM360.354 311.754C360.435 310.922 359.789 310.402 358.794 309.964L358.471 313.257C359.691 313.033 360.283 312.479 360.354 311.718V311.754Z" fill="black"/>
</g>
<g opacity="0.3">
<path d="M372.855 307.011C372.728 306.389 372.662 305.757 372.658 305.123C372.406 302.269 371.387 299.535 369.708 297.212C368.918 296.148 367.999 295.186 366.973 294.348C366.406 293.895 365.807 293.486 365.179 293.122C364.541 292.733 363.873 292.398 363.179 292.12C362.467 291.824 361.732 291.584 360.982 291.404C360.206 291.22 359.418 291.092 358.624 291.019C357.83 290.965 357.033 290.965 356.238 291.019C354.721 291.131 353.23 291.475 351.817 292.039C351.152 292.287 350.508 292.586 349.889 292.934C347.704 294.161 345.856 295.907 344.509 298.017C343.599 299.447 342.921 301.012 342.5 302.653C342.39 303.264 342.222 303.863 341.998 304.442C341.858 303.809 341.858 303.152 341.998 302.518C342.285 300.767 342.893 299.083 343.791 297.552C344.403 296.486 345.141 295.498 345.988 294.607C346.964 293.567 348.078 292.664 349.298 291.923C349.957 291.524 350.646 291.176 351.36 290.885C352.102 290.578 352.866 290.33 353.647 290.142C354.457 289.943 355.282 289.809 356.113 289.739C356.97 289.677 357.83 289.677 358.687 289.739C359.541 289.817 360.389 289.954 361.224 290.151C362.032 290.357 362.824 290.623 363.592 290.947C364.332 291.256 365.045 291.625 365.726 292.048C367.586 293.202 369.188 294.725 370.434 296.522C371.126 297.541 371.695 298.637 372.129 299.789C372.748 301.446 373.052 303.203 373.026 304.97C373.128 305.654 373.069 306.353 372.855 307.011Z" fill="black"/>
</g>
<path d="M372.837 308.452C372.825 308.369 372.825 308.284 372.837 308.201C372.837 308.013 372.837 307.771 372.837 307.458C372.864 307.062 372.864 306.664 372.837 306.268C372.824 305.723 372.776 305.179 372.694 304.639C372.496 303.158 372.082 301.714 371.465 300.353C370.659 298.548 369.515 296.914 368.093 295.538C366.253 293.739 363.98 292.441 361.493 291.769C359.006 291.097 356.388 291.073 353.889 291.699C353.18 291.871 352.484 292.096 351.808 292.37C351.119 292.661 350.451 292.999 349.809 293.381C348.464 294.16 347.253 295.148 346.221 296.308C345.142 297.49 344.256 298.834 343.594 300.29C342.93 301.793 342.489 303.385 342.285 305.015C342.116 306.655 342.191 308.311 342.509 309.928C342.826 311.497 343.385 313.006 344.168 314.403C344.913 315.754 345.866 316.98 346.993 318.036C347.533 318.555 348.108 319.037 348.715 319.477C349.318 319.888 349.947 320.262 350.598 320.595C352.534 321.546 354.649 322.081 356.805 322.165C358.961 322.249 361.111 321.881 363.116 321.084C365.121 320.287 366.936 319.079 368.444 317.538C369.951 315.997 371.118 314.158 371.869 312.139C372.073 311.632 372.241 311.112 372.371 310.581C372.489 310.201 372.579 309.812 372.64 309.418C372.694 309.114 372.748 308.872 372.774 308.693C372.785 308.608 372.807 308.523 372.837 308.443C372.847 308.526 372.847 308.61 372.837 308.693C372.837 308.881 372.774 309.123 372.739 309.427C372.688 309.826 372.61 310.22 372.505 310.608C372.381 311.146 372.222 311.675 372.03 312.192C371.528 313.618 370.815 314.96 369.914 316.175C368.724 317.793 367.232 319.167 365.52 320.22C363.289 321.616 360.733 322.412 358.102 322.529C355.472 322.647 352.855 322.082 350.508 320.891C349.84 320.557 349.196 320.177 348.58 319.754C347.946 319.311 347.346 318.821 346.786 318.287C345.628 317.209 344.647 315.956 343.881 314.573C343.076 313.143 342.498 311.597 342.168 309.991C341.851 308.337 341.775 306.646 341.944 304.97C342.149 303.296 342.602 301.661 343.289 300.12C343.963 298.626 344.871 297.248 345.979 296.039C347.032 294.858 348.267 293.852 349.638 293.059C350.293 292.664 350.977 292.317 351.683 292.021C352.382 291.749 353.098 291.522 353.826 291.341C356.38 290.702 359.056 290.733 361.594 291.433C364.132 292.132 366.445 293.476 368.309 295.332C369.738 296.742 370.883 298.413 371.68 300.254C372.291 301.639 372.687 303.109 372.855 304.612C372.936 305.155 372.972 305.702 372.963 306.25C372.997 306.652 372.997 307.056 372.963 307.458C372.963 307.763 372.963 308.004 372.9 308.192C372.89 308.281 372.869 308.368 372.837 308.452Z" fill="#263238"/>
<path d="M350.158 324.837C349.95 324.815 349.747 324.758 349.558 324.667C349.022 324.477 348.501 324.249 347.997 323.987C346.334 323.131 344.82 322.013 343.514 320.676C342.196 319.336 341.101 317.795 340.267 316.112C340.015 315.605 339.796 315.082 339.613 314.546C339.526 314.354 339.475 314.148 339.46 313.937C339.523 313.937 339.837 314.743 340.509 315.987C341.395 317.601 342.5 319.085 343.792 320.399C345.084 321.711 346.554 322.838 348.159 323.745C349.378 324.443 350.203 324.775 350.158 324.837Z" fill="white"/>
<path d="M353.387 326.036C353.387 326.135 352.947 326.099 352.49 325.956C352.032 325.813 351.665 325.616 351.701 325.508C351.737 325.401 352.14 325.446 352.597 325.589C353.055 325.732 353.422 325.929 353.387 326.036Z" fill="white"/>
<path d="M334.349 312.049H328.071V331.048H334.349V312.049Z" fill="#455A64"/>
<path d="M323.875 329.043L331.425 337.634L338.554 329.303L323.875 329.043Z" fill="#455A64"/>
<path d="M334.017 207.256H341.191L339.81 206.218C340.856 209.619 341.902 213.019 342.949 216.42C344.617 221.789 346.282 227.189 347.944 232.618C348.32 233.862 348.706 235.106 349.091 236.358C349.182 236.655 349.365 236.915 349.613 237.101C349.861 237.288 350.162 237.391 350.472 237.397L370.811 237.334H373.716C374.074 237.306 374.407 237.144 374.651 236.881C374.894 236.618 375.029 236.273 375.029 235.915C375.029 235.558 374.894 235.213 374.651 234.95C374.407 234.687 374.074 234.525 373.716 234.497L353.387 234.56H350.472L351.853 235.598C350.807 232.197 349.761 228.797 348.715 225.396C347.047 219.991 345.385 214.591 343.729 209.198L342.572 205.457C342.482 205.16 342.3 204.9 342.052 204.713C341.803 204.526 341.502 204.423 341.191 204.419H334.017C333.659 204.448 333.326 204.61 333.083 204.872C332.839 205.135 332.704 205.48 332.704 205.838C332.704 206.196 332.839 206.54 333.083 206.803C333.326 207.066 333.659 207.228 334.017 207.256Z" fill="#263238"/>
<path d="M378.227 210.854C376.888 216.778 375.549 222.699 374.209 228.618C374.021 229.468 373.824 230.318 373.635 231.168L374.676 230.389L365.968 230.3L352.006 230.166H348.813L349.854 230.944C347.988 225.08 346.12 219.218 344.249 213.359L343.46 210.881L342.419 212.223H379.267C379.532 212.199 379.778 212.076 379.958 211.88C380.137 211.684 380.236 211.428 380.236 211.162C380.236 210.897 380.137 210.641 379.958 210.445C379.778 210.249 379.532 210.126 379.267 210.102H342.419C342.256 210.104 342.095 210.142 341.949 210.215C341.803 210.288 341.675 210.393 341.576 210.522C341.477 210.652 341.408 210.802 341.376 210.962C341.343 211.122 341.347 211.287 341.388 211.444L346.984 229.029C347.253 229.853 347.513 230.685 347.773 231.508C347.841 231.731 347.979 231.927 348.166 232.067C348.353 232.207 348.58 232.284 348.813 232.287L357.521 232.367L371.483 232.51H374.676C374.909 232.51 375.136 232.433 375.322 232.293C375.508 232.153 375.643 231.956 375.707 231.732C377.046 225.808 378.385 219.886 379.724 213.968C379.922 213.118 380.11 212.268 380.298 211.418C380.648 210.12 378.532 209.52 378.227 210.854Z" fill="#263238"/>
<path d="M349.755 211.758C350.885 218.237 352.32 224.662 353.458 231.132C353.692 232.475 355.763 231.911 355.53 230.568C354.4 224.098 352.956 217.673 351.826 211.194C351.593 209.852 349.522 210.424 349.755 211.758Z" fill="#263238"/>
<path d="M361.108 211.48C361.215 218.12 361.341 224.761 361.448 231.401C361.448 231.686 361.562 231.959 361.764 232.16C361.965 232.361 362.239 232.475 362.525 232.475C362.81 232.475 363.084 232.361 363.285 232.16C363.487 231.959 363.601 231.686 363.601 231.401C363.493 224.761 363.367 218.12 363.26 211.48C363.26 211.195 363.146 210.922 362.945 210.721C362.743 210.519 362.469 210.406 362.184 210.406C361.898 210.406 361.625 210.519 361.423 210.721C361.221 210.922 361.108 211.195 361.108 211.48Z" fill="#263238"/>
<path d="M371.6 231.642C372.503 225.742 373.399 219.845 374.29 213.95C374.425 213.109 374.55 212.259 374.685 211.418C374.751 211.145 374.71 210.857 374.57 210.614C374.43 210.37 374.201 210.19 373.931 210.111C373.658 210.039 373.367 210.076 373.121 210.215C372.875 210.354 372.693 210.583 372.613 210.854C371.698 216.754 370.787 222.652 369.878 228.546C369.752 229.441 369.618 230.237 369.492 231.079C369.439 231.345 369.489 231.622 369.632 231.854C369.775 232.085 370.001 232.254 370.264 232.326C370.527 232.397 370.808 232.366 371.049 232.24C371.29 232.113 371.474 231.899 371.564 231.642H371.6Z" fill="#263238"/>
<path d="M344.778 218.407H377.303C377.568 218.382 377.814 218.26 377.994 218.064C378.173 217.868 378.272 217.612 378.272 217.346C378.272 217.081 378.173 216.825 377.994 216.629C377.814 216.432 377.568 216.31 377.303 216.286H344.778C344.513 216.31 344.266 216.432 344.087 216.629C343.908 216.825 343.808 217.081 343.808 217.346C343.808 217.612 343.908 217.868 344.087 218.064C344.266 218.26 344.513 218.382 344.778 218.407Z" fill="#263238"/>
<path d="M347.818 225.861H375.994C376.259 225.837 376.505 225.715 376.684 225.519C376.864 225.322 376.963 225.066 376.963 224.801C376.963 224.535 376.864 224.279 376.684 224.083C376.505 223.887 376.259 223.765 375.994 223.74H347.818C347.553 223.765 347.307 223.887 347.127 224.083C346.948 224.279 346.848 224.535 346.848 224.801C346.848 225.066 346.948 225.322 347.127 225.519C347.307 225.715 347.553 225.837 347.818 225.861Z" fill="#263238"/>
<path d="M373.68 246.704C375.795 246.704 377.509 245.013 377.509 242.927C377.509 240.841 375.795 239.151 373.68 239.151C371.565 239.151 369.851 240.841 369.851 242.927C369.851 245.013 371.565 246.704 373.68 246.704Z" fill="#263238"/>
<path d="M352.642 246.704C354.757 246.704 356.472 245.013 356.472 242.927C356.472 240.841 354.757 239.151 352.642 239.151C350.528 239.151 348.813 240.841 348.813 242.927C348.813 245.013 350.528 246.704 352.642 246.704Z" fill="#263238"/>
<path d="M343.792 146.662C349.215 140.9 352.875 133.711 354.339 125.942C355.802 118.172 355.009 110.147 352.053 102.813C349.097 95.4787 344.1 89.141 337.653 84.5472C331.206 79.9534 323.577 77.2952 315.666 76.8861C307.755 76.4769 299.891 78.3339 293.003 82.2379C286.115 86.142 280.489 91.9303 276.788 98.9203C273.088 105.91 271.468 113.811 272.119 121.689C272.77 129.568 275.665 137.096 280.463 143.387L279.997 152.479L288.265 151.2C296.438 157.444 306.644 160.437 316.904 159.599C327.163 158.76 336.745 154.15 343.792 146.662Z" fill="white"/>
<path d="M343.792 146.662C343.792 146.662 342.76 147.763 340.689 149.705C337.563 152.39 334.066 154.612 330.304 156.301C329.023 156.88 327.709 157.382 326.368 157.804L324.206 158.484L321.893 158.985L320.7 159.254C320.297 159.334 319.875 159.361 319.463 159.424L316.916 159.746C316.019 159.8 315.122 159.809 314.226 159.844C313.768 159.844 313.329 159.889 312.854 159.844L311.464 159.773L310.056 159.692C309.578 159.683 309.101 159.638 308.63 159.558L305.715 159.137C303.705 158.741 301.724 158.206 299.788 157.536C295.602 156.084 291.668 153.988 288.13 151.325H288.282L280.005 152.614H279.763V152.363C279.907 149.517 280.068 146.43 280.23 143.271L280.274 143.414C274.918 136.322 271.948 127.72 271.791 118.84C271.633 109.149 274.878 99.7075 280.965 92.154C283.839 88.582 287.291 85.5149 291.179 83.0797C294.924 80.6637 299.05 78.8939 303.384 77.8445C307.56 76.8337 311.862 76.4358 316.154 76.6632C320.264 76.9747 324.312 77.8417 328.188 79.2406C330.037 79.9551 331.835 80.7953 333.569 81.7552C338.531 84.4353 342.875 88.1241 346.32 92.5836C348.461 95.29 350.267 98.2435 351.701 101.38L352.598 103.671C352.903 104.41 353.164 105.166 353.378 105.935C353.842 107.402 354.21 108.896 354.481 110.41C355.491 115.777 355.436 121.289 354.32 126.635C354.114 127.777 353.829 128.905 353.468 130.008C353.109 131.064 352.849 132.111 352.445 133.06C352.042 134.009 351.647 134.912 351.28 135.745C351.109 136.172 350.905 136.585 350.67 136.98L350.033 138.116C349.612 138.85 349.262 139.575 348.84 140.192C348.419 140.81 348.015 141.383 347.639 141.92L346.572 143.495L345.594 144.631L344.267 146.152C343.962 146.501 343.801 146.662 343.801 146.662L344.231 146.126L345.522 144.568L346.482 143.432C346.787 142.975 347.128 142.483 347.495 141.946C347.863 141.409 348.248 140.828 348.67 140.219C349.091 139.611 349.423 138.868 349.836 138.134L350.463 136.998C350.696 136.607 350.894 136.197 351.055 135.772C351.423 134.877 351.809 133.982 352.203 133.087C352.598 132.192 352.849 131.1 353.208 130.044C353.555 128.948 353.831 127.83 354.033 126.697C355.113 121.385 355.143 115.913 354.122 110.589C353.845 109.077 353.476 107.583 353.019 106.114C352.805 105.35 352.541 104.599 352.23 103.868C351.934 103.117 351.647 102.356 351.333 101.595C348.392 95.143 343.878 89.5284 338.205 85.2633C336.666 84.1307 335.051 83.1051 333.371 82.1937C331.649 81.251 329.867 80.4229 328.036 79.7149C324.197 78.3417 320.192 77.4869 316.127 77.1733C311.894 76.9512 307.65 77.3369 303.527 78.3188C299.247 79.3676 295.171 81.1186 291.466 83.5003C285.495 87.252 280.591 92.4731 277.226 98.6619C273.86 104.851 272.146 111.799 272.249 118.84C272.389 127.652 275.324 136.192 280.633 143.235L280.687 143.298V143.378C280.526 146.528 280.355 149.643 280.212 152.461L279.97 152.256L288.282 151.056H288.363L288.435 151.11C291.927 153.737 295.809 155.802 299.94 157.231C301.858 157.904 303.821 158.443 305.814 158.842L308.702 159.272C309.17 159.348 309.644 159.393 310.118 159.406L311.517 159.486L312.898 159.567C313.356 159.567 313.795 159.567 314.253 159.567C315.149 159.567 316.046 159.567 316.898 159.477L319.427 159.164C319.839 159.111 320.261 159.084 320.655 159.003L321.848 158.744L324.153 158.216L326.305 157.544C327.644 157.139 328.956 156.649 330.233 156.077C333.986 154.417 337.485 152.235 340.626 149.598C341.693 148.703 342.42 147.889 342.993 147.396C343.567 146.904 343.792 146.662 343.792 146.662Z" fill="#263238"/>
<path d="M290.596 104.343L300.837 119.842L302.29 122.044C302.596 122.549 303.087 122.916 303.66 123.067C304.232 123.217 304.841 123.139 305.357 122.849L318.441 114.365L315.374 113.56L324.888 129.283L326.233 131.503C327.722 133.964 331.614 131.718 330.107 129.248C326.933 123.986 323.752 118.727 320.566 113.471L319.221 111.251C318.918 110.742 318.426 110.372 317.853 110.222C317.279 110.071 316.669 110.151 316.154 110.446L303.061 118.956L306.128 119.762L295.896 104.253L294.443 102.052C292.856 99.6622 288.973 101.899 290.569 104.316L290.596 104.343Z" fill="#0EA362"/>
<path d="M317.929 131.861L334.681 121.328V138.224L317.929 131.861Z" fill="#0EA362"/>
<path d="M264.214 15.7115L246.171 15.8368V15.9621L243.687 61.3336L282.212 61.0652L282.023 33.3142L264.214 15.7115Z" fill="#0EA362"/>
<g opacity="0.3">
<path d="M264.214 15.7115L246.171 15.8368V15.9621L243.687 61.3336L282.212 61.0652L282.023 33.3142L264.214 15.7115Z" fill="black"/>
</g>
<path d="M246.171 15.8368L228.254 32.8041L228.451 61.441L264.528 61.1904L264.33 33.1621L246.171 15.8368Z" fill="#0EA362"/>
<g opacity="0.3">
<path d="M259.017 35.7439L251.332 35.7979L251.385 43.4671L259.07 43.413L259.017 35.7439Z" fill="white"/>
</g>
<g opacity="0.3">
<path d="M240.258 35.8662L232.573 35.9198L232.627 43.5889L240.312 43.5353L240.258 35.8662Z" fill="white"/>
</g>
<path d="M236.293 18.9624L232.446 18.9892L232.525 30.372L236.372 30.3452L236.293 18.9624Z" fill="#0EA362"/>
<g opacity="0.3">
<path d="M249.277 47.1861L240.337 47.2484L240.436 61.3427L249.376 61.2804L249.277 47.1861Z" fill="black"/>
</g>
<path d="M264.214 15.7114L264.303 15.783L264.555 16.0247C264.797 16.2484 265.119 16.5527 265.532 16.9196L269.2 20.4992C272.347 23.5955 276.813 27.9716 282.122 33.1978L282.391 33.4484H282.005L264.312 33.3142H264.25L264.196 33.2694L261.093 30.2983C255.659 25.1169 250.529 20.2128 246.054 15.9262H246.261L232.487 28.9381L228.559 32.5893L227.519 33.5468L227.241 33.7885L227.151 33.869C227.151 33.869 227.151 33.869 227.232 33.7706L227.483 33.511L228.496 32.5177L232.361 28.8039C235.706 25.6091 240.432 21.0898 246.072 15.7293L246.171 15.6309L246.279 15.7293L261.344 30.0478L264.447 33.0188L264.33 32.9652L282.023 33.1441L281.916 33.3947L269.074 20.6424L265.487 17.018L264.546 16.0515L264.303 15.8009C264.232 15.7472 264.205 15.7114 264.214 15.7114Z" fill="#263238"/>
<path d="M249.319 61.2888C249.307 61.1997 249.307 61.1095 249.319 61.0204V60.2329C249.319 59.499 249.319 58.5146 249.256 57.2976C249.256 54.7471 249.202 51.248 249.166 47.2299L249.328 47.391H244.844H240.414L240.575 47.221C240.575 51.248 240.575 54.7561 240.575 57.3065C240.575 58.5325 240.575 59.5259 240.575 60.2597C240.575 60.5729 240.575 60.8324 240.575 61.0472C240.608 61.0539 240.637 61.0724 240.657 61.0992C240.677 61.126 240.686 61.1591 240.682 61.1922C240.679 61.2253 240.663 61.256 240.639 61.2783C240.614 61.3006 240.582 61.313 240.548 61.313C240.515 61.313 240.483 61.3006 240.458 61.2783C240.434 61.256 240.418 61.2253 240.415 61.1922C240.411 61.1591 240.42 61.126 240.44 61.0992C240.46 61.0724 240.489 61.0539 240.522 61.0472C240.522 60.8324 240.522 60.5729 240.522 60.2597C240.522 59.5259 240.522 58.5325 240.468 57.3065C240.468 54.7561 240.414 51.248 240.369 47.221V47.0599H240.54H244.969H249.588V47.2478C249.588 51.2659 249.588 54.765 249.588 57.3155C249.588 58.5325 249.588 59.5169 249.543 60.2508C249.543 60.564 249.543 60.8235 249.543 61.0383C249.543 61.253 249.337 61.2888 249.319 61.2888Z" fill="#263238"/>
<path d="M104.448 122.303C104.69 122.697 110.25 139.119 112.035 139.199C114.095 139.12 116.147 138.899 118.177 138.537C118.177 138.537 118.715 116.46 118.993 115.001C119.15 113.514 119.15 112.014 118.993 110.526L107.013 113.345L104.448 122.303Z" fill="#0EA362"/>
<path d="M86.0647 129.382C86.54 129.311 90.0104 139.602 92.342 139.521C94.6735 139.441 99.8209 139.342 99.8209 138.895C99.8209 138.447 99.1663 124.684 99.1663 124.684C99.1663 124.684 87.1677 125.579 87.2484 125.829C86.9265 127.036 86.5312 128.223 86.0647 129.382Z" fill="#0EA362"/>
<path d="M60.0678 128.093C59.8975 128.246 63.3589 139.226 64.722 139.468C66.0851 139.709 71.6987 139.136 71.6987 138.895C71.6987 138.653 73.1066 128.093 73.1066 128.093C73.1066 128.093 64.4799 124.317 60.0678 128.093Z" fill="#0EA362"/>
<path d="M43.7199 126.581C43.7199 126.581 47.5311 137.669 48.9211 138.385C50.311 139.101 56.1758 138.859 56.1758 138.859L55.862 126.581L40.9758 118.285L43.7199 126.581Z" fill="#0EA362"/>
<path d="M41.9802 121.015C42.6527 121.82 56.7856 131.619 83.4371 129.749C110.089 127.879 122.894 109.846 122.894 109.846L20.467 111.144C20.467 111.144 22.8255 117.757 33.1741 117.757H40.7785L41.9802 121.015Z" fill="#0EA362"/>
<path d="M58.2473 131.664C58.3883 132.645 58.4184 133.639 58.337 134.626C58.337 136.506 58.2293 139.181 58.1038 142.394C58.0993 142.496 58.056 142.593 57.9827 142.664C57.9094 142.736 57.8117 142.777 57.7092 142.779H54.5795C54.5004 142.777 54.4231 142.755 54.3553 142.714C54.2876 142.673 54.2319 142.615 54.1939 142.546L53.2972 140.891H54.1132C53.907 141.41 53.6738 141.973 53.4407 142.546C53.4068 142.63 53.3487 142.702 53.2736 142.753C53.1986 142.804 53.11 142.832 53.0192 142.832H48.2843C48.1933 142.833 48.104 142.807 48.0275 142.758C47.951 142.709 47.8907 142.638 47.8539 142.555C45.5761 137.239 43.5674 132.443 42.1595 128.961C40.7516 125.48 39.9535 123.315 40.0701 123.315C40.1866 123.315 41.2 125.337 42.7603 128.756C44.3207 132.174 46.4191 136.926 48.7058 142.242L48.2843 141.955H53.0461L52.6157 142.242C52.8578 141.669 53.0909 141.105 53.3151 140.586C53.3608 140.477 53.4476 140.391 53.5568 140.346C53.6659 140.301 53.7886 140.3 53.898 140.345C53.9973 140.389 54.0793 140.464 54.1312 140.559L54.9652 142.224L54.5706 141.982H57.7003L57.2967 142.367C57.503 139.154 57.7003 136.479 57.8617 134.608C57.8906 133.616 58.0198 132.63 58.2473 131.664Z" fill="#263238"/>
<path d="M100.646 129.749C100.873 130.928 100.969 132.128 100.933 133.329C101.014 135.575 101.067 138.698 101.094 142.376C101.095 142.434 101.085 142.492 101.063 142.547C101.042 142.601 101.01 142.65 100.969 142.692C100.928 142.734 100.879 142.767 100.825 142.789C100.771 142.812 100.713 142.823 100.655 142.823H97.5342C97.4502 142.823 97.3677 142.801 97.2953 142.758C97.2228 142.716 97.1629 142.655 97.1217 142.582C96.9154 142.206 96.6912 141.803 96.4581 141.401L96.2787 141.069H97.1127L96.4222 142.582C96.387 142.664 96.3283 142.735 96.2533 142.784C96.1784 142.833 96.0905 142.859 96.0007 142.859H91.239C91.16 142.857 91.0831 142.834 91.0167 142.791C90.9503 142.749 90.8969 142.689 90.8623 142.618C89.5441 139.933 88.459 137.553 87.7147 135.888C87.2605 135.037 86.9084 134.136 86.6655 133.203C87.2708 133.958 87.7799 134.785 88.181 135.664C89.0778 137.266 90.2525 139.548 91.6335 142.251L91.2479 142.009H96.0097L95.5882 142.287L96.2698 140.765C96.294 140.71 96.3292 140.659 96.3731 140.617C96.4171 140.576 96.469 140.543 96.5257 140.521C96.5825 140.499 96.643 140.489 96.7038 140.491C96.7646 140.493 96.8243 140.507 96.8796 140.533C96.9714 140.576 97.0491 140.644 97.1037 140.729L97.2831 141.061L97.9467 142.251L97.5432 142.009H100.664L100.215 142.457C100.215 138.814 100.296 135.655 100.377 133.409C100.329 132.183 100.419 130.955 100.646 129.749Z" fill="#263238"/>
<path d="M36.7612 120.791C36.9405 120.558 41.2988 124.075 47.4415 127.055C53.5843 130.035 58.9738 131.53 58.8931 131.825C57.669 131.761 56.4607 131.52 55.3061 131.109C52.4659 130.292 49.7048 129.223 47.0559 127.914C44.4 126.605 41.8747 125.047 39.5142 123.261C37.6849 121.874 36.6895 120.88 36.7612 120.791Z" fill="#263238"/>
<path d="M73.1064 133.91C73.1064 133.776 74.9 133.687 77.8054 133.454C81.5706 133.153 85.3159 132.642 89.0238 131.924C92.7306 131.202 96.3855 130.237 99.9642 129.033C102.717 128.138 104.385 127.431 104.448 127.565C104.511 127.7 102.915 128.559 100.188 129.651C96.6346 131.055 92.9568 132.125 89.2032 132.845C85.4571 133.577 81.6569 133.999 77.8413 134.107C74.9179 134.179 73.1064 134.053 73.1064 133.91Z" fill="#263238"/>
<path d="M120.921 115.959C121.223 115.517 121.553 115.096 121.908 114.697C122.866 113.514 123.764 112.283 124.598 111.01C127.686 106.321 129.751 101.037 130.66 95.5011C131.299 91.6937 131.456 87.8212 131.126 83.9747C131.073 82.9367 130.884 81.8986 130.75 80.8336C130.615 79.7687 130.391 78.6948 130.095 77.6299C129.565 75.4185 128.845 73.2568 127.943 71.1687C124.356 62.5687 117.182 54.4877 107.838 49.0646C97.2951 43.0934 85.2965 40.1647 73.1822 40.6056C61.0678 41.0465 49.3149 44.8396 39.2361 51.5614C38.3931 52.0894 37.6936 52.6263 37.0659 53.0738C36.4382 53.5212 35.927 53.915 35.5235 54.2461C35.1184 54.5952 34.6866 54.9124 34.2322 55.1947C34.587 54.7938 34.9772 54.4254 35.398 54.094C35.7925 53.745 36.2947 53.3244 36.8955 52.8501C37.4964 52.3758 38.1958 51.8209 39.0298 51.2571C43.658 47.9876 48.7193 45.3764 54.0684 43.4983C62.0052 40.6335 70.4341 39.374 78.8636 39.7934C89.2208 40.2102 99.3238 43.1175 108.313 48.2682C117.819 53.7808 125.082 62.0317 128.741 70.8376C129.644 72.9746 130.364 75.1839 130.893 77.442C131.189 78.5337 131.333 79.6345 131.539 80.7084C131.745 81.7822 131.853 82.8561 131.898 83.9121C132.2 87.8228 132.005 91.756 131.315 95.6174C130.334 101.219 128.146 106.541 124.903 111.216C124.02 112.466 123.062 113.661 122.033 114.795C121.698 115.215 121.326 115.604 120.921 115.959Z" fill="#263238"/>
<path d="M22.2966 72.8242C22.5656 72.9048 20.799 77.8267 20.2968 84.1447C19.7946 90.4627 20.9514 95.5726 20.6645 95.6263C20.5479 95.6263 20.1174 94.4092 19.7677 92.3241C19.2993 89.6001 19.1728 86.8284 19.3911 84.0731C19.608 81.3196 20.1375 78.5996 20.9694 75.9653C21.5971 73.9518 22.18 72.7795 22.2966 72.8242Z" fill="#263238"/>
<path d="M36.0796 120.505C36.0796 120.308 39.29 120.451 44.1504 119.055C46.995 118.241 49.6834 116.958 52.1046 115.26C53.4945 114.243 54.7065 113.003 55.6916 111.591C56.711 110.086 57.2688 108.316 57.2968 106.499C57.3275 104.726 56.9676 102.968 56.2424 101.349C55.5172 99.7298 54.4444 98.2895 53.1 97.1298C51.9361 96.0846 50.6286 95.2107 49.217 94.5346L48.2396 94.0692C47.9078 93.926 47.576 93.8097 47.2621 93.6844C46.6254 93.4249 45.9887 93.237 45.3879 93.058C40.5006 91.6888 37.2723 91.8767 37.3171 91.6709C38.0549 91.5502 38.8044 91.5172 39.55 91.5724C41.5872 91.6309 43.6114 91.916 45.5852 92.4226C46.2458 92.5779 46.8958 92.7752 47.5311 93.0132C47.8719 93.1296 48.2127 93.2459 48.5534 93.3801L49.5847 93.8455C51.0832 94.5307 52.4705 95.4356 53.7008 96.5302C55.1563 97.7582 56.3201 99.2936 57.108 101.026C57.8959 102.757 58.2881 104.642 58.2563 106.544C58.2229 108.544 57.599 110.49 56.4628 112.137C55.412 113.622 54.121 114.923 52.6427 115.985C50.1286 117.716 47.3258 118.985 44.3656 119.735C42.39 120.239 40.3676 120.539 38.3304 120.63C37.5778 120.679 36.822 120.637 36.0796 120.505Z" fill="#263238"/>
<path d="M82.6391 69.7637C82.5136 69.7637 81.7424 67.4548 80.2089 63.7678C79.3317 61.6271 78.3378 59.5359 77.2317 57.5035C76.5846 56.3101 75.8345 55.1752 74.9898 54.1118C74.5606 53.5514 74.0602 53.049 73.5012 52.6174C73.2243 52.4184 72.9229 52.256 72.6044 52.1341C72.4604 52.0841 72.3137 52.0423 72.165 52.0088H71.7166C71.0334 52.0986 70.3766 52.3303 69.7886 52.689C69.1742 53.0409 68.5894 53.4419 68.0399 53.8881C66.979 54.7465 65.9783 55.6764 65.0448 56.6713C63.2513 58.5774 61.7358 60.4209 60.4893 61.978C58.0232 65.1102 56.5974 67.1416 56.4897 67.07C56.679 66.5146 56.9543 65.9922 57.3058 65.5218C57.8977 64.5643 58.7854 63.213 59.9961 61.5843C61.3819 59.6669 62.879 57.8322 64.4798 56.0896C65.4233 55.0441 66.4424 54.069 67.5288 53.1722C68.1131 52.691 68.737 52.2599 69.394 51.8835C70.0969 51.4509 70.887 51.179 71.7077 51.0871C71.9319 51.0871 72.156 51.0871 72.3802 51.0871C72.602 51.133 72.8206 51.1928 73.0349 51.2661C73.4181 51.4223 73.7798 51.6268 74.111 51.8746C74.7087 52.3498 75.2422 52.9003 75.6982 53.5123C76.5743 54.6291 77.3401 55.8279 77.985 57.0919C79.0766 59.1857 80.0263 61.3503 80.8277 63.571C81.5092 65.4592 81.9934 67.0163 82.2894 68.0992C82.4891 68.6333 82.607 69.1945 82.6391 69.7637Z" fill="#263238"/>
<path d="M22.6372 54.094C22.5834 54.0493 22.7986 53.754 23.3366 53.5302C24.0896 53.2586 24.8856 53.1252 25.6861 53.1365C28.2687 53.1957 30.8295 53.6236 33.2906 54.4072C39.0657 56.0718 43.4508 58.1748 43.3612 58.3985C43.2715 58.6222 38.7339 56.9667 33.0395 55.3021C30.6433 54.5441 28.1768 54.0285 25.6772 53.7629C24.932 53.7013 24.1821 53.7313 23.4442 53.8524C22.9241 53.9777 22.682 54.1298 22.6372 54.094Z" fill="#263238"/>
<path d="M58.7585 46.5499C58.7585 46.5499 59.3952 46.2278 60.8928 45.5834C61.6371 45.2702 62.5159 45.0465 63.5831 44.6885C64.1032 44.5185 64.6771 44.4111 65.2869 44.259C65.8967 44.1068 66.5244 43.9458 67.2149 43.8384C74.4931 42.559 81.9437 42.6105 89.2034 43.9905C89.2728 44.0037 89.3376 44.0345 89.3917 44.08L94.0369 48.0176L94.4404 48.3666C94.4877 48.4054 94.5268 48.4533 94.5552 48.5074C94.5836 48.5616 94.6009 48.6209 94.6059 48.6818C94.6109 48.7428 94.6036 48.8041 94.5844 48.8622C94.5652 48.9202 94.5346 48.9738 94.4942 49.0198C94.4337 49.09 94.3538 49.141 94.2646 49.1664C94.1753 49.1919 94.0806 49.1907 93.992 49.163C90.8286 48.1244 87.5484 47.4811 84.2264 47.2479C81.2635 47.0169 78.2882 46.99 75.3216 47.1674C71.0134 47.4354 66.7322 48.0337 62.5159 48.9572C62.4667 48.975 62.4128 48.975 62.3635 48.9572C61.117 48.1876 60.2023 47.5612 59.6105 47.1674C59.0186 46.7736 58.7137 46.5768 58.7765 46.5857C58.8392 46.5947 59.18 46.7826 59.8346 47.1227C60.4893 47.4627 61.4219 47.937 62.5877 48.5903H62.4263C66.6385 47.4896 70.943 46.7767 75.2857 46.4604C78.292 46.2447 81.3098 46.2447 84.316 46.4604C87.714 46.6786 91.0706 47.3251 94.3059 48.3845L93.8575 49.1809L93.454 48.8409L88.8088 44.8854L89.015 44.9928C81.8592 43.6165 74.5212 43.4622 67.3136 44.5364C66.632 44.6169 66.0043 44.7691 65.4035 44.8854C64.8027 45.0017 64.2198 45.1002 63.7086 45.2523C62.6774 45.5387 61.7358 45.7445 61.0184 45.9682C59.6822 46.2904 58.8034 46.541 58.7585 46.5499Z" fill="#263238"/>
<path d="M51.7279 105.954C51.5695 104.638 51.2873 103.341 50.885 102.079C50.3467 100.629 49.5642 99.2825 48.5714 98.0963C47.2437 96.5362 45.6384 95.2346 43.8365 94.2571C39.0828 91.7402 33.5421 91.1412 28.3585 92.5837C26.8846 92.9962 25.4618 93.5725 24.1169 94.3019C22.7327 95.0904 21.4601 96.0594 20.3326 97.1835C17.9506 99.5368 16.5969 102.734 16.5662 106.079C16.6001 109.418 17.9086 112.618 20.2249 115.028C22.4531 117.213 25.2482 118.735 28.2957 119.422C31.0771 120.054 33.9464 120.205 36.779 119.869C39.2443 119.573 41.6304 118.811 43.8096 117.623C45.6101 116.64 47.2149 115.335 48.5445 113.775C49.5397 112.59 50.3224 111.243 50.8581 109.793C51.2622 108.531 51.5445 107.233 51.701 105.918C51.7461 106.265 51.7461 106.617 51.701 106.965C51.6925 107.388 51.6475 107.811 51.5665 108.227C51.4817 108.798 51.3467 109.361 51.163 109.909C50.6703 111.431 49.908 112.853 48.9121 114.106C47.5749 115.755 45.9419 117.142 44.0965 118.196C41.857 119.465 39.3943 120.295 36.8418 120.639C33.9153 121.023 30.944 120.893 28.0626 120.254C24.8305 119.562 21.861 117.97 19.4986 115.663C17.0415 113.078 15.6711 109.651 15.6694 106.088C15.7002 102.495 17.1579 99.0608 19.7228 96.5391C20.9139 95.3613 22.2593 94.3499 23.7223 93.5323C25.1434 92.7667 26.6479 92.1662 28.2061 91.7425C33.5956 90.285 39.3418 90.9749 44.2311 93.6665C46.0764 94.72 47.7094 96.1068 49.0466 97.7562C50.0425 99.0096 50.8048 100.431 51.2975 101.953C51.4571 102.5 51.5681 103.06 51.6293 103.627C51.7111 104.043 51.7561 104.465 51.7638 104.889C51.7991 105.244 51.787 105.602 51.7279 105.954Z" fill="#263238"/>
<path d="M27.5244 112.782C27.5244 112.692 28.0266 112.728 28.5378 112.191C28.6829 112.026 28.7908 111.832 28.8542 111.622C28.9177 111.412 28.9351 111.191 28.9054 110.974C28.9054 110.383 28.9054 109.73 28.8337 109.014C28.8337 107.538 28.7709 105.81 28.735 103.913C28.735 102.956 28.735 101.944 28.735 100.906C28.7542 100.709 28.724 100.51 28.6473 100.328C28.5707 100.145 28.4498 99.984 28.2956 99.8592C28.143 99.7347 27.9608 99.6515 27.7665 99.6176C27.5217 99.6021 27.2761 99.6021 27.0312 99.6176C26.7348 99.6207 26.45 99.7329 26.2315 99.9328C26.013 100.133 25.8762 100.406 25.8475 100.7C25.8475 100.888 25.8475 101.211 25.8475 101.452C25.8475 102.499 25.8475 103.502 25.8475 104.468C25.8475 106.365 25.7758 108.048 25.7489 109.569C25.7489 109.927 25.7489 110.267 25.7489 110.598C25.7248 110.896 25.7248 111.195 25.7489 111.493C25.7867 111.704 25.8706 111.904 25.9946 112.078C26.1186 112.253 26.2796 112.399 26.4663 112.504C26.7226 112.645 27.008 112.724 27.3002 112.737C27.5065 112.737 27.6231 112.8 27.6231 112.835C27.6231 112.871 27.5065 112.898 27.3002 112.925C26.9666 112.99 26.6214 112.959 26.3048 112.835C26.0457 112.725 25.8151 112.557 25.6302 112.345C25.4454 112.132 25.3112 111.881 25.2377 111.609C25.1805 111.284 25.1535 110.955 25.157 110.625C25.157 110.294 25.157 109.954 25.157 109.596C25.157 108.11 25.0942 106.392 25.0583 104.495C25.0583 103.528 25.0583 102.526 25.0583 101.479C25.0583 101.202 25.0583 100.996 25.0583 100.656C25.0795 100.311 25.1908 99.9777 25.3812 99.6892C25.574 99.3894 25.8394 99.1429 26.1528 98.9724C26.4663 98.8019 26.8177 98.713 27.1747 98.7138C27.4743 98.7046 27.7742 98.7196 28.0714 98.7585C28.4174 98.8175 28.742 98.9656 29.013 99.1881C29.2782 99.4074 29.4872 99.6865 29.6228 100.002C29.7465 100.306 29.8016 100.633 29.7842 100.96C29.7842 101.998 29.7842 103.009 29.7842 103.967C29.7842 105.864 29.7125 107.591 29.6856 109.068C29.6856 109.784 29.6408 110.437 29.6139 111.028C29.625 111.306 29.5737 111.583 29.4635 111.838C29.3533 112.094 29.1871 112.321 28.9772 112.504C28.0535 113.023 27.4975 112.808 27.5244 112.782Z" fill="#263238"/>
<path d="M37.7655 112.782C37.7655 112.692 38.2677 112.728 38.7789 112.191C38.924 112.026 39.0319 111.832 39.0953 111.622C39.1588 111.412 39.1762 111.191 39.1465 110.974C39.1465 110.383 39.1465 109.73 39.0748 109.014C39.0748 107.537 39.012 105.81 38.9762 103.913C38.9762 102.956 38.9762 101.944 38.9762 100.906C38.9937 100.709 38.9628 100.511 38.8863 100.328C38.8097 100.146 38.6897 99.985 38.5367 99.8592C38.3865 99.7309 38.2032 99.6472 38.0077 99.6176C37.7598 99.6019 37.5112 99.6019 37.2634 99.6176C36.9685 99.6228 36.6859 99.736 36.4693 99.9357C36.2526 100.135 36.1172 100.408 36.0886 100.7C36.0886 100.888 36.0886 101.211 36.0886 101.452C36.0886 102.499 36.0886 103.501 36.0886 104.468C36.0886 106.365 36.0169 108.048 35.99 109.569C35.99 109.927 35.99 110.267 35.99 110.598C35.9659 110.896 35.9659 111.195 35.99 111.493C36.0278 111.704 36.1117 111.904 36.2357 112.078C36.3597 112.253 36.5207 112.399 36.7074 112.504C36.961 112.643 37.2432 112.723 37.5324 112.737C37.7476 112.737 37.8642 112.8 37.8642 112.835C37.8642 112.871 37.7476 112.898 37.5324 112.925C37.2017 112.988 36.8598 112.957 36.5459 112.835C36.2649 112.731 36.0135 112.56 35.8136 112.337C35.6136 112.114 35.471 111.846 35.3981 111.556C35.3367 111.231 35.3096 110.901 35.3174 110.571C35.3174 110.24 35.3174 109.9 35.3174 109.542C35.3174 108.057 35.2546 106.338 35.2188 104.441C35.2188 103.475 35.2188 102.472 35.2188 101.425C35.2188 101.148 35.2188 100.942 35.2188 100.602C35.2399 100.257 35.3512 99.924 35.5416 99.6355C35.7338 99.3351 35.999 99.0881 36.3126 98.9176C36.6262 98.747 36.978 98.6584 37.3351 98.6601C37.6347 98.6514 37.9346 98.6663 38.2318 98.7048C38.562 98.7711 38.8703 98.9187 39.1286 99.1344C39.3937 99.3537 39.6028 99.6328 39.7384 99.9487C39.8567 100.266 39.9056 100.605 39.8819 100.942C39.8819 101.98 39.8819 102.991 39.8819 103.949C39.8819 105.846 39.8101 107.573 39.7832 109.05C39.7832 109.766 39.7384 110.419 39.7115 111.01C39.7208 111.287 39.6685 111.564 39.5585 111.819C39.4484 112.074 39.2833 112.302 39.0748 112.486C38.2946 113.023 37.7386 112.808 37.7655 112.782Z" fill="#263238"/>
<path d="M22.2965 72.8243C22.171 72.8243 21.8213 70.4617 21.3998 66.5599C21.1935 64.6359 20.9424 62.345 20.7631 59.7766C20.7183 59.1054 20.7631 58.4611 20.7631 57.7631C20.7727 57.0589 20.8691 56.3586 21.0501 55.6779C21.2623 54.8863 21.7403 54.1914 22.4042 53.7091C23.1034 53.2626 23.9244 53.0437 24.7536 53.0827C25.5465 53.1334 26.3225 53.3338 27.0404 53.6734C27.7219 53.9508 28.3765 54.264 28.9953 54.5683C30.2597 55.2126 31.4255 55.8838 32.5375 56.546C34.7525 57.8615 36.6895 59.1233 38.3036 60.1972C39.9178 61.2711 41.2001 62.1839 42.0789 62.8819C42.5622 63.1787 43.0002 63.5434 43.3792 63.9647C43.2985 64.0811 41.2629 62.8103 37.9987 60.7968C36.3397 59.7945 34.4117 58.5953 32.1519 57.3335C31.0399 56.6981 29.8652 56.0448 28.6276 55.4274C28.0178 55.1231 27.3811 54.8188 26.7355 54.5325C26.1297 54.2442 25.4764 54.0683 24.8075 54.0134C24.1771 53.9805 23.5516 54.1397 23.0139 54.4698C22.4984 54.8207 22.1212 55.3395 21.9468 55.9375C21.6487 57.1941 21.537 58.4876 21.615 59.7766C21.7495 62.3092 21.9289 64.618 22.0544 66.551C22.3055 70.417 22.4221 72.8064 22.2965 72.8243Z" fill="#263238"/>
<path d="M103.838 124.809C103.672 124.576 103.567 124.306 103.533 124.022C103.467 123.68 103.449 123.33 103.48 122.984C103.554 122.519 103.665 122.061 103.811 121.614C104.172 120.389 104.691 119.216 105.354 118.124C106.263 116.659 107.489 115.415 108.941 114.482C110.702 113.37 112.691 112.667 114.761 112.424C115.319 112.335 115.882 112.278 116.447 112.254C117.07 112.182 117.702 112.252 118.294 112.459C118.925 112.687 119.489 113.066 119.937 113.564C120.384 114.063 120.701 114.664 120.859 115.314C120.941 115.648 120.983 115.991 120.984 116.334C120.984 116.648 120.984 116.961 120.984 117.274C120.984 117.901 120.984 118.536 120.984 119.171C120.984 120.46 120.984 121.766 120.913 123.1C120.85 125.785 120.796 128.523 120.733 131.342C120.644 135.208 120.554 138.949 120.473 142.483C120.469 142.6 120.42 142.71 120.336 142.792C120.253 142.873 120.141 142.92 120.025 142.922H118.231C118.164 142.921 118.098 142.905 118.037 142.876C117.977 142.847 117.924 142.804 117.882 142.752L116.599 141.114H117.299L116.106 142.716C116.067 142.773 116.015 142.82 115.954 142.853C115.893 142.885 115.825 142.903 115.756 142.904H110.734C110.655 142.904 110.577 142.88 110.512 142.835C110.446 142.791 110.396 142.727 110.367 142.653C108.322 137.284 106.645 132.881 105.497 129.767C104.923 128.21 104.484 126.993 104.197 126.187C104.021 125.767 103.892 125.329 103.811 124.881C104.064 125.229 104.277 125.605 104.448 125.999C104.807 126.814 105.345 128.013 105.946 129.579C107.219 132.64 109.004 137.034 111.129 142.34L110.725 142.108H115.747L115.398 142.296L116.483 140.658C116.547 140.563 116.645 140.497 116.757 140.473C116.87 140.45 116.987 140.471 117.083 140.533L117.182 140.631L118.482 142.26L118.133 142.09H119.926L119.478 142.528C119.549 138.949 119.621 135.253 119.702 131.387C119.774 128.559 119.836 125.802 119.899 123.136C119.899 121.811 119.962 120.496 119.998 119.216V117.319V116.424C119.999 116.15 119.969 115.877 119.908 115.61C119.788 115.093 119.542 114.615 119.191 114.217C118.841 113.819 118.397 113.513 117.899 113.328C117.412 113.15 116.89 113.089 116.375 113.149C115.829 113.166 115.284 113.21 114.743 113.283C112.774 113.491 110.874 114.123 109.174 115.135C107.789 115.995 106.605 117.143 105.704 118.5C105.025 119.54 104.474 120.658 104.063 121.829C103.663 122.771 103.584 123.818 103.838 124.809Z" fill="#263238"/>
<path d="M73.1066 133.91C72.8809 133.528 72.6831 133.13 72.5147 132.72C71.9777 131.634 71.2204 130.671 70.2908 129.892C69.5825 129.338 68.7699 128.931 67.9011 128.696C67.0323 128.461 66.1251 128.402 65.2331 128.523C64.1224 128.706 63.0654 129.129 62.1359 129.763C61.2065 130.397 60.4272 131.226 59.8526 132.192V131.816C60.6148 133.776 61.4309 135.897 62.2828 138.08C62.8388 139.53 63.3858 140.944 63.9059 142.313L63.4755 142.018H69.1878L68.8291 142.215L70.0128 140.362C70.07 140.272 70.1606 140.209 70.2648 140.185C70.3691 140.162 70.4784 140.18 70.5688 140.237C70.622 140.274 70.6652 140.323 70.6943 140.38L71.7973 142.26L71.4745 142.072H72.8914L72.5416 142.412C72.6493 139.79 72.7658 137.66 72.8645 136.147C72.8641 135.368 72.9483 134.591 73.1156 133.83C73.2521 134.585 73.3003 135.354 73.2591 136.121C73.2591 137.606 73.2591 139.754 73.2591 142.385C73.2568 142.474 73.2202 142.56 73.1567 142.623C73.0933 142.686 73.0079 142.723 72.9183 142.725H71.5014C71.4392 142.724 71.3782 142.708 71.3236 142.678C71.2689 142.649 71.2223 142.606 71.1876 142.555C70.8289 141.964 70.4432 141.347 70.0397 140.703H70.7302L69.5824 142.582C69.5439 142.641 69.4923 142.69 69.4316 142.726C69.371 142.761 69.3029 142.783 69.2326 142.788H63.5203C63.4292 142.788 63.3401 142.761 63.2648 142.71C63.1895 142.659 63.1316 142.586 63.0988 142.501C62.5608 141.135 62.0138 139.724 61.4578 138.268C60.6238 136.076 59.8077 133.964 59.0545 132.004C59.0281 131.948 59.0144 131.887 59.0144 131.825C59.0144 131.763 59.0281 131.702 59.0545 131.646C59.7198 130.593 60.6112 129.701 61.6642 129.034C62.7172 128.367 63.9056 127.942 65.1434 127.789C66.1306 127.676 67.1305 127.769 68.0799 128.061C69.0292 128.354 69.9073 128.84 70.6585 129.489C71.6075 130.351 72.3388 131.424 72.7927 132.622C72.9986 133.02 73.1062 133.462 73.1066 133.91Z" fill="#263238"/>
<path d="M34.8868 86.5878C36.3379 86.5878 37.5143 85.4139 37.5143 83.9658C37.5143 82.5176 36.3379 81.3437 34.8868 81.3437C33.4356 81.3437 32.2593 82.5176 32.2593 83.9658C32.2593 85.4139 33.4356 86.5878 34.8868 86.5878Z" fill="#263238"/>
<path d="M63.5204 83.9389C63.5204 84.4575 63.3663 84.9644 63.0776 85.3956C62.7888 85.8268 62.3785 86.1629 61.8984 86.3614C61.4183 86.5598 60.89 86.6118 60.3803 86.5106C59.8706 86.4094 59.4024 86.1597 59.035 85.793C58.6675 85.4263 58.4173 84.9591 58.3159 84.4504C58.2145 83.9418 58.2665 83.4146 58.4654 82.9355C58.6643 82.4564 59.001 82.0469 59.4331 81.7587C59.8652 81.4706 60.3732 81.3168 60.8929 81.3168C61.2379 81.3168 61.5796 81.3847 61.8984 81.5164C62.2172 81.6482 62.5068 81.8413 62.7508 82.0848C62.9948 82.3283 63.1883 82.6174 63.3204 82.9355C63.4524 83.2536 63.5204 83.5946 63.5204 83.9389Z" fill="#263238"/>
<path opacity="0.3" d="M20.467 111.144C21.023 111.144 48.4368 114.312 70.6853 114.321C100.879 114.321 122.93 109.846 122.93 109.846L20.467 111.144Z" fill="black"/>
<path d="M147.026 76.9408C146.817 77.4498 146.477 77.8944 146.04 78.2295C144.923 79.252 143.528 79.9215 142.031 80.1535C140.908 80.3074 139.765 80.2158 138.681 79.8851C137.597 79.5544 136.599 78.9926 135.754 78.2384C134.716 77.3491 133.962 76.1764 133.584 74.8647C133.378 74.13 133.378 73.3531 133.584 72.6184C133.843 71.8651 134.365 71.2299 135.054 70.8286C135.712 70.4541 136.437 70.2109 137.189 70.1127C137.92 69.9892 138.669 70.0227 139.386 70.2112C139.766 70.3035 140.122 70.4748 140.431 70.7138C140.74 70.9528 140.995 71.2542 141.179 71.5983C141.493 72.2492 141.582 72.9858 141.43 73.6923C141.178 74.9181 140.521 76.0241 139.565 76.8334C138.782 77.5234 137.867 78.0471 136.875 78.3727C135.425 78.8636 133.859 78.8948 132.391 78.4622C131.853 78.3428 131.353 78.0905 130.938 77.7283C130.938 77.6567 131.494 77.9163 132.481 78.1131C133.866 78.373 135.295 78.2492 136.615 77.7552C137.512 77.4192 138.334 76.9115 139.036 76.2607C139.825 75.5538 140.366 74.6127 140.578 73.576C140.679 73.055 140.61 72.5157 140.381 72.0368C140.249 71.8112 140.072 71.6154 139.86 71.4614C139.649 71.3074 139.408 71.1986 139.153 71.1419C137.931 70.8781 136.655 71.0691 135.565 71.6788C135.053 71.9728 134.667 72.4441 134.48 73.0033C134.323 73.5714 134.323 74.1713 134.48 74.7394C134.794 75.8874 135.439 76.9178 136.337 77.7015C137.088 78.3966 137.978 78.9251 138.949 79.2521C139.92 79.5791 140.949 79.6972 141.968 79.5987C143.372 79.4348 144.706 78.9003 145.833 78.0505C146.596 77.3525 146.963 76.8961 147.026 76.9408Z" fill="#263238"/>
<path d="M73.8983 247.55L24.0213 257.08C20.4801 257.757 18.1591 261.17 18.8371 264.704L24.4768 294.096C25.1549 297.63 28.5753 299.946 32.1165 299.269L81.9935 289.738C85.5347 289.062 87.8557 285.648 87.1776 282.114L81.538 252.723C80.8599 249.189 77.4395 246.873 73.8983 247.55Z" fill="#0EA362"/>
<g opacity="0.3">
<path d="M82.0563 255.432L19.3555 267.413L21.0521 276.255L83.7529 264.274L82.0563 255.432Z" fill="white"/>
</g>
<path d="M51.5389 285.775C51.5389 285.874 46.4633 286.929 40.1591 288.138C33.8549 289.346 28.7255 290.241 28.7076 290.133C28.6896 290.026 33.7832 288.979 40.0874 287.771C46.3916 286.563 51.5389 285.668 51.5389 285.775Z" fill="#263238"/>
<path d="M55.9691 282.831C55.9691 282.929 49.8173 284.2 42.186 285.659C34.5546 287.117 28.349 288.218 28.3311 288.111C28.3132 288.003 34.5008 286.75 42.1142 285.292C49.7277 283.833 55.9511 282.732 55.9691 282.831Z" fill="#263238"/>
<path d="M77.1568 270.851L72.0245 271.844C71.3693 271.971 70.9411 272.603 71.0682 273.257L72.0632 278.379C72.1902 279.033 72.8244 279.46 73.4796 279.333L78.6119 278.34C79.2672 278.214 79.6953 277.581 79.5683 276.927L78.5733 271.805C78.4462 271.151 77.8121 270.724 77.1568 270.851Z" fill="white"/>
<path d="M283.386 341.339L288.489 394.989H164.315C164.315 394.989 167.678 337.715 171.561 337.715C175.444 337.715 283.386 341.339 283.386 341.339Z" fill="#263238"/>
<path d="M164.27 105.64C164.743 102.408 165.868 99.3054 167.579 96.521C168.447 95.1373 169.605 93.9576 170.974 93.0632C172.342 92.1687 173.889 91.5807 175.507 91.3395C178.744 91.0084 182.268 92.843 183.308 95.9304L185.801 96.1452C181.963 99.8859 180.618 105.452 179.964 110.768C179.309 116.084 180.466 120.674 178.358 125.587C175.085 122.992 171.283 120.299 170.001 116.325C169.295 119.082 169.613 122 170.897 124.54C167.499 123.243 165.149 119.95 164.217 116.442C163.284 112.934 163.634 109.211 164.27 105.64Z" fill="#263238"/>
<path d="M179.327 92.8877C178.726 81.5851 192.079 76.4304 200.939 74.3095C209.799 72.1886 219.268 74.4617 227.052 78.963C234.836 83.4644 241.14 90.0508 246.781 96.9863L240.647 99.5458C242.378 98.7493 244.503 99.6979 245.597 101.21C246.568 102.806 247.129 104.617 247.229 106.481C247.877 110.887 248.177 115.336 248.126 119.788C247.794 131.422 243.839 142.689 239.93 153.741C236.02 145.803 235.267 136.738 234.854 127.896C234.711 124.764 234.531 121.426 232.666 118.885C230.989 116.603 228.182 115.359 225.402 114.687C222.622 114.016 219.699 113.793 216.901 113.13C213.8 112.356 210.887 110.965 208.337 109.042C205.787 107.118 203.652 104.701 202.06 101.935L179.327 92.8877Z" fill="#263238"/>
<path d="M234.145 109.891L247.686 174.655C249.982 185.671 251.112 202.325 233.491 205.162C218.022 206.54 211.162 192.974 209.063 182.691C208.05 177.814 207.189 173.742 207.054 173.259C207.054 173.259 190.213 175.138 185.604 159.075C183.38 151.307 180.107 134.912 177.309 120.093C175.862 112.398 177.372 104.442 181.538 97.809C185.704 91.1755 192.221 86.3512 199.791 84.2967L201.342 83.8761C218.425 80.3054 231.025 92.7804 234.145 109.891Z" fill="#FFBF9D"/>
<path d="M207.054 173.259C207.054 173.259 217.439 171.084 226.406 161.33C226.406 161.33 224.496 174.503 207.969 177.438L207.054 173.259Z" fill="#FF9A6C"/>
<path d="M203.485 141.714C203.485 141.57 201.844 141.714 199.253 142.089C198.607 142.197 197.97 142.233 197.746 141.83C197.511 141.19 197.48 140.493 197.656 139.834C197.836 138.143 198.015 136.371 198.212 134.465C198.948 126.894 199.289 120.746 198.984 120.719C198.679 120.692 197.836 126.804 197.109 134.366C196.939 136.228 196.787 138.009 196.634 139.736C196.443 140.606 196.567 141.516 196.984 142.304C197.138 142.503 197.334 142.664 197.56 142.776C197.785 142.887 198.033 142.946 198.284 142.949C198.659 142.944 199.032 142.896 199.396 142.805C201.952 142.268 203.512 141.857 203.485 141.714Z" fill="#263238"/>
<path d="M236.092 122.214C236.334 122.017 246.297 115.949 248.96 127.037C251.623 138.125 239.858 138.528 239.786 138.214C239.714 137.901 236.092 122.214 236.092 122.214Z" fill="#FFBF9D"/>
<path d="M242.18 133.158C242.18 133.114 242.405 133.257 242.772 133.328C243.28 133.41 243.8 133.294 244.225 133.006C245.301 132.299 245.848 130.196 245.427 128.183C245.228 127.209 244.814 126.292 244.216 125.498C244.031 125.178 243.771 124.908 243.459 124.71C243.147 124.512 242.791 124.393 242.422 124.361C242.184 124.354 241.951 124.431 241.765 124.578C241.578 124.726 241.449 124.934 241.4 125.167C241.328 125.507 241.445 125.713 241.4 125.749C241.355 125.784 241.122 125.614 241.104 125.14C241.096 124.848 241.191 124.563 241.373 124.335C241.625 124.032 241.986 123.839 242.378 123.798C242.858 123.79 243.333 123.907 243.755 124.135C244.178 124.364 244.534 124.698 244.79 125.104C245.496 125.952 245.983 126.96 246.207 128.039C246.664 130.304 246.018 132.666 244.521 133.516C244.243 133.675 243.932 133.77 243.613 133.793C243.293 133.816 242.972 133.767 242.674 133.65C242.261 133.454 242.145 133.221 242.18 133.158Z" fill="#FF9A6C"/>
<path d="M180.502 98.6598C176.861 92.3955 181.542 87.8047 186.259 82.3458C188.676 79.6503 191.856 77.7492 195.377 76.8929C198.899 76.0366 202.598 76.2654 205.987 77.5491C209.503 78.9541 212.444 81.4419 215.708 83.357C218.972 85.2721 222.927 86.6055 226.514 85.4153C225.104 87.7736 223.007 89.6469 220.503 90.7853C217.999 91.9237 215.206 92.2731 212.498 91.787C217.956 95.5702 224.408 97.6706 231.052 97.8276C229.08 99.9151 226.438 101.248 223.585 101.594C220.731 101.941 217.846 101.279 215.43 99.7248C218.319 104.54 222.35 108.572 227.169 111.466C227.985 111.958 228.962 112.602 228.899 113.542C228.837 114.482 227.832 115.099 226.918 115.395C224.224 116.245 221.351 116.362 218.596 115.732C215.842 115.103 213.306 113.751 211.251 111.815C206.902 107.609 203.485 102.812 199.36 98.3914C197.396 96.2883 192.106 93.1204 188.788 93.9169C186.026 94.5791 181.058 96.9416 180.457 99.7158" fill="#263238"/>
<path d="M203.79 85.8896C203.964 85.442 204.232 85.0366 204.575 84.7002C204.919 84.3638 205.33 84.1042 205.781 83.9387C211.574 81.254 218.73 83.2227 223.618 87.3393C228.505 91.4558 231.527 97.3264 234.038 103.197C236.074 107.967 237.894 113.041 237.553 118.196L235.679 122.93C235.096 124.335 235.518 125.919 235.562 127.404C235.607 128.89 234.917 130.751 233.41 130.984C232.852 130.977 232.307 130.818 231.833 130.525C231.359 130.231 230.974 129.814 230.72 129.319C228.926 126.473 229.24 122.634 227.33 119.86C226.048 117.999 223.94 116.907 222.174 115.493C219.044 113.005 216.937 109.497 214.892 106.061L204.58 88.7264C203.951 87.9221 203.667 86.9021 203.79 85.8896Z" fill="#263238"/>
<path d="M180.502 98.6598C176.861 92.3955 181.542 87.8047 186.259 82.3458C188.676 79.6503 191.856 77.7492 195.377 76.8929C198.899 76.0366 202.598 76.2654 205.987 77.5491C209.503 78.9541 212.444 81.4419 215.708 83.357C218.972 85.2721 222.927 86.6055 226.514 85.4153C225.104 87.7736 223.007 89.6469 220.503 90.7853C217.999 91.9237 215.206 92.2731 212.498 91.787C217.956 95.5702 224.408 97.6706 231.052 97.8276C229.08 99.9151 226.438 101.248 223.585 101.594C220.731 101.941 217.846 101.279 215.43 99.7248C218.319 104.54 222.35 108.572 227.169 111.466C227.985 111.958 228.962 112.602 228.899 113.542C228.837 114.482 227.832 115.099 226.918 115.395C224.224 116.245 221.351 116.362 218.596 115.732C215.842 115.103 213.306 113.751 211.251 111.815C206.902 107.609 203.485 102.812 199.36 98.3914C197.396 96.2883 192.106 93.1204 188.788 93.9169C186.026 94.5791 181.058 96.9416 180.457 99.7158" fill="#263238"/>
<path d="M214.856 87.5183C214.856 87.4557 214.264 87.5183 213.233 87.3662C211.777 87.1463 210.365 86.7026 209.045 86.0507C207.341 85.2811 205.458 84.055 203.252 82.8648C202.087 82.2301 200.857 81.7201 199.585 81.3435C198.187 80.9457 196.723 80.83 195.28 81.0034C192.512 81.3967 189.925 82.6093 187.855 84.4846C186.186 85.9851 184.777 87.751 183.685 89.7108C182.945 91.0101 182.294 92.3586 181.739 93.7468C181.508 94.2478 181.333 94.7731 181.219 95.3129C181.354 95.3666 182.179 93.1651 184.124 89.9435C185.244 88.0743 186.648 86.3898 188.285 84.9499C190.28 83.2004 192.741 82.0685 195.37 81.6925C198.015 81.4711 200.664 82.078 202.947 83.4286C205.144 84.5562 207.072 85.7553 208.839 86.4892C210.217 87.1191 211.695 87.5008 213.206 87.6167C213.757 87.6959 214.319 87.6624 214.856 87.5183Z" fill="#455A64"/>
<path d="M209.198 99.2505C209.261 99.152 207.745 98.1318 205.611 96.0914C204.517 95.0892 203.261 93.8452 201.719 92.6013C200.057 91.1872 198.118 90.1355 196.024 89.5139C193.899 88.9593 191.666 88.9593 189.541 89.5139C187.81 89.9599 186.195 90.7717 184.806 91.8944C183.878 92.6411 183.071 93.5254 182.412 94.5164C182.141 94.8622 181.94 95.2573 181.82 95.6798C182.781 94.425 183.889 93.2894 185.12 92.2971C186.636 91.1544 188.395 90.3759 190.261 90.022C192.128 89.6681 194.051 89.7484 195.881 90.2567C197.883 90.8456 199.744 91.8352 201.351 93.1651C202.885 94.3553 204.176 95.5545 205.315 96.521C206.2 97.2966 207.134 98.014 208.113 98.6688C208.444 98.9144 208.81 99.1104 209.198 99.2505Z" fill="#455A64"/>
<path d="M171.319 108.343C171.544 107.46 171.709 106.563 171.812 105.658C172.173 103.564 172.947 101.562 174.09 99.7695C175.265 98.0132 176.93 96.6383 178.879 95.8141C180.385 95.1966 181.434 95.1876 181.425 95.0623C180.521 94.8865 179.584 94.9831 178.735 95.3398C176.582 96.0789 174.739 97.5153 173.498 99.4205C172.291 101.288 171.541 103.412 171.31 105.622C171.133 106.521 171.136 107.445 171.319 108.343Z" fill="#455A64"/>
<path d="M221.86 115.001C222.024 115.015 222.189 115.015 222.353 115.001C222.835 114.953 223.314 114.878 223.788 114.777C225.609 114.385 227.334 113.637 228.864 112.576C230.015 111.868 230.946 110.854 231.554 109.649C231.724 109.272 231.787 108.855 231.734 108.444C231.682 108.034 231.517 107.645 231.258 107.322C230.638 106.704 229.803 106.349 228.926 106.329C228.03 106.24 227.205 106.329 226.344 106.249C225.438 106.198 224.538 106.073 223.653 105.873C221.763 105.43 219.972 104.641 218.371 103.546L218.129 104.083C220.032 104.497 222.017 104.303 223.804 103.529C225.59 102.755 227.087 101.44 228.083 99.7695L228.308 99.3668L227.85 99.2862C224.532 98.6417 221.42 97.2013 218.784 95.0891L218.524 95.7066C220.755 95.9079 223 95.5174 225.032 94.5745C227.063 93.6316 228.809 92.1698 230.092 90.3372L230.388 89.8987L230.711 89.4065L230.11 89.3528C228.083 89.1144 226.15 88.3628 224.496 87.1692C222.863 85.9961 221.32 84.7039 219.878 83.3033C218.455 81.9299 216.905 80.6926 215.251 79.6073C213.644 78.5888 211.926 77.757 210.13 77.1284C207.028 76.0237 203.734 75.5518 200.446 75.7409C197.157 75.93 193.94 76.7761 190.985 78.2292C187.027 80.2134 183.669 83.2124 181.255 86.9187C180.34 88.2454 179.619 89.6946 179.112 91.2232C179.814 89.7929 180.608 88.4089 181.488 87.0798C183.943 83.4873 187.294 80.5945 191.209 78.6856C193.897 77.3728 196.814 76.5889 199.8 76.3767C203.228 76.1277 206.671 76.5971 209.906 77.7549C213.482 79.0477 216.726 81.117 219.403 83.8134C220.867 85.2451 222.438 86.5644 224.102 87.7599C225.854 89.0222 227.901 89.817 230.047 90.0687L229.769 89.5228C229.689 89.6571 229.59 89.7913 229.5 89.9345C228.29 91.6643 226.646 93.0463 224.732 93.9416C222.818 94.8369 220.702 95.2141 218.596 95.0354L217.412 94.9101L218.309 95.6529C221.036 97.8299 224.257 99.305 227.689 99.9484L227.465 99.4652C226.545 100.994 225.174 102.202 223.54 102.923C221.905 103.644 220.088 103.843 218.336 103.492L216.721 103.107L218.094 104.002C219.763 105.122 221.627 105.92 223.591 106.356C224.499 106.555 225.423 106.678 226.353 106.723C227.249 106.723 228.146 106.723 228.917 106.777C229.67 106.773 230.396 107.058 230.944 107.573C231.161 107.831 231.301 108.146 231.347 108.48C231.393 108.814 231.343 109.154 231.204 109.461C230.633 110.61 229.755 111.58 228.666 112.262C227.185 113.328 225.519 114.111 223.752 114.571C222.532 114.911 221.851 114.956 221.86 115.001Z" fill="#455A64"/>
<path d="M186.187 132.827C186.305 133.429 186.65 133.962 187.151 134.316C187.651 134.671 188.269 134.82 188.877 134.733C189.18 134.696 189.473 134.599 189.738 134.447C190.003 134.295 190.234 134.091 190.419 133.849C190.604 133.606 190.738 133.329 190.813 133.033C190.889 132.738 190.904 132.431 190.859 132.129C190.741 131.528 190.396 130.996 189.895 130.643C189.394 130.289 188.776 130.142 188.169 130.232C187.866 130.268 187.574 130.365 187.309 130.516C187.044 130.667 186.813 130.869 186.628 131.111C186.443 131.353 186.309 131.63 186.233 131.925C186.157 132.219 186.142 132.526 186.187 132.827Z" fill="#263238"/>
<path d="M182.582 124.952C182.932 125.203 184.438 123.529 186.958 123.028C189.478 122.527 191.586 123.404 191.792 123.028C191.899 122.867 191.496 122.375 190.572 121.954C189.329 121.42 187.95 121.286 186.627 121.569C185.312 121.827 184.115 122.499 183.21 123.484C182.555 124.209 182.412 124.845 182.582 124.952Z" fill="#263238"/>
<path d="M208.014 129.328C208.132 129.929 208.477 130.463 208.978 130.817C209.479 131.172 210.097 131.321 210.704 131.234C211.008 131.198 211.3 131.102 211.565 130.951C211.831 130.8 212.063 130.597 212.248 130.356C212.434 130.114 212.569 129.837 212.646 129.542C212.722 129.248 212.739 128.94 212.695 128.639C212.575 128.028 212.222 127.487 211.71 127.132C211.198 126.776 210.567 126.633 209.951 126.733C209.653 126.776 209.366 126.877 209.107 127.03C208.848 127.184 208.622 127.387 208.442 127.629C208.262 127.87 208.132 128.144 208.058 128.436C207.985 128.727 207.97 129.031 208.014 129.328Z" fill="#263238"/>
<path d="M207.404 120.522C207.754 120.773 209.27 119.099 211.789 118.598C214.309 118.097 216.417 118.974 216.623 118.598C216.731 118.428 216.327 117.936 215.394 117.515C214.15 116.986 212.772 116.851 211.449 117.131C210.137 117.391 208.944 118.061 208.041 119.046C207.386 119.815 207.234 120.415 207.404 120.522Z" fill="#263238"/>
<path d="M216.282 110.159C215.995 109.479 213.448 109.936 210.417 109.73C207.386 109.524 204.902 108.835 204.535 109.461C204.373 109.775 204.831 110.41 205.844 111.036C207.192 111.807 208.704 112.248 210.256 112.325C211.808 112.435 213.363 112.175 214.794 111.564C215.879 111.063 216.408 110.49 216.282 110.159Z" fill="#263238"/>
<path d="M180.959 117.578C181.587 118.052 183.533 117.077 186.008 116.585C188.483 116.093 190.653 116.11 191.021 115.421C191.173 115.09 190.743 114.58 189.72 114.204C188.332 113.766 186.851 113.71 185.434 114.043C184.009 114.317 182.688 114.976 181.614 115.949C180.851 116.701 180.672 117.345 180.959 117.578Z" fill="#263238"/>
<path d="M205.853 150.877C206.247 150.958 206.606 148.354 209.09 146.815C211.574 145.275 214.309 145.92 214.372 145.58C214.435 145.427 213.825 144.989 212.659 144.801C211.135 144.571 209.577 144.888 208.265 145.696C207.003 146.464 206.092 147.694 205.727 149.123C205.476 150.161 205.674 150.868 205.853 150.877Z" fill="#263238"/>
<path d="M150.308 152.247C149.725 153.025 134.794 178.763 134.794 178.763C134.794 178.763 120.365 205.61 117.971 212.769C114.474 223.221 113.389 238.855 123.988 245.093C130.266 248.771 135.834 249.173 149.474 243.92C158.024 240.536 165.956 235.768 172.951 229.808L173.041 184.427L155.94 200.106L166.432 159.11L150.308 152.247Z" fill="#FFBF9D"/>
<path d="M143.851 163.37L150.317 150.242C150.317 150.242 165.454 123.117 166.369 122.026C167.284 120.934 172.153 109.613 172.153 109.613L178.968 101.479C178.968 101.479 182.17 101.953 180.143 106.087L177.246 111.591L187.846 100.942C187.846 100.942 190.994 101.309 189.765 104.638C188.868 107.117 185.613 110.956 185.613 110.956L195.182 102.732C195.182 102.732 199.145 103.34 197.244 107.492C196.007 110.159 184.887 122.419 184.887 122.419C184.887 122.419 190.429 119.001 192.186 117.864C193.944 116.728 195.773 114.285 197.038 114.491C198.302 114.696 200.625 116.728 197.226 120.54C193.827 124.352 184.376 130.474 182.995 131.207L181.614 131.968C181.614 131.968 179.973 136.21 177.65 138.232C177.65 138.232 173.848 150.269 171.929 153.58C170.563 155.829 168.678 157.719 166.432 159.092L162.118 175.935" fill="#FFBF9D"/>
<path d="M162.118 175.961C162.13 175.862 162.148 175.763 162.172 175.666C162.172 175.469 162.289 175.192 162.369 174.825L163.176 171.541L166.324 159.11V159.057H166.369C169.513 157.148 171.897 154.21 173.112 150.743C174.619 146.984 176.036 142.787 177.489 138.214C179.211 136.419 180.539 134.286 181.389 131.95V131.888H181.452C182.81 131.164 184.13 130.372 185.407 129.516C186.722 128.657 188.043 127.762 189.371 126.831C190.698 125.883 192.061 124.898 193.343 123.851C194.69 122.809 195.944 121.654 197.092 120.397C197.66 119.765 198.118 119.042 198.446 118.258C198.621 117.884 198.707 117.475 198.698 117.062C198.688 116.649 198.584 116.244 198.392 115.878C198.171 115.524 197.862 115.234 197.495 115.036C197.317 114.943 197.127 114.874 196.93 114.831C196.743 114.799 196.55 114.821 196.374 114.893C195.59 115.295 194.877 115.824 194.267 116.459C193.602 117.12 192.879 117.719 192.106 118.249L189.738 119.735L184.914 122.742L183.551 123.592L184.627 122.402C187.362 119.359 190.142 116.209 192.877 112.925C194.286 111.306 195.586 109.596 196.769 107.806C197.32 106.923 197.519 105.866 197.325 104.844C197.145 104.368 196.839 103.95 196.439 103.635C196.039 103.319 195.561 103.119 195.056 103.054L195.244 103L192.554 105.354L185.73 111.26L185.398 110.938C186.75 109.343 187.951 107.627 188.985 105.81C189.235 105.371 189.436 104.906 189.586 104.423C189.75 103.968 189.803 103.48 189.738 103C189.674 102.54 189.433 102.123 189.066 101.837C188.687 101.552 188.243 101.364 187.774 101.291L187.963 101.228L177.327 111.869L176.287 112.907L176.977 111.609L179.784 106.284C180.258 105.469 180.509 104.543 180.511 103.6C180.481 103.16 180.303 102.743 180.005 102.418C179.706 102.092 179.306 101.878 178.87 101.81L179.067 101.729L172.243 109.855V109.81C171.346 111.895 170.449 113.936 169.552 115.922C168.656 117.909 167.759 119.851 166.781 121.695C165.625 123.44 164.656 125.194 163.661 126.894C162.665 128.594 161.733 130.268 160.809 131.87C157.168 138.322 153.985 143.942 151.366 148.577L150.496 150.161C150.2 150.716 149.94 151.271 149.671 151.799L148.192 154.779L145.842 159.486C145.205 160.748 144.712 161.724 144.38 162.395L143.995 163.137C143.905 163.299 143.851 163.379 143.851 163.379C143.851 163.379 143.851 163.29 143.968 163.12L144.318 162.368C144.649 161.688 145.116 160.703 145.734 159.424C146.353 158.144 147.124 156.56 148.03 154.699L149.483 151.701C149.752 151.173 150.003 150.618 150.299 150.054L151.241 148.354C153.841 143.709 156.989 138.062 160.603 131.601C161.517 129.99 162.462 128.329 163.436 126.617C164.423 124.916 165.4 123.126 166.539 121.408C167.517 119.618 168.333 117.641 169.283 115.663C170.234 113.685 171.077 111.627 171.974 109.542L178.78 101.407L178.861 101.309H178.977C179.501 101.408 179.983 101.664 180.358 102.043C180.728 102.432 180.951 102.939 180.986 103.474C180.993 104.501 180.727 105.511 180.215 106.401L177.417 111.77L177.058 111.511L187.685 100.861L187.765 100.781H187.873C188.427 100.864 188.952 101.086 189.397 101.425C189.852 101.781 190.153 102.296 190.24 102.866C190.316 103.417 190.258 103.979 190.07 104.503C189.913 105.016 189.702 105.511 189.442 105.98C188.388 107.821 187.166 109.562 185.793 111.179L185.461 110.857L192.276 104.942L194.966 102.588L195.047 102.517H195.155C195.737 102.626 196.288 102.861 196.769 103.206C197.264 103.554 197.628 104.058 197.8 104.638C197.962 105.205 197.962 105.806 197.8 106.374C197.744 106.653 197.66 106.926 197.549 107.188C197.453 107.455 197.333 107.713 197.19 107.958C195.995 109.774 194.68 111.508 193.254 113.148C190.509 116.441 187.721 119.592 184.985 122.634L184.698 122.285L189.514 119.287C190.303 118.786 191.101 118.294 191.881 117.811C192.632 117.296 193.337 116.718 193.989 116.084C194.642 115.407 195.407 114.848 196.249 114.428C196.498 114.338 196.766 114.31 197.029 114.347C197.272 114.396 197.505 114.484 197.719 114.607C198.151 114.84 198.511 115.187 198.76 115.609C198.985 116.029 199.111 116.496 199.127 116.972C199.142 117.449 199.047 117.923 198.849 118.357C198.5 119.185 198.015 119.951 197.414 120.621C196.246 121.89 194.971 123.058 193.603 124.111C192.276 125.176 190.913 126.16 189.604 127.1C188.294 128.039 186.913 128.943 185.622 129.784C184.331 130.626 182.932 131.458 181.632 132.156L181.712 132.058C181.23 133.259 180.651 134.42 179.982 135.53C179.364 136.596 178.597 137.569 177.704 138.42V138.34C176.233 142.877 174.807 147.074 173.274 150.868C172.903 151.785 172.484 152.681 172.018 153.553C171.548 154.382 170.996 155.162 170.368 155.88C169.215 157.201 167.866 158.338 166.369 159.254L166.432 159.173C165.033 164.542 163.939 168.722 163.185 171.603L162.289 174.87C162.19 175.228 162.118 175.505 162.055 175.702L162.118 175.961Z" fill="#FF9A6C"/>
<path d="M187.173 109.22C187.004 109.486 186.809 109.735 186.59 109.962C186.205 110.428 185.622 111.09 184.896 111.895C183.443 113.506 181.389 115.69 178.968 117.954C177.258 119.562 175.462 121.077 173.588 122.491C172.433 122.821 171.34 123.335 170.35 124.012C169.642 124.505 169.283 124.845 169.265 124.818C169.247 124.791 169.337 124.719 169.507 124.558C169.749 124.326 170.007 124.111 170.279 123.914C171.255 123.183 172.355 122.632 173.525 122.285C175.067 121.086 176.915 119.511 178.825 117.721C181.237 115.466 183.308 113.3 184.797 111.725C185.523 110.965 186.115 110.329 186.59 109.855C186.774 109.633 186.968 109.421 187.173 109.22Z" fill="#FF9A6C"/>
<path d="M187.174 109.22C187.174 109.22 186.851 109.613 186.232 110.311C185.613 111.009 184.707 112.012 183.542 113.22L179.327 117.515C177.524 119.275 175.629 120.939 173.65 122.5L173.408 122.115L173.57 122.536C172.803 122.769 172.065 123.09 171.373 123.493C170.669 123.9 170.021 124.396 169.445 124.97C169.451 124.947 169.451 124.922 169.445 124.898C169.45 124.862 169.448 124.825 169.439 124.79C169.43 124.754 169.413 124.721 169.391 124.693C169.372 124.671 169.347 124.655 169.319 124.648C169.293 124.634 169.264 124.627 169.234 124.627C169.204 124.627 169.175 124.634 169.149 124.648H169.203L169.328 124.549L169.579 124.344L170.099 123.968C170.45 123.723 170.816 123.499 171.193 123.296C171.928 122.9 172.704 122.585 173.507 122.357H173.435C177.012 119.588 180.365 116.542 183.461 113.247C184.645 112.03 185.541 111.009 186.151 110.32L187.12 109.255C186.9 109.689 186.612 110.084 186.268 110.428C185.667 111.144 184.806 112.218 183.649 113.453C180.605 116.829 177.268 119.932 173.677 122.724C172.909 122.942 172.167 123.242 171.462 123.619C171.104 123.816 170.754 124.03 170.413 124.263L169.911 124.639L169.66 124.827L169.534 124.925L169.472 124.979H169.418H169.355C169.327 124.992 169.296 124.998 169.265 124.998C169.234 124.998 169.204 124.992 169.176 124.979C169.148 124.972 169.123 124.956 169.104 124.934C169.078 124.907 169.059 124.874 169.048 124.839C169.037 124.803 169.035 124.765 169.041 124.728C169.039 124.699 169.039 124.669 169.041 124.639C170.252 123.398 171.767 122.494 173.435 122.017L173.606 122.437L173.364 122.062C175.498 120.397 177.408 118.724 179.058 117.149L183.326 112.934C185.739 110.66 187.084 109.13 187.174 109.22Z" fill="#FF9A6C"/>
<path d="M177.767 110.947C177.47 111.391 177.137 111.811 176.771 112.2C176.117 112.951 175.193 113.989 174.144 115.054L171.453 117.838C171.098 118.24 170.711 118.614 170.297 118.956C170.594 118.508 170.934 118.088 171.31 117.703C171.965 116.961 172.897 115.958 173.946 114.866C174.996 113.775 175.883 112.844 176.637 112.074C176.983 111.669 177.361 111.292 177.767 110.947Z" fill="#FF9A6C"/>
<path d="M177.767 110.947C177.767 110.947 176.977 111.842 175.632 113.345L173.274 115.905L171.893 117.417C171.651 117.676 171.4 117.945 171.166 118.222L170.808 118.643L170.637 118.858L170.557 118.965V119.019C170.562 118.982 170.557 118.944 170.542 118.91C170.528 118.875 170.505 118.845 170.476 118.822C170.449 118.796 170.416 118.778 170.379 118.77C170.343 118.762 170.305 118.764 170.27 118.777H170.225L170.324 118.688L170.521 118.491L170.906 118.106L171.669 117.327L173.112 115.86C174.009 114.965 174.834 114.07 175.525 113.345C176.215 112.62 176.78 112.065 177.148 111.654L177.731 111.027C177.217 111.974 176.554 112.833 175.767 113.569C175.112 114.312 174.332 115.215 173.426 116.155L172 117.641L171.238 118.428L170.844 118.822L170.646 119.028L170.53 119.126L170.467 119.18H170.413C170.378 119.197 170.34 119.206 170.301 119.206C170.262 119.206 170.224 119.197 170.189 119.18C170.158 119.152 170.133 119.117 170.118 119.079C170.102 119.04 170.096 118.998 170.099 118.956C170.099 118.885 170.099 118.956 170.099 118.902V118.849V118.804L170.144 118.741L170.234 118.625L170.413 118.392L170.772 117.972C171.014 117.685 171.265 117.417 171.507 117.157L172.924 115.654C173.821 114.696 174.664 113.864 175.363 113.157C176.069 112.323 176.876 111.58 177.767 110.947Z" fill="#FF9A6C"/>
<path d="M173.695 127.789C177.747 126.472 181.602 124.615 185.156 122.267L173.695 127.789Z" fill="#FFBF9D"/>
<path d="M185.156 122.267C184.721 122.723 184.219 123.109 183.667 123.413C182.403 124.242 181.085 124.987 179.721 125.641C178.365 126.305 176.966 126.879 175.534 127.359C174.962 127.602 174.358 127.759 173.74 127.825C173.695 127.69 176.43 126.76 179.551 125.221C182.672 123.681 185.057 122.151 185.156 122.267Z" fill="#FF9A6C"/>
<path d="M185.156 122.267C185.156 122.267 185.03 122.402 184.761 122.589C184.492 122.777 184.115 123.046 183.631 123.359C182.357 124.161 181.04 124.893 179.686 125.552C178.329 126.216 176.933 126.798 175.507 127.297C174.96 127.485 174.52 127.628 174.206 127.717C174.048 127.778 173.882 127.814 173.713 127.825C174.277 127.557 174.854 127.321 175.444 127.118C176.511 126.688 177.982 126.08 179.56 125.328C181.138 124.576 182.528 123.789 183.533 123.207C184.057 122.866 184.599 122.552 185.156 122.267Z" fill="#FF9A6C"/>
<path d="M185.156 122.267C184.133 122.983 183.067 123.635 181.963 124.218C180.804 124.905 179.606 125.527 178.376 126.08L176.179 127.055C175.803 127.225 175.408 127.395 175.005 127.547L174.395 127.789L174.099 127.905L173.955 127.968H173.893C173.92 127.945 173.94 127.916 173.953 127.883C173.966 127.85 173.969 127.815 173.964 127.78C173.96 127.748 173.949 127.717 173.932 127.689C173.915 127.661 173.892 127.637 173.866 127.619H173.785H173.74C175.312 127.18 176.85 126.627 178.34 125.963C179.739 125.364 180.959 124.737 181.927 124.173C182.896 123.61 183.721 123.135 184.277 122.795C184.833 122.455 185.129 122.267 185.129 122.267C185.129 122.267 184.905 122.563 184.376 122.938C183.645 123.492 182.881 124 182.089 124.46C180.93 125.154 179.732 125.781 178.502 126.339C176.972 127.047 175.385 127.625 173.758 128.066H173.677C173.677 128.066 173.677 128.066 173.588 128.066C173.558 128.048 173.533 128.023 173.515 127.993C173.496 127.964 173.484 127.931 173.48 127.896C173.478 127.858 173.483 127.82 173.497 127.784C173.511 127.749 173.533 127.717 173.561 127.69L173.641 127.637L173.731 127.592L173.893 127.52L174.197 127.395L174.798 127.162C175.202 127.01 175.596 126.849 175.973 126.679L178.161 125.731C179.587 125.176 180.771 124.478 181.802 123.941C182.885 123.316 184.005 122.757 185.156 122.267Z" fill="#FF9A6C"/>
<path d="M290.264 187.667C290.264 187.667 304.613 194.772 309.814 218.487C313.096 233.387 318.979 257.55 318.979 257.55L281.593 263.438C281.593 263.438 275.71 228.107 276.392 227.391C277.073 226.676 290.264 187.667 290.264 187.667Z" fill="#0EA362"/>
<path d="M173.041 184.382L208.14 178.27C208.14 178.27 211 195.837 229.85 192.589C249.229 189.251 247.678 173.474 247.678 173.474C247.678 173.474 279.961 182.682 286.238 185.474C289.951 187.111 293.26 189.539 295.932 192.589C295.932 192.589 284.445 237.074 284.086 237.638C283.727 238.202 282.804 304.756 282.445 329.437C284.848 333.912 285.512 339.066 284.749 344.65L175.659 346.959L172.153 234.944L157.59 242.336L150.066 220.966L156.827 195.909L173.041 184.382Z" fill="#0EA362"/>
<path d="M196.123 267.922L196.275 267.841L196.715 267.617L198.446 266.794L204.804 263.769C210.184 261.201 217.564 257.612 225.662 253.514C233.76 249.415 241.033 245.585 246.288 242.775L252.493 239.446L254.179 238.551L254.618 238.327C254.726 238.273 254.771 238.247 254.78 238.256L254.636 238.345L254.206 238.605L252.538 239.544C251.094 240.368 248.951 241.531 246.377 242.954C241.158 245.809 233.894 249.666 225.797 253.764C217.699 257.863 210.265 261.425 204.884 263.939C202.194 265.201 199.997 266.203 198.482 266.892L196.688 267.671L196.231 267.868C196.159 267.916 196.123 267.934 196.123 267.922Z" fill="#263238"/>
<path d="M285.368 220.25C285.38 220.375 285.38 220.501 285.368 220.626C285.368 220.903 285.296 221.261 285.243 221.7C285.099 222.684 284.911 224.045 284.678 225.736C284.158 229.244 283.431 234.139 282.588 239.884C282.588 243.938 282.642 248.431 282.678 253.156C282.678 262.275 282.678 270.526 282.741 276.566C282.741 279.52 282.741 281.936 282.741 283.663V285.587C282.76 285.81 282.76 286.035 282.741 286.258C282.7 286.037 282.682 285.812 282.687 285.587C282.687 285.104 282.687 284.459 282.633 283.663C282.633 281.936 282.57 279.52 282.526 276.566C282.472 270.535 282.4 262.248 282.328 253.156C282.328 248.431 282.328 243.938 282.274 239.884C283.171 234.148 283.978 229.262 284.543 225.763C284.83 224.08 285.054 222.72 285.225 221.745C285.305 221.306 285.368 220.957 285.422 220.68C285.385 220.54 285.367 220.395 285.368 220.25Z" fill="#263238"/>
<path d="M169.122 201.744C169.294 202.214 169.424 202.699 169.507 203.193C169.723 204.142 170.001 205.511 170.315 207.22C170.942 210.621 171.669 215.355 172.18 220.644C172.691 225.933 172.897 230.694 172.933 234.157C172.933 235.893 172.933 237.289 172.933 238.256C172.941 238.758 172.911 239.261 172.843 239.759C172.77 239.261 172.74 238.758 172.754 238.256C172.754 237.217 172.673 235.83 172.619 234.166C172.503 230.711 172.243 225.942 171.722 220.689C171.202 215.436 170.539 210.71 169.992 207.265C169.714 205.618 169.498 204.258 169.328 203.22C169.224 202.734 169.155 202.24 169.122 201.744Z" fill="#263238"/>
<path d="M158.253 190.96C158.379 190.96 155.949 200.016 152.819 211.104C149.689 222.192 147.062 231.159 146.936 231.132C146.811 231.105 149.286 222.076 152.388 211.015C155.491 199.954 158.146 190.924 158.253 190.96Z" fill="#FF9A6C"/>
<path d="M152.953 306.429C152.953 306.429 160.657 282.365 187.739 299.467C215.538 316.989 233.904 394.989 233.904 394.989H162.459C162.459 371.444 137.35 308.461 129.494 306.25L152.953 306.429Z" fill="#E0E0E0"/>
<path d="M173.041 293.346L120.347 292.451C120.347 292.451 97.3008 292.764 97.3008 322.475C97.3008 360.956 110.815 374.093 74.9358 396.054L132.839 400.814C132.839 400.814 160.235 399.087 160.208 367.032C160.208 352.4 158.989 324.399 157.76 311.888C156.872 302.787 164.235 293.945 173.041 293.346Z" fill="white"/>
<path d="M173.041 293.346L172.431 293.435C171.811 293.515 171.197 293.634 170.593 293.793C168.268 294.41 166.107 295.528 164.262 297.068C162.929 298.194 161.755 299.494 160.773 300.934C159.607 302.668 158.76 304.596 158.271 306.626C158.119 307.163 158.065 307.736 157.957 308.308C157.85 308.881 157.868 309.472 157.814 310.098C157.76 310.725 157.859 311.306 157.886 311.933C157.912 312.559 157.993 313.186 158.056 313.83C158.289 316.398 158.495 319.128 158.684 322C159.428 333.5 160.101 347.371 160.37 363.076C160.542 367.126 160.338 371.182 159.76 375.193C159.406 377.273 158.881 379.321 158.19 381.314C157.488 383.368 156.559 385.337 155.42 387.185C153.074 391.025 149.842 394.25 145.995 396.59C144.019 397.803 141.914 398.791 139.717 399.535C137.495 400.326 135.186 400.849 132.839 401.092L79.5451 396.734L74.9358 396.349L74.2363 396.295L74.8282 395.919C77.4557 394.273 80.0563 392.626 82.5044 390.8C84.9654 389.033 87.2942 387.089 89.4722 384.984C91.6226 382.923 93.5219 380.616 95.1307 378.111C96.688 375.638 97.8441 372.934 98.5563 370.101C99.9732 364.455 99.6504 358.665 99.2109 353.098C98.7715 347.532 98.081 342.073 97.6865 336.73C97.2919 331.388 97.0677 326.18 97.1484 321.105C97.1484 319.835 97.2829 318.573 97.3726 317.329C97.4623 316.085 97.6685 314.85 97.9286 313.642C98.3796 311.253 99.0923 308.922 100.054 306.689C101.886 302.414 104.928 298.766 108.806 296.191C110.634 295.009 112.613 294.076 114.689 293.417C116.671 292.754 118.742 292.395 120.832 292.352L173.041 293.346L120.814 292.657C118.76 292.707 116.725 293.066 114.779 293.721C112.731 294.376 110.779 295.299 108.977 296.469C105.174 298.998 102.192 302.577 100.395 306.769C99.4409 308.974 98.74 311.28 98.3052 313.642C98.0452 314.841 97.9196 316.067 97.7582 317.293C97.5968 318.519 97.543 319.781 97.543 321.043C97.4623 326.09 97.6775 331.298 98.099 336.623C98.5204 341.948 99.1482 347.362 99.6324 352.991C100.117 358.62 100.413 364.392 98.9778 370.128C98.2576 373.01 97.0832 375.758 95.4984 378.272C93.8756 380.811 91.955 383.149 89.7771 385.234C87.5833 387.354 85.2364 389.31 82.7555 391.087C80.2984 392.93 77.6888 394.586 75.0524 396.232L74.9537 395.803L79.572 396.188L132.857 400.573C135.166 400.327 137.438 399.813 139.628 399.042C141.788 398.307 143.86 397.334 145.806 396.143C149.599 393.836 152.787 390.661 155.106 386.881C156.215 385.06 157.118 383.121 157.796 381.1C158.489 379.128 159.013 377.101 159.365 375.041C159.947 371.057 160.154 367.027 159.984 363.005C159.751 347.308 159.087 333.473 158.406 321.938C158.226 319.065 158.029 316.336 157.805 313.767L157.643 311.87C157.643 311.244 157.572 310.626 157.581 310.018C157.59 309.409 157.634 308.81 157.724 308.228C157.814 307.646 157.904 307.064 158.056 306.519C158.56 304.469 159.429 302.526 160.621 300.782C161.632 299.33 162.839 298.023 164.208 296.898C166.076 295.356 168.267 294.252 170.619 293.668C171.207 293.511 171.807 293.41 172.413 293.364L173.041 293.346Z" fill="#263238"/>
<path d="M49.6203 381.941C49.6203 381.941 48.1406 399.767 70.3712 400.832C92.6017 401.897 132.857 400.832 132.857 400.832C132.857 400.832 118.868 398.309 118.868 383.131L49.6203 381.941Z" fill="#E0E0E0"/>
<path d="M49.6201 381.941H50.9294H54.7675L69.1783 382.12L118.859 382.854H119.074V383.077C118.914 387.153 120.218 391.152 122.749 394.354C125.281 397.556 128.875 399.752 132.884 400.546L134.677 400.958L132.884 401.011H132.749C119.782 401.325 107.425 401.477 96.1886 401.459C90.5659 401.459 85.2302 401.405 80.2353 401.289C77.7334 401.217 75.3211 401.172 72.9985 401.056C70.769 401.013 68.5441 400.836 66.3356 400.528C62.5019 400.012 58.8713 398.5 55.8077 396.143C53.5381 394.303 51.8041 391.889 50.7859 389.154C50.1428 387.43 49.7561 385.621 49.638 383.784C49.638 383.167 49.638 382.684 49.638 382.362C49.638 382.039 49.638 381.878 49.638 381.878C49.638 381.878 49.638 382.048 49.638 382.362C49.638 382.675 49.6381 383.158 49.7098 383.784C49.8565 385.594 50.2673 387.373 50.9294 389.064C51.9635 391.749 53.6934 394.112 55.9422 395.91C58.9852 398.211 62.5769 399.679 66.3625 400.17C68.5594 400.47 70.7724 400.638 72.9895 400.671C75.3032 400.77 77.7154 400.814 80.2174 400.877C85.2033 400.976 90.548 401.002 96.1617 401.002C107.398 401.002 119.746 400.832 132.713 400.519H132.839V400.976C130.741 400.501 128.737 399.678 126.911 398.541C125.106 397.452 123.521 396.035 122.239 394.362C119.834 391.086 118.574 387.112 118.652 383.051L118.876 383.274L69.3487 382.335L54.893 382.03L51.0101 381.932H49.9968L49.6201 381.941Z" fill="#263238"/>
<path d="M146.47 314.823C146.47 315.074 141.439 315.289 135.234 315.289C129.028 315.289 123.988 315.074 123.988 314.823C123.988 314.573 129.019 314.349 135.234 314.349C141.448 314.349 146.47 314.555 146.47 314.823Z" fill="#263238"/>
<path d="M107.595 314.886C107.595 314.626 109.003 314.412 110.734 314.412C112.465 314.412 113.873 314.626 113.873 314.886C113.873 315.146 112.465 315.351 110.734 315.351C109.003 315.351 107.595 315.137 107.595 314.886Z" fill="#263238"/>
<path d="M147.86 306.626C147.86 306.877 142.829 307.091 136.623 307.091C130.418 307.091 125.378 306.877 125.378 306.626C125.378 306.375 130.409 306.161 136.623 306.161C142.838 306.161 147.86 306.366 147.86 306.626Z" fill="#263238"/>
<path d="M108.986 306.698C108.986 306.438 110.394 306.232 112.124 306.232C113.855 306.232 115.263 306.438 115.263 306.698C115.263 306.957 113.855 307.163 112.124 307.163C110.394 307.163 108.986 306.948 108.986 306.698Z" fill="#263238"/>
<path d="M152.388 299.225C152.388 299.485 147.358 299.691 141.143 299.691C134.929 299.691 129.907 299.485 129.907 299.225C129.907 298.966 134.938 298.76 141.143 298.76C147.349 298.76 152.388 298.966 152.388 299.225Z" fill="#263238"/>
<path d="M113.514 299.297C113.514 299.037 114.913 298.831 116.653 298.831C118.393 298.831 119.782 299.037 119.782 299.297C119.782 299.556 118.384 299.762 116.653 299.762C114.922 299.762 113.514 299.556 113.514 299.297Z" fill="#263238"/>
<path d="M146.47 323.772C146.47 324.032 141.439 324.238 135.234 324.238C129.028 324.238 123.988 324.032 123.988 323.772C123.988 323.513 129.019 323.307 135.234 323.307C141.448 323.307 146.47 323.495 146.47 323.772Z" fill="#263238"/>
<path d="M107.595 323.826C107.595 323.567 109.003 323.361 110.734 323.361C112.465 323.361 113.873 323.567 113.873 323.826C113.873 324.086 112.465 324.291 110.734 324.291C109.003 324.291 107.595 324.077 107.595 323.826Z" fill="#263238"/>
<path d="M147.609 332.525C147.609 332.775 142.569 332.99 136.364 332.99C130.158 332.99 125.127 332.775 125.127 332.525C125.127 332.274 130.158 332.059 136.364 332.059C142.569 332.059 147.609 332.265 147.609 332.525Z" fill="#263238"/>
<path d="M108.734 332.596C108.734 332.337 110.133 332.122 111.864 332.122C113.595 332.122 115.003 332.337 115.003 332.596C115.003 332.856 113.604 333.061 111.864 333.061C110.124 333.061 108.734 332.847 108.734 332.596Z" fill="#263238"/>
<path d="M147.967 340.095C147.967 340.355 142.928 340.561 136.722 340.561C130.517 340.561 125.477 340.355 125.477 340.095C125.477 339.836 130.517 339.63 136.722 339.63C142.928 339.63 147.967 339.881 147.967 340.095Z" fill="#263238"/>
<path d="M109.084 340.167C109.084 339.907 110.492 339.702 112.223 339.702C113.954 339.702 115.362 339.907 115.362 340.167C115.362 340.427 113.954 340.632 112.223 340.632C110.492 340.632 109.084 340.418 109.084 340.167Z" fill="#263238"/>
<path d="M148.317 347.666C148.317 347.926 143.286 348.132 137.081 348.132C130.875 348.132 125.835 347.926 125.835 347.666C125.835 347.407 130.866 347.201 137.081 347.201C143.295 347.201 148.317 347.407 148.317 347.666Z" fill="#263238"/>
<path d="M109.443 347.738C109.443 347.478 110.851 347.272 112.582 347.272C114.312 347.272 115.72 347.478 115.72 347.738C115.72 347.997 114.312 348.203 112.582 348.203C110.851 348.203 109.443 347.997 109.443 347.738Z" fill="#263238"/>
<path d="M148.676 355.237C148.676 355.497 143.645 355.702 137.439 355.702C131.234 355.702 126.194 355.497 126.194 355.237C126.194 354.978 131.225 354.772 137.439 354.772C143.654 354.772 148.676 354.978 148.676 355.237Z" fill="#263238"/>
<path d="M109.829 355.309C109.829 355.049 111.237 354.843 112.967 354.843C114.698 354.843 116.106 355.049 116.106 355.309C116.106 355.568 114.698 355.774 112.967 355.774C111.237 355.774 109.829 355.568 109.829 355.309Z" fill="#263238"/>
<path d="M148.81 362.602C148.81 362.862 143.771 363.068 137.565 363.068C131.36 363.068 126.32 362.862 126.32 362.602C126.32 362.343 131.36 362.137 137.565 362.137C143.771 362.137 148.81 362.343 148.81 362.602Z" fill="#263238"/>
<path d="M109.936 362.674C109.936 362.414 111.335 362.208 113.066 362.208C114.796 362.208 116.204 362.414 116.204 362.674C116.204 362.933 114.805 363.139 113.066 363.139C111.326 363.139 109.936 362.933 109.936 362.674Z" fill="#263238"/>
<path d="M147.609 369.931C147.609 370.182 142.569 370.397 136.364 370.397C130.158 370.397 125.127 370.182 125.127 369.931C125.127 369.681 130.158 369.466 136.364 369.466C142.569 369.466 147.609 369.672 147.609 369.931Z" fill="#263238"/>
<path d="M108.734 370.003C108.734 369.743 110.133 369.538 111.864 369.538C113.595 369.538 115.003 369.743 115.003 370.003C115.003 370.263 113.604 370.468 111.864 370.468C110.124 370.468 108.734 370.254 108.734 370.003Z" fill="#263238"/>
<path d="M144.721 377.708C144.721 377.968 139.69 378.173 133.485 378.173C127.279 378.173 122.24 377.968 122.24 377.708C122.24 377.449 127.27 377.243 133.485 377.243C139.699 377.243 144.721 377.466 144.721 377.708Z" fill="#263238"/>
<path d="M105.847 377.78C105.847 377.52 107.255 377.314 108.986 377.314C110.716 377.314 112.124 377.52 112.124 377.78C112.124 378.039 110.716 378.245 108.986 378.245C107.255 378.245 105.847 378.039 105.847 377.78Z" fill="#263238"/>
<path d="M142.551 384.796C142.551 385.055 137.52 385.261 131.306 385.261C125.091 385.261 120.069 385.055 120.069 384.796C120.069 384.536 125.1 384.33 131.306 384.33C137.511 384.33 142.551 384.536 142.551 384.796Z" fill="#263238"/>
<path d="M239.427 304.595L282.597 286.187L282.471 263.429L313.392 258.579C313.392 258.579 314.71 301.955 309.213 309.418C302.326 318.779 245.678 319.924 245.678 319.924L239.427 304.595Z" fill="#FFBF9D"/>
<path d="M282.22 286.491C287.419 286.708 292.409 288.591 296.452 291.86L282.22 286.491Z" fill="#FFBF9D"/>
<path d="M296.452 291.815C292.257 288.821 287.351 286.97 282.22 286.446C282.976 286.335 283.743 286.335 284.498 286.446C288.169 286.848 291.681 288.162 294.712 290.267C295.366 290.694 295.953 291.216 296.452 291.815Z" fill="#FF9A6C"/>
<path d="M233.626 304.595C233.007 304.8 218.928 305.221 214.578 305.633C210.229 306.044 199.253 310.474 199.253 310.474L201.701 314.054C201.701 314.054 200.087 315.038 194.527 314.904C188.106 314.743 180.448 314.689 181.282 319.656C181.282 319.656 177.22 321.302 181.219 324.408L185.004 325.643C185.004 325.643 185.622 328.327 192.249 329.777C192.249 329.777 189.972 331.218 197.011 332.668C204.051 334.117 214.399 336.176 223.098 333.903C231.796 331.63 247.731 319.745 247.731 319.745L239.454 304.532L233.626 304.595Z" fill="#FFBF9D"/>
<path d="M215.852 311.494C215.107 311.678 214.348 311.795 213.583 311.843C212.184 312.022 210.256 312.3 208.14 312.738C206.023 313.177 204.131 313.633 202.759 313.973C202.031 314.21 201.284 314.383 200.526 314.492C201.207 314.133 201.926 313.851 202.669 313.651C204.434 313.088 206.231 312.63 208.05 312.282C209.869 311.929 211.708 311.684 213.556 311.548C214.316 311.44 215.087 311.422 215.852 311.494Z" fill="#FF9A6C"/>
<path d="M212.121 319.718C211.727 319.839 211.321 319.917 210.911 319.951C210.13 320.076 208.992 320.228 207.584 320.381C204.777 320.685 200.867 320.962 196.545 320.998C192.222 321.034 188.312 320.801 185.497 320.533C184.089 320.399 182.95 320.273 182.17 320.157C181.759 320.129 181.353 320.054 180.959 319.933C181.369 319.914 181.78 319.929 182.188 319.978L185.523 320.202C188.339 320.39 192.24 320.56 196.545 320.533C200.849 320.506 204.741 320.273 207.557 320.05L210.893 319.772C211.299 319.713 211.711 319.695 212.121 319.718Z" fill="#FF9A6C"/>
<path d="M213.502 326.063C213.141 326.182 212.768 326.263 212.39 326.305C211.664 326.43 210.597 326.582 209.314 326.726C205.915 327.106 202.494 327.264 199.073 327.2C195.651 327.142 192.236 326.864 188.85 326.368C187.55 326.18 186.51 325.992 185.792 325.84C185.414 325.78 185.042 325.687 184.68 325.562C185.063 325.548 185.445 325.582 185.819 325.661L188.895 326.045C191.487 326.35 195.092 326.663 199.082 326.734C203.073 326.806 206.678 326.618 209.278 326.403L212.363 326.126C212.739 326.061 213.121 326.04 213.502 326.063Z" fill="#FF9A6C"/>
<path d="M212.121 330.386C211.871 330.493 211.604 330.556 211.332 330.574C210.821 330.663 210.077 330.761 209.153 330.851C204.313 331.318 199.431 331.076 194.662 330.135C193.765 329.956 193.011 329.786 192.518 329.643C192.249 329.6 191.988 329.512 191.747 329.383C192.744 329.472 193.734 329.616 194.715 329.813C197.092 330.183 199.487 330.431 201.889 330.556C204.279 330.679 206.674 330.679 209.063 330.556C210.079 330.441 211.1 330.384 212.121 330.386Z" fill="#FF9A6C"/>
</svg>
