<svg width="460" height="403" viewBox="0 0 460 403" fill="none" xmlns="http://www.w3.org/2000/svg">
<path d="M361.452 50.9356C319.954 14.8003 263.784 50.9356 209.222 127.087C154.66 203.239 128.687 171.215 82.2707 204.76C35.8545 238.304 23.5041 375.797 186.949 362.434C350.394 349.071 469.935 145.412 361.452 50.9356Z" fill="#F0F0F0"/>
<path d="M437.582 401.265C437.582 401.422 339.999 401.538 219.67 401.538C99.3405 401.538 1.72546 401.422 1.72546 401.265C1.72546 401.108 99.2879 400.992 219.67 400.992C340.051 400.992 437.582 401.118 437.582 401.265Z" fill="#263238"/>
<path d="M68.4595 12.2724C67.0511 59.6941 62.9203 237.948 61.8271 285.506C61.7536 288.624 62.9192 291.645 65.0696 293.909C67.2201 296.173 70.1806 297.496 73.3051 297.59L269.061 303.558C270.622 303.605 272.178 303.344 273.638 302.789C275.099 302.234 276.434 301.396 277.569 300.323C278.703 299.251 279.613 297.965 280.248 296.54C280.882 295.115 281.227 293.579 281.264 292.02L284.312 154.254L300.888 153.982C302.848 153.949 304.719 153.155 306.102 151.769C307.486 150.382 308.274 148.512 308.298 146.555L309.57 35.5689C309.589 33.5832 308.821 31.6703 307.433 30.2476C306.045 28.8249 304.149 28.0079 302.16 27.9747L287.15 27.681L287.266 16.9506C287.299 13.8481 286.103 10.858 283.937 8.63196C281.772 6.40588 278.812 5.12422 275.704 5.06628L80.421 0.870593C77.3254 0.81961 74.3342 1.98764 72.0954 4.1217C69.8566 6.25577 68.5503 9.18407 68.4595 12.2724Z" fill="#0EA362"/>
<path opacity="0.4" d="M68.4595 12.2724C67.0511 59.6941 62.9203 237.948 61.8271 285.506C61.7536 288.624 62.9192 291.645 65.0696 293.909C67.2201 296.173 70.1806 297.496 73.3051 297.59L269.061 303.558C270.622 303.605 272.178 303.344 273.638 302.789C275.099 302.234 276.434 301.396 277.569 300.323C278.703 299.251 279.613 297.965 280.248 296.54C280.882 295.115 281.227 293.579 281.264 292.02L284.312 154.254L300.888 153.982C302.848 153.949 304.719 153.155 306.102 151.769C307.486 150.382 308.274 148.512 308.298 146.555L309.57 35.5689C309.589 33.5832 308.821 31.6703 307.433 30.2476C306.045 28.8249 304.149 28.0079 302.16 27.9747L287.15 27.681L287.266 16.9506C287.299 13.8481 286.103 10.858 283.937 8.63196C281.772 6.40588 278.812 5.12422 275.704 5.06628L80.421 0.870593C77.3254 0.81961 74.3342 1.98764 72.0954 4.1217C69.8566 6.25577 68.5503 9.18407 68.4595 12.2724Z" fill="black"/>
<path d="M83.3324 14.3073L66.063 288.779L267.778 300.054L284.06 27.6496L83.3324 14.3073Z" fill="#E0E0E0"/>
<path d="M59.0839 8.34942L60.4293 283.366L262.449 281.017L260.263 8.13964L59.0839 8.34942Z" fill="#EBEBEB"/>
<path d="M32.6383 27.2719L70.772 299.645L270.669 270.402L231.989 0.262222L32.6383 27.2719Z" fill="#FAFAFA"/>
<path d="M32.6381 27.272L231.957 0H232.178V0.220273C243.056 76.1097 256.447 169.495 270.9 270.349V270.622H270.627L269.176 270.832L70.8032 299.897H70.551V299.645C48.1417 138.5 32.9744 29.4118 32.7116 27.2405L71.087 299.583L70.8032 299.362L269.239 270.318L270.7 270.097L270.469 270.412C256.048 169.548 242.688 76.1622 231.841 0.26223L232.093 0.451037L32.6381 27.272Z" fill="#263238"/>
<path d="M219.428 90.3856C219.502 90.8366 185.236 96.5742 142.898 103.214C100.56 109.854 66.1682 114.857 66.1682 114.416C66.1682 113.976 100.36 108.228 142.698 101.588C185.036 94.9484 219.355 89.945 219.428 90.3856Z" fill="#263238"/>
<path d="M234.07 163.537C234.133 163.978 199.867 169.726 157.54 176.355C115.212 182.984 80.8099 188.009 80.8099 187.558C80.8099 187.107 114.991 181.369 157.34 174.74C199.689 168.111 233.996 163.076 234.07 163.537Z" fill="#263238"/>
<path d="M236.203 189.865C236.267 190.316 202.001 196.054 159.673 202.683C117.346 209.312 82.9436 214.337 82.9436 213.886C82.9436 213.435 117.125 207.697 159.474 201.068C201.822 194.439 236.13 189.414 236.203 189.865Z" fill="#263238"/>
<path d="M211.65 32.6005C211.65 33.0096 188.652 36.5864 160.251 40.5933C131.851 44.6002 108.748 47.5162 108.748 47.1071C108.748 46.698 131.746 43.1107 160.157 39.1143C188.568 35.1179 211.629 32.1914 211.65 32.6005Z" fill="#263238"/>
<path d="M214.898 47.1805C214.898 47.5896 191.9 51.1769 163.499 55.1733C135.099 59.1697 111.996 62.0962 111.996 61.6871C111.996 61.278 134.983 57.7012 163.394 53.6943C191.805 49.6874 214.887 46.7714 214.898 47.1805Z" fill="#263238"/>
<path d="M218.829 62.5682C218.829 62.9877 195.831 66.5645 167.42 70.5714C139.009 74.5783 115.979 77.4838 115.916 77.0747C115.853 76.6657 138.946 73.0888 167.325 69.1344C195.705 65.18 218.829 62.1591 218.829 62.5682Z" fill="#263238"/>
<path d="M240.124 215.438C240.198 215.879 205.932 221.627 163.594 228.256C121.256 234.885 86.8641 239.909 86.8641 239.458C86.8641 239.007 121.056 233.27 163.394 226.641C205.732 220.011 240.05 214.987 240.124 215.438Z" fill="#263238"/>
<path d="M244.055 241.011C244.129 241.451 209.863 247.199 167.536 253.829C125.208 260.458 90.8058 265.482 90.7428 265.031C90.6797 264.58 124.935 258.842 167.283 252.213C209.632 245.584 243.982 240.56 244.055 241.011Z" fill="#263238"/>
<path d="M98.1213 105.217C98.2054 106.266 98.7835 111.154 98.7835 111.154L183.281 99.0707L181.967 92.0114L98.1213 105.217Z" fill="#0EA362"/>
<path d="M68.6908 133.79C68.7854 134.839 69.3214 141.583 69.3214 141.583L225.861 115.79L225.114 107.294L68.6908 133.79Z" fill="#0EA362"/>
<path d="M73.3472 158.817C73.4418 159.866 73.9778 166.621 73.9778 166.621L230.517 140.828L229.771 132.321L73.3472 158.817Z" fill="#0EA362"/>
<path d="M79.6011 184.296C79.6011 184.684 81.1357 192.215 81.1357 192.215L159.579 179.481L158.801 169.862L79.6011 184.296Z" fill="#0EA362"/>
<path d="M56.8135 45.6176L63.8348 96.1756L109.967 89.7248L103.682 39.3241L56.8135 45.6176Z" fill="#263238"/>
<path d="M56.8135 45.6176L63.8348 96.1756L109.967 89.7248L103.682 39.3241L56.8135 45.6176Z" fill="#0EA362"/>
<path d="M304.692 397.615L304.64 387.965L322.74 387.755L322.971 401.863L321.846 401.947C316.854 402.282 296.441 403.31 293.088 402.335C289.357 401.254 304.692 397.615 304.692 397.615Z" fill="#0EA362"/>
<path d="M316.412 401.8C316.662 400.273 317.466 398.891 318.672 397.919C319.853 396.954 321.353 396.468 322.876 396.555L322.939 401.6L316.412 401.8Z" fill="#0EA362"/>
<path d="M297.198 399.66C297.198 399.66 291.827 401.275 292.51 402.156C293.193 403.038 313.868 402.775 322.992 401.863V401.454L298.88 401.968C298.88 401.968 298.26 399.691 297.198 399.66Z" fill="#0EA362"/>
<path d="M323.223 401.443H322.908L322.014 401.517L318.735 401.695C315.95 401.831 312.113 401.968 307.867 402.02C303.62 402.073 299.784 402.02 296.998 402.02L293.709 401.926H292.815H292.5H293.709H297.009C299.784 401.926 303.62 401.926 307.867 401.926C312.113 401.926 315.95 401.747 318.725 401.653L322.014 401.548H322.908L323.223 401.443Z" fill="#263238"/>
<path d="M298.838 402.251C298.69 401.707 298.478 401.182 298.207 400.688C297.878 400.233 297.497 399.818 297.072 399.45C297.642 399.651 298.115 400.059 298.396 400.594C298.739 401.075 298.896 401.663 298.838 402.251Z" fill="#263238"/>
<path d="M304.146 399.471C304.093 399.471 303.841 399.198 303.568 398.789C303.375 398.554 303.238 398.278 303.168 397.982C303.221 397.982 303.484 398.254 303.746 398.674C304.009 399.094 304.198 399.44 304.146 399.471Z" fill="#263238"/>
<path d="M305.607 398.685C305.607 398.685 305.271 398.538 304.955 398.265C304.64 397.992 304.419 397.73 304.461 397.688C304.503 397.646 304.787 397.824 305.102 398.108C305.418 398.391 305.638 398.643 305.607 398.685Z" fill="#263238"/>
<path d="M306.511 396.964C306.211 397.084 305.886 397.131 305.565 397.101C305.247 397.138 304.925 397.109 304.619 397.017C304.919 396.897 305.243 396.85 305.565 396.88C305.883 396.844 306.204 396.872 306.511 396.964Z" fill="#263238"/>
<path d="M306.816 395.758C306.506 395.97 306.14 396.084 305.764 396.083C305.408 396.145 305.042 396.097 304.713 395.947C305.06 395.887 305.412 395.859 305.764 395.863C306.111 395.8 306.463 395.765 306.816 395.758Z" fill="#263238"/>
<path d="M303.515 397.908C303.129 397.973 302.735 397.973 302.348 397.908C301.928 397.856 301.513 397.768 301.108 397.646C300.859 397.58 300.62 397.485 300.393 397.363C300.254 397.285 300.149 397.157 300.099 397.006C300.082 396.92 300.09 396.831 300.121 396.75C300.153 396.668 300.207 396.597 300.278 396.545C300.716 396.317 301.221 396.252 301.704 396.359C302.186 396.467 302.616 396.74 302.916 397.132C303.1 397.356 303.232 397.617 303.305 397.898C303.328 398.001 303.328 398.109 303.305 398.212C303.178 397.856 302.994 397.523 302.758 397.226C302.489 396.93 302.144 396.712 301.76 396.597C301.532 396.524 301.293 396.497 301.055 396.517C300.816 396.537 300.585 396.603 300.372 396.712C300.183 396.849 300.267 397.069 300.467 397.185C300.678 397.297 300.9 397.388 301.129 397.457C301.52 397.588 301.92 397.687 302.327 397.751C303.074 397.877 303.515 397.877 303.515 397.908Z" fill="#263238"/>
<path d="M303.21 397.971C303.07 397.727 303.018 397.442 303.063 397.164C303.099 396.859 303.207 396.568 303.379 396.314C303.474 396.14 303.611 395.994 303.779 395.887C303.946 395.781 304.137 395.718 304.335 395.706C304.455 395.728 304.56 395.798 304.629 395.898C304.698 395.998 304.725 396.121 304.703 396.241C304.677 396.427 304.613 396.605 304.514 396.765C304.364 397.023 304.18 397.259 303.967 397.468C303.793 397.684 303.565 397.851 303.305 397.95C303.305 397.95 303.536 397.74 303.852 397.363C304.04 397.149 304.203 396.913 304.335 396.66C304.493 396.419 304.598 395.978 304.335 395.926C304.072 395.873 303.746 396.199 303.568 396.429C303.409 396.655 303.302 396.913 303.252 397.185C303.216 397.445 303.202 397.708 303.21 397.971Z" fill="#263238"/>
<path d="M322.792 396.503C322.792 396.503 322.267 396.503 321.457 396.566C320.392 396.697 319.386 397.127 318.555 397.804C317.724 398.481 317.101 399.379 316.759 400.394C316.496 401.181 316.475 401.695 316.433 401.695C316.416 401.573 316.416 401.45 316.433 401.328C316.467 400.998 316.53 400.671 316.622 400.352C316.933 399.285 317.56 398.337 318.421 397.633C319.283 396.929 320.338 396.502 321.447 396.408C321.779 396.374 322.113 396.374 322.445 396.408C322.565 396.424 322.682 396.456 322.792 396.503Z" fill="#263238"/>
<path d="M320.785 389.055C321.002 391.521 321.065 393.998 320.974 396.471C320.771 394.005 320.707 391.529 320.785 389.055Z" fill="#263238"/>
<path d="M314.11 400.069C312.379 400.417 310.6 400.456 308.855 400.185C308.855 400.122 310.042 400.185 311.504 400.185C312.965 400.185 314.1 400.006 314.11 400.069Z" fill="#263238"/>
<path d="M317.631 400.017C317.631 400.017 317.537 400.268 317.421 400.541C317.306 400.814 317.243 401.055 317.179 401.045C317.116 401.034 317.085 400.761 317.179 400.447C317.274 400.132 317.631 399.975 317.631 400.017Z" fill="#263238"/>
<path d="M318.966 398.338C319.019 398.338 318.903 398.569 318.714 398.758C318.525 398.947 318.346 399.073 318.304 399.031C318.262 398.989 318.367 398.8 318.556 398.611C318.746 398.422 318.924 398.296 318.966 398.338Z" fill="#263238"/>
<path d="M320.869 397.552C320.869 397.615 320.616 397.615 320.354 397.709C320.091 397.803 319.902 397.95 319.849 397.908C319.796 397.866 319.954 397.625 320.28 397.51C320.606 397.394 320.89 397.499 320.869 397.552Z" fill="#263238"/>
<path d="M322.235 397.174C322.235 397.237 322.151 397.331 322.004 397.384C321.857 397.436 321.709 397.457 321.688 397.384C321.667 397.31 321.773 397.237 321.92 397.174C322.067 397.111 322.204 397.122 322.235 397.174Z" fill="#263238"/>
<path d="M397.21 392.632L394.256 383.444L376.987 388.846L381.191 402.324L382.242 402.062C387.098 400.835 406.817 395.485 409.707 393.524C412.923 391.342 397.21 392.632 397.21 392.632Z" fill="#0EA362"/>
<path d="M387.371 400.237C386.664 398.859 385.469 397.794 384.018 397.247C382.592 396.692 381.009 396.692 379.583 397.247L381.096 402.062L387.371 400.237Z" fill="#0EA362"/>
<path d="M404.967 392.255C404.967 392.255 410.579 392.129 410.222 393.178C409.865 394.227 390.115 400.373 381.17 402.324L381.086 401.936L404.157 394.95C404.157 394.95 403.979 392.611 404.967 392.255Z" fill="#0EA362"/>
<path d="M380.781 402.01L381.096 401.947L381.958 401.726L385.112 400.887C387.792 400.153 391.492 399.094 395.538 397.835C399.585 396.576 403.232 395.349 405.86 394.436L408.961 393.325L409.802 393.01C409.901 392.979 409.996 392.937 410.085 392.884L409.781 392.968L408.929 393.241L405.776 394.29C403.138 395.171 399.469 396.387 395.444 397.625C391.418 398.863 387.708 399.964 385.038 400.772L381.885 401.684L381.033 401.936C380.947 401.954 380.863 401.979 380.781 402.01Z" fill="#263238"/>
<path d="M404.21 395.223C404.192 394.661 404.234 394.098 404.336 393.545C404.506 393.009 404.739 392.495 405.03 392.013C404.549 392.374 404.222 392.902 404.115 393.492C403.941 394.062 403.975 394.675 404.21 395.223Z" fill="#263238"/>
<path d="M398.303 394.227C398.366 394.227 398.513 393.87 398.65 393.398C398.786 392.926 398.828 392.527 398.765 392.506C398.596 392.76 398.481 393.045 398.429 393.345C398.322 393.626 398.278 393.927 398.303 394.227Z" fill="#263238"/>
<path d="M396.673 393.933C396.726 393.933 396.947 393.692 397.157 393.335C397.367 392.978 397.504 392.653 397.451 392.622C397.399 392.59 397.189 392.863 396.968 393.22C396.747 393.576 396.621 393.901 396.673 393.933Z" fill="#263238"/>
<path d="M395.286 392.58C395.606 392.589 395.925 392.532 396.222 392.412C396.535 392.347 396.832 392.218 397.094 392.034C396.773 392.012 396.451 392.069 396.158 392.202C395.654 392.349 395.265 392.517 395.286 392.58Z" fill="#263238"/>
<path d="M394.624 391.52C394.965 391.631 395.333 391.631 395.675 391.52C396.047 391.47 396.395 391.309 396.674 391.059C396.316 391.11 395.964 391.194 395.622 391.311C395.284 391.353 394.95 391.423 394.624 391.52Z" fill="#263238"/>
<path d="M398.418 392.538C398.808 392.495 399.187 392.377 399.532 392.192C399.918 392.014 400.287 391.804 400.636 391.562C400.85 391.42 401.047 391.255 401.225 391.069C401.33 390.95 401.39 390.798 401.393 390.639C401.383 390.551 401.348 390.468 401.292 390.399C401.236 390.33 401.162 390.279 401.078 390.251C400.589 390.169 400.086 390.262 399.659 390.513C399.232 390.764 398.908 391.158 398.744 391.625C398.646 391.901 398.603 392.193 398.618 392.485C398.613 392.59 398.635 392.695 398.681 392.79C398.684 392.413 398.756 392.04 398.891 391.688C399.05 391.318 399.313 391.001 399.648 390.776C399.842 390.635 400.061 390.534 400.294 390.478C400.526 390.422 400.768 390.413 401.004 390.45C401.214 390.534 401.214 390.755 401.057 390.933C400.892 391.106 400.709 391.261 400.51 391.395C400.176 391.64 399.825 391.861 399.459 392.055C398.839 392.38 398.408 392.506 398.418 392.538Z" fill="#263238"/>
<path d="M398.723 392.506C398.788 392.233 398.75 391.946 398.618 391.699C398.496 391.418 398.304 391.172 398.061 390.985C397.922 390.857 397.754 390.763 397.571 390.714C397.387 390.665 397.195 390.661 397.01 390.702C396.957 390.731 396.91 390.769 396.873 390.816C396.835 390.863 396.807 390.917 396.79 390.974C396.774 391.032 396.769 391.092 396.776 391.152C396.783 391.211 396.802 391.269 396.831 391.321C396.908 391.492 397.023 391.642 397.167 391.762C397.392 391.957 397.639 392.126 397.903 392.265C398.136 392.416 398.404 392.503 398.681 392.517C398.681 392.517 398.397 392.391 397.977 392.129C397.736 391.98 397.511 391.808 397.304 391.615C397.083 391.426 396.842 391.038 397.104 390.902C397.26 390.873 397.421 390.879 397.574 390.921C397.726 390.963 397.868 391.039 397.987 391.143C398.209 391.308 398.392 391.519 398.523 391.762C398.619 392.001 398.687 392.251 398.723 392.506Z" fill="#263238"/>
<path d="M379.646 397.174C379.646 397.174 380.129 396.975 380.939 396.828C381.991 396.62 383.082 396.714 384.083 397.1C385.084 397.487 385.955 398.149 386.593 399.01C387.087 399.67 387.266 400.163 387.308 400.142C387.29 400.023 387.255 399.906 387.203 399.796C387.073 399.49 386.91 399.198 386.72 398.926C386.092 398.009 385.201 397.303 384.163 396.9C383.126 396.498 381.991 396.418 380.907 396.671C380.582 396.749 380.265 396.858 379.961 396.996C379.847 397.038 379.741 397.098 379.646 397.174Z" fill="#263238"/>
<path d="M379.204 389.444C379.758 391.855 380.46 394.23 381.307 396.555C381.049 395.343 380.726 394.145 380.34 392.968C380.032 391.771 379.653 390.594 379.204 389.444Z" fill="#263238"/>
<path d="M389.022 397.877C389.909 397.806 390.785 397.627 391.628 397.342C392.487 397.115 393.314 396.781 394.088 396.345C394.088 396.293 392.953 396.713 391.565 397.132C390.178 397.552 389.011 397.814 389.022 397.877Z" fill="#263238"/>
<path d="M385.637 398.926C385.637 398.926 385.805 399.136 385.994 399.356C386.184 399.576 386.331 399.786 386.383 399.765C386.436 399.744 386.383 399.471 386.163 399.209C385.942 398.947 385.658 398.873 385.637 398.926Z" fill="#263238"/>
<path d="M383.85 397.74C383.85 397.793 383.987 397.94 384.229 398.066C384.47 398.191 384.681 398.244 384.702 398.191C384.723 398.139 384.565 397.992 384.334 397.866C384.102 397.74 383.85 397.688 383.85 397.74Z" fill="#263238"/>
<path d="M381.811 397.583C381.811 397.636 382.063 397.583 382.347 397.583C382.631 397.583 382.862 397.678 382.894 397.583C382.925 397.489 382.704 397.342 382.358 397.331C382.011 397.321 381.748 397.531 381.811 397.583Z" fill="#263238"/>
<path d="M380.403 397.646C380.403 397.709 380.529 397.761 380.686 397.772C380.844 397.782 380.981 397.772 380.981 397.688C380.981 397.604 380.865 397.573 380.697 397.562C380.529 397.552 380.403 397.583 380.403 397.646Z" fill="#263238"/>
<path d="M292.374 206.071L300.824 393.461L329.015 394.048L324.337 237.172L375.42 395.915L398.46 389.622L347.051 206.071" fill="#263238"/>
<path d="M374.212 394.856L375.526 397.373L399.942 390.272L398.46 386.181L374.212 394.856Z" fill="#455A64"/>
<path d="M395.643 385.248C395.791 385.248 396.011 385.51 396.137 385.919C396.264 386.328 396.243 386.716 396.137 386.758C396.032 386.8 395.78 386.496 395.654 386.077C395.528 385.657 395.496 385.29 395.643 385.248Z" fill="#455A64"/>
<path d="M393.815 379.164C393.962 379.164 394.288 379.762 394.54 380.601C394.792 381.44 394.876 382.164 394.729 382.206C394.582 382.248 394.266 381.608 394.014 380.758C393.762 379.909 393.667 379.206 393.815 379.164Z" fill="#455A64"/>
<path d="M391.986 373.08C392.133 373.08 392.459 373.678 392.711 374.517C392.963 375.356 393.047 376.08 392.9 376.122C392.753 376.164 392.438 375.514 392.185 374.675C391.933 373.836 391.838 373.122 391.986 373.08Z" fill="#455A64"/>
<path d="M390.157 367.028C390.304 367.028 390.63 367.626 390.882 368.465C391.134 369.304 391.218 370.028 391.071 370.07C390.924 370.112 390.609 369.462 390.356 368.622C390.104 367.783 390.01 367.028 390.157 367.028Z" fill="#455A64"/>
<path d="M388.328 360.913C388.475 360.913 388.801 361.511 389.053 362.35C389.305 363.189 389.389 363.913 389.242 363.955C389.095 363.997 388.78 363.346 388.527 362.507C388.275 361.668 388.191 360.955 388.328 360.913Z" fill="#455A64"/>
<path d="M386.499 354.829C386.646 354.777 386.972 355.427 387.224 356.266C387.476 357.105 387.561 357.818 387.413 357.871C387.266 357.923 386.951 357.263 386.699 356.423C386.446 355.584 386.362 354.871 386.499 354.829Z" fill="#455A64"/>
<path d="M384.67 348.735C384.817 348.735 385.143 349.343 385.395 350.182C385.647 351.022 385.732 351.735 385.584 351.787C385.437 351.84 385.122 351.179 384.87 350.34C384.617 349.501 384.533 348.787 384.67 348.735Z" fill="#455A64"/>
<path d="M382.799 342.651C382.946 342.651 383.272 343.26 383.524 344.099C383.777 344.938 383.861 345.651 383.714 345.693C383.566 345.735 383.251 345.095 382.999 344.256C382.747 343.417 382.705 342.704 382.799 342.651Z" fill="#455A64"/>
<path d="M381.012 336.609C381.159 336.609 381.485 337.218 381.737 338.057C381.99 338.896 382.074 339.609 381.927 339.651C381.78 339.693 381.464 339.053 381.212 338.214C380.96 337.375 380.876 336.609 381.012 336.609Z" fill="#455A64"/>
<path d="M379.183 330.484C379.331 330.484 379.656 331.092 379.909 331.931C380.161 332.77 380.245 333.484 380.098 333.526C379.951 333.567 379.635 332.928 379.383 332.088C379.131 331.249 379.047 330.526 379.183 330.484Z" fill="#455A64"/>
<path d="M377.365 324.4C377.502 324.4 377.827 325.008 378.08 325.847C378.332 326.687 378.416 327.4 378.279 327.442C378.143 327.484 377.806 326.844 377.554 326.005C377.302 325.166 377.218 324.442 377.365 324.4Z" fill="#455A64"/>
<path d="M375.536 318.316C375.673 318.316 375.998 318.914 376.251 319.764C376.503 320.613 376.587 321.316 376.45 321.358C376.314 321.4 375.977 320.76 375.725 319.921C375.473 319.082 375.441 318.358 375.536 318.316Z" fill="#455A64"/>
<path d="M373.707 312.232C373.844 312.232 374.17 312.83 374.422 313.669C374.674 314.509 374.758 315.232 374.622 315.274C374.485 315.316 374.149 314.676 373.896 313.827C373.644 312.977 373.56 312.274 373.707 312.232Z" fill="#455A64"/>
<path d="M371.878 306.191C372.015 306.191 372.341 306.788 372.593 307.628C372.845 308.467 372.929 309.191 372.793 309.232C372.656 309.274 372.32 308.624 372.068 307.785C371.815 306.946 371.731 306.191 371.878 306.191Z" fill="#455A64"/>
<path d="M370.049 300.065C370.186 300.065 370.512 300.663 370.764 301.502C371.016 302.341 371.1 303.065 370.964 303.107C370.827 303.149 370.491 302.498 370.239 301.659C369.986 300.82 369.902 300.107 370.049 300.065Z" fill="#455A64"/>
<path d="M368.22 293.981C368.368 293.981 368.683 294.579 368.935 295.418C369.187 296.257 369.282 296.981 369.135 297.023C368.988 297.065 368.662 296.415 368.41 295.576C368.157 294.736 368.084 294.023 368.22 293.981Z" fill="#455A64"/>
<path d="M366.392 287.897C366.539 287.845 366.854 288.495 367.106 289.334C367.359 290.174 367.453 290.887 367.306 290.939C367.159 290.992 366.833 290.331 366.581 289.492C366.328 288.653 366.244 287.939 366.392 287.897Z" fill="#455A64"/>
<path d="M364.563 281.803C364.71 281.803 365.025 282.412 365.277 283.251C365.53 284.09 365.624 284.803 365.477 284.856C365.33 284.908 365.004 284.247 364.752 283.408C364.5 282.569 364.415 281.856 364.563 281.803Z" fill="#455A64"/>
<path d="M362.734 275.772C362.881 275.772 363.196 276.38 363.449 277.219C363.701 278.059 363.795 278.772 363.648 278.814C363.501 278.856 363.175 278.216 362.923 277.377C362.671 276.538 362.587 275.772 362.734 275.772Z" fill="#455A64"/>
<path d="M360.905 269.636C361.052 269.636 361.367 270.244 361.62 271.083C361.872 271.922 361.966 272.636 361.819 272.678C361.672 272.719 361.346 272.08 361.094 271.24C360.842 270.401 360.726 269.678 360.905 269.636Z" fill="#455A64"/>
<path d="M359.076 263.552C359.223 263.552 359.538 264.16 359.791 264.999C360.043 265.839 360.137 266.552 359.99 266.594C359.843 266.636 359.528 265.996 359.265 265.157C359.002 264.318 358.929 263.594 359.076 263.552Z" fill="#455A64"/>
<path d="M357.247 257.468C357.394 257.468 357.709 258.077 357.962 258.916C358.214 259.755 358.309 260.468 358.161 260.51C358.014 260.552 357.699 259.912 357.447 259.073C357.194 258.234 357.1 257.51 357.247 257.468Z" fill="#455A64"/>
<path d="M355.471 251.384C355.618 251.384 355.933 251.982 356.185 252.832C356.438 253.682 356.532 254.384 356.385 254.426C356.238 254.468 355.923 253.828 355.67 252.989C355.418 252.15 355.271 251.426 355.471 251.384Z" fill="#455A64"/>
<path d="M353.589 245.353C353.736 245.353 354.052 245.951 354.314 246.79C354.577 247.629 354.651 248.353 354.504 248.395C354.356 248.437 354.041 247.797 353.789 246.948C353.537 246.098 353.442 245.353 353.589 245.353Z" fill="#455A64"/>
<path d="M351.76 239.217C351.907 239.217 352.233 239.815 352.486 240.654C352.738 241.493 352.822 242.217 352.675 242.259C352.528 242.301 352.212 241.65 351.96 240.811C351.708 239.972 351.613 239.259 351.76 239.217Z" fill="#455A64"/>
<path d="M349.931 233.133C350.079 233.133 350.404 233.731 350.657 234.57C350.909 235.409 350.993 236.133 350.846 236.175C350.699 236.217 350.383 235.567 350.131 234.728C349.879 233.888 349.784 233.175 349.931 233.133Z" fill="#455A64"/>
<path d="M348.113 227.049C348.26 227.049 348.586 227.647 348.838 228.487C349.091 229.326 349.175 230.049 349.027 230.091C348.88 230.133 348.565 229.483 348.313 228.644C348.06 227.805 347.955 227.091 348.113 227.049Z" fill="#455A64"/>
<path d="M346.274 220.966C346.421 220.913 346.747 221.564 346.999 222.403C347.251 223.242 347.335 223.955 347.188 224.008C347.041 224.06 346.726 223.399 346.473 222.56C346.221 221.721 346.126 221.008 346.274 220.966Z" fill="#455A64"/>
<path d="M344.445 214.872C344.592 214.872 344.918 215.48 345.17 216.319C345.422 217.158 345.506 217.871 345.359 217.924C345.212 217.976 344.897 217.316 344.644 216.476C344.392 215.637 344.308 214.934 344.445 214.872Z" fill="#455A64"/>
<path d="M343.078 210.33C343.225 210.33 343.446 210.581 343.572 211.001C343.698 211.421 343.677 211.788 343.572 211.83C343.467 211.872 343.215 211.578 343.089 211.158C342.963 210.739 342.931 210.372 343.078 210.33Z" fill="#455A64"/>
<path d="M324.159 392.517C324.306 392.517 324.443 392.852 324.474 393.283C324.506 393.713 324.39 394.08 324.232 394.09C324.075 394.101 323.948 393.755 323.927 393.314C323.906 392.873 324.001 392.527 324.159 392.517Z" fill="#455A64"/>
<path d="M323.938 386.276C324.085 386.276 324.243 386.958 324.274 387.828C324.306 388.699 324.211 389.391 324.054 389.391C323.896 389.391 323.759 388.709 323.728 387.849C323.696 386.989 323.749 386.276 323.938 386.276Z" fill="#455A64"/>
<path d="M323.707 380.035C323.854 380.035 324.001 380.716 324.022 381.587C324.043 382.458 323.948 383.15 323.791 383.15C323.633 383.15 323.496 382.458 323.475 381.598C323.454 380.737 323.549 380.035 323.707 380.035Z" fill="#455A64"/>
<path d="M323.549 373.783C323.696 373.783 323.833 374.475 323.854 375.336C323.875 376.196 323.77 376.898 323.622 376.909C323.475 376.919 323.328 376.217 323.307 375.357C323.286 374.496 323.391 373.783 323.549 373.783Z" fill="#455A64"/>
<path d="M323.391 367.532C323.549 367.532 323.686 368.224 323.707 369.094C323.728 369.965 323.623 370.657 323.475 370.657C323.328 370.657 323.181 369.965 323.16 369.105C323.139 368.245 323.244 367.542 323.391 367.532Z" fill="#455A64"/>
<path d="M323.234 361.28C323.381 361.28 323.528 361.972 323.549 362.843C323.57 363.713 323.465 364.406 323.318 364.406C323.171 364.406 323.023 363.713 323.002 362.853C322.981 361.993 323.086 361.29 323.234 361.28Z" fill="#455A64"/>
<path d="M323.023 355.039C323.181 355.039 323.328 355.721 323.36 356.591C323.391 357.462 323.286 358.154 323.139 358.165C322.992 358.175 322.834 357.472 322.813 356.612C322.792 355.752 322.887 355.039 323.023 355.039Z" fill="#455A64"/>
<path d="M322.761 348.798C322.918 348.798 323.066 349.48 323.108 350.34C323.15 351.2 323.045 351.913 322.897 351.913C322.75 351.913 322.593 351.231 322.55 350.361C322.508 349.49 322.614 348.798 322.761 348.798Z" fill="#455A64"/>
<path d="M322.519 342.546C322.666 342.546 322.824 343.239 322.855 344.099C322.887 344.959 322.792 345.662 322.635 345.672C322.477 345.682 322.34 344.98 322.309 344.12C322.277 343.259 322.372 342.557 322.519 342.546Z" fill="#455A64"/>
<path d="M322.298 336.305C322.456 336.305 322.603 336.997 322.624 337.858C322.645 338.718 322.561 339.42 322.403 339.431C322.246 339.441 322.109 338.739 322.078 337.878C322.046 337.018 322.151 336.316 322.298 336.305Z" fill="#455A64"/>
<path d="M322.109 330.054C322.256 330.054 322.403 330.746 322.424 331.606C322.445 332.466 322.351 333.169 322.204 333.179C322.056 333.19 321.909 332.487 321.878 331.627C321.846 330.767 321.962 330.064 322.109 330.054Z" fill="#455A64"/>
<path d="M321.941 323.812C322.099 323.812 322.235 324.505 322.256 325.365C322.277 326.225 322.172 326.928 322.025 326.928C321.878 326.928 321.731 326.236 321.71 325.375C321.689 324.515 321.836 323.812 321.941 323.812Z" fill="#455A64"/>
<path d="M321.836 317.561C321.983 317.561 322.119 318.253 322.14 319.124C322.161 319.994 322.046 320.687 321.899 320.687C321.752 320.687 321.604 319.994 321.594 319.134C321.583 318.274 321.657 317.561 321.836 317.561Z" fill="#455A64"/>
<path d="M321.71 311.32C321.857 311.32 321.993 312.012 322.004 312.872C322.014 313.732 321.909 314.435 321.752 314.435C321.594 314.435 321.468 313.743 321.457 312.883C321.447 312.023 321.552 311.32 321.71 311.32Z" fill="#455A64"/>
<path d="M321.625 305.068C321.783 305.068 321.909 305.761 321.92 306.631C321.93 307.502 321.815 308.194 321.668 308.194C321.52 308.194 321.384 307.491 321.373 306.631C321.363 305.771 321.478 305.068 321.625 305.068Z" fill="#455A64"/>
<path d="M321.583 298.848C321.741 298.848 321.867 299.551 321.867 300.411C321.867 301.271 321.752 301.974 321.604 301.974C321.457 301.974 321.331 301.282 321.321 300.411C321.31 299.54 321.436 298.848 321.583 298.848Z" fill="#455A64"/>
<path d="M321.573 292.555C321.72 292.555 321.846 293.247 321.846 294.118C321.846 294.988 321.731 295.67 321.573 295.68C321.415 295.691 321.3 294.978 321.3 294.118C321.3 293.257 321.426 292.555 321.573 292.555Z" fill="#455A64"/>
<path d="M321.594 286.324C321.741 286.324 321.857 287.027 321.857 287.887C321.857 288.747 321.731 289.45 321.573 289.45C321.415 289.45 321.31 288.747 321.31 287.887C321.31 287.027 321.436 286.324 321.594 286.324Z" fill="#455A64"/>
<path d="M321.636 280.072C321.794 280.072 321.909 280.775 321.899 281.635C321.888 282.495 321.762 283.198 321.615 283.198C321.468 283.198 321.342 282.495 321.352 281.635C321.363 280.775 321.489 280.072 321.636 280.072Z" fill="#455A64"/>
<path d="M321.72 273.831C321.867 273.831 321.983 274.534 321.972 275.394C321.962 276.254 321.825 276.957 321.678 276.957C321.531 276.957 321.415 276.254 321.426 275.384C321.436 274.513 321.573 273.831 321.72 273.831Z" fill="#455A64"/>
<path d="M321.836 267.58C321.983 267.58 322.088 268.293 322.077 269.153C322.067 270.013 321.92 270.706 321.773 270.706C321.625 270.706 321.51 270.003 321.531 269.143C321.552 268.283 321.678 267.58 321.836 267.58Z" fill="#455A64"/>
<path d="M321.972 261.328C322.12 261.328 322.225 262.041 322.204 262.902C322.183 263.762 322.046 264.464 321.899 264.454C321.752 264.443 321.636 263.751 321.657 262.891C321.678 262.031 321.836 261.328 321.972 261.328Z" fill="#455A64"/>
<path d="M322.193 255.077C322.34 255.077 322.435 255.79 322.403 256.65C322.372 257.51 322.225 258.213 322.067 258.202C321.909 258.192 321.825 257.5 321.857 256.629C321.888 255.758 322.046 255.077 322.193 255.077Z" fill="#455A64"/>
<path d="M322.561 248.846C322.708 248.846 322.782 249.559 322.729 250.419C322.677 251.28 322.508 251.972 322.351 251.961C322.193 251.951 322.13 251.248 322.183 250.377C322.235 249.507 322.403 248.825 322.561 248.846Z" fill="#455A64"/>
<path d="M323.129 242.615C323.286 242.615 323.328 243.339 323.244 244.199C323.16 245.059 322.96 245.741 322.813 245.731C322.666 245.72 322.614 245.007 322.698 244.147C322.782 243.287 322.981 242.605 323.129 242.615Z" fill="#455A64"/>
<path d="M323.738 238.011C323.885 238.011 323.959 238.399 323.896 238.818C323.833 239.238 323.665 239.584 323.518 239.563C323.37 239.542 323.297 239.175 323.349 238.745C323.402 238.315 323.591 237.948 323.738 238.011Z" fill="#455A64"/>
<path d="M300.089 394.373L329.898 394.856L329.666 389.895L300.089 390.052V394.373Z" fill="#455A64"/>
<path d="M319.639 208.442C319.744 208.814 319.804 209.198 319.818 209.585C319.891 210.33 319.996 211.4 320.101 212.732C320.312 215.385 320.574 219.025 320.816 223.095C320.942 225.109 321.047 227.039 321.153 228.801C321.135 230.339 321.318 231.873 321.699 233.364C322.009 234.337 322.693 235.148 323.602 235.619C323.943 235.753 324.294 235.858 324.653 235.934C324.552 235.958 324.448 235.958 324.348 235.934C324.053 235.934 323.761 235.881 323.486 235.777C322.982 235.56 322.528 235.243 322.152 234.844C321.775 234.445 321.485 233.974 321.3 233.458C320.855 231.942 320.625 230.371 320.616 228.791C320.501 227.029 320.375 225.098 320.249 223.085C319.996 219.036 319.797 215.375 319.681 212.721C319.618 211.389 319.586 210.319 319.576 209.574C319.545 209.196 319.567 208.815 319.639 208.442Z" fill="#455A64"/>
<path d="M322.529 210.928C322.529 211.001 322.298 211.19 322.267 211.63C322.259 211.746 322.274 211.863 322.312 211.972C322.35 212.082 322.41 212.184 322.487 212.27C322.587 212.355 322.71 212.411 322.84 212.429C322.97 212.448 323.103 212.429 323.223 212.375C323.349 212.331 323.459 212.253 323.541 212.149C323.623 212.045 323.673 211.919 323.686 211.788C323.681 211.672 323.652 211.558 323.602 211.453C323.551 211.348 323.48 211.255 323.391 211.179C323.066 210.875 322.729 210.938 322.719 210.854C322.708 210.77 323.066 210.539 323.623 210.854C323.781 210.953 323.914 211.086 324.013 211.244C324.111 211.403 324.172 211.581 324.19 211.767C324.19 212.01 324.117 212.247 323.981 212.449C323.844 212.65 323.65 212.806 323.424 212.896C323.197 212.987 322.949 213.007 322.711 212.955C322.473 212.904 322.256 212.782 322.088 212.606C321.969 212.462 321.885 212.292 321.845 212.109C321.805 211.927 321.809 211.737 321.857 211.557C322.067 210.948 322.529 210.865 322.529 210.928Z" fill="#455A64"/>
<path d="M349.059 215.375C348.358 215.851 347.555 216.156 346.715 216.267C344.692 216.673 342.593 216.44 340.709 215.599C338.825 214.759 337.25 213.353 336.204 211.578C335.723 210.88 335.413 210.079 335.3 209.239C335.395 209.239 335.679 210.12 336.53 211.337C337.608 212.974 339.132 214.27 340.924 215.071C342.716 215.872 344.7 216.145 346.642 215.857C348.113 215.679 349.028 215.291 349.059 215.375Z" fill="#455A64"/>
<path d="M302.18 208.442C302.318 209.118 302.282 209.818 302.075 210.477C301.694 212.104 300.812 213.571 299.552 214.672C298.286 215.775 296.706 216.457 295.033 216.623C294.353 216.741 293.655 216.683 293.004 216.455C293.004 216.361 293.792 216.455 294.991 216.235C296.547 215.977 298.002 215.294 299.195 214.263C300.369 213.212 301.237 211.864 301.707 210.361C302.065 209.218 302.086 208.442 302.18 208.442Z" fill="#455A64"/>
<path d="M297.986 126.972C297.986 126.972 269.901 138.825 269.008 138.374C268.114 137.923 267.484 115.35 267.484 115.35H253.515C253.515 115.35 250.866 148.831 259.285 154.16C270.795 161.502 298.659 146.23 298.659 146.23L297.986 126.972Z" fill="#FFBE9D"/>
<path d="M204.197 86.536L201.317 99.0601L214.792 102.259C214.792 102.259 220.332 103.487 225.839 111.322C231.347 119.157 233.481 122.629 233.481 122.629L242.815 76.6027L232.682 83.8193C230.673 85.2286 228.442 86.2923 226.081 86.966C223.191 87.8052 219.333 88.7597 217.178 88.6548C212.809 88.2353 208.473 87.5275 204.197 86.536Z" fill="#263238"/>
<path d="M355.397 139.958L233.481 122.629L242.815 76.6027L361.357 105.133C362.633 105.439 363.746 106.216 364.472 107.308C365.197 108.4 365.481 109.725 365.267 111.018L361.262 135.646C361.032 136.982 360.293 138.177 359.2 138.981C358.106 139.784 356.743 140.134 355.397 139.958Z" fill="#0EA362"/>
<path d="M193.319 87.1233C193.234 87.108 193.147 87.1135 193.066 87.1393C192.984 87.1652 192.91 87.2106 192.85 87.2716C192.789 87.3327 192.745 87.4075 192.721 87.4895C192.696 87.5715 192.692 87.6583 192.709 87.7422C193.219 90.4644 193.89 93.1543 194.717 95.7979C195 96.5217 201.748 97.172 201.748 97.172L203.609 89.0848L193.319 87.1233Z" fill="#0EA362"/>
<path d="M345.611 124.108L347.472 116.671L268.713 100.728L267.105 108.207L345.611 124.108Z" fill="#263238"/>
<path d="M330.307 123.857L312.901 122.462C312.786 120.437 312.901 112.591 312.901 112.591C312.901 112.591 305.659 111.469 305.544 104.2C305.428 96.9308 306.71 80.3893 306.71 80.3893C310.823 78.6205 315.335 77.9796 319.779 78.5328C324.223 79.086 328.438 80.8132 331.989 83.536L333.04 84.3647L330.307 123.857Z" fill="#FFBE9D"/>
<path d="M308.434 92.8399C308.622 92.649 308.729 92.3938 308.735 92.1264C308.74 91.859 308.643 91.5996 308.463 91.4014C308.283 91.2031 308.034 91.0809 307.767 91.0598C307.5 91.0386 307.235 91.1201 307.026 91.2875C306.922 91.3801 306.838 91.4922 306.778 91.6174C306.719 91.7426 306.684 91.8784 306.678 92.017C306.671 92.1555 306.691 92.294 306.739 92.4244C306.786 92.5549 306.858 92.6747 306.952 92.777C307.141 92.981 307.402 93.1021 307.68 93.1139C307.958 93.1257 308.229 93.0272 308.434 92.8399Z" fill="#263238"/>
<path d="M306.679 91.1617C306.795 91.2876 307.509 90.7421 308.497 90.7421C309.485 90.7421 310.221 91.2456 310.337 91.1197C310.452 90.9939 310.274 90.8365 309.958 90.5953C309.531 90.2933 309.021 90.132 308.497 90.1338C307.972 90.139 307.462 90.3159 307.047 90.6372C306.731 90.91 306.626 91.1617 306.679 91.1617Z" fill="#263238"/>
<path d="M318.167 92.0638C318.044 92.1329 317.935 92.2263 317.848 92.3383C317.762 92.4504 317.699 92.5788 317.663 92.7159C317.627 92.8529 317.62 92.9957 317.641 93.1357C317.662 93.2757 317.712 93.41 317.786 93.5304C317.861 93.6509 317.959 93.755 318.075 93.8366C318.191 93.9181 318.322 93.9754 318.461 94.005C318.6 94.0346 318.743 94.0358 318.882 94.0086C319.021 93.9815 319.154 93.9265 319.271 93.8469C319.507 93.7016 319.676 93.469 319.741 93.1998C319.806 92.9306 319.762 92.6466 319.618 92.4099C319.546 92.2918 319.451 92.1891 319.339 92.1077C319.227 92.0263 319.1 91.9678 318.965 91.9356C318.83 91.9035 318.69 91.8982 318.553 91.9202C318.416 91.9422 318.285 91.991 318.167 92.0638Z" fill="#263238"/>
<path d="M317.516 92.0742C317.621 92.2001 318.335 91.6547 319.334 91.6442C320.333 91.6337 321.058 92.1582 321.163 92.0323C321.268 91.9064 321.11 91.7491 320.795 91.5078C320.368 91.1985 319.851 91.0364 319.324 91.0463C318.8 91.053 318.292 91.2257 317.873 91.5393C317.568 91.791 317.453 92.0218 317.516 92.0742Z" fill="#263238"/>
<path d="M313.511 100.277C312.997 100.077 312.454 99.9631 311.903 99.9411C311.64 99.9411 311.44 99.8572 311.419 99.7104C311.409 99.4504 311.471 99.1926 311.598 98.9657C311.861 98.3153 312.124 97.644 312.397 96.9412C313.14 95.2331 313.711 93.4551 314.1 91.6337C313.183 93.2568 312.433 94.9682 311.861 96.7419C311.609 97.4447 311.356 98.116 311.114 98.8398C310.955 99.1651 310.904 99.5323 310.967 99.8887C311.006 99.9868 311.068 100.075 311.146 100.145C311.224 100.216 311.318 100.268 311.419 100.298C311.564 100.335 311.712 100.356 311.861 100.361C312.411 100.431 312.97 100.402 313.511 100.277Z" fill="#263238"/>
<path d="M316.748 101.378C317.8 100.759 313.889 102.899 311.861 102.794C312.206 103.31 312.715 103.695 313.307 103.885C313.898 104.076 314.537 104.061 315.119 103.843C317.284 103.098 316.748 101.378 316.748 101.378Z" fill="white"/>
<path d="M312.922 112.486C316.272 112.555 319.566 111.624 322.382 109.811C322.382 109.811 320.154 115.056 312.922 114.364V112.486Z" fill="#EB996E"/>
<path d="M333.146 91.4134C333.303 91.361 338.538 91.0148 337.676 97.0986C336.814 103.182 330.928 100.308 330.938 100.13C330.949 99.9516 333.146 91.4134 333.146 91.4134Z" fill="#FFBE9D"/>
<path d="M333.114 98.2524C333.114 98.2524 333.209 98.3468 333.377 98.4517C333.495 98.5243 333.626 98.5728 333.763 98.5944C333.901 98.616 334.041 98.6103 334.176 98.5776C334.606 98.3864 334.977 98.0828 335.249 97.6988C335.521 97.3147 335.684 96.8646 335.721 96.3958C335.808 95.8756 335.783 95.3427 335.647 94.8329C335.616 94.6354 335.538 94.4483 335.419 94.2876C335.3 94.1269 335.144 93.9972 334.964 93.9099C334.846 93.8611 334.715 93.8542 334.592 93.8905C334.47 93.9268 334.363 94.004 334.291 94.1092C334.186 94.2665 334.207 94.3924 334.176 94.4029C334.144 94.4133 334.06 94.2875 334.176 94.0357C334.228 93.8883 334.333 93.7652 334.47 93.6896C334.657 93.5893 334.874 93.5631 335.079 93.6162C335.316 93.6982 335.528 93.8367 335.699 94.0195C335.869 94.2024 335.992 94.424 336.057 94.6651C336.238 95.2307 336.281 95.8312 336.183 96.4168C336.136 96.9647 335.927 97.4864 335.583 97.9159C335.239 98.3453 334.774 98.6632 334.249 98.8293C334.079 98.8543 333.905 98.8399 333.741 98.7871C333.577 98.7344 333.427 98.6448 333.303 98.5251C333.103 98.4097 333.093 98.2629 333.114 98.2524Z" fill="#EB996E"/>
<path d="M306.784 80.2109C308.666 85.1723 315.876 87.1338 321.174 87.4275C318.725 85.2772 320.238 85.7283 318.725 84.2178C322.812 87.7459 328.036 89.686 333.44 89.6827C333.845 88.4574 334.001 87.1634 333.896 85.8772C333.792 84.5911 333.43 83.3388 332.832 82.1946C332.235 81.0504 331.413 80.0374 330.416 79.2157C329.419 78.3939 328.267 77.78 327.028 77.4103C325.399 76.9173 323.665 76.8754 322.004 76.4873C320.606 76.1621 319.261 75.6062 317.8 75.4384C313.532 74.809 306.605 73.6552 306.721 80.2529" fill="#263238"/>
<path d="M330.245 86.966C330.518 87.6688 332.042 95.8714 332.042 95.8714L333.892 87.9625L330.245 86.966Z" fill="#263238"/>
<path d="M382.011 188.407C384.81 185.195 386.344 181.078 386.328 176.822C386.313 172.565 384.749 168.46 381.927 165.268L353.821 133.465L346.295 154.443C346.81 154.779 368.178 177.645 368.178 177.645L349.816 200.491C348.421 202.222 347.49 204.278 347.107 206.466C346.725 208.655 346.905 210.904 347.63 213.004L352.538 224.994L365.982 218.983L364.931 217.42H354.851L354.251 215.008L382.011 188.407Z" fill="#FFBE9D"/>
<path d="M368.693 146.912L350.941 129.08C347.52 125.513 343.313 122.79 338.653 121.129C336.183 120.249 333.591 119.754 330.97 119.661C324.934 121.57 318.454 121.57 312.418 119.661C307.336 120.215 302.388 121.634 297.787 123.857L271.289 134.587L279.792 157.978L294.013 153.205L294.854 175.233L292.037 208.137L347.062 208.641L346.347 178.789V157.202L354.294 164.911L368.693 146.912Z" fill="#455A64"/>
</svg>
