<svg width="504" height="400" viewBox="0 0 504 400" fill="none" xmlns="http://www.w3.org/2000/svg">
<path d="M503.826 351.514H0.787109V351.782H503.826V351.514Z" fill="#EBEBEB"/>
<path d="M351.234 363.496H340.69V363.764H351.234V363.496Z" fill="#EBEBEB"/>
<path d="M106.606 358.128H66.1118V358.396H106.606V358.128Z" fill="#EBEBEB"/>
<path d="M186.238 358.922H126.729V359.19H186.238V358.922Z" fill="#EBEBEB"/>
<path d="M271.422 358.922H254.288V359.19H271.422V358.922Z" fill="#EBEBEB"/>
<path d="M449.538 360.618H394.606V360.887H449.538V360.618Z" fill="#EBEBEB"/>
<path d="M230.958 365.042H208.261V365.31H230.958V365.042Z" fill="#EBEBEB"/>
<path d="M469.811 360.758H455.414V361.026H469.811V360.758Z" fill="#EBEBEB"/>
<path d="M239.228 303.629H44.9641C43.4423 303.626 41.9837 302.979 40.9085 301.83C39.8334 300.68 39.2295 299.122 39.2295 297.498V6.07687C39.2427 4.46212 39.8524 2.91816 40.9262 1.78035C41.9999 0.642534 43.451 0.00276424 44.9641 -1.90735e-06H239.228C240.751 -1.90735e-06 242.213 0.645894 243.29 1.7956C244.367 2.9453 244.973 4.50463 244.973 6.13055V297.498C244.973 299.124 244.367 300.684 243.29 301.833C242.213 302.983 240.751 303.629 239.228 303.629ZM44.9641 0.214729C43.509 0.217574 42.1144 0.836443 41.0864 1.9355C40.0584 3.03456 39.481 4.52399 39.481 6.07687V297.498C39.481 299.051 40.0584 300.541 41.0864 301.64C42.1144 302.739 43.509 303.358 44.9641 303.361H239.228C240.684 303.358 242.08 302.739 243.109 301.64C244.139 300.542 244.718 299.052 244.721 297.498V6.07687C244.718 4.52301 244.139 3.0336 243.109 1.93484C242.08 0.836095 240.684 0.217568 239.228 0.214729H44.9641Z" fill="#EBEBEB"/>
<path d="M456.852 303.629H262.579C261.056 303.626 259.596 302.979 258.52 301.83C257.443 300.681 256.837 299.123 256.834 297.498V6.07687C256.85 4.46115 257.462 2.91719 258.537 1.77968C259.612 0.642159 261.065 0.00273407 262.579 -1.90735e-06H456.852C458.364 0.00558591 459.812 0.646604 460.884 1.78412C461.955 2.92163 462.564 4.46398 462.577 6.07687V297.498C462.577 299.121 461.975 300.677 460.902 301.826C459.829 302.975 458.372 303.623 456.852 303.629ZM262.579 0.214729C261.123 0.217568 259.727 0.836095 258.697 1.93484C257.668 3.0336 257.088 4.52301 257.086 6.07687V297.498C257.088 299.052 257.668 300.542 258.697 301.64C259.727 302.739 261.123 303.358 262.579 303.361H456.852C458.308 303.358 459.704 302.739 460.734 301.64C461.763 300.542 462.343 299.052 462.346 297.498V6.07687C462.343 4.52301 461.763 3.0336 460.734 1.93484C459.704 0.836095 458.308 0.217568 456.852 0.214729H262.579Z" fill="#EBEBEB"/>
<path d="M74.0498 190.498L211.158 190.498L211.158 20.0021L74.0498 20.0021L74.0498 190.498Z" fill="#F5F5F5"/>
<path d="M70.3174 190.498L209.408 190.498L209.408 20.0021L70.3174 20.0021L70.3174 190.498Z" fill="#F5F5F5"/>
<path d="M74.0498 200.043L211.158 200.043V190.487L74.0498 190.487V200.043Z" fill="#E6E6E6"/>
<path d="M53.2742 200.043L184.215 200.043V190.487L53.2742 190.487V200.043Z" fill="#F5F5F5"/>
<path d="M204.196 183.262V27.2278L75.539 27.2278V183.262H204.196Z" fill="#FAFAFA"/>
<path d="M185.684 183.262L155.059 27.2386H114.927L145.542 183.262H185.684Z" fill="white"/>
<path d="M139.043 183.262L108.428 27.2386H90.2983L120.923 183.262H139.043Z" fill="white"/>
<path d="M76.1924 166.942L76.1924 26.2615H75.5284L75.5284 166.942H76.1924Z" fill="white"/>
<path d="M215.082 19.7552V80.4595H199.991C199.991 80.4595 172.947 61.6384 166.79 22.9117C166.644 21.9894 166.688 21.0443 166.919 20.1419C167.149 19.2395 167.562 18.4016 168.126 17.6864C168.691 16.9712 169.395 16.3959 170.19 16.0003C170.984 15.6048 171.849 15.3987 172.726 15.3962H210.957C211.496 15.3919 212.031 15.5015 212.531 15.7185C213.03 15.9355 213.485 16.2558 213.868 16.6608C214.252 17.0659 214.556 17.5477 214.764 18.0788C214.973 18.6098 215.08 19.1795 215.082 19.7552Z" fill="#E6E6E6"/>
<path d="M215.082 177.765V85.3554H199.99C199.99 85.3554 191.338 104.015 182.706 125.467C180.427 131.18 179.51 137.406 180.037 143.589C180.563 149.772 182.518 155.72 185.725 160.9C188.932 166.081 193.291 170.332 198.414 173.275C203.537 176.218 209.264 177.761 215.082 177.765Z" fill="#E6E6E6"/>
<path d="M200.454 85.3554H214.508C215.342 85.3554 216.018 84.6343 216.018 83.7449V82.07C216.018 81.1806 215.342 80.4595 214.508 80.4595H200.454C199.62 80.4595 198.944 81.1806 198.944 82.07V83.7449C198.944 84.6343 199.62 85.3554 200.454 85.3554Z" fill="#F5F5F5"/>
<path d="M66.0513 19.7552V80.4595H81.1424C81.1424 80.4595 108.186 61.6384 114.343 22.9117C114.489 21.9894 114.445 21.0443 114.214 20.1419C113.984 19.2395 113.572 18.4016 113.007 17.6864C112.442 16.9712 111.738 16.3959 110.943 16.0003C110.149 15.6048 109.284 15.3987 108.407 15.3962H70.1762C69.6368 15.3919 69.1019 15.5015 68.6023 15.7185C68.1026 15.9355 67.6481 16.2558 67.2648 16.6608C66.8815 17.0659 66.577 17.5477 66.3687 18.0788C66.1605 18.6098 66.0526 19.1795 66.0513 19.7552Z" fill="#E6E6E6"/>
<path d="M66.0513 177.765V85.3554H81.1424C81.1424 85.3554 89.7947 104.015 98.4269 125.467C100.705 131.176 101.622 137.399 101.097 143.578C100.572 149.758 98.6217 155.703 95.4194 160.882C92.2171 166.062 87.8627 170.314 82.7452 173.26C77.6276 176.206 71.9061 177.753 66.0915 177.765H66.0513Z" fill="#E6E6E6"/>
<path d="M80.67 80.4595H66.6151C65.7816 80.4595 65.106 81.1806 65.106 82.07V83.7449C65.106 84.6343 65.7816 85.3554 66.6151 85.3554H80.67C81.5035 85.3554 82.1791 84.6343 82.1791 83.7449V82.07C82.1791 81.1806 81.5035 80.4595 80.67 80.4595Z" fill="#F5F5F5"/>
<path d="M372.393 157.14H432.788V40.9384L372.393 40.9384V157.14Z" fill="#E0E0E0"/>
<path d="M365.631 157.14H431.248V40.9384L365.631 40.9384V157.14Z" fill="#F5F5F5"/>
<path d="M424.477 149.914V48.1533H372.392V149.914H424.477Z" fill="white"/>
<path d="M406.277 83.7234V68.6816H390.593V83.7234H406.277Z" fill="#F5F5F5"/>
<path d="M406.277 106.549V91.5074H390.593V106.549H406.277Z" fill="#F5F5F5"/>
<path d="M406.277 129.375V114.333H390.593V129.375H406.277Z" fill="#F5F5F5"/>
<path d="M307.802 129.912C316.463 129.751 324.719 125.966 330.791 119.372C336.863 112.778 340.265 103.903 340.265 94.6586C340.265 85.4139 336.863 76.5391 330.791 69.9454C324.719 63.3516 316.463 59.5665 307.802 59.4052H305.79V129.912H307.802Z" fill="#E6E6E6"/>
<path d="M313.479 128.942C331.218 124.404 342.151 105.379 337.899 86.4488C333.647 67.5182 315.819 55.8505 298.08 60.3884C280.341 64.9262 269.408 83.9512 273.66 102.882C277.912 121.813 295.74 133.48 313.479 128.942Z" fill="#F5F5F5"/>
<path d="M309.792 120.926C323.369 118.556 332.575 104.889 330.354 90.3997C328.133 75.9106 315.327 66.0861 301.749 68.4562C288.172 70.8263 278.966 84.4934 281.187 98.9826C283.408 113.472 296.215 123.296 309.792 120.926Z" fill="white"/>
<path d="M295.467 104.584L293.525 101.61L303.888 93.9016L300.467 76.1434L303.787 75.4133L307.661 95.5014L295.467 104.584Z" fill="#E6E6E6"/>
<path d="M145.159 355.325H188.33L188.33 230.846H145.159V355.325Z" fill="#E6E6E6"/>
<path d="M156.689 355.315H145.16V334.7H168.772L156.689 355.315Z" fill="#F0F0F0"/>
<path d="M403.973 355.325H447.144V230.846H403.973V355.325Z" fill="#F0F0F0"/>
<path d="M145.159 348.228L414.044 348.228V230.846L145.159 230.846V348.228Z" fill="#FAFAFA"/>
<path d="M402.514 355.315H414.044V334.7H390.421L402.514 355.315Z" fill="#F0F0F0"/>
<path d="M154.104 284.142L405.1 284.142V240.938L154.104 240.938V284.142Z" fill="#F0F0F0"/>
<path d="M154.104 337.782L405.1 337.782V294.578L154.104 294.578V337.782Z" fill="#F0F0F0"/>
<path d="M338.729 218.682C343.707 218.682 347.743 214.375 347.743 209.062C347.743 203.749 343.707 199.442 338.729 199.442C333.75 199.442 329.714 203.749 329.714 209.062C329.714 214.375 333.75 218.682 338.729 218.682Z" fill="#F5F5F5"/>
<path d="M345.087 213.657C345.087 215.143 345.5 216.596 346.274 217.832C347.048 219.068 348.148 220.031 349.435 220.6C350.722 221.169 352.138 221.318 353.504 221.028C354.87 220.738 356.125 220.022 357.11 218.971C358.095 217.92 358.765 216.581 359.037 215.123C359.309 213.665 359.169 212.154 358.636 210.781C358.103 209.407 357.201 208.234 356.043 207.408C354.884 206.582 353.523 206.141 352.13 206.141C350.262 206.141 348.471 206.933 347.15 208.343C345.829 209.752 345.087 211.664 345.087 213.657Z" fill="#F5F5F5"/>
<path d="M323.306 223.266C328.284 223.266 332.32 218.959 332.32 213.646C332.32 208.333 328.284 204.026 323.306 204.026C318.327 204.026 314.291 208.333 314.291 213.646C314.291 218.959 318.327 223.266 323.306 223.266Z" fill="#F5F5F5"/>
<path d="M308.527 220.442C313.505 220.442 317.541 216.135 317.541 210.822C317.541 205.509 313.505 201.202 308.527 201.202C303.548 201.202 299.512 205.509 299.512 210.822C299.512 216.135 303.548 220.442 308.527 220.442Z" fill="#F5F5F5"/>
<path d="M376.95 212.079C376.95 212.079 375.713 230.835 328.276 230.835C280.84 230.835 279.602 212.079 279.602 212.079H376.95Z" fill="#E6E6E6"/>
<path d="M252.307 400C360.04 400 447.375 394.559 447.375 387.846C447.375 381.134 360.04 375.693 252.307 375.693C144.573 375.693 57.2383 381.134 57.2383 387.846C57.2383 394.559 144.573 400 252.307 400Z" fill="#F5F5F5"/>
<path d="M208.342 113.421C208.473 113.893 208.704 114.613 208.905 115.214L209.549 117.136C209.992 118.413 210.475 119.68 210.988 120.936C211.991 123.423 213.119 125.849 214.368 128.205C216.843 132.822 219.851 136.998 223.423 139.672L224.047 140.133C224.047 140.133 224.047 140.208 224.198 140.23C224.879 140.211 225.545 140.016 226.139 139.661C228.201 138.495 230.098 137.024 231.773 135.291C233.709 133.4 235.553 131.404 237.297 129.311C239.088 127.164 240.848 124.941 242.508 122.762L247.307 125.854C244.814 131.495 241.682 136.788 237.981 141.615C235.948 144.298 233.538 146.631 230.838 148.529C229.063 149.749 227.056 150.53 224.962 150.816C223.63 150.961 222.284 150.83 220.998 150.43C220.336 150.222 219.695 149.942 219.087 149.592L217.93 148.905C215.118 147.095 212.572 144.852 210.374 142.248C208.273 139.799 206.4 137.138 204.78 134.303C203.191 131.551 201.789 128.681 200.585 125.714C199.991 124.254 199.428 122.772 198.915 121.28C198.653 120.528 198.402 119.777 198.17 119.004C197.939 118.231 197.728 117.522 197.486 116.567L208.342 113.421Z" fill="#B97964"/>
<path d="M218.735 132.392L205.867 139.994C205.867 139.994 205.485 139.403 204.861 138.383C204.408 137.632 203.855 136.644 203.15 135.484C199.368 128.924 193.09 116.942 194.73 111.864C197.235 104.048 206.471 104.177 211.008 113.238C213.202 117.753 215.167 122.391 216.893 127.131C217.366 128.398 217.759 129.504 218.061 130.352C218.493 131.651 218.735 132.392 218.735 132.392Z" fill="#0EA362"/>
<path opacity="0.2" d="M218.735 132.392L205.867 139.994C205.867 139.994 205.485 139.403 204.861 138.383C204.408 137.632 203.855 136.644 203.15 135.484C199.368 128.924 193.09 116.942 194.73 111.864C197.235 104.048 206.471 104.177 211.008 113.238C213.202 117.753 215.167 122.391 216.893 127.131C217.366 128.398 217.759 129.504 218.061 130.352C218.493 131.651 218.735 132.392 218.735 132.392Z" fill="black"/>
<path opacity="0.2" d="M218.101 130.406L204.901 138.383C204.448 137.632 203.895 136.644 203.19 135.484L216.933 127.174C217.366 128.441 217.758 129.547 218.101 130.406Z" fill="black"/>
<path opacity="0.2" d="M194.538 112.809C197.415 111.327 200.735 112.562 204.216 118.445C207.697 124.329 210.685 134.207 211.058 136.966L205.917 139.994C205.917 139.994 193.481 120.636 194.538 112.809Z" fill="black"/>
<path d="M206.47 175.66H166.579C166.297 171.86 167.122 159.491 166.509 143.741C166.129 132.066 164.803 120.449 162.545 109.019C162.363 108.16 162.182 107.312 161.991 106.453C161.991 106.453 164.003 106.013 166.911 105.562C169.315 105.186 172.334 104.799 175.292 104.649C180.938 104.305 186.598 104.305 192.244 104.649C194.85 104.907 197.395 105.368 199.427 105.787C202.023 106.345 203.794 106.861 203.794 106.861C203.794 106.861 213.382 130.9 206.47 175.66Z" fill="#0EA362"/>
<path opacity="0.2" d="M206.47 175.66H166.579C166.297 171.86 167.122 159.491 166.509 143.741C166.129 132.066 164.803 120.449 162.545 109.019C162.363 108.16 162.182 107.312 161.991 106.453C161.991 106.453 164.003 106.013 166.911 105.562C169.315 105.186 172.334 104.799 175.292 104.649C180.938 104.305 186.598 104.305 192.244 104.649C194.85 104.907 197.395 105.368 199.427 105.787C202.023 106.345 203.794 106.861 203.794 106.861C203.794 106.861 213.382 130.9 206.47 175.66Z" fill="black"/>
<path d="M152.071 365.965L157.987 371.613L169.235 359.105L163.329 353.457L152.071 365.965Z" fill="#B97964"/>
<path d="M172.324 377.722H179.779L180.755 359.287H173.29L172.324 377.722Z" fill="#B97964"/>
<path d="M169.235 359.115L163.43 365.557L157.514 359.91L163.319 353.457L169.235 359.115Z" fill="#A76755"/>
<path d="M173.29 359.298H180.755L180.252 368.8H172.787L173.29 359.298Z" fill="#A76755"/>
<path d="M206.088 175.252C206.088 175.252 213.945 233.294 216.631 264.892C218.784 290.23 167.424 365.815 167.424 365.815L157.484 355.841C157.484 355.841 195.001 288.083 192.113 259.867C189.316 232.532 179.839 175.22 179.839 175.22L206.088 175.252Z" fill="#0EA362"/>
<path opacity="0.7" d="M206.088 175.252C206.088 175.252 213.945 233.294 216.631 264.892C218.784 290.23 167.424 365.815 167.424 365.815L157.484 355.841C157.484 355.841 195.001 288.083 192.113 259.867C189.316 232.532 179.839 175.22 179.839 175.22L206.088 175.252Z" fill="black"/>
<path d="M180.171 376.852H171.821C171.751 376.849 171.681 376.861 171.615 376.887C171.55 376.913 171.489 376.953 171.438 377.003C171.387 377.054 171.345 377.115 171.316 377.183C171.287 377.251 171.27 377.325 171.268 377.4L170.865 384.475C170.865 384.847 171.002 385.204 171.247 385.47C171.492 385.735 171.824 385.887 172.173 385.892C175.091 385.839 176.479 385.645 180.222 385.645C182.485 385.645 192.124 385.903 195.253 385.903C198.381 385.903 198.271 382.596 196.973 382.295C191.017 380.953 183.642 379.075 181.54 377.346C181.153 377.012 180.668 376.837 180.171 376.852Z" fill="#263238"/>
<path d="M159.617 369.337L152.423 364.172C152.307 364.076 152.163 364.023 152.016 364.023C151.868 364.023 151.725 364.076 151.608 364.172L146.115 370.088C146.006 370.218 145.926 370.373 145.879 370.54C145.833 370.707 145.822 370.883 145.847 371.056C145.872 371.228 145.932 371.393 146.024 371.537C146.115 371.682 146.236 371.803 146.377 371.892C150.965 375.66 154.274 378.495 156.88 381.63C159.898 385.302 161.538 385.817 168.581 385.817C171.841 385.817 173.682 382.886 172.354 382.435C160.613 378.473 163.752 376.745 160.905 370.936C160.602 370.301 160.16 369.752 159.617 369.337Z" fill="#263238"/>
<path d="M241.622 124.114L244.188 115.353L250.848 120.561C250.848 120.561 247.206 128.366 244.741 127.657L241.622 124.114Z" fill="#B97964"/>
<path d="M251.2 112.003L254.953 116.91L250.848 120.56L244.188 115.353L251.2 112.003Z" fill="#B97964"/>
<path opacity="0.2" d="M166.509 143.741C166.13 132.066 164.803 120.449 162.545 109.019C165.211 108.772 169.769 109.019 170.523 113.646C171.338 118.585 170.312 130.202 166.509 143.741Z" fill="black"/>
<path opacity="0.5" d="M192.114 259.888C190.675 245.813 187.456 223.76 184.689 205.701C186.138 202.674 190.192 196.554 190.192 196.554C193.834 209.985 201.752 260.608 190.464 328.989C178.693 349.238 167.425 365.836 167.425 365.836L165.885 339.725C176.761 317.887 194.116 279.418 192.114 259.888Z" fill="black"/>
<path d="M169.225 118.016L167.465 121.237C166.861 122.353 166.278 123.481 165.714 124.619C164.567 126.895 163.464 129.186 162.404 131.49C161.398 133.799 160.392 136.118 159.497 138.437C158.632 140.724 157.876 143.057 157.233 145.426L157.112 145.856L157.052 146.081C157.019 146.14 156.998 146.206 156.991 146.274C156.961 146.606 156.961 146.941 156.991 147.273C157.095 148.287 157.294 149.286 157.585 150.258C158.282 152.588 159.133 154.863 160.13 157.065C162.143 161.681 164.587 166.373 167.032 170.904L162.615 174.587C158.946 170.605 155.629 166.27 152.706 161.638C151.155 159.188 149.808 156.598 148.681 153.897C148.045 152.357 147.553 150.753 147.212 149.109C147.016 148.117 146.915 147.106 146.911 146.092C146.903 145.481 146.943 144.87 147.031 144.267L147.102 143.827V143.547L147.212 143C148.296 137.33 149.966 131.806 152.192 126.53C153.249 123.932 154.406 121.398 155.643 118.918C156.267 117.672 156.901 116.448 157.565 115.224C158.229 114 158.883 112.841 159.668 111.542L169.225 118.016Z" fill="#B97964"/>
<path d="M171.891 120.947C170.031 126.445 167.871 131.823 165.422 137.052C164.889 138.233 164.416 139.285 163.993 140.133C163.289 141.626 162.847 142.527 162.847 142.527L147.755 133.595C147.755 133.595 147.947 132.918 148.289 131.78C148.55 130.921 148.892 129.794 149.295 128.495C151.81 120.84 156.951 107.183 161.991 106.399C169.527 105.282 174.95 111.295 171.891 120.947Z" fill="#0EA362"/>
<path opacity="0.2" d="M165.422 137.105C164.889 138.286 164.416 139.339 163.994 140.187L148.269 131.834C148.53 130.975 148.872 129.848 149.275 128.548L165.422 137.105Z" fill="black"/>
<path d="M182.817 378.183C182.139 378.167 181.465 378.073 180.805 377.904C180.771 377.895 180.741 377.875 180.716 377.849C180.691 377.823 180.673 377.79 180.664 377.754C180.661 377.719 180.666 377.683 180.68 377.651C180.695 377.618 180.717 377.591 180.745 377.572C180.976 377.389 183.099 375.854 184.004 376.229C184.108 376.273 184.199 376.345 184.27 376.437C184.34 376.529 184.387 376.639 184.407 376.756C184.453 376.93 184.457 377.114 184.418 377.291C184.379 377.467 184.299 377.63 184.185 377.765C183.792 378.078 183.306 378.226 182.817 378.183ZM181.308 377.636C182.646 377.915 183.622 377.872 183.974 377.507C184.047 377.417 184.096 377.308 184.117 377.191C184.138 377.075 184.13 376.954 184.095 376.841C184.088 376.784 184.066 376.73 184.032 376.685C183.999 376.639 183.954 376.604 183.904 376.584C183.411 376.38 182.173 377.045 181.308 377.636Z" fill="#0EA362"/>
<path d="M180.875 377.926C180.849 377.935 180.821 377.935 180.795 377.926C180.769 377.91 180.748 377.889 180.732 377.862C180.716 377.836 180.707 377.806 180.704 377.775C180.704 377.679 180.533 375.392 181.288 374.619C181.383 374.517 181.498 374.441 181.626 374.396C181.754 374.352 181.889 374.34 182.022 374.361C182.17 374.368 182.312 374.427 182.426 374.528C182.541 374.628 182.621 374.766 182.656 374.92C182.827 375.789 181.71 377.453 180.966 377.926H180.875ZM181.881 374.705C181.812 374.703 181.743 374.716 181.679 374.744C181.615 374.772 181.557 374.813 181.509 374.866C181.095 375.629 180.922 376.513 181.016 377.389C181.66 376.809 182.404 375.542 182.294 374.973C182.294 374.866 182.213 374.737 181.962 374.705H181.881Z" fill="#0EA362"/>
<path d="M164.447 373.631C163.116 373.413 161.846 372.889 160.724 372.096C160.693 372.077 160.669 372.048 160.655 372.013C160.64 371.978 160.636 371.94 160.644 371.903C160.651 371.864 160.67 371.829 160.697 371.802C160.724 371.775 160.758 371.758 160.794 371.752C161.197 371.752 164.728 371.473 165.412 372.332C165.468 372.407 165.506 372.494 165.523 372.587C165.541 372.681 165.537 372.777 165.513 372.869C165.484 373.017 165.421 373.155 165.329 373.271C165.238 373.388 165.121 373.478 164.99 373.535C164.816 373.601 164.632 373.634 164.447 373.631ZM161.428 372.085C163.038 373.03 164.306 373.438 164.869 373.159C164.952 373.123 165.026 373.066 165.083 372.993C165.141 372.92 165.182 372.833 165.201 372.74C165.218 372.709 165.227 372.674 165.227 372.638C165.227 372.602 165.218 372.567 165.201 372.536C164.779 372.128 162.847 372.053 161.408 372.117L161.428 372.085Z" fill="#0EA362"/>
<path d="M160.815 372.16C160.785 372.16 160.755 372.153 160.729 372.138C160.703 372.123 160.68 372.101 160.664 372.074C160.651 372.046 160.645 372.015 160.645 371.983C160.645 371.952 160.651 371.92 160.664 371.892C160.724 371.763 162.072 368.843 163.793 369.745C164.265 369.992 164.316 370.292 164.275 370.496C164.094 371.355 161.851 372.15 160.825 372.182L160.815 372.16ZM163.139 369.938C162.223 369.938 161.438 371.183 161.126 371.763C162.203 371.613 163.833 370.904 163.933 370.4C163.933 370.281 163.853 370.174 163.642 370.056C163.485 369.976 163.313 369.935 163.139 369.938Z" fill="#0EA362"/>
<path d="M165.029 169.218L172.454 167.844L168.641 177.013C168.641 177.013 161.86 177.013 162.172 173.245L165.029 169.218Z" fill="#B97964"/>
<path d="M177.988 172.45L174.507 179.858L168.641 177.013L172.454 167.844L177.988 172.45Z" fill="#B97964"/>
<path d="M156.88 355.261L168.028 366.448L171.609 362.336L158.872 349.946L156.88 355.261Z" fill="#0EA362"/>
<path opacity="0.7" d="M156.88 355.261L168.028 366.448L171.609 362.336L158.872 349.946L156.88 355.261Z" fill="white"/>
<path d="M191.943 175.252C191.943 175.252 192.657 236.086 191.45 258.869C190.122 283.831 183.492 366.502 183.492 366.502H169.809C169.809 366.502 170.211 285.839 169.396 261.134C168.501 234.293 166.187 175.242 166.187 175.242L191.943 175.252Z" fill="#0EA362"/>
<path opacity="0.7" d="M191.943 175.252C191.943 175.252 192.657 236.086 191.45 258.869C190.122 283.831 183.492 366.502 183.492 366.502H169.809C169.809 366.502 170.211 285.839 169.396 261.134C168.501 234.293 166.187 175.242 166.187 175.242L191.943 175.252Z" fill="black"/>
<path d="M169.235 366.502H183.994L184.819 360.973L168.521 361.832L169.235 366.502Z" fill="#0EA362"/>
<path opacity="0.7" d="M169.235 366.502H183.994L184.819 360.973L168.521 361.832L169.235 366.502Z" fill="white"/>
<path opacity="0.2" d="M171.891 120.947C170.031 126.445 167.871 131.823 165.422 137.052C164.889 138.233 164.416 139.285 163.993 140.133C163.289 141.626 162.847 142.527 162.847 142.527L147.755 133.595C147.755 133.595 147.947 132.918 148.289 131.78C148.55 130.921 148.892 129.794 149.295 128.495C151.81 120.84 156.951 107.183 161.991 106.399C169.527 105.282 174.95 111.295 171.891 120.947Z" fill="black"/>
<path d="M198.613 110.844C197.808 113.689 195.595 117.49 189.407 119.433L187.797 119.949L186.158 119.637C173.531 117.221 168.883 109.974 168.048 108.568L166.358 105.562C168.762 105.186 171.781 104.799 174.739 104.649C180.385 104.305 186.045 104.305 191.691 104.649C194.297 104.907 196.842 105.368 198.874 105.787C199.155 107.472 199.065 109.203 198.613 110.844Z" fill="#0EA362"/>
<path opacity="0.4" d="M198.613 110.844C197.808 113.689 195.595 117.49 189.407 119.433L187.797 119.949L186.158 119.637C173.531 117.221 168.883 109.974 168.048 108.568L166.358 105.562C168.762 105.186 171.781 104.799 174.739 104.649C180.385 104.305 186.045 104.305 191.691 104.649C194.297 104.907 196.842 105.368 198.874 105.787C199.155 107.472 199.065 109.203 198.613 110.844Z" fill="black"/>
<path d="M187.918 112.24C177.797 110.296 174.628 104.724 174.628 104.724C178.32 100.838 176.902 90.2191 175.634 84.3892L180.171 88.4046L186.349 93.8803C186.166 94.7581 186.035 95.6474 185.956 96.5429C185.624 100.118 186.49 103.371 191.419 104.617C191.44 104.585 195.524 109.824 187.918 112.24Z" fill="#B97964"/>
<path d="M186.368 93.8481C186.185 94.7259 186.054 95.6152 185.976 96.5107C183.672 96.0168 180.593 93.3971 180.271 90.8848C180.158 90.053 180.131 89.2105 180.191 88.3724L186.368 93.8481Z" fill="#A76755"/>
<path d="M190.564 64.022C194.246 65.7935 196.288 76.8414 191.57 79.2249C186.851 81.6084 183.602 60.6615 190.564 64.022Z" fill="#263238"/>
<path d="M173.833 75.9718C175.412 83.7128 175.966 88.3188 180.251 91.8511C181.633 93.0128 183.286 93.7497 185.032 93.9823C186.778 94.2148 188.55 93.9342 190.157 93.1706C191.764 92.407 193.145 91.1895 194.151 89.6495C195.157 88.1094 195.75 86.3054 195.866 84.4321C196.429 77.2279 193.753 65.7828 186.117 63.5925C184.476 63.0707 182.736 63.0186 181.071 63.4413C179.405 63.8641 177.874 64.7469 176.629 66.0011C175.384 67.2553 174.471 68.8368 173.98 70.5869C173.489 72.337 173.438 74.1941 173.833 75.9718Z" fill="#B97964"/>
<path d="M165.372 68.2952C161.841 69.9593 163.843 75.1128 166.247 78.3875C169.577 82.9398 173.099 85.0656 175.493 82.972C177.646 81.8232 179.065 75.0484 177.193 70.8719C180.503 68.5421 187.375 71.4195 189.518 67.651C191.661 63.8824 193.19 64.1938 196.963 66.6847C200.736 69.1755 203.754 59.3302 193.945 57.4942C199.378 60.1032 198.13 65.1816 194.156 59.9743C191.349 56.3025 184.618 52.244 179.94 57.7197C176.489 61.7137 164.366 55.5402 165.372 68.2952Z" fill="#263238"/>
<path d="M172.112 84.0456C173.289 85.5562 174.915 86.5907 176.72 86.9767C179.004 87.3847 179.517 85.13 178.36 82.9398C177.354 80.975 174.859 78.3875 172.817 78.9672C170.774 79.547 170.633 82.1453 172.112 84.0456Z" fill="#B97964"/>
<path d="M185.232 76.7448C185.322 77.3782 185.715 77.8184 186.107 77.8184C186.5 77.8184 186.741 77.2172 186.64 76.5837C186.54 75.9503 186.168 75.5101 185.775 75.5101C185.383 75.5101 185.141 76.1006 185.232 76.7448Z" fill="#263238"/>
<path d="M191.942 75.8859C192.033 76.5193 192.425 76.9595 192.818 76.9595C193.21 76.9595 193.452 76.3475 193.361 75.7141C193.27 75.0806 192.878 74.6404 192.486 74.6404C192.093 74.6404 191.942 75.2524 191.942 75.8859Z" fill="#263238"/>
<path d="M189.93 76.4764C190.928 78.3304 192.153 80.0346 193.572 81.544C193.201 81.9062 192.76 82.1767 192.28 82.3363C191.8 82.4959 191.293 82.5407 190.795 82.4674L189.93 76.4764Z" fill="#A24E3F"/>
<path d="M188.552 84.4858C187.855 84.4948 187.164 84.354 186.519 84.0718C185.874 83.7895 185.289 83.3717 184.799 82.8431C184.767 82.8071 184.749 82.759 184.749 82.7089C184.749 82.6588 184.767 82.6107 184.799 82.5747C184.833 82.5399 184.878 82.5205 184.925 82.5205C184.972 82.5205 185.017 82.5399 185.051 82.5747C185.594 83.1366 186.248 83.5607 186.966 83.8153C187.684 84.07 188.446 84.1487 189.196 84.0456C189.219 84.0426 189.243 84.0448 189.265 84.0519C189.288 84.0591 189.308 84.0711 189.326 84.0872C189.344 84.1033 189.359 84.1232 189.369 84.1456C189.38 84.168 189.386 84.1924 189.387 84.2174C189.391 84.2416 189.391 84.2665 189.385 84.2905C189.38 84.3144 189.37 84.3369 189.355 84.3562C189.341 84.3756 189.323 84.3914 189.302 84.4026C189.282 84.4139 189.259 84.4203 189.236 84.4214C189.01 84.4577 188.781 84.4792 188.552 84.4858Z" fill="#263238"/>
<path d="M182.807 74.6834C182.751 74.6993 182.692 74.6993 182.636 74.6834C182.555 74.6337 182.494 74.5522 182.468 74.4561C182.442 74.3599 182.452 74.2567 182.495 74.168C182.76 73.646 183.139 73.1998 183.599 72.8671C184.06 72.5345 184.589 72.3252 185.141 72.2569C185.226 72.2721 185.302 72.3187 185.358 72.3885C185.413 72.4583 185.443 72.5467 185.443 72.6381C185.443 72.7294 185.413 72.8179 185.358 72.8877C185.302 72.9574 185.226 73.004 185.141 73.0192C184.708 73.0721 184.293 73.2378 183.933 73.5018C183.574 73.7657 183.28 74.1199 183.079 74.5331C183.046 74.5778 183.005 74.6144 182.959 74.6403C182.912 74.6663 182.86 74.681 182.807 74.6834Z" fill="#263238"/>
<path d="M194.528 73.0085C194.47 73.0069 194.414 72.9904 194.363 72.9605C194.312 72.9306 194.269 72.8882 194.236 72.8367C193.993 72.4295 193.665 72.0878 193.278 71.8383C192.89 71.5887 192.454 71.4381 192.003 71.398C191.91 71.398 191.82 71.3584 191.754 71.288C191.688 71.2175 191.651 71.1219 191.651 71.0222C191.651 70.9226 191.688 70.827 191.754 70.7565C191.82 70.6861 191.91 70.6465 192.003 70.6465C192.571 70.6811 193.123 70.8599 193.613 71.168C194.103 71.4761 194.517 71.9047 194.82 72.418C194.847 72.4588 194.866 72.5048 194.876 72.5534C194.885 72.6021 194.886 72.6523 194.878 72.7012C194.869 72.7502 194.852 72.7968 194.826 72.8385C194.801 72.8802 194.768 72.9161 194.729 72.9441C194.67 72.9863 194.6 73.0087 194.528 73.0085Z" fill="#263238"/>
<g opacity="0.9">
<path opacity="0.9" d="M299.532 197.262C300.388 194.975 301.849 193.003 303.738 191.589C305.626 190.174 307.86 189.377 310.167 189.296H398.862C404.175 189.296 407.766 193.891 406.911 199.571L378.852 378.344C378.357 381.172 376.974 383.734 374.931 385.61C372.888 387.486 370.307 388.562 367.614 388.662H145.21C143.999 388.712 142.793 388.465 141.686 387.94C140.578 387.416 139.598 386.627 138.821 385.634C138.044 384.642 137.49 383.473 137.202 382.217C136.915 380.96 136.901 379.65 137.161 378.387L161.015 226.197C161.52 223.379 162.907 220.827 164.949 218.96C166.991 217.093 169.566 216.022 172.253 215.922H274.692C285.176 215.879 295.468 208.16 299.532 197.262Z" fill="#0EA362"/>
</g>
<path opacity="0.5" d="M299.532 197.262C300.388 194.975 301.849 193.003 303.738 191.589C305.626 190.174 307.86 189.377 310.167 189.296H398.862C404.175 189.296 407.766 193.891 406.911 199.571L378.852 378.344C378.357 381.172 376.974 383.734 374.931 385.61C372.888 387.486 370.307 388.562 367.614 388.662H145.21C143.999 388.712 142.793 388.465 141.686 387.94C140.578 387.416 139.598 386.627 138.821 385.634C138.044 384.642 137.49 383.473 137.202 382.217C136.915 380.96 136.901 379.65 137.161 378.387L161.015 226.197C161.52 223.379 162.907 220.827 164.949 218.96C166.991 217.093 169.566 216.022 172.253 215.922H274.692C285.176 215.879 295.468 208.16 299.532 197.262Z" fill="white"/>
<path opacity="0.9" d="M264.229 38.5334L197.113 287.406L350.641 334.55L417.746 85.6775L264.229 38.5334Z" fill="#0EA362"/>
<path opacity="0.7" d="M264.229 38.5334L197.113 287.406L350.641 334.55L417.746 85.6775L264.229 38.5334Z" fill="white"/>
<g style="mix-blend-mode:multiply" opacity="0.9">
<path d="M261.251 49.5598L197.113 287.406L345.419 332.95L405.532 86.7834L261.251 49.5598Z" fill="#0EA362"/>
</g>
<path opacity="0.6" d="M261.251 49.5598L197.113 287.406L345.419 332.95L405.532 86.7834L261.251 49.5598Z" fill="#0EA362"/>
<g opacity="0.9">
<g style="mix-blend-mode:multiply" opacity="0.9">
<path d="M261.251 49.5598L197.113 287.406L345.419 332.95L405.532 86.7834L261.251 49.5598Z" fill="white"/>
</g>
<path opacity="0.6" d="M261.251 49.5598L197.113 287.406L345.419 332.95L405.532 86.7834L261.251 49.5598Z" fill="white"/>
</g>
<path d="M315.613 116.941C325.675 104.662 324.505 86.0021 312.998 75.2637C301.492 64.5254 284.007 65.7746 273.944 78.0539C263.882 90.3332 265.052 108.993 276.559 119.731C288.065 130.469 305.55 129.22 315.613 116.941Z" fill="#0EA362"/>
<path d="M288.707 119.959C284.54 118.674 280.824 116.1 278.028 112.562C275.233 109.024 273.482 104.68 272.999 100.081C272.516 95.4813 273.322 90.8322 275.314 86.7212C277.307 82.6101 280.396 79.2217 284.193 76.9844C287.989 74.747 292.322 73.761 296.644 74.1512C300.966 74.5413 305.082 76.29 308.472 79.1762C311.863 82.0624 314.375 85.9565 315.692 90.3663C317.009 94.7761 317.071 99.5035 315.871 103.951C315.075 106.907 313.74 109.667 311.943 112.071C310.146 114.476 307.923 116.48 305.4 117.967C302.877 119.453 300.104 120.395 297.239 120.737C294.375 121.079 291.476 120.814 288.707 119.959Z" fill="white"/>
<path d="M305.453 144.606L256.588 129.604L253.428 141.325L302.293 156.327L305.453 144.606Z" fill="#0EA362"/>
<path d="M256.939 236.505L230.002 228.235L217.719 273.8L244.655 282.07L256.939 236.505Z" fill="#0EA362"/>
<path d="M352.256 265.774L325.319 257.504L313.035 303.068L339.972 311.338L352.256 265.774Z" fill="#0EA362"/>
<path d="M304.593 251.145L277.656 242.875L265.372 288.439L292.309 296.709L304.593 251.145Z" fill="#0EA362"/>
<path d="M344.938 156.719L311.881 146.57L308.721 158.292L341.779 168.441L344.938 156.719Z" fill="#0EA362"/>
<path d="M370.686 192.202L249.722 155.064L248.42 159.893L369.384 197.031L370.686 192.202Z" fill="white"/>
<path d="M307.105 183.791L246.957 165.324L245.655 170.153L305.803 188.62L307.105 183.791Z" fill="white"/>
<path d="M357.625 199.302L317.394 186.95L316.092 191.779L356.323 204.131L357.625 199.302Z" fill="white"/>
<path d="M340.885 205.264L244.189 175.577L242.887 180.406L339.583 210.093L340.885 205.264Z" fill="white"/>
<path d="M351.351 221.034L240.318 186.474L239 191.298L350.032 225.857L351.351 221.034Z" fill="white"/>
<path d="M251.493 200.046L238.653 196.104L237.352 200.932L250.191 204.874L251.493 200.046Z" fill="white"/>
<path d="M318.533 220.63L261.797 203.212L260.496 208.041L317.231 225.459L318.533 220.63Z" fill="white"/>
<path d="M356.855 243.507L235.891 206.37L234.589 211.198L355.553 248.336L356.855 243.507Z" fill="white"/>
<path d="M246.361 47.2408L187.354 298.475L342.291 339.929L401.287 88.6945L246.361 47.2408Z" fill="#0EA362"/>
<path opacity="0.8" d="M246.361 47.2408L187.354 298.475L342.291 339.929L401.287 88.6945L246.361 47.2408Z" fill="white"/>
<path d="M290.837 131.55C304.602 124.455 310.371 106.796 303.723 92.1074C297.075 77.4186 280.527 71.2622 266.763 78.3568C252.999 85.4513 247.23 103.11 253.878 117.799C260.526 132.488 277.073 138.644 290.837 131.55Z" fill="#0EA362"/>
<path d="M300.356 109.189C302.537 96.4737 294.645 84.2795 282.73 81.9527C270.815 79.6259 259.388 88.0475 257.208 100.763C255.027 113.478 262.919 125.672 274.834 127.999C286.749 130.326 298.176 121.905 300.356 109.189Z" fill="white"/>
<path d="M291 151.701L241.679 138.509L238.9 150.34L288.222 163.532L291 151.701Z" fill="#0EA362"/>
<path d="M245.489 245.339L218.301 238.067L207.5 284.057L234.688 291.329L245.489 245.339Z" fill="#0EA362"/>
<path d="M341.684 271.071L314.496 263.799L303.695 309.789L330.883 317.061L341.684 271.071Z" fill="#0EA362"/>
<path d="M293.59 258.205L266.402 250.933L255.601 296.923L282.789 304.195L293.59 258.205Z" fill="#0EA362"/>
<path d="M330.842 162.353L297.476 153.428L294.698 165.259L328.063 174.183L330.842 162.353Z" fill="#0EA362"/>
<path d="M357.728 196.86L235.634 164.205L234.489 169.079L356.583 201.734L357.728 196.86Z" fill="white"/>
<path d="M293.918 190.795L233.208 174.558L232.063 179.432L292.773 195.669L293.918 190.795Z" fill="white"/>
<path d="M344.907 204.43L304.3 193.569L303.156 198.443L343.763 209.304L344.907 204.43Z" fill="white"/>
<path d="M328.37 211.018L230.771 184.914L229.626 189.788L327.225 215.892L328.37 211.018Z" fill="white"/>
<path d="M340.536 225.285L228.347 195.279L227.202 200.153L339.391 230.159L340.536 225.285Z" fill="white"/>
<path d="M238.867 209.112L225.907 205.645L224.763 210.519L237.722 213.985L238.867 209.112Z" fill="white"/>
<path d="M306.534 227.196L249.268 211.88L248.123 216.754L305.389 232.07L306.534 227.196Z" fill="white"/>
<path d="M345.57 248.646L223.476 215.991L222.331 220.865L344.426 253.52L345.57 248.646Z" fill="white"/>
<path opacity="0.5" d="M240.294 234.582C240.485 230.556 243.785 227.711 248.272 227.711H336.978C342.29 227.711 347.411 231.673 348.417 236.569L375.048 379.751C376.054 384.647 372.553 388.619 367.241 388.619H144.807C139.485 388.619 134.364 384.647 133.358 379.751L111.456 259.513C110.449 254.617 113.951 250.644 119.273 250.644H221.671C232.185 250.644 239.871 243.988 240.294 234.582Z" fill="#0EA362"/>
</svg>
