<svg width="469" height="428" viewBox="0 0 469 428" fill="none" xmlns="http://www.w3.org/2000/svg">
<path d="M252.34 427.396C358.675 427.396 444.876 421.474 444.876 414.169C444.876 406.864 358.675 400.942 252.34 400.942C146.006 400.942 59.8044 406.864 59.8044 414.169C59.8044 421.474 146.006 427.396 252.34 427.396Z" fill="#263238"/>
<path d="M136.675 314.52C135.877 310.673 134.816 305.152 133.846 298.481C133.561 296.557 133.287 294.52 133.036 292.414C133.903 292.255 140.793 290.911 143.474 288.999C145.915 287.28 148.538 284.446 148.641 281.258C148.7 280.512 148.599 279.763 148.346 279.058C148.092 278.354 147.692 277.712 147.171 277.174C146.65 276.636 146.021 276.214 145.324 275.937C144.628 275.66 143.88 275.534 143.131 275.567C138.66 275.874 134.531 282.795 133.561 286.677C133.504 286.927 133.105 289.932 132.934 291.48C132.785 290.206 132.637 288.942 132.5 287.622C132.295 285.709 132.135 283.694 131.976 281.736C131.976 280.712 131.873 279.687 131.827 278.652C131.782 277.616 131.827 276.603 131.827 275.555C131.827 274.03 131.941 272.448 132.021 270.877C133.983 270.786 139.721 270.41 142.287 269.112C144.854 267.815 147.991 265.344 148.572 262.282C148.732 261.559 148.738 260.811 148.591 260.085C148.443 259.359 148.144 258.672 147.715 258.069C147.285 257.465 146.733 256.958 146.095 256.58C145.457 256.202 144.747 255.961 144.01 255.874C139.55 255.509 134.405 261.725 132.877 265.413C132.82 265.527 132.58 266.346 132.295 267.314C132.432 265.777 132.557 264.24 132.751 262.692C133.276 258.31 133.96 253.847 134.622 249.374C134.759 248.44 134.884 247.518 135.021 246.585C136.664 246.505 142.892 246.164 145.595 244.809C148.299 243.455 151.299 241.03 151.88 237.979C152.042 237.256 152.049 236.507 151.902 235.78C151.755 235.054 151.457 234.366 151.027 233.762C150.597 233.158 150.045 232.651 149.406 232.273C148.767 231.896 148.055 231.656 147.318 231.57C142.846 231.206 137.713 237.421 136.173 241.11C136.173 241.235 135.831 242.248 135.512 243.295C135.842 240.87 136.128 238.434 136.344 236.021C136.746 231.86 136.864 227.677 136.698 223.5C137.28 223.5 144.58 223.215 147.591 221.712C150.272 220.381 153.295 217.945 153.877 214.883C154.038 214.16 154.046 213.411 153.899 212.686C153.751 211.96 153.453 211.273 153.023 210.67C152.593 210.067 152.04 209.56 151.401 209.184C150.762 208.808 150.051 208.569 149.314 208.485C144.842 208.109 139.709 214.336 138.169 218.013C138.055 218.275 137.029 221.804 136.721 223.067C136.715 223.018 136.715 222.968 136.721 222.919C136.457 218.831 135.831 214.774 134.85 210.796C133.989 207.239 132.923 203.735 131.656 200.301C130.515 197.113 129.272 194.256 128.154 191.74C127.538 190.374 126.945 189.145 126.386 188.007H126.477C126.557 188.007 126.341 182.6 126.295 182.315C125.679 178.376 122.177 171.114 117.751 170.408C117.013 170.31 116.263 170.369 115.549 170.58C114.836 170.791 114.175 171.15 113.61 171.634C113.045 172.117 112.588 172.714 112.27 173.386C111.951 174.057 111.779 174.788 111.763 175.531C111.58 178.684 113.941 181.769 116.211 183.704C118.481 185.639 124.618 187.529 126.124 187.961C126.683 189.168 127.265 190.454 127.892 191.888C128.953 194.427 130.173 197.295 131.188 200.505C131.474 201.359 131.747 202.293 132.033 203.181C131.245 201.769 130.139 199.845 130.002 199.674C127.641 196.453 121.173 191.615 116.93 193.027C116.23 193.279 115.591 193.675 115.055 194.19C114.519 194.706 114.098 195.328 113.819 196.016C113.54 196.705 113.41 197.444 113.437 198.186C113.464 198.929 113.648 199.657 113.976 200.323C115.265 203.203 118.789 204.877 121.709 205.525C124.63 206.174 131.131 205.025 132.523 204.751C133.116 206.743 133.664 208.804 134.143 210.989C135.005 214.917 135.517 218.913 135.671 222.93C135.671 223.17 135.671 223.409 135.671 223.648C135.398 222.874 133.618 218.787 133.47 218.514C131.474 215.099 125.576 209.532 121.196 210.466C120.472 210.641 119.792 210.966 119.202 211.421C118.612 211.875 118.124 212.449 117.771 213.104C117.418 213.759 117.208 214.481 117.153 215.223C117.099 215.965 117.201 216.71 117.455 217.41C118.424 220.403 121.755 222.441 124.573 223.42C127.823 224.558 135.386 223.83 135.66 223.807C135.722 227.838 135.52 231.869 135.055 235.873C134.725 238.844 134.268 241.838 133.778 244.832C133.401 243.842 131.759 240.04 131.599 239.778C129.614 236.363 123.717 230.808 119.337 231.741C118.614 231.916 117.935 232.241 117.346 232.695C116.757 233.149 116.271 233.721 115.918 234.375C115.565 235.029 115.354 235.75 115.298 236.49C115.243 237.231 115.344 237.975 115.595 238.674C116.565 241.679 119.884 243.705 122.713 244.695C125.884 245.834 133.128 245.139 133.744 245.082C133.515 246.437 133.299 247.803 133.071 249.169C132.306 253.608 131.531 258.071 130.903 262.487C130.675 264.024 130.515 265.538 130.356 267.041C129.751 265.572 128.599 262.931 128.474 262.715C126.477 259.3 120.58 253.734 116.2 254.678C115.477 254.853 114.799 255.179 114.209 255.632C113.62 256.086 113.134 256.659 112.781 257.312C112.428 257.966 112.217 258.687 112.161 259.427C112.106 260.168 112.207 260.912 112.458 261.611C113.428 264.616 116.747 266.642 119.576 267.633C122.405 268.623 128.508 268.19 130.23 268.054C129.968 270.581 129.774 273.097 129.694 275.578C129.694 276.648 129.591 277.752 129.694 278.777C129.797 279.801 129.694 280.848 129.763 281.862C129.899 283.967 130.002 285.925 130.173 287.883C130.253 288.874 130.344 289.807 130.436 290.763C130.048 289.192 129.386 286.699 129.295 286.483C127.846 282.761 122.861 276.42 118.379 276.682C117.637 276.748 116.919 276.969 116.268 277.33C115.618 277.69 115.051 278.184 114.604 278.777C114.156 279.37 113.839 280.051 113.672 280.774C113.505 281.498 113.491 282.248 113.633 282.977C114.135 286.085 117.055 288.6 119.747 290.001C122.668 291.537 129.683 291.993 130.538 292.05C130.766 294.395 131.017 296.683 131.28 298.811C132.124 305.573 133.071 311.162 133.789 315.078C134.508 318.994 135.021 321.214 135.021 321.214C135.056 321.428 135.134 321.633 135.252 321.816C135.37 321.999 135.525 322.155 135.706 322.275C135.888 322.395 136.093 322.476 136.307 322.513C136.522 322.55 136.742 322.542 136.953 322.49C137.165 322.438 137.363 322.343 137.536 322.21C137.708 322.078 137.851 321.911 137.956 321.72C138.061 321.529 138.125 321.319 138.144 321.103C138.163 320.886 138.137 320.668 138.067 320.462C138.067 320.462 137.474 318.379 136.675 314.52Z" fill="#92E3A9"/>
<path d="M132.842 203.92C132.842 203.92 140.371 201.644 142.983 199.287C145.264 197.307 147.546 194.154 147.215 191C147.179 190.259 146.987 189.534 146.652 188.872C146.317 188.209 145.845 187.625 145.268 187.157C144.691 186.689 144.022 186.347 143.304 186.154C142.586 185.961 141.835 185.921 141.101 186.037C136.698 186.857 133.379 194.211 132.877 198.172C132.831 198.513 132.763 203.943 132.842 203.92Z" fill="#92E3A9"/>
<path d="M136.812 322.488C136.998 322.617 137.154 322.783 137.269 322.977C137.385 323.17 137.457 323.387 137.482 323.611C137.506 323.835 137.482 324.061 137.411 324.275C137.34 324.489 137.224 324.686 137.07 324.851C136.916 325.016 136.728 325.146 136.52 325.232C136.311 325.318 136.086 325.359 135.86 325.351C135.635 325.343 135.413 325.286 135.211 325.185C135.01 325.084 134.832 324.941 134.69 324.765C134.69 324.765 133.025 323.171 130.276 320.314C127.527 317.457 123.626 313.302 119.188 308.134C117.785 306.495 116.325 304.719 114.831 302.898C114.09 303.319 107.987 306.802 104.702 307.121C101.725 307.406 97.8576 306.95 95.7131 304.628C95.1917 304.099 94.7875 303.467 94.5268 302.772C94.2661 302.077 94.1548 301.335 94.2 300.594C94.2451 299.854 94.4458 299.131 94.7891 298.473C95.1323 297.814 95.6103 297.236 96.1922 296.774C99.7854 294.087 107.451 296.637 110.713 298.948C110.907 299.084 112.835 300.792 114.021 301.885C113.417 301.133 112.88 300.416 112.207 299.608C110.987 298.071 109.812 296.5 108.546 294.804L106.778 292.277C106.162 291.446 105.637 290.49 105.044 289.591C103.732 287.474 102.512 285.265 101.337 283.011C99.9793 284.07 95.12 287.781 92.2112 288.521C89.3025 289.261 85.3671 289.386 82.9489 287.382C82.3521 286.938 81.8556 286.374 81.4918 285.726C81.128 285.078 80.9049 284.361 80.8371 283.621C80.7694 282.881 80.8584 282.135 81.0984 281.432C81.3384 280.729 81.7241 280.084 82.2303 279.539C85.3785 276.352 93.3405 277.707 96.9108 279.539C97.139 279.653 99.5572 281.224 100.869 282.112C100.173 280.746 99.466 279.391 98.8044 277.991C96.888 273.962 95.0743 269.818 93.2492 265.686C92.6903 264.422 92.1086 263.17 91.5496 261.907C91.0705 262.294 85.3899 266.836 82.139 267.655C79.2417 268.395 75.2949 268.52 72.8767 266.517C72.2799 266.073 71.7834 265.509 71.4196 264.86C71.0558 264.212 70.8327 263.495 70.7649 262.755C70.6971 262.016 70.7862 261.27 71.0262 260.567C71.2662 259.863 71.6518 259.219 72.158 258.674C75.2949 255.487 83.2569 256.841 86.8386 258.674C87.1124 258.81 90.5915 261.076 91.4013 261.69C90.1466 258.924 88.8804 256.181 87.5116 253.517C85.684 249.921 83.6265 246.446 81.3519 243.113C81.1238 243.295 75.2265 248.065 71.8843 248.907C68.9869 249.636 65.0402 249.772 62.6219 247.769C62.0244 247.325 61.5276 246.76 61.1637 246.112C60.7999 245.463 60.5773 244.745 60.5106 244.005C60.4438 243.265 60.5344 242.519 60.7763 241.816C61.0183 241.113 61.4062 240.469 61.9147 239.926C65.0516 236.738 73.0135 238.093 76.5839 239.926C76.869 240.062 80.6105 242.498 81.2607 242.988C81.1238 242.794 81.0097 242.589 80.8728 242.396C78.484 239.133 75.8121 236.085 72.8881 233.289C71.2911 231.718 69.6828 230.307 68.0858 228.964C67.0706 229.965 62.3824 234.484 59.4965 235.577C56.6105 236.67 52.8463 237.182 50.1657 235.486C49.5241 235.111 48.9689 234.605 48.5362 234.002C48.1036 233.398 47.8032 232.711 47.6547 231.984C47.5062 231.257 47.5129 230.506 47.6743 229.782C47.8357 229.058 48.1482 228.375 48.5915 227.78C51.3634 224.262 59.428 224.729 63.1809 226.118C63.3862 226.197 65.371 227.188 66.8082 227.928C66.0782 227.336 65.3368 226.71 64.6295 226.163C61.9603 224.069 59.3938 222.316 57.1124 220.79C55.8007 219.937 54.6029 219.185 53.4737 218.514C51.968 218.98 45.8881 220.79 42.8539 220.415C39.8197 220.039 36.2037 218.776 34.6068 216.044C34.2132 215.414 33.9563 214.709 33.8527 213.975C33.7492 213.24 33.8012 212.492 34.0054 211.778C34.2097 211.065 34.5616 210.402 35.0385 209.833C35.5154 209.264 36.1067 208.801 36.7741 208.474C40.8577 206.63 47.7931 210.75 50.4623 213.71C50.6904 213.972 53.8843 218.377 53.7931 218.4H53.7018C54.8425 219.037 55.9832 219.743 57.2379 220.54C59.5193 222.02 62.1771 223.716 64.9033 225.753C67.8539 227.923 70.6796 230.256 73.3672 232.743C76.3787 235.534 79.1419 238.581 81.6257 241.849C81.6455 241.895 81.6724 241.937 81.7055 241.975C81.2721 240.745 80.177 237.239 80.12 236.966C79.3671 233.05 80.2227 225.025 84.1466 222.874C84.8088 222.535 85.535 222.339 86.2779 222.299C87.0209 222.259 87.7639 222.375 88.4589 222.641C89.1538 222.906 89.7851 223.314 90.3117 223.838C90.8383 224.363 91.2484 224.992 91.5154 225.685C92.7473 228.599 91.5154 232.299 90.0782 234.883C88.3899 237.797 82.447 242.043 81.9793 242.373C84.4114 245.761 86.6177 249.305 88.5839 252.982C89.7245 255.122 90.8652 257.308 91.9146 259.516C91.5724 258.435 91.2759 257.467 91.2531 257.331C90.5002 253.415 91.3443 245.39 95.2797 243.238C95.9426 242.9 96.6695 242.705 97.4129 242.666C98.1564 242.626 98.8999 242.743 99.595 243.01C100.29 243.276 100.921 243.685 101.447 244.211C101.973 244.737 102.383 245.367 102.648 246.061C103.88 248.964 102.648 252.664 101.211 255.248C99.7739 257.832 94.6979 261.588 93.3633 262.556C93.7626 263.409 94.1732 264.252 94.5724 265.105C96.5002 269.192 98.3937 273.29 100.379 277.251C101.074 278.64 101.816 279.983 102.546 281.338C102.249 280.382 102.01 279.574 101.975 279.437C101.223 275.521 102.078 267.507 106.002 265.356C106.664 265.017 107.39 264.822 108.133 264.782C108.876 264.742 109.619 264.858 110.314 265.123C111.009 265.388 111.641 265.796 112.167 266.321C112.694 266.845 113.104 267.475 113.371 268.168C114.603 271.07 113.428 274.781 111.934 277.365C110.439 279.949 105.911 283.33 104.325 284.491C105.124 285.846 105.911 287.212 106.744 288.498C107.337 289.363 107.884 290.24 108.477 291.071L110.302 293.564C111.523 295.1 112.766 296.705 113.998 298.174C114.842 299.21 115.664 300.177 116.496 301.156C115.778 299.779 114.443 297.047 114.363 296.808C113.017 293.04 112.641 284.992 116.2 282.271C116.803 281.836 117.491 281.533 118.219 281.381C118.947 281.229 119.699 281.231 120.426 281.388C121.154 281.544 121.84 281.852 122.44 282.291C123.04 282.729 123.541 283.289 123.911 283.933C125.565 286.62 124.96 290.467 123.911 293.245C122.77 296.307 117.717 301.213 117.067 301.828C118.447 303.444 119.793 304.992 121.105 306.449C125.599 311.469 129.534 315.488 132.329 318.265C135.124 321.043 136.812 322.488 136.812 322.488ZM67.9945 228.087C67.9945 228.087 73.0021 222.02 73.8919 218.639C74.6447 215.759 74.8044 211.809 72.8539 209.396C72.4133 208.796 71.851 208.296 71.2038 207.928C70.5566 207.559 69.8388 207.331 69.0973 207.258C68.3559 207.185 67.6073 207.269 66.9004 207.504C66.1935 207.739 65.5441 208.12 64.9946 208.622C61.7778 211.729 63.0782 219.686 64.8463 223.272C64.9489 223.579 67.9375 228.144 67.9945 228.087Z" fill="#92E3A9"/>
<path opacity="0.1" d="M136.812 322.488C136.998 322.617 137.154 322.783 137.269 322.977C137.385 323.17 137.457 323.387 137.482 323.611C137.506 323.835 137.482 324.061 137.411 324.275C137.34 324.489 137.224 324.686 137.07 324.851C136.916 325.016 136.728 325.146 136.52 325.232C136.311 325.318 136.086 325.359 135.86 325.351C135.635 325.343 135.413 325.286 135.211 325.185C135.01 325.084 134.832 324.941 134.69 324.765C134.69 324.765 133.025 323.171 130.276 320.314C127.527 317.457 123.626 313.302 119.188 308.134C117.785 306.495 116.325 304.719 114.831 302.898C114.09 303.319 107.987 306.802 104.702 307.121C101.725 307.406 97.8576 306.95 95.7131 304.628C95.1917 304.099 94.7875 303.467 94.5268 302.772C94.2661 302.077 94.1548 301.335 94.2 300.594C94.2451 299.854 94.4458 299.131 94.7891 298.473C95.1323 297.814 95.6103 297.236 96.1922 296.774C99.7854 294.087 107.451 296.637 110.713 298.948C110.907 299.084 112.835 300.792 114.021 301.885C113.417 301.133 112.88 300.416 112.207 299.608C110.987 298.071 109.812 296.5 108.546 294.804L106.778 292.277C106.162 291.446 105.637 290.49 105.044 289.591C103.732 287.474 102.512 285.265 101.337 283.011C99.9793 284.07 95.12 287.781 92.2112 288.521C89.3025 289.261 85.3671 289.386 82.9489 287.382C82.3521 286.938 81.8556 286.374 81.4918 285.726C81.128 285.078 80.9049 284.361 80.8371 283.621C80.7694 282.881 80.8584 282.135 81.0984 281.432C81.3384 280.729 81.7241 280.084 82.2303 279.539C85.3785 276.352 93.3405 277.707 96.9108 279.539C97.139 279.653 99.5572 281.224 100.869 282.112C100.173 280.746 99.466 279.391 98.8044 277.991C96.888 273.962 95.0743 269.818 93.2492 265.686C92.6903 264.422 92.1086 263.17 91.5496 261.907C91.0705 262.294 85.3899 266.836 82.139 267.655C79.2417 268.395 75.2949 268.52 72.8767 266.517C72.2799 266.073 71.7834 265.509 71.4196 264.86C71.0558 264.212 70.8327 263.495 70.7649 262.755C70.6971 262.016 70.7862 261.27 71.0262 260.567C71.2662 259.863 71.6518 259.219 72.158 258.674C75.2949 255.487 83.2569 256.841 86.8386 258.674C87.1124 258.81 90.5915 261.076 91.4013 261.69C90.1466 258.924 88.8804 256.181 87.5116 253.517C85.684 249.921 83.6265 246.446 81.3519 243.113C81.1238 243.295 75.2265 248.065 71.8843 248.907C68.9869 249.636 65.0402 249.772 62.6219 247.769C62.0244 247.325 61.5276 246.76 61.1637 246.112C60.7999 245.463 60.5773 244.745 60.5106 244.005C60.4438 243.265 60.5344 242.519 60.7763 241.816C61.0183 241.113 61.4062 240.469 61.9147 239.926C65.0516 236.738 73.0135 238.093 76.5839 239.926C76.869 240.062 80.6105 242.498 81.2607 242.988C81.1238 242.794 81.0097 242.589 80.8728 242.396C78.484 239.133 75.8121 236.085 72.8881 233.289C71.2911 231.718 69.6828 230.307 68.0858 228.964C67.0706 229.965 62.3824 234.484 59.4965 235.577C56.6105 236.67 52.8463 237.182 50.1657 235.486C49.5241 235.111 48.9689 234.605 48.5362 234.002C48.1036 233.398 47.8032 232.711 47.6547 231.984C47.5062 231.257 47.5129 230.506 47.6743 229.782C47.8357 229.058 48.1482 228.375 48.5915 227.78C51.3634 224.262 59.428 224.729 63.1809 226.118C63.3862 226.197 65.371 227.188 66.8082 227.928C66.0782 227.336 65.3368 226.71 64.6295 226.163C61.9603 224.069 59.3938 222.316 57.1124 220.79C55.8007 219.937 54.6029 219.185 53.4737 218.514C51.968 218.98 45.8881 220.79 42.8539 220.415C39.8197 220.039 36.2037 218.776 34.6068 216.044C34.2132 215.414 33.9563 214.709 33.8527 213.975C33.7492 213.24 33.8012 212.492 34.0054 211.778C34.2097 211.065 34.5616 210.402 35.0385 209.833C35.5154 209.264 36.1067 208.801 36.7741 208.474C40.8577 206.63 47.7931 210.75 50.4623 213.71C50.6904 213.972 53.8843 218.377 53.7931 218.4H53.7018C54.8425 219.037 55.9832 219.743 57.2379 220.54C59.5193 222.02 62.1771 223.716 64.9033 225.753C67.8539 227.923 70.6796 230.256 73.3672 232.743C76.3787 235.534 79.1419 238.581 81.6257 241.849C81.6455 241.895 81.6724 241.937 81.7055 241.975C81.2721 240.745 80.177 237.239 80.12 236.966C79.3671 233.05 80.2227 225.025 84.1466 222.874C84.8088 222.535 85.535 222.339 86.2779 222.299C87.0209 222.259 87.7639 222.375 88.4589 222.641C89.1538 222.906 89.7851 223.314 90.3117 223.838C90.8383 224.363 91.2484 224.992 91.5154 225.685C92.7473 228.599 91.5154 232.299 90.0782 234.883C88.3899 237.797 82.447 242.043 81.9793 242.373C84.4114 245.761 86.6177 249.305 88.5839 252.982C89.7245 255.122 90.8652 257.308 91.9146 259.516C91.5724 258.435 91.2759 257.467 91.2531 257.331C90.5002 253.415 91.3443 245.39 95.2797 243.238C95.9426 242.9 96.6695 242.705 97.4129 242.666C98.1564 242.626 98.8999 242.743 99.595 243.01C100.29 243.276 100.921 243.685 101.447 244.211C101.973 244.737 102.383 245.367 102.648 246.061C103.88 248.964 102.648 252.664 101.211 255.248C99.7739 257.832 94.6979 261.588 93.3633 262.556C93.7626 263.409 94.1732 264.252 94.5724 265.105C96.5002 269.192 98.3937 273.29 100.379 277.251C101.074 278.64 101.816 279.983 102.546 281.338C102.249 280.382 102.01 279.574 101.975 279.437C101.223 275.521 102.078 267.507 106.002 265.356C106.664 265.017 107.39 264.822 108.133 264.782C108.876 264.742 109.619 264.858 110.314 265.123C111.009 265.388 111.641 265.796 112.167 266.321C112.694 266.845 113.104 267.475 113.371 268.168C114.603 271.07 113.428 274.781 111.934 277.365C110.439 279.949 105.911 283.33 104.325 284.491C105.124 285.846 105.911 287.212 106.744 288.498C107.337 289.363 107.884 290.24 108.477 291.071L110.302 293.564C111.523 295.1 112.766 296.705 113.998 298.174C114.842 299.21 115.664 300.177 116.496 301.156C115.778 299.779 114.443 297.047 114.363 296.808C113.017 293.04 112.641 284.992 116.2 282.271C116.803 281.836 117.491 281.533 118.219 281.381C118.947 281.229 119.699 281.231 120.426 281.388C121.154 281.544 121.84 281.852 122.44 282.291C123.04 282.729 123.541 283.289 123.911 283.933C125.565 286.62 124.96 290.467 123.911 293.245C122.77 296.307 117.717 301.213 117.067 301.828C118.447 303.444 119.793 304.992 121.105 306.449C125.599 311.469 129.534 315.488 132.329 318.265C135.124 321.043 136.812 322.488 136.812 322.488ZM67.9945 228.087C67.9945 228.087 73.0021 222.02 73.8919 218.639C74.6447 215.759 74.8044 211.809 72.8539 209.396C72.4133 208.796 71.851 208.296 71.2038 207.928C70.5566 207.559 69.8388 207.331 69.0973 207.258C68.3559 207.185 67.6073 207.269 66.9004 207.504C66.1935 207.739 65.5441 208.12 64.9946 208.622C61.7778 211.729 63.0782 219.686 64.8463 223.272C64.9489 223.579 67.9375 228.144 67.9945 228.087Z" fill="black"/>
<path d="M107.576 397.561C106.607 393.748 105.295 388.284 104.04 381.625C103.675 379.724 103.31 377.686 102.968 375.603C103.812 375.398 110.645 373.759 113.234 371.744C115.595 369.911 118.093 366.929 118.059 363.776C118.076 363.037 117.937 362.304 117.652 361.623C117.367 360.942 116.942 360.327 116.405 359.82C115.868 359.313 115.23 358.924 114.532 358.677C113.835 358.431 113.093 358.334 112.356 358.391C107.896 358.892 104.074 365.995 103.23 369.911C103.23 370.162 102.911 373.19 102.82 374.738C102.603 373.474 102.398 372.222 102.204 370.901C101.919 369.012 101.668 366.997 101.417 365.05L101.143 361.977C101.017 360.93 101.04 359.917 100.983 358.881C100.983 357.355 100.983 355.773 100.983 354.202C102.934 354.02 108.649 353.394 111.181 351.983C113.713 350.571 116.713 347.964 117.147 344.845C117.277 344.114 117.25 343.363 117.07 342.642C116.889 341.921 116.558 341.247 116.098 340.662C115.639 340.078 115.061 339.597 114.402 339.251C113.743 338.904 113.019 338.701 112.276 338.653C107.804 338.471 102.945 344.914 101.565 348.67C101.565 348.784 101.314 349.603 101.086 350.582C101.086 349.046 101.211 347.52 101.325 345.961C101.668 341.544 102.147 337.07 102.614 332.574C102.706 331.629 102.785 330.696 102.888 329.762C104.531 329.614 110.725 328.988 113.371 327.486C116.017 325.983 118.903 323.467 119.348 320.337C119.476 319.606 119.449 318.856 119.267 318.136C119.086 317.416 118.755 316.742 118.295 316.158C117.836 315.574 117.259 315.093 116.601 314.746C115.943 314.399 115.22 314.194 114.477 314.145C110.006 313.974 105.135 320.417 103.766 324.162C103.766 324.298 103.47 325.3 103.207 326.382C103.424 323.934 103.607 321.498 103.721 319.074C103.934 314.9 103.866 310.716 103.515 306.552C104.097 306.552 111.375 305.914 114.329 304.275C116.93 302.83 119.861 300.257 120.295 297.127C120.425 296.395 120.399 295.644 120.218 294.924C120.037 294.203 119.706 293.528 119.247 292.944C118.787 292.359 118.209 291.878 117.55 291.532C116.892 291.186 116.167 290.982 115.424 290.934C110.953 290.763 106.093 297.206 104.713 300.951C104.622 301.213 103.755 304.776 103.493 306.062C103.493 306.062 103.493 305.96 103.493 305.914C103.056 301.84 102.254 297.814 101.097 293.882C100.076 290.37 98.8536 286.919 97.4356 283.546C96.1581 280.405 94.7893 277.604 93.5573 275.134C92.8843 273.802 92.2455 272.607 91.6296 271.48H91.7208C91.8007 271.48 91.3558 266.096 91.2874 265.788C90.5003 261.873 86.7246 254.769 82.1619 254.257C81.4244 254.2 80.683 254.297 79.9855 254.543C79.288 254.789 78.65 255.179 78.1126 255.686C77.5752 256.193 77.1504 256.808 76.8654 257.489C76.5805 258.17 76.4419 258.903 76.4585 259.642C76.4585 262.795 78.911 265.777 81.2722 267.61C83.6334 269.443 89.8273 271.025 91.3558 271.435C91.9718 272.573 92.6105 273.871 93.295 275.271C94.4356 277.764 95.7588 280.575 96.968 283.74C97.2988 284.582 97.6067 285.493 97.9261 286.381C97.082 285.003 95.8843 283.125 95.7474 282.966C93.2493 279.858 86.622 275.316 82.39 276.91C81.7032 277.194 81.084 277.62 80.5726 278.159C80.0612 278.698 79.6691 279.338 79.4217 280.038C79.1743 280.738 79.0772 281.482 79.1365 282.221C79.1959 282.961 79.4106 283.68 79.7665 284.332C81.1809 287.155 84.7741 288.646 87.7512 289.192C90.7284 289.739 97.1391 288.27 98.5193 287.929C99.2037 289.898 99.8539 291.936 100.413 294.099C101.476 298.003 102.182 301.996 102.523 306.028C102.523 306.256 102.523 306.506 102.523 306.734C102.227 305.983 100.242 301.964 100.105 301.703C97.9603 298.288 91.8235 293.086 87.4889 294.212C86.7738 294.419 86.1103 294.773 85.5418 295.253C84.9733 295.732 84.5125 296.326 84.1896 296.995C83.8666 297.664 83.6888 298.394 83.6676 299.137C83.6465 299.879 83.7825 300.618 84.0668 301.304C85.2075 304.264 88.6296 306.153 91.4356 306.996C94.7322 307.986 102.249 306.928 102.534 306.893C102.764 310.917 102.737 314.951 102.455 318.971C102.249 321.953 101.93 324.959 101.576 327.975C101.166 327.008 99.2949 323.274 99.1809 323.023C97.0364 319.609 90.8995 314.406 86.5649 315.533C85.8498 315.74 85.1864 316.094 84.6179 316.573C84.0493 317.053 83.5886 317.647 83.2656 318.316C82.9427 318.985 82.7648 319.715 82.7437 320.457C82.7225 321.2 82.8586 321.939 83.1429 322.625C84.2836 325.585 87.7056 327.463 90.5117 328.317C93.7284 329.273 100.938 328.317 101.553 328.214C101.382 329.58 101.234 330.958 101.063 332.324C100.504 336.797 99.9223 341.294 99.4775 345.733C99.3292 347.27 99.2379 348.795 99.1353 350.286C98.4622 348.852 97.1961 346.257 97.0592 346.052C94.9147 342.637 88.7893 337.435 84.5117 338.562C83.7976 338.769 83.1353 339.125 82.5678 339.605C82.0003 340.084 81.5402 340.678 81.2175 341.347C80.8948 342.016 80.7166 342.745 80.6946 343.487C80.6726 344.228 80.8072 344.967 81.0897 345.653C82.2303 348.613 85.6524 350.491 88.4585 351.345C91.2645 352.199 97.4128 351.516 99.1238 351.288C98.9756 353.827 98.8843 356.354 98.9185 358.835C98.9185 359.917 98.9185 361.009 99.0212 362.034L99.2265 365.119C99.4546 367.213 99.6486 369.16 99.8995 371.118C100.025 372.097 100.162 373.019 100.299 373.975C99.8311 372.427 99.0668 369.968 98.9756 369.752C97.3558 366.098 92.1315 359.985 87.6372 360.44C86.9002 360.538 86.1919 360.789 85.5583 361.177C84.9247 361.565 84.38 362.082 83.9594 362.693C83.5389 363.305 83.2519 363.998 83.1171 364.728C82.9824 365.458 83.0028 366.207 83.1771 366.929C83.8159 370.025 86.8957 372.404 89.5991 373.679C92.5763 375.091 99.6029 375.239 100.47 375.25C100.801 377.595 101.143 379.86 101.508 381.989C102.649 388.693 103.789 394.249 104.725 398.119C105.66 401.989 106.23 404.198 106.23 404.198C106.37 404.569 106.646 404.874 107.002 405.051C107.358 405.228 107.768 405.264 108.15 405.151C108.531 405.039 108.856 404.786 109.059 404.445C109.261 404.103 109.327 403.697 109.242 403.31C109.242 403.31 108.546 401.386 107.576 397.561Z" fill="#92E3A9"/>
<path d="M98.8501 287.234C98.8501 287.234 106.276 284.616 108.774 282.169C110.907 280.074 113.052 276.83 112.652 273.7C112.583 272.96 112.357 272.243 111.992 271.596C111.626 270.949 111.128 270.386 110.529 269.943C109.931 269.501 109.246 269.189 108.519 269.028C107.792 268.867 107.04 268.861 106.31 269.01C101.953 270.023 98.9642 277.513 98.6334 281.531C98.5992 281.862 98.7703 287.269 98.8501 287.234Z" fill="#92E3A9"/>
<path d="M103.299 399.166C100.39 396.525 96.2835 392.678 91.5611 387.851C90.2037 386.462 88.7778 384.971 87.3406 383.423C87.9337 382.786 92.7132 377.652 93.774 374.544C94.7322 371.721 95.1656 367.862 93.3862 365.244C92.9898 364.616 92.4653 364.079 91.847 363.667C91.2286 363.255 90.5303 362.978 89.7975 362.854C89.0646 362.729 88.3137 362.76 87.5936 362.944C86.8735 363.129 86.2004 363.462 85.6181 363.924C82.1961 366.792 82.9147 374.829 84.4204 378.517C84.5117 378.756 85.9717 381.431 86.7018 382.774C85.8234 381.841 84.9565 380.907 84.0668 379.906C82.7778 378.494 81.466 376.946 80.1771 375.466L78.2379 373.053C77.5649 372.245 77.0288 371.391 76.4014 370.56C75.5117 369.319 74.6562 367.987 73.8007 366.655C75.3292 365.437 79.755 361.761 81.0896 359.199C82.4242 356.638 83.4851 352.802 82.1162 349.956C81.8199 349.275 81.383 348.664 80.8341 348.163C80.2851 347.661 79.6364 347.281 78.9303 347.047C78.2242 346.813 77.4766 346.73 76.7362 346.804C75.9958 346.877 75.2792 347.106 74.6334 347.475C70.8007 349.751 70.3102 357.833 71.2113 361.715C71.2113 361.852 71.5307 362.649 71.8729 363.593C71.0744 362.273 70.2759 360.964 69.5117 359.598C67.3558 355.728 65.2798 351.732 63.1809 347.725C62.7474 346.894 62.3026 346.063 61.8577 345.232C63.1467 344.208 67.9718 340.269 69.3748 337.583C70.7778 334.896 71.7588 331.185 70.4014 328.339C70.1051 327.658 69.6682 327.047 69.1193 326.546C68.5703 326.045 67.9216 325.665 67.2155 325.43C66.5094 325.196 65.7618 325.113 65.0214 325.187C64.281 325.261 63.5644 325.489 62.9186 325.858C59.0859 328.135 58.5954 336.217 59.4965 340.098C59.4965 340.246 59.8729 341.237 60.2608 342.261C59.1201 340.098 57.8881 337.97 56.6448 335.875C54.5128 332.29 52.1465 328.848 49.5612 325.573C50.0288 325.209 55.7779 320.713 57.3292 317.73C58.7094 315.089 59.7246 311.333 58.3558 308.487C58.0606 307.805 57.6245 307.193 57.0761 306.69C56.5276 306.188 55.8791 305.806 55.1729 305.571C54.4666 305.336 53.7186 305.252 52.9777 305.325C52.2367 305.398 51.5196 305.626 50.873 305.994C47.0403 308.271 46.5498 316.364 47.4509 320.246C47.5193 320.519 48.7741 323.968 49.2532 325.186L49.1733 325.061C46.5473 321.912 43.6504 318.998 40.5156 316.353C37.7616 313.986 34.8748 311.778 31.8692 309.739C29.0631 307.827 26.3711 306.245 23.9871 304.867C22.6867 304.127 21.4776 303.478 20.3597 302.886H20.4395C20.5194 302.886 17.1544 298.595 16.9034 298.333C14.0859 295.499 6.9795 291.685 2.98711 293.712C2.33291 294.065 1.76059 294.551 1.30748 295.14C0.854357 295.728 0.530606 296.405 0.357331 297.127C0.184055 297.849 0.165144 298.599 0.301829 299.328C0.438514 300.058 0.727725 300.751 1.15061 301.361C2.86164 304.025 6.59167 305.14 9.58025 305.368C12.5688 305.596 18.6259 303.524 20.0973 303C21.238 303.638 22.4928 304.332 23.8388 305.14C26.1886 306.563 28.835 308.202 31.584 310.172C32.3255 310.695 33.0897 311.31 33.8654 311.845C32.4053 311.162 30.3635 310.263 30.1582 310.195C26.3483 308.977 18.2723 308.851 15.6601 312.471C15.2458 313.087 14.9656 313.784 14.8377 314.515C14.7098 315.246 14.7371 315.995 14.9177 316.715C15.0983 317.435 15.4282 318.109 15.8862 318.694C16.3442 319.278 16.92 319.761 17.5764 320.109C20.3255 321.669 24.1468 320.952 26.8958 319.779C29.6449 318.607 34.219 313.837 35.1886 312.801C36.8426 314.065 38.508 315.408 40.1733 316.899C43.2142 319.574 46.0086 322.515 48.5231 325.687C48.6714 325.869 48.7969 326.074 48.9452 326.268C48.2722 325.801 44.3825 323.536 44.1315 323.41C40.4813 321.783 32.4623 320.77 29.4738 324.105C28.993 324.671 28.6369 325.332 28.4285 326.044C28.2201 326.756 28.1641 327.504 28.2641 328.239C28.3642 328.975 28.618 329.681 29.0091 330.312C29.4003 330.943 29.92 331.485 30.5346 331.902C33.0897 333.758 36.9794 333.462 39.8312 332.597C43.1277 331.606 48.8197 326.586 49.0365 326.404C51.4599 329.63 53.6699 333.011 55.6524 336.524C57.1353 339.119 58.5269 341.806 59.8957 344.492C59.0174 343.912 55.4357 341.806 55.1619 341.681C51.5117 340.053 43.4927 339.051 40.4927 342.375C40.0108 342.941 39.654 343.602 39.4455 344.315C39.237 345.028 39.1815 345.777 39.2827 346.513C39.3839 347.249 39.6395 347.955 40.0327 348.586C40.426 349.216 40.9481 349.757 41.565 350.173C44.1201 352.039 47.9984 351.732 50.8615 350.878C54.0783 349.899 59.5535 345.118 59.987 344.72C60.6144 345.949 61.2417 347.179 61.8577 348.408C63.8653 352.461 65.8501 356.513 67.949 360.463C68.6676 361.829 69.4318 363.161 70.2303 364.481C68.8729 363.65 66.3862 362.205 66.1581 362.091C62.5079 360.463 54.4889 359.461 51.5003 362.785C51.0196 363.351 50.6634 364.012 50.4551 364.724C50.2467 365.436 50.1907 366.184 50.2907 366.92C50.3907 367.655 50.6446 368.361 51.0357 368.992C51.4268 369.623 51.9466 370.165 52.5612 370.583C55.1163 372.45 58.9946 372.142 61.8577 371.288C64.7208 370.435 69.4204 366.496 70.7322 365.369C72.0098 367.566 73.3216 369.729 74.7246 371.778C75.352 372.654 75.9337 373.588 76.5725 374.396L78.4546 376.843C79.8006 378.471 81.044 379.997 82.333 381.476L84.2379 383.651C82.9946 382.603 80.9984 380.987 80.8159 380.862C77.3938 378.699 69.6828 376.491 66.2151 379.325C65.6524 379.812 65.1986 380.411 64.8834 381.085C64.5682 381.758 64.3987 382.49 64.3857 383.233C64.3728 383.976 64.5169 384.714 64.8085 385.398C65.1001 386.081 65.5327 386.696 66.0782 387.202C68.3596 389.422 72.2151 389.718 75.2037 389.297C78.466 388.83 84.409 385.085 85.139 384.618C86.7018 386.383 88.2531 388.033 89.7018 389.661C94.3557 394.636 98.428 398.608 101.314 401.34C104.2 404.072 105.877 405.598 105.877 405.598C106.199 405.833 106.599 405.938 106.996 405.89C107.393 405.842 107.756 405.646 108.013 405.34C108.27 405.035 108.401 404.643 108.379 404.245C108.357 403.847 108.184 403.472 107.896 403.196C107.896 403.196 106.219 401.818 103.299 399.166Z" fill="#92E3A9"/>
<path d="M35.0402 311.959C35.0402 311.959 39.7741 305.687 40.5155 302.26C41.1429 299.346 41.1315 295.43 39.0668 293.063C38.5987 292.486 38.0144 292.013 37.3516 291.676C36.6889 291.338 35.9626 291.143 35.2196 291.103C34.4767 291.064 33.7336 291.18 33.0386 291.445C32.3435 291.71 31.712 292.118 31.1847 292.642C28.1049 295.886 29.7589 303.786 31.6752 307.28C31.8691 307.588 34.9832 312.016 35.0402 311.959Z" fill="#92E3A9"/>
<g opacity="0.1">
<path d="M107.576 397.561C106.607 393.748 105.295 388.284 104.04 381.625C103.675 379.724 103.31 377.686 102.968 375.603C103.812 375.398 110.645 373.759 113.234 371.744C115.595 369.911 118.093 366.929 118.059 363.776C118.076 363.038 117.937 362.304 117.652 361.623C117.367 360.942 116.942 360.327 116.405 359.82C115.868 359.313 115.23 358.924 114.532 358.677C113.835 358.431 113.093 358.334 112.356 358.391C107.896 358.892 104.074 365.995 103.23 369.911C103.23 370.162 102.911 373.19 102.82 374.738C102.603 373.474 102.398 372.222 102.204 370.901C101.919 369.012 101.668 366.997 101.417 365.05L101.143 361.977C101.017 360.93 101.04 359.917 100.983 358.881C100.983 357.355 100.983 355.773 100.983 354.202C102.934 354.02 108.649 353.394 111.181 351.983C113.713 350.571 116.713 347.964 117.147 344.845C117.277 344.114 117.25 343.363 117.07 342.642C116.889 341.921 116.558 341.247 116.098 340.662C115.639 340.078 115.061 339.597 114.402 339.251C113.743 338.904 113.019 338.701 112.276 338.653C107.804 338.471 102.945 344.914 101.565 348.67C101.565 348.784 101.314 349.603 101.086 350.582C101.086 349.046 101.211 347.52 101.325 345.961C101.668 341.544 102.147 337.07 102.614 332.574C102.706 331.629 102.785 330.696 102.888 329.762C104.531 329.614 110.725 328.988 113.371 327.486C116.017 325.983 118.903 323.467 119.348 320.337C119.476 319.606 119.449 318.856 119.267 318.136C119.086 317.416 118.755 316.742 118.295 316.158C117.836 315.574 117.259 315.093 116.601 314.746C115.943 314.399 115.22 314.194 114.477 314.145C110.006 313.974 105.135 320.417 103.766 324.162C103.766 324.298 103.47 325.3 103.207 326.382C103.424 323.934 103.607 321.498 103.721 319.074C103.934 314.9 103.866 310.716 103.515 306.552C104.097 306.552 111.375 305.914 114.329 304.275C116.93 302.83 119.861 300.257 120.295 297.127C120.425 296.395 120.399 295.644 120.218 294.924C120.037 294.203 119.706 293.528 119.247 292.944C118.787 292.359 118.209 291.878 117.55 291.532C116.892 291.186 116.167 290.982 115.424 290.934C110.953 290.763 106.093 297.206 104.713 300.951C104.622 301.213 103.755 304.776 103.493 306.062C103.493 306.062 103.493 305.96 103.493 305.914C103.056 301.84 102.254 297.814 101.097 293.882C100.076 290.37 98.8536 286.919 97.4356 283.546C96.1581 280.405 94.7893 277.604 93.5573 275.134C92.8843 273.802 92.2455 272.607 91.6296 271.48H91.7208C91.8007 271.48 91.3558 266.096 91.2874 265.788C90.5003 261.873 86.7246 254.769 82.1619 254.257C81.4244 254.2 80.683 254.297 79.9855 254.543C79.288 254.789 78.65 255.179 78.1126 255.686C77.5752 256.193 77.1504 256.808 76.8654 257.489C76.5805 258.17 76.4419 258.903 76.4585 259.642C76.4585 262.795 78.911 265.777 81.2722 267.61C83.6334 269.443 89.8273 271.025 91.3558 271.435C91.9718 272.573 92.6105 273.871 93.295 275.271C94.4356 277.764 95.7588 280.575 96.968 283.74C97.2988 284.582 97.6067 285.493 97.9261 286.381C97.082 285.003 95.8843 283.125 95.7474 282.966C93.2493 279.858 86.622 275.316 82.39 276.91C81.7032 277.194 81.084 277.62 80.5726 278.159C80.0612 278.698 79.6691 279.338 79.4217 280.038C79.1743 280.738 79.0772 281.482 79.1365 282.221C79.1959 282.961 79.4106 283.68 79.7665 284.332C81.1809 287.155 84.7741 288.646 87.7512 289.192C90.7284 289.739 97.1391 288.27 98.5193 287.929C99.2037 289.898 99.8539 291.936 100.413 294.099C101.476 298.003 102.182 301.996 102.523 306.028C102.523 306.256 102.523 306.506 102.523 306.734C102.227 305.983 100.242 301.964 100.105 301.703C97.9603 298.288 91.8235 293.086 87.4889 294.212C86.7738 294.419 86.1103 294.773 85.5418 295.253C84.9733 295.732 84.5125 296.326 84.1896 296.995C83.8666 297.664 83.6888 298.394 83.6676 299.137C83.6465 299.879 83.7825 300.618 84.0668 301.304C85.2075 304.264 88.6296 306.154 91.4356 306.996C94.7322 307.986 102.249 306.928 102.534 306.893C102.764 310.917 102.737 314.951 102.455 318.971C102.249 321.953 101.93 324.959 101.576 327.975C101.166 327.008 99.2949 323.274 99.1809 323.024C97.0364 319.609 90.8995 314.406 86.5649 315.533C85.8498 315.74 85.1864 316.094 84.6179 316.573C84.0493 317.053 83.5886 317.647 83.2656 318.316C82.9427 318.985 82.7648 319.715 82.7437 320.457C82.7225 321.2 82.8586 321.939 83.1429 322.625C84.2836 325.585 87.7056 327.463 90.5117 328.317C93.7284 329.273 100.938 328.317 101.553 328.214C101.382 329.58 101.234 330.958 101.063 332.324C100.504 336.797 99.9223 341.294 99.4775 345.733C99.3292 347.27 99.2379 348.795 99.1353 350.286C98.4622 348.852 97.1961 346.257 97.0592 346.052C94.9147 342.637 88.7893 337.435 84.5117 338.562C83.7976 338.769 83.1353 339.125 82.5678 339.605C82.0003 340.084 81.5402 340.678 81.2175 341.347C80.8948 342.016 80.7166 342.745 80.6946 343.487C80.6726 344.228 80.8072 344.967 81.0897 345.653C82.2303 348.613 85.6524 350.491 88.4585 351.345C91.2645 352.199 97.4128 351.516 99.1238 351.288C98.9756 353.827 98.8843 356.354 98.9185 358.835C98.9185 359.917 98.9185 361.009 99.0212 362.034L99.2265 365.119C99.4546 367.213 99.6486 369.16 99.8995 371.118C100.025 372.097 100.162 373.019 100.299 373.975C99.8311 372.427 99.0668 369.968 98.9756 369.752C97.3558 366.098 92.1315 359.985 87.6372 360.44C86.9002 360.538 86.1919 360.789 85.5583 361.177C84.9247 361.565 84.38 362.082 83.9594 362.693C83.5389 363.305 83.2519 363.998 83.1171 364.728C82.9824 365.458 83.0028 366.208 83.1771 366.929C83.8159 370.025 86.8957 372.404 89.5991 373.679C92.5763 375.091 99.6029 375.239 100.47 375.25C100.801 377.595 101.143 379.86 101.508 381.989C102.649 388.694 103.789 394.249 104.725 398.119C105.66 401.989 106.23 404.198 106.23 404.198C106.37 404.569 106.646 404.874 107.002 405.051C107.358 405.228 107.768 405.264 108.15 405.151C108.531 405.039 108.856 404.786 109.059 404.445C109.261 404.103 109.327 403.698 109.242 403.31C109.242 403.31 108.546 401.386 107.576 397.561Z" fill="black"/>
<path d="M98.8501 287.235C98.8501 287.235 106.276 284.616 108.774 282.169C110.907 280.074 113.052 276.83 112.652 273.7C112.583 272.96 112.357 272.243 111.992 271.596C111.626 270.949 111.128 270.386 110.529 269.943C109.931 269.501 109.246 269.189 108.519 269.028C107.792 268.867 107.04 268.861 106.31 269.01C101.953 270.023 98.9642 277.513 98.6334 281.531C98.5992 281.862 98.7703 287.269 98.8501 287.235Z" fill="black"/>
<path d="M103.299 399.166C100.39 396.525 96.2835 392.678 91.5611 387.851C90.2037 386.462 88.7778 384.971 87.3406 383.423C87.9337 382.786 92.7132 377.652 93.774 374.544C94.7322 371.721 95.1656 367.862 93.3862 365.244C92.9898 364.616 92.4653 364.079 91.847 363.667C91.2286 363.255 90.5303 362.978 89.7975 362.854C89.0646 362.729 88.3137 362.76 87.5936 362.944C86.8735 363.129 86.2004 363.462 85.6181 363.924C82.1961 366.792 82.9147 374.829 84.4204 378.517C84.5117 378.756 85.9717 381.431 86.7018 382.774C85.8234 381.841 84.9565 380.907 84.0668 379.906C82.7778 378.494 81.466 376.946 80.1771 375.466L78.2379 373.053C77.5649 372.245 77.0288 371.391 76.4014 370.56C75.5117 369.319 74.6562 367.987 73.8007 366.656C75.3292 365.437 79.755 361.761 81.0896 359.199C82.4242 356.638 83.4851 352.802 82.1162 349.956C81.8199 349.275 81.383 348.664 80.8341 348.163C80.2851 347.662 79.6364 347.281 78.9303 347.047C78.2242 346.813 77.4766 346.73 76.7362 346.804C75.9958 346.877 75.2792 347.106 74.6334 347.475C70.8007 349.751 70.3102 357.833 71.2113 361.715C71.2113 361.852 71.5307 362.649 71.8729 363.593C71.0744 362.273 70.2759 360.964 69.5117 359.598C67.3558 355.728 65.2798 351.732 63.1809 347.725C62.7474 346.894 62.3026 346.063 61.8577 345.232C63.1467 344.208 67.9718 340.269 69.3748 337.583C70.7778 334.896 71.7588 331.185 70.4014 328.339C70.1051 327.658 69.6682 327.047 69.1193 326.546C68.5703 326.045 67.9216 325.665 67.2155 325.43C66.5094 325.196 65.7618 325.113 65.0214 325.187C64.281 325.261 63.5644 325.489 62.9186 325.858C59.0859 328.135 58.5954 336.217 59.4965 340.098C59.4965 340.246 59.8729 341.237 60.2608 342.261C59.1201 340.098 57.8881 337.97 56.6448 335.875C54.5128 332.29 52.1465 328.848 49.5612 325.573C50.0288 325.209 55.7779 320.713 57.3292 317.73C58.7094 315.089 59.7246 311.333 58.3558 308.487C58.0606 307.805 57.6245 307.193 57.0761 306.69C56.5276 306.188 55.8791 305.806 55.1729 305.571C54.4666 305.336 53.7186 305.252 52.9777 305.325C52.2367 305.398 51.5196 305.626 50.873 305.994C47.0403 308.271 46.5498 316.364 47.4509 320.246C47.5193 320.519 48.7741 323.968 49.2532 325.186L49.1733 325.061C46.5473 321.912 43.6504 318.998 40.5156 316.353C37.7616 313.986 34.8748 311.778 31.8692 309.739C29.0631 307.827 26.3711 306.245 23.9871 304.867C22.6867 304.127 21.4776 303.478 20.3597 302.887H20.4395C20.5194 302.887 17.1544 298.595 16.9034 298.333C14.0859 295.499 6.9795 291.685 2.98711 293.712C2.33291 294.065 1.76059 294.551 1.30748 295.14C0.854357 295.728 0.530606 296.405 0.357331 297.127C0.184055 297.849 0.165144 298.599 0.301829 299.329C0.438514 300.058 0.727725 300.751 1.15061 301.361C2.86164 304.025 6.59167 305.14 9.58025 305.368C12.5688 305.596 18.6259 303.524 20.0973 303C21.238 303.638 22.4928 304.332 23.8388 305.14C26.1886 306.563 28.835 308.202 31.584 310.172C32.3255 310.695 33.0897 311.31 33.8654 311.845C32.4053 311.162 30.3635 310.263 30.1582 310.195C26.3483 308.977 18.2723 308.851 15.6601 312.471C15.2458 313.087 14.9656 313.784 14.8377 314.515C14.7098 315.246 14.7371 315.995 14.9177 316.715C15.0983 317.435 15.4282 318.109 15.8862 318.694C16.3442 319.278 16.92 319.761 17.5764 320.109C20.3255 321.669 24.1468 320.952 26.8958 319.779C29.6449 318.607 34.219 313.837 35.1886 312.801C36.8426 314.065 38.508 315.408 40.1733 316.899C43.2142 319.574 46.0086 322.515 48.5231 325.687C48.6714 325.869 48.7969 326.074 48.9452 326.268C48.2722 325.801 44.3825 323.536 44.1315 323.411C40.4813 321.783 32.4623 320.77 29.4738 324.105C28.993 324.671 28.6369 325.332 28.4285 326.044C28.2201 326.756 28.1641 327.504 28.2641 328.239C28.3642 328.975 28.618 329.681 29.0091 330.312C29.4003 330.943 29.92 331.485 30.5346 331.902C33.0897 333.758 36.9794 333.462 39.8312 332.597C43.1277 331.606 48.8197 326.586 49.0365 326.404C51.4599 329.63 53.6699 333.011 55.6524 336.524C57.1353 339.119 58.5269 341.806 59.8957 344.492C59.0174 343.912 55.4357 341.806 55.1619 341.681C51.5117 340.053 43.4927 339.051 40.4927 342.375C40.0108 342.941 39.654 343.602 39.4455 344.315C39.237 345.028 39.1815 345.777 39.2827 346.513C39.3839 347.249 39.6395 347.955 40.0327 348.586C40.426 349.216 40.9481 349.757 41.565 350.173C44.1201 352.039 47.9984 351.732 50.8615 350.878C54.0783 349.899 59.5535 345.118 59.987 344.72C60.6144 345.949 61.2417 347.179 61.8577 348.408C63.8653 352.461 65.8501 356.513 67.949 360.463C68.6676 361.829 69.4318 363.161 70.2303 364.481C68.8729 363.65 66.3862 362.205 66.1581 362.091C62.5079 360.463 54.4889 359.461 51.5003 362.785C51.0196 363.351 50.6634 364.012 50.4551 364.724C50.2467 365.436 50.1907 366.184 50.2907 366.92C50.3907 367.655 50.6446 368.361 51.0357 368.992C51.4268 369.623 51.9466 370.165 52.5612 370.583C55.1163 372.45 58.9946 372.142 61.8577 371.288C64.7208 370.435 69.4204 366.496 70.7322 365.369C72.0098 367.566 73.3216 369.729 74.7246 371.778C75.352 372.654 75.9337 373.588 76.5725 374.396L78.4546 376.844C79.8006 378.471 81.044 379.997 82.333 381.477L84.2379 383.651C82.9946 382.603 80.9984 380.987 80.8159 380.862C77.3938 378.699 69.6828 376.491 66.2151 379.325C65.6524 379.812 65.1986 380.411 64.8834 381.085C64.5682 381.758 64.3987 382.49 64.3857 383.233C64.3728 383.976 64.5169 384.714 64.8085 385.398C65.1001 386.081 65.5327 386.696 66.0782 387.202C68.3596 389.422 72.2151 389.718 75.2037 389.297C78.466 388.83 84.409 385.085 85.139 384.618C86.7018 386.383 88.2531 388.033 89.7018 389.661C94.3557 394.636 98.428 398.608 101.314 401.34C104.2 404.072 105.877 405.598 105.877 405.598C106.199 405.833 106.599 405.938 106.996 405.89C107.393 405.842 107.756 405.646 108.013 405.34C108.27 405.035 108.401 404.643 108.379 404.245C108.357 403.847 108.184 403.472 107.896 403.196C107.896 403.196 106.219 401.818 103.299 399.166Z" fill="black"/>
<path d="M35.0402 311.959C35.0402 311.959 39.7741 305.687 40.5155 302.26C41.1429 299.346 41.1315 295.43 39.0668 293.063C38.5987 292.486 38.0144 292.013 37.3516 291.676C36.6889 291.338 35.9626 291.143 35.2196 291.103C34.4767 291.064 33.7336 291.18 33.0386 291.445C32.3435 291.71 31.712 292.118 31.1847 292.642C28.1049 295.886 29.7589 303.786 31.6752 307.28C31.8691 307.588 34.9832 312.016 35.0402 311.959Z" fill="black"/>
</g>
<g opacity="0.1">
<path d="M136.675 314.52C135.877 310.673 134.816 305.152 133.846 298.481C133.561 296.557 133.287 294.52 133.036 292.414C133.903 292.255 140.793 290.911 143.474 288.999C145.915 287.28 148.538 284.446 148.641 281.258C148.7 280.512 148.599 279.763 148.346 279.058C148.092 278.354 147.692 277.712 147.171 277.174C146.65 276.636 146.021 276.214 145.324 275.937C144.628 275.66 143.88 275.534 143.131 275.567C138.66 275.874 134.531 282.795 133.561 286.677C133.504 286.927 133.105 289.932 132.934 291.48C132.785 290.206 132.637 288.942 132.5 287.622C132.295 285.709 132.135 283.694 131.976 281.736C131.976 280.712 131.873 279.687 131.827 278.652C131.782 277.616 131.827 276.603 131.827 275.555C131.827 274.03 131.941 272.448 132.021 270.877C133.983 270.786 139.721 270.41 142.287 269.112C144.854 267.815 147.991 265.344 148.572 262.282C148.732 261.559 148.738 260.811 148.591 260.085C148.443 259.359 148.144 258.672 147.715 258.069C147.285 257.465 146.733 256.958 146.095 256.58C145.457 256.202 144.747 255.961 144.01 255.874C139.55 255.509 134.405 261.725 132.877 265.413C132.82 265.527 132.58 266.346 132.295 267.314C132.432 265.777 132.557 264.24 132.751 262.692C133.276 258.31 133.96 253.847 134.622 249.374C134.759 248.44 134.884 247.518 135.021 246.585C136.664 246.505 142.892 246.164 145.595 244.809C148.299 243.455 151.299 241.03 151.88 237.979C152.042 237.256 152.049 236.507 151.902 235.78C151.755 235.054 151.457 234.366 151.027 233.762C150.597 233.158 150.045 232.651 149.406 232.273C148.767 231.896 148.055 231.656 147.318 231.57C142.846 231.206 137.713 237.421 136.173 241.11C136.173 241.235 135.831 242.248 135.512 243.295C135.842 240.87 136.128 238.434 136.344 236.021C136.746 231.86 136.864 227.677 136.698 223.5C137.28 223.5 144.58 223.215 147.591 221.712C150.272 220.381 153.295 217.945 153.877 214.883C154.038 214.16 154.046 213.411 153.899 212.686C153.751 211.96 153.453 211.273 153.023 210.67C152.593 210.067 152.04 209.56 151.401 209.184C150.762 208.808 150.051 208.569 149.314 208.485C144.842 208.109 139.709 214.336 138.169 218.013C138.055 218.275 137.029 221.804 136.721 223.067C136.715 223.018 136.715 222.968 136.721 222.919C136.457 218.831 135.831 214.774 134.85 210.796C133.989 207.239 132.923 203.735 131.656 200.301C130.515 197.113 129.272 194.256 128.154 191.74C127.538 190.374 126.945 189.145 126.386 188.007H126.477C126.557 188.007 126.341 182.6 126.295 182.315C125.679 178.376 122.177 171.114 117.751 170.408C117.013 170.31 116.263 170.369 115.549 170.58C114.836 170.791 114.175 171.15 113.61 171.634C113.045 172.117 112.588 172.714 112.27 173.386C111.951 174.057 111.779 174.788 111.763 175.531C111.58 178.684 113.941 181.769 116.211 183.704C118.481 185.639 124.618 187.529 126.124 187.961C126.683 189.168 127.265 190.454 127.892 191.888C128.953 194.427 130.173 197.295 131.188 200.505C131.474 201.359 131.747 202.293 132.033 203.181C131.245 201.769 130.139 199.845 130.002 199.674C127.641 196.453 121.173 191.615 116.93 193.027C116.23 193.279 115.591 193.675 115.055 194.19C114.519 194.706 114.098 195.328 113.819 196.016C113.54 196.705 113.41 197.444 113.437 198.186C113.464 198.929 113.648 199.657 113.976 200.323C115.265 203.203 118.789 204.877 121.709 205.525C124.63 206.174 131.131 205.025 132.523 204.751C133.116 206.743 133.664 208.804 134.143 210.989C135.005 214.917 135.517 218.913 135.671 222.93C135.671 223.17 135.671 223.409 135.671 223.648C135.398 222.874 133.618 218.787 133.47 218.514C131.474 215.099 125.576 209.532 121.196 210.466C120.472 210.641 119.792 210.966 119.202 211.421C118.612 211.875 118.124 212.449 117.771 213.104C117.418 213.759 117.208 214.481 117.153 215.223C117.099 215.965 117.201 216.71 117.455 217.41C118.424 220.403 121.755 222.441 124.573 223.42C127.823 224.558 135.386 223.83 135.66 223.807C135.722 227.838 135.52 231.869 135.055 235.873C134.725 238.844 134.268 241.838 133.778 244.832C133.401 243.842 131.759 240.04 131.599 239.778C129.614 236.363 123.717 230.808 119.337 231.741C118.614 231.916 117.935 232.241 117.346 232.695C116.757 233.149 116.271 233.721 115.918 234.375C115.565 235.029 115.354 235.75 115.298 236.49C115.243 237.231 115.344 237.975 115.595 238.674C116.565 241.679 119.884 243.705 122.713 244.695C125.884 245.834 133.128 245.139 133.744 245.082C133.515 246.437 133.299 247.803 133.071 249.169C132.306 253.608 131.531 258.071 130.903 262.487C130.675 264.024 130.515 265.538 130.356 267.041C129.751 265.572 128.599 262.931 128.474 262.715C126.477 259.3 120.58 253.734 116.2 254.678C115.477 254.853 114.799 255.179 114.209 255.632C113.62 256.086 113.134 256.659 112.781 257.312C112.428 257.966 112.217 258.687 112.161 259.427C112.106 260.168 112.207 260.912 112.458 261.611C113.428 264.616 116.747 266.642 119.576 267.633C122.405 268.623 128.508 268.19 130.23 268.054C129.968 270.581 129.774 273.097 129.694 275.578C129.694 276.648 129.591 277.752 129.694 278.777C129.797 279.801 129.694 280.848 129.763 281.862C129.899 283.967 130.002 285.925 130.173 287.883C130.253 288.874 130.344 289.807 130.436 290.763C130.048 289.192 129.386 286.699 129.295 286.483C127.846 282.761 122.861 276.42 118.379 276.682C117.637 276.748 116.919 276.969 116.268 277.33C115.618 277.69 115.051 278.184 114.604 278.777C114.156 279.37 113.839 280.051 113.672 280.774C113.505 281.498 113.491 282.248 113.633 282.977C114.135 286.085 117.055 288.6 119.747 290.001C122.668 291.537 129.683 291.993 130.538 292.05C130.766 294.395 131.017 296.683 131.28 298.811C132.124 305.573 133.071 311.162 133.789 315.078C134.508 318.994 135.021 321.214 135.021 321.214C135.056 321.428 135.134 321.633 135.252 321.816C135.37 321.999 135.525 322.155 135.706 322.275C135.888 322.395 136.093 322.476 136.307 322.513C136.522 322.55 136.742 322.542 136.953 322.49C137.165 322.438 137.363 322.343 137.536 322.21C137.708 322.078 137.851 321.911 137.956 321.72C138.061 321.529 138.125 321.319 138.144 321.103C138.163 320.886 138.137 320.668 138.067 320.462C138.067 320.462 137.474 318.379 136.675 314.52Z" fill="black"/>
<path d="M132.842 203.92C132.842 203.92 140.371 201.644 142.983 199.287C145.264 197.307 147.546 194.154 147.215 191C147.179 190.259 146.987 189.534 146.652 188.872C146.317 188.209 145.845 187.625 145.268 187.157C144.691 186.689 144.022 186.347 143.304 186.154C142.586 185.961 141.835 185.921 141.101 186.037C136.698 186.857 133.379 194.211 132.877 198.172C132.831 198.513 132.763 203.943 132.842 203.92Z" fill="black"/>
</g>
<path d="M377.918 342.921C378.066 378.585 406.503 407.385 406.503 407.385C406.503 407.385 434.701 378.346 434.541 342.682C434.382 307.019 406.013 278.219 406.013 278.219C406.013 278.219 377.758 307.258 377.918 342.921Z" fill="#92E3A9"/>
<path d="M406.504 407.385L405.956 278.219" stroke="white" stroke-width="0.910297" stroke-miterlimit="10"/>
<path d="M406.15 324.128L390.237 310.388" stroke="white" stroke-width="0.910297" stroke-miterlimit="10"/>
<path d="M406.492 345.471L425.998 317.013" stroke="white" stroke-width="0.910297" stroke-miterlimit="10"/>
<path d="M406.298 357.777L382.8 337.036" stroke="white" stroke-width="0.910297" stroke-miterlimit="10"/>
<path d="M406.617 374.351L429.682 353.656" stroke="white" stroke-width="0.910297" stroke-miterlimit="10"/>
<path d="M406.674 388.659L388.503 374.43" stroke="white" stroke-width="0.910297" stroke-miterlimit="10"/>
<path d="M358.538 397.971C372.351 413.429 395.747 415.046 395.747 415.046C395.747 415.046 396.785 391.63 382.971 376.217C369.157 360.805 345.716 359.234 345.716 359.234C345.716 359.234 344.724 382.603 358.538 397.971Z" fill="#92E3A9"/>
<path d="M395.793 415L345.762 359.188" stroke="white" stroke-width="0.910297" stroke-miterlimit="10"/>
<path d="M363.545 379.018L351.34 379.166" stroke="white" stroke-width="0.910297" stroke-miterlimit="10"/>
<path d="M371.918 388.147L369.408 368.317" stroke="white" stroke-width="0.910297" stroke-miterlimit="10"/>
<path d="M376.572 393.566L358.389 393.588" stroke="white" stroke-width="0.910297" stroke-miterlimit="10"/>
<path d="M383.108 400.623L385.138 382.797" stroke="white" stroke-width="0.910297" stroke-miterlimit="10"/>
<path d="M388.652 406.816L375.283 407.612" stroke="white" stroke-width="0.910297" stroke-miterlimit="10"/>
<path d="M430.583 375.421C416.211 390.321 416.393 413.759 416.393 413.759C416.393 413.759 439.868 413.042 454.241 398.142C468.614 383.241 468.431 359.803 468.431 359.803C468.431 359.803 444.956 360.52 430.583 375.421Z" fill="#92E3A9"/>
<path d="M416.393 413.759L468.431 359.803" stroke="white" stroke-width="0.910297" stroke-miterlimit="10"/>
<path d="M449.94 378.984L448.88 366.849" stroke="white" stroke-width="0.910297" stroke-miterlimit="10"/>
<path d="M441.442 387.999L461.074 384.026" stroke="white" stroke-width="0.910297" stroke-miterlimit="10"/>
<path d="M436.378 393.042L434.998 374.943" stroke="white" stroke-width="0.910297" stroke-miterlimit="10"/>
<path d="M429.808 400.065L447.773 400.748" stroke="white" stroke-width="0.910297" stroke-miterlimit="10"/>
<path d="M424.036 406.042L422.233 392.791" stroke="white" stroke-width="0.910297" stroke-miterlimit="10"/>
<g opacity="0.1">
<path d="M377.918 342.921C378.066 378.585 406.504 407.385 406.504 407.385C406.504 407.385 434.701 378.346 434.542 342.682C434.382 307.019 406.013 278.219 406.013 278.219C406.013 278.219 377.758 307.258 377.918 342.921Z" fill="black"/>
<path d="M358.538 397.971C372.352 413.429 395.747 415.046 395.747 415.046C395.747 415.046 396.785 391.63 382.971 376.217C369.158 360.804 345.717 359.234 345.717 359.234C345.717 359.234 344.724 382.603 358.538 397.971Z" fill="black"/>
<path d="M430.583 375.421C416.211 390.321 416.393 413.759 416.393 413.759C416.393 413.759 439.868 413.042 454.241 398.142C468.614 383.241 468.431 359.803 468.431 359.803C468.431 359.803 444.956 360.52 430.583 375.421Z" fill="black"/>
</g>
<path d="M386.017 51.6694H104.633V413.099H386.017V51.6694Z" fill="white" stroke="#263238" stroke-width="0.987488" stroke-linecap="round" stroke-linejoin="round"/>
<g style="mix-blend-mode:multiply">
<path d="M149.519 51.6694H104.633V413.099H149.519V51.6694Z" fill="#92E3A9"/>
</g>
<path d="M323.496 105.068H237.203V115.199H323.496V105.068Z" fill="#92E3A9" stroke="#263238" stroke-width="0.987488" stroke-linecap="round" stroke-linejoin="round"/>
<path d="M376.583 191.387H140.04V201.519H376.583V191.387Z" fill="#92E3A9"/>
<path d="M376.583 330.627H140.04V340.759H376.583V330.627Z" fill="#92E3A9"/>
<path d="M291.591 122.519H237.203V132.65H291.591V122.519Z" fill="#92E3A9" stroke="#263238" stroke-width="0.987488" stroke-linecap="round" stroke-linejoin="round"/>
<path d="M291.591 139.605H237.203V149.736H291.591V139.605Z" fill="#92E3A9" stroke="#263238" stroke-width="0.987488" stroke-linecap="round" stroke-linejoin="round"/>
<path d="M229.721 212.674H224.12V218.263H229.721V212.674Z" fill="#92E3A9" stroke="#263238" stroke-width="0.987488" stroke-linecap="round" stroke-linejoin="round"/>
<path d="M229.721 284.559H224.12V290.149H229.721V284.559Z" fill="#92E3A9" stroke="#263238" stroke-width="0.987488" stroke-linecap="round" stroke-linejoin="round"/>
<path d="M308.758 212.674H303.158V218.263H308.758V212.674Z" fill="#92E3A9" stroke="#263238" stroke-width="0.987488" stroke-linecap="round" stroke-linejoin="round"/>
<path d="M308.758 284.559H303.158V290.149H308.758V284.559Z" fill="#92E3A9" stroke="#263238" stroke-width="0.987488" stroke-linecap="round" stroke-linejoin="round"/>
<path d="M386.017 51.6694H104.633V70.0533H386.017V51.6694Z" fill="#263238" stroke="#263238" stroke-width="0.987488" stroke-linecap="round" stroke-linejoin="round"/>
<path d="M288.329 216.556H238.8C238.377 216.556 237.971 216.388 237.671 216.089C237.372 215.79 237.203 215.385 237.203 214.962C237.203 214.54 237.372 214.134 237.671 213.835C237.971 213.536 238.377 213.369 238.8 213.369H288.329C288.752 213.369 289.158 213.536 289.458 213.835C289.757 214.134 289.926 214.54 289.926 214.962C289.926 215.385 289.757 215.79 289.458 216.089C289.158 216.388 288.752 216.556 288.329 216.556Z" fill="#263238"/>
<path d="M288.329 224.536H238.8C238.376 224.533 237.97 224.362 237.67 224.061C237.371 223.761 237.203 223.354 237.203 222.93C237.203 222.508 237.372 222.102 237.671 221.804C237.971 221.505 238.377 221.337 238.8 221.337H288.329C288.752 221.337 289.158 221.505 289.458 221.804C289.757 222.102 289.926 222.508 289.926 222.93C289.926 223.354 289.758 223.761 289.459 224.061C289.159 224.362 288.753 224.533 288.329 224.536Z" fill="#263238"/>
<path d="M288.329 232.504H238.8C238.377 232.504 237.971 232.336 237.671 232.037C237.372 231.738 237.203 231.333 237.203 230.91C237.203 230.487 237.372 230.082 237.671 229.783C237.971 229.484 238.377 229.316 238.8 229.316H288.329C288.752 229.316 289.158 229.484 289.458 229.783C289.757 230.082 289.926 230.487 289.926 230.91C289.926 231.333 289.757 231.738 289.458 232.037C289.158 232.336 288.752 232.504 288.329 232.504Z" fill="#263238"/>
<path d="M288.329 240.472H238.8C238.377 240.472 237.971 240.304 237.671 240.005C237.372 239.706 237.203 239.301 237.203 238.878C237.203 238.456 237.372 238.05 237.671 237.752C237.971 237.453 238.377 237.285 238.8 237.285H288.329C288.752 237.285 289.158 237.453 289.458 237.752C289.757 238.05 289.926 238.456 289.926 238.878C289.926 239.301 289.757 239.706 289.458 240.005C289.158 240.304 288.752 240.472 288.329 240.472Z" fill="#263238"/>
<path d="M288.329 248.44H238.8C238.377 248.44 237.971 248.272 237.671 247.974C237.372 247.675 237.203 247.269 237.203 246.847C237.203 246.424 237.372 246.019 237.671 245.72C237.971 245.421 238.377 245.253 238.8 245.253H288.329C288.752 245.253 289.158 245.421 289.458 245.72C289.757 246.019 289.926 246.424 289.926 246.847C289.926 247.269 289.757 247.675 289.458 247.974C289.158 248.272 288.752 248.44 288.329 248.44Z" fill="#263238"/>
<path d="M363.249 216.556H313.72C313.297 216.556 312.891 216.388 312.591 216.089C312.292 215.79 312.123 215.385 312.123 214.962C312.123 214.54 312.292 214.134 312.591 213.835C312.891 213.536 313.297 213.369 313.72 213.369H363.249C363.672 213.369 364.078 213.536 364.378 213.835C364.677 214.134 364.846 214.54 364.846 214.962C364.846 215.385 364.677 215.79 364.378 216.089C364.078 216.388 363.672 216.556 363.249 216.556Z" fill="#263238"/>
<path d="M363.249 224.536H313.72C313.296 224.533 312.89 224.362 312.59 224.061C312.291 223.761 312.123 223.354 312.123 222.93C312.123 222.508 312.292 222.102 312.591 221.804C312.891 221.505 313.297 221.337 313.72 221.337H363.249C363.672 221.337 364.078 221.505 364.378 221.804C364.677 222.102 364.846 222.508 364.846 222.93C364.846 223.354 364.678 223.761 364.379 224.061C364.08 224.362 363.673 224.533 363.249 224.536Z" fill="#263238"/>
<path d="M363.249 232.504H313.72C313.297 232.504 312.891 232.336 312.591 232.037C312.292 231.738 312.123 231.333 312.123 230.91C312.123 230.487 312.292 230.082 312.591 229.783C312.891 229.484 313.297 229.316 313.72 229.316H363.249C363.672 229.316 364.078 229.484 364.378 229.783C364.677 230.082 364.846 230.487 364.846 230.91C364.846 231.333 364.677 231.738 364.378 232.037C364.078 232.336 363.672 232.504 363.249 232.504Z" fill="#263238"/>
<path d="M363.249 240.472H313.72C313.297 240.472 312.891 240.304 312.591 240.005C312.292 239.706 312.123 239.301 312.123 238.878C312.123 238.456 312.292 238.05 312.591 237.752C312.891 237.453 313.297 237.285 313.72 237.285H363.249C363.672 237.285 364.078 237.453 364.378 237.752C364.677 238.05 364.846 238.456 364.846 238.878C364.846 239.301 364.677 239.706 364.378 240.005C364.078 240.304 363.672 240.472 363.249 240.472Z" fill="#263238"/>
<path d="M363.249 248.44H313.72C313.297 248.44 312.891 248.272 312.591 247.974C312.292 247.675 312.123 247.269 312.123 246.847C312.123 246.424 312.292 246.019 312.591 245.72C312.891 245.421 313.297 245.253 313.72 245.253H363.249C363.672 245.253 364.078 245.421 364.378 245.72C364.677 246.019 364.846 246.424 364.846 246.847C364.846 247.269 364.677 247.675 364.378 247.974C364.078 248.272 363.672 248.44 363.249 248.44Z" fill="#263238"/>
<path d="M288.329 287.246H238.8C238.376 287.243 237.97 287.072 237.67 286.772C237.371 286.471 237.203 286.065 237.203 285.641C237.203 285.218 237.372 284.813 237.671 284.514C237.971 284.215 238.377 284.047 238.8 284.047H288.329C288.752 284.047 289.158 284.215 289.458 284.514C289.757 284.813 289.926 285.218 289.926 285.641C289.926 286.065 289.758 286.471 289.459 286.772C289.159 287.072 288.753 287.243 288.329 287.246Z" fill="#263238"/>
<path d="M288.329 295.214H238.8C238.377 295.214 237.971 295.046 237.671 294.747C237.372 294.449 237.203 294.043 237.203 293.621C237.203 293.198 237.372 292.793 237.671 292.494C237.971 292.195 238.377 292.027 238.8 292.027H288.329C288.752 292.027 289.158 292.195 289.458 292.494C289.757 292.793 289.926 293.198 289.926 293.621C289.926 294.043 289.757 294.449 289.458 294.747C289.158 295.046 288.752 295.214 288.329 295.214Z" fill="#263238"/>
<path d="M288.329 303.182H238.8C238.377 303.182 237.971 303.015 237.671 302.716C237.372 302.417 237.203 302.011 237.203 301.589C237.203 301.166 237.372 300.761 237.671 300.462C237.971 300.163 238.377 299.995 238.8 299.995H288.329C288.752 299.995 289.158 300.163 289.458 300.462C289.757 300.761 289.926 301.166 289.926 301.589C289.926 302.011 289.757 302.417 289.458 302.716C289.158 303.015 288.752 303.182 288.329 303.182Z" fill="#263238"/>
<path d="M288.329 311.151H238.8C238.377 311.151 237.971 310.983 237.671 310.684C237.372 310.385 237.203 309.98 237.203 309.557C237.203 309.134 237.372 308.729 237.671 308.43C237.971 308.131 238.377 307.963 238.8 307.963H288.329C288.752 307.963 289.158 308.131 289.458 308.43C289.757 308.729 289.926 309.134 289.926 309.557C289.926 309.98 289.757 310.385 289.458 310.684C289.158 310.983 288.752 311.151 288.329 311.151Z" fill="#263238"/>
<path d="M288.329 319.13H238.8C238.377 319.13 237.971 318.963 237.671 318.664C237.372 318.365 237.203 317.959 237.203 317.537C237.203 317.114 237.372 316.709 237.671 316.41C237.971 316.111 238.377 315.943 238.8 315.943H288.329C288.752 315.943 289.158 316.111 289.458 316.41C289.757 316.709 289.926 317.114 289.926 317.537C289.926 317.959 289.757 318.365 289.458 318.664C289.158 318.963 288.752 319.13 288.329 319.13Z" fill="#263238"/>
<path d="M363.249 287.246H313.72C313.296 287.243 312.89 287.072 312.59 286.772C312.291 286.471 312.123 286.065 312.123 285.641C312.123 285.218 312.292 284.813 312.591 284.514C312.891 284.215 313.297 284.047 313.72 284.047H363.249C363.672 284.047 364.078 284.215 364.378 284.514C364.677 284.813 364.846 285.218 364.846 285.641C364.846 286.065 364.678 286.471 364.379 286.772C364.08 287.072 363.673 287.243 363.249 287.246Z" fill="#263238"/>
<path d="M363.249 295.214H313.72C313.297 295.214 312.891 295.046 312.591 294.747C312.292 294.449 312.123 294.043 312.123 293.621C312.123 293.198 312.292 292.793 312.591 292.494C312.891 292.195 313.297 292.027 313.72 292.027H363.249C363.672 292.027 364.078 292.195 364.378 292.494C364.677 292.793 364.846 293.198 364.846 293.621C364.846 294.043 364.677 294.449 364.378 294.747C364.078 295.046 363.672 295.214 363.249 295.214Z" fill="#263238"/>
<path d="M363.249 303.182H313.72C313.297 303.182 312.891 303.015 312.591 302.716C312.292 302.417 312.123 302.011 312.123 301.589C312.123 301.166 312.292 300.761 312.591 300.462C312.891 300.163 313.297 299.995 313.72 299.995H363.249C363.672 299.995 364.078 300.163 364.378 300.462C364.677 300.761 364.846 301.166 364.846 301.589C364.846 302.011 364.677 302.417 364.378 302.716C364.078 303.015 363.672 303.182 363.249 303.182Z" fill="#263238"/>
<path d="M363.249 311.151H313.72C313.297 311.151 312.891 310.983 312.591 310.684C312.292 310.385 312.123 309.98 312.123 309.557C312.123 309.134 312.292 308.729 312.591 308.43C312.891 308.131 313.297 307.963 313.72 307.963H363.249C363.672 307.963 364.078 308.131 364.378 308.43C364.677 308.729 364.846 309.134 364.846 309.557C364.846 309.98 364.677 310.385 364.378 310.684C364.078 310.983 363.672 311.151 363.249 311.151Z" fill="#263238"/>
<path d="M363.249 319.13H313.72C313.297 319.13 312.891 318.963 312.591 318.664C312.292 318.365 312.123 317.959 312.123 317.537C312.123 317.114 312.292 316.709 312.591 316.41C312.891 316.111 313.297 315.943 313.72 315.943H363.249C363.672 315.943 364.078 316.111 364.378 316.41C364.677 316.709 364.846 317.114 364.846 317.537C364.846 317.959 364.677 318.365 364.378 318.664C364.078 318.963 363.672 319.13 363.249 319.13Z" fill="#263238"/>
<path d="M363.249 355.511H313.72C313.297 355.511 312.891 355.343 312.591 355.044C312.292 354.746 312.123 354.34 312.123 353.918C312.123 353.495 312.292 353.09 312.591 352.791C312.891 352.492 313.297 352.324 313.72 352.324H363.249C363.672 352.324 364.078 352.492 364.378 352.791C364.677 353.09 364.846 353.495 364.846 353.918C364.846 354.34 364.677 354.746 364.378 355.044C364.078 355.343 363.672 355.511 363.249 355.511Z" fill="#263238"/>
<path d="M363.249 363.48H313.72C313.297 363.48 312.891 363.312 312.591 363.013C312.292 362.714 312.123 362.309 312.123 361.886C312.123 361.463 312.292 361.058 312.591 360.759C312.891 360.46 313.297 360.292 313.72 360.292H363.249C363.672 360.292 364.078 360.46 364.378 360.759C364.677 361.058 364.846 361.463 364.846 361.886C364.846 362.309 364.677 362.714 364.378 363.013C364.078 363.312 363.672 363.48 363.249 363.48Z" fill="#263238"/>
<path d="M363.249 371.459H313.72C313.297 371.459 312.891 371.291 312.591 370.992C312.292 370.694 312.123 370.288 312.123 369.866C312.123 369.443 312.292 369.038 312.591 368.739C312.891 368.44 313.297 368.272 313.72 368.272H363.249C363.672 368.272 364.078 368.44 364.378 368.739C364.677 369.038 364.846 369.443 364.846 369.866C364.846 370.288 364.677 370.694 364.378 370.992C364.078 371.291 363.672 371.459 363.249 371.459Z" fill="#263238"/>
<path d="M363.249 376.24H313.72C312.838 376.24 312.123 376.954 312.123 377.834C312.123 378.714 312.838 379.428 313.72 379.428H363.249C364.131 379.428 364.846 378.714 364.846 377.834C364.846 376.954 364.131 376.24 363.249 376.24Z" fill="#263238"/>
<path d="M363.249 387.396H313.72C313.297 387.396 312.891 387.228 312.591 386.929C312.292 386.63 312.123 386.225 312.123 385.802C312.123 385.379 312.292 384.974 312.591 384.675C312.891 384.376 313.297 384.208 313.72 384.208H363.249C363.672 384.208 364.078 384.376 364.378 384.675C364.677 384.974 364.846 385.379 364.846 385.802C364.846 386.225 364.677 386.63 364.378 386.929C364.078 387.228 363.672 387.396 363.249 387.396Z" fill="#263238"/>
<path d="M358.458 262.795C356.948 262.795 355.487 263.329 354.335 264.303C353.182 265.276 352.412 266.625 352.161 268.111H344.519C344.239 266.655 343.46 265.341 342.315 264.397C341.17 263.452 339.731 262.935 338.245 262.935C336.759 262.935 335.32 263.452 334.175 264.397C333.03 265.341 332.251 266.655 331.971 268.111H324.329C324.049 266.655 323.27 265.341 322.125 264.397C320.98 263.452 319.541 262.935 318.055 262.935C316.569 262.935 315.13 263.452 313.985 264.397C312.84 265.341 312.061 266.655 311.781 268.111H304.036C303.769 266.644 302.995 265.318 301.848 264.363C300.702 263.408 299.256 262.885 297.762 262.885C296.269 262.885 294.823 263.408 293.676 264.363C292.53 265.318 291.755 266.644 291.488 268.111H283.834C283.568 266.644 282.793 265.318 281.647 264.363C280.5 263.408 279.054 262.885 277.561 262.885C276.067 262.885 274.621 263.408 273.475 264.363C272.328 265.318 271.554 266.644 271.287 268.111H263.633C263.366 266.644 262.592 265.318 261.445 264.363C260.299 263.408 258.853 262.885 257.359 262.885C255.866 262.885 254.42 263.408 253.273 264.363C252.127 265.318 251.352 266.644 251.085 268.111H243.431C243.164 266.535 242.313 265.117 241.048 264.137C239.782 263.158 238.194 262.689 236.598 262.823C235.002 262.957 233.515 263.684 232.431 264.86C231.347 266.037 230.745 267.577 230.745 269.175C230.745 270.773 231.347 272.313 232.431 273.49C233.515 274.666 235.002 275.393 236.598 275.527C238.194 275.661 239.782 275.192 241.048 274.212C242.313 273.233 243.164 271.815 243.431 270.239H251.085C251.352 271.706 252.127 273.032 253.273 273.987C254.42 274.942 255.866 275.465 257.359 275.465C258.853 275.465 260.299 274.942 261.445 273.987C262.592 273.032 263.366 271.706 263.633 270.239H271.287C271.554 271.706 272.328 273.032 273.475 273.987C274.621 274.942 276.067 275.465 277.561 275.465C279.054 275.465 280.5 274.942 281.647 273.987C282.793 273.032 283.568 271.706 283.834 270.239H291.488C291.755 271.706 292.53 273.032 293.676 273.987C294.823 274.942 296.269 275.465 297.762 275.465C299.256 275.465 300.702 274.942 301.848 273.987C302.995 273.032 303.769 271.706 304.036 270.239H311.69C311.969 271.695 312.749 273.009 313.894 273.953C315.039 274.898 316.478 275.415 317.964 275.415C319.449 275.415 320.888 274.898 322.034 273.953C323.179 273.009 323.958 271.695 324.237 270.239H331.88C332.159 271.695 332.939 273.009 334.084 273.953C335.229 274.898 336.668 275.415 338.154 275.415C339.639 275.415 341.078 274.898 342.224 273.953C343.369 273.009 344.148 271.695 344.427 270.239H352.07C352.274 271.437 352.818 272.552 353.636 273.452C354.453 274.352 355.512 275 356.687 275.319C357.862 275.639 359.103 275.617 360.266 275.256C361.428 274.895 362.463 274.209 363.249 273.281C364.034 272.352 364.537 271.219 364.699 270.015C364.86 268.811 364.673 267.585 364.16 266.483C363.647 265.381 362.829 264.449 361.803 263.795C360.776 263.142 359.584 262.795 358.367 262.795H358.458Z" fill="#263238"/>
<path d="M209.462 352.916C207.332 352.914 205.249 353.542 203.476 354.721C201.704 355.901 200.322 357.578 199.505 359.542C198.689 361.505 198.474 363.666 198.888 365.751C199.302 367.836 200.327 369.752 201.832 371.256C203.338 372.76 205.257 373.785 207.346 374.2C209.435 374.616 211.6 374.404 213.569 373.591C215.537 372.778 217.219 371.4 218.403 369.633C219.587 367.866 220.219 365.787 220.219 363.662C220.22 362.251 219.943 360.854 219.403 359.55C218.863 358.247 218.071 357.062 217.072 356.064C216.073 355.066 214.887 354.274 213.581 353.734C212.275 353.194 210.875 352.916 209.462 352.916ZM209.462 369.012C208.398 369.014 207.358 368.701 206.473 368.113C205.588 367.525 204.897 366.688 204.489 365.707C204.081 364.727 203.974 363.648 204.181 362.607C204.388 361.566 204.899 360.61 205.652 359.859C206.404 359.109 207.362 358.598 208.405 358.391C209.448 358.185 210.53 358.292 211.512 358.699C212.494 359.106 213.333 359.795 213.922 360.679C214.512 361.562 214.825 362.6 214.823 363.662C214.82 365.08 214.254 366.439 213.25 367.441C212.245 368.444 210.883 369.009 209.462 369.012Z" fill="#92E3A9" stroke="#263238" stroke-width="0.987488" stroke-linecap="round" stroke-linejoin="round"/>
<path d="M212.667 367.93L217.8 370.423C219.081 368.852 219.89 366.95 220.134 364.939C220.378 362.928 220.046 360.889 219.178 359.058C218.309 357.227 216.939 355.678 215.226 354.591C213.513 353.504 211.526 352.924 209.496 352.916V358.3C210.617 358.312 211.705 358.674 212.609 359.335C213.512 359.996 214.186 360.923 214.535 361.985C214.883 363.048 214.89 364.193 214.553 365.259C214.216 366.325 213.552 367.26 212.656 367.93H212.667Z" fill="#263238" stroke="#263238" stroke-width="0.987488" stroke-linecap="round" stroke-linejoin="round"/>
<path d="M214.641 387.726H204.375C204.038 387.727 203.705 387.663 203.393 387.535C203.082 387.408 202.799 387.22 202.56 386.983C202.322 386.746 202.133 386.465 202.004 386.154C201.874 385.844 201.808 385.512 201.808 385.176C201.808 384.497 202.078 383.845 202.56 383.365C203.041 382.885 203.694 382.615 204.375 382.615H214.641C215.321 382.615 215.974 382.885 216.455 383.365C216.937 383.845 217.207 384.497 217.207 385.176C217.207 385.512 217.141 385.844 217.012 386.154C216.882 386.465 216.693 386.746 216.455 386.983C216.216 387.22 215.933 387.408 215.622 387.535C215.311 387.663 214.977 387.727 214.641 387.726Z" fill="#92E3A9" stroke="#263238" stroke-width="0.987488" stroke-linecap="round" stroke-linejoin="round"/>
<path d="M241.549 352.916C239.42 352.916 237.338 353.546 235.567 354.727C233.796 355.908 232.416 357.586 231.601 359.549C230.786 361.513 230.573 363.674 230.988 365.758C231.404 367.843 232.429 369.757 233.935 371.26C235.441 372.763 237.36 373.786 239.449 374.201C241.537 374.616 243.703 374.403 245.67 373.59C247.638 372.776 249.32 371.399 250.503 369.632C251.686 367.865 252.317 365.787 252.317 363.662C252.319 362.25 252.041 360.852 251.501 359.548C250.96 358.243 250.167 357.058 249.167 356.06C248.167 355.062 246.979 354.27 245.672 353.731C244.365 353.191 242.964 352.914 241.549 352.916ZM241.549 369.012C240.486 369.012 239.447 368.697 238.563 368.107C237.68 367.518 236.991 366.68 236.585 365.699C236.178 364.719 236.073 363.64 236.281 362.6C236.489 361.56 237.002 360.605 237.754 359.855C238.507 359.106 239.465 358.596 240.508 358.39C241.551 358.185 242.632 358.293 243.613 358.7C244.595 359.108 245.433 359.797 246.022 360.68C246.611 361.563 246.924 362.601 246.922 363.662C246.922 364.365 246.783 365.062 246.513 365.712C246.243 366.362 245.847 366.952 245.348 367.449C244.849 367.946 244.256 368.34 243.605 368.608C242.953 368.876 242.254 369.013 241.549 369.012Z" fill="#92E3A9" stroke="#263238" stroke-width="0.987488" stroke-linecap="round" stroke-linejoin="round"/>
<path d="M252.26 362.535C251.978 359.906 250.735 357.473 248.771 355.699C246.806 353.925 244.256 352.934 241.606 352.916V358.3C243.021 358.315 244.373 358.887 245.369 359.891C246.364 360.894 246.922 362.25 246.922 363.662C246.91 363.868 246.888 364.073 246.854 364.276L252.26 362.535Z" fill="#263238" stroke="#263238" stroke-width="0.987488" stroke-linecap="round" stroke-linejoin="round"/>
<path d="M246.682 387.726H236.416C236.08 387.727 235.746 387.663 235.435 387.535C235.124 387.408 234.841 387.22 234.602 386.983C234.364 386.746 234.174 386.465 234.045 386.154C233.916 385.844 233.85 385.512 233.85 385.176C233.85 384.497 234.12 383.845 234.601 383.365C235.083 382.885 235.736 382.615 236.416 382.615H246.682C247.363 382.615 248.016 382.885 248.497 383.365C248.979 383.845 249.249 384.497 249.249 385.176C249.249 385.512 249.182 385.844 249.053 386.154C248.924 386.465 248.735 386.746 248.497 386.983C248.258 387.22 247.975 387.408 247.664 387.535C247.352 387.663 247.019 387.727 246.682 387.726Z" fill="#92E3A9" stroke="#263238" stroke-width="0.987488" stroke-linecap="round" stroke-linejoin="round"/>
<path d="M273.831 352.916C271.701 352.916 269.619 353.546 267.848 354.727C266.077 355.908 264.697 357.586 263.882 359.549C263.067 361.513 262.854 363.674 263.27 365.758C263.685 367.843 264.711 369.757 266.217 371.26C267.722 372.763 269.641 373.786 271.73 374.201C273.819 374.616 275.984 374.403 277.951 373.59C279.919 372.776 281.601 371.399 282.784 369.632C283.967 367.865 284.599 365.787 284.599 363.662C284.6 362.25 284.323 360.852 283.782 359.548C283.241 358.243 282.448 357.058 281.448 356.06C280.448 355.062 279.26 354.27 277.953 353.731C276.646 353.191 275.245 352.914 273.831 352.916ZM273.831 369.012C272.768 369.012 271.728 368.697 270.845 368.107C269.961 367.518 269.272 366.68 268.866 365.699C268.46 364.719 268.354 363.64 268.562 362.6C268.77 361.56 269.283 360.605 270.036 359.855C270.788 359.106 271.747 358.596 272.79 358.39C273.832 358.185 274.913 358.293 275.895 358.7C276.876 359.108 277.714 359.797 278.303 360.68C278.892 361.563 279.206 362.601 279.203 363.662C279.203 364.365 279.064 365.062 278.794 365.712C278.524 366.362 278.128 366.952 277.629 367.449C277.13 367.946 276.538 368.34 275.886 368.608C275.234 368.876 274.536 369.013 273.831 369.012Z" fill="#92E3A9" stroke="#263238" stroke-width="0.987488" stroke-linecap="round" stroke-linejoin="round"/>
<path d="M273.888 352.916V358.3C274.792 358.302 275.681 358.531 276.473 358.966C277.265 359.402 277.933 360.03 278.417 360.792C278.901 361.554 279.185 362.425 279.241 363.326C279.298 364.226 279.126 365.127 278.741 365.943C278.357 366.76 277.772 367.466 277.041 367.997C276.31 368.528 275.456 368.866 274.559 368.98C273.662 369.094 272.751 368.981 271.91 368.65C271.069 368.319 270.325 367.782 269.747 367.088L265.481 370.412C266.624 371.818 268.104 372.913 269.784 373.594C271.465 374.276 273.291 374.523 275.093 374.311C276.894 374.099 278.613 373.437 280.089 372.384C281.565 371.332 282.75 369.924 283.534 368.291C284.319 366.659 284.677 364.855 284.575 363.048C284.473 361.24 283.915 359.488 282.952 357.954C281.99 356.419 280.654 355.153 279.069 354.272C277.484 353.391 275.702 352.925 273.888 352.916Z" fill="#263238" stroke="#263238" stroke-width="0.987488" stroke-linecap="round" stroke-linejoin="round"/>
<path d="M278.964 387.726H268.698C268.361 387.727 268.028 387.663 267.716 387.535C267.405 387.408 267.122 387.22 266.883 386.983C266.645 386.746 266.456 386.465 266.327 386.154C266.197 385.844 266.131 385.512 266.131 385.176C266.129 384.839 266.195 384.506 266.323 384.194C266.452 383.883 266.641 383.6 266.879 383.362C267.118 383.123 267.402 382.935 267.714 382.807C268.026 382.679 268.36 382.613 268.698 382.615H278.964C279.644 382.615 280.297 382.885 280.779 383.365C281.26 383.845 281.53 384.497 281.53 385.176C281.53 385.512 281.464 385.844 281.335 386.154C281.206 386.465 281.016 386.746 280.778 386.983C280.539 387.22 280.256 387.408 279.945 387.535C279.634 387.663 279.3 387.727 278.964 387.726Z" fill="#92E3A9" stroke="#263238" stroke-width="0.987488" stroke-linecap="round" stroke-linejoin="round"/>
<path d="M163.276 187.29C189.886 187.29 211.458 165.762 211.458 139.207C211.458 112.651 189.886 91.1237 163.276 91.1237C136.665 91.1237 115.093 112.651 115.093 139.207C115.093 165.762 136.665 187.29 163.276 187.29Z" fill="white"/>
<path d="M177.877 406.713C177.877 406.713 184.835 417.152 183.877 421.284C182.918 425.416 176.804 424.141 173.907 419.69C171.01 415.239 163.641 408.591 164.975 405.734C166.31 402.877 175.276 404.175 177.877 406.713Z" fill="white" stroke="#263238" stroke-width="1.02307" stroke-linecap="round" stroke-linejoin="round"/>
<path d="M147.979 406.133C147.979 406.133 139.572 418.586 140.918 421.99C142.264 425.393 146.622 424.38 149.953 421.306C153.283 418.233 159.934 409.605 159.934 409.605C159.934 409.605 154.344 402.729 147.979 406.133Z" fill="white" stroke="#263238" stroke-width="1.02307" stroke-linecap="round" stroke-linejoin="round"/>
<path d="M140.918 421.989C143.198 422.303 145.518 421.85 147.512 420.703C151.344 418.768 158.029 410.037 158.029 410.037" stroke="#263238" stroke-width="0.767303" stroke-linecap="round" stroke-linejoin="round"/>
<path d="M167.314 407.817C167.314 407.817 170.953 414.647 175.048 418.518C179.143 422.388 181.15 423.492 183.842 421.284" stroke="#263238" stroke-width="0.767303" stroke-linecap="round" stroke-linejoin="round"/>
<path d="M136.173 250.728C136.173 250.728 128.816 265.709 129.147 271.833C129.477 277.957 130.823 308.942 132.831 319.153C134.839 329.364 136.812 354.794 138.181 364.959C139.55 375.125 148.321 398.938 148.321 398.938C148.321 398.938 146.975 404.391 147.979 406.087C148.983 407.783 159.603 410.583 159.934 409.559C160.264 408.535 161.941 405.472 162.215 402.41C162.489 399.348 157.538 366.667 159.546 359.518C161.553 352.37 161.941 304.309 162.215 299.358C162.489 294.406 162.135 285.698 162.135 285.698C162.732 285.881 163.369 285.883 163.967 285.702C164.564 285.522 165.094 285.167 165.489 284.685C166.823 282.977 171.249 329.25 172.595 340.144C173.941 351.038 170.918 354.1 169.915 360.907C168.911 367.714 166.572 389.832 166.572 392.564C166.572 395.296 163.561 404.129 164.896 405.837C166.23 407.544 169.07 407.26 170.234 407.578C173.724 408.546 176.451 407.032 177.785 406.69C179.12 406.349 180.249 401.42 180.249 401.42C180.249 401.42 190.994 371.118 193.002 358.516C195.01 345.915 198.352 322.534 197.69 308.237C197.029 293.939 193.002 264.98 193.002 264.98L191.998 256.466L136.173 250.728Z" fill="#263238" stroke="#263238" stroke-width="1.02307" stroke-linecap="round" stroke-linejoin="round"/>
<path d="M131.474 268.054C131.474 268.054 130.823 276.455 136.333 281.941" stroke="white" stroke-width="0.506629" stroke-linecap="round" stroke-linejoin="round"/>
<path d="M131.793 280.006C131.793 280.006 135.033 285.504 138.922 286.142" stroke="white" stroke-width="0.506629" stroke-linecap="round" stroke-linejoin="round"/>
<path d="M157.686 371.937C157.686 371.937 153.124 382.797 152.508 388.728C151.892 394.658 157.686 392.348 158.987 396.298C160.287 400.248 151.219 399.929 152.839 400.908C154.458 401.887 159.306 402.558 159.306 402.558" stroke="white" stroke-width="0.511535" stroke-linecap="round" stroke-linejoin="round"/>
<path d="M166.47 398.938C167.439 398.608 178.447 396.662 177.147 390.708C175.846 384.755 169.378 384.448 170.302 377.538C171.226 370.628 181.299 355.466 181.299 351.186C181.299 346.906 174.181 330.958 173.531 321.077" stroke="white" stroke-width="0.511535" stroke-linecap="round" stroke-linejoin="round"/>
<path d="M182.291 267.416C182.291 267.416 174.842 278.071 173.873 279.687C172.903 281.304 182.61 272.584 182.61 272.584" stroke="white" stroke-width="0.506629" stroke-linecap="round" stroke-linejoin="round"/>
<path d="M162.808 263.648C162.808 263.648 163.618 271.435 163.618 273.04V281.907" stroke="white" stroke-width="0.506629" stroke-linecap="round" stroke-linejoin="round"/>
<path d="M163.618 277.081C163.618 277.081 167.12 276.546 167.918 273.859C168.717 271.173 168.466 265.8 168.466 265.8" stroke="white" stroke-width="0.506629" stroke-linecap="round" stroke-linejoin="round"/>
<path d="M231.203 171.262C227.188 159.571 226.515 153.231 226.184 149.895C225.854 146.56 222.169 147.551 222.169 147.551C222.169 147.551 214.184 152.229 214.184 153.242C214.184 154.255 217.869 178.957 218.53 183.294C218.932 185.837 219.157 188.404 219.203 190.978C219.203 190.978 205.15 175.952 201.466 172.275C198.66 169.463 196.435 167.061 194.051 165.627C192.762 164.489 190.527 164.068 187.082 162.929C181.059 160.926 174.705 156.247 167.337 156.577C162.499 156.909 157.75 158.04 153.283 159.924C153.283 159.924 142.584 164.933 135.215 168.268C134.357 168.651 133.542 169.124 132.785 169.68C131.576 169.532 129.055 170.18 126.181 176.612C122.177 185.628 104.109 209.339 101.086 217.683C98.063 226.027 104.428 234.382 111.455 241.053C116.524 246.027 121.326 251.267 125.839 256.75L133.823 246.938C134.049 249.121 134.43 251.286 134.964 253.415C135.968 256.75 139.31 260.427 152.702 261.383C166.093 262.339 196.173 264.183 195.192 257.376C193.812 247.7 194.519 216.636 193.857 208.292C193.662 202.94 193.772 197.581 194.188 192.241C195.728 194.188 198.751 197.796 200.861 199.219C203.873 201.223 216.603 210.602 221.622 212.629C226.641 214.655 233.667 211.297 236.679 204.66C239.69 198.024 235.219 182.952 231.203 171.262ZM122.131 226.687C120.785 221.348 120.124 219.345 120.124 219.345C120.124 219.345 128.702 210.124 132.831 205.207C133.39 218.4 133.744 232.834 133.356 234.951C133.051 238.501 133.132 242.073 133.595 245.606C131.36 242.544 123.272 231.286 122.131 226.687Z" fill="#92E3A9" stroke="#263238" stroke-width="1.01326" stroke-linecap="round" stroke-linejoin="round"/>
<path opacity="0.1" d="M231.203 171.262C227.188 159.571 226.515 153.231 226.184 149.895C225.854 146.56 222.169 147.551 222.169 147.551C222.169 147.551 214.184 152.229 214.184 153.242C214.184 154.255 217.869 178.957 218.53 183.294C218.932 185.837 219.157 188.404 219.203 190.978C219.203 190.978 205.15 175.952 201.466 172.275C198.66 169.463 196.435 167.061 194.051 165.627C192.762 164.489 190.527 164.068 187.082 162.929C181.059 160.926 174.705 156.247 167.337 156.577C162.499 156.909 157.75 158.04 153.283 159.924C153.283 159.924 142.584 164.933 135.215 168.268C134.357 168.651 133.542 169.124 132.785 169.68C131.576 169.532 129.055 170.18 126.181 176.612C122.177 185.628 104.109 209.339 101.086 217.683C98.063 226.027 104.428 234.382 111.455 241.053C116.524 246.027 121.326 251.267 125.839 256.75L133.823 246.938C134.049 249.121 134.43 251.286 134.964 253.415C135.968 256.75 139.31 260.427 152.702 261.383C166.093 262.339 196.173 264.183 195.192 257.376C193.812 247.7 194.519 216.636 193.857 208.292C193.662 202.94 193.772 197.581 194.188 192.241C195.728 194.188 198.751 197.796 200.861 199.219C203.873 201.223 216.603 210.602 221.622 212.629C226.641 214.655 233.667 211.297 236.679 204.66C239.69 198.024 235.219 182.952 231.203 171.262ZM122.131 226.687C120.785 221.348 120.124 219.345 120.124 219.345C120.124 219.345 128.702 210.124 132.831 205.207C133.39 218.4 133.744 232.834 133.356 234.951C133.051 238.501 133.132 242.073 133.595 245.606C131.36 242.544 123.272 231.286 122.131 226.687Z" fill="black"/>
<path d="M136.972 203.772C139.09 200.6 140.933 197.252 142.481 193.767" stroke="#263238" stroke-width="0.759943" stroke-linecap="round" stroke-linejoin="round"/>
<path d="M145.39 194.734C144.615 196.344 143.512 197.775 142.15 198.935" stroke="#263238" stroke-width="0.759943" stroke-linecap="round" stroke-linejoin="round"/>
<path d="M219.158 190.966C219.203 192.89 219.629 194.786 220.412 196.544C221.195 198.303 222.32 199.889 223.721 201.211" stroke="#263238" stroke-width="1.01326" stroke-linecap="round" stroke-linejoin="round"/>
<path d="M220.481 196.351C220.209 199.389 220.89 202.436 222.432 205.07" stroke="#263238" stroke-width="1.01326" stroke-linecap="round" stroke-linejoin="round"/>
<path d="M120.124 219.345C120.124 219.345 117.66 217.011 111.58 218.024" stroke="#263238" stroke-width="0.759943" stroke-linecap="round" stroke-linejoin="round"/>
<path d="M108.215 216.681C108.215 216.681 109.903 213.983 116.303 215.998" stroke="#263238" stroke-width="0.759943" stroke-linecap="round" stroke-linejoin="round"/>
<path d="M201.306 182.008C199.96 182.338 194.223 192.105 194.223 192.105L208.059 188.405" stroke="#263238" stroke-width="0.759943" stroke-linecap="round" stroke-linejoin="round"/>
<path d="M161.576 175.348C161.576 175.348 164.165 178.9 169.994 177.295C175.823 175.69 177.762 169.543 176.838 165.661C175.914 161.78 156.397 165.012 161.576 175.348Z" fill="white" stroke="#263238" stroke-width="1.01326" stroke-linecap="round" stroke-linejoin="round"/>
<path d="M156.033 153.231C156.033 153.231 152.12 155.826 151.607 158.171C151.093 160.516 152.382 168.04 153.42 170.636C154.458 173.231 157.858 179.207 157.858 179.207C157.858 179.207 169.572 172.457 170.405 171.933C171.238 171.41 179.531 176.088 181.344 175.348C183.158 174.609 176.918 158.718 174.055 155.348C171.192 151.979 160.196 150.1 156.033 153.231Z" fill="white" stroke="#263238" stroke-width="1.01326" stroke-linecap="round" stroke-linejoin="round"/>
<path d="M153.922 144.648C153.922 144.648 154.184 148.803 154.709 155.041C155.234 161.279 157.344 166.208 160.766 169.065C164.188 171.922 169.093 173.482 170.394 171.922C171.694 170.363 173.257 163.874 172.675 159.97C172.093 156.065 171.375 147.767 171.375 147.767L153.922 144.648Z" fill="white" stroke="#263238" stroke-width="1.01326" stroke-linecap="round" stroke-linejoin="round"/>
<g style="mix-blend-mode:multiply" opacity="0.5">
<path d="M172.173 155.109C171.785 151.478 171.432 147.767 171.432 147.767L153.922 144.648C153.922 144.648 154.184 148.803 154.709 155.041C154.908 157.925 155.574 160.759 156.683 163.43L172.173 155.109Z" fill="#92E3A9"/>
</g>
<path d="M148.219 138.433C148.219 138.433 144.318 134.539 143.531 137.909C142.744 141.278 145.88 146.492 150.306 145.183V142.075L148.219 138.433Z" fill="white" stroke="#263238" stroke-width="1.01326" stroke-linecap="round" stroke-linejoin="round"/>
<path opacity="0.5" d="M148.219 138.433C148.219 138.433 144.318 134.539 143.531 137.909C142.744 141.278 145.88 146.492 150.306 145.183V142.075L148.219 138.433Z" fill="#92E3A9" stroke="#263238" stroke-width="1.01326" stroke-linecap="round" stroke-linejoin="round"/>
<path d="M144.797 131.398C144.797 131.398 151.31 148.803 157.036 152.184C162.762 155.564 174.215 158.672 177.34 146.492C180.466 134.312 172.139 116.611 169.276 111.409C166.413 106.207 155.736 104.658 148.972 109.849C142.207 115.04 140.667 119.958 144.797 131.398Z" fill="white" stroke="#263238" stroke-width="1.01326" stroke-linecap="round" stroke-linejoin="round"/>
<g style="mix-blend-mode:multiply" opacity="0.5">
<path d="M152.017 116.656C154.782 115.38 157.779 114.683 160.823 114.607L167.314 109.155C163.048 105.876 154.664 105.478 149.006 109.826C142.23 115.029 140.668 119.958 144.831 131.398C144.831 131.398 151.344 148.803 157.071 152.184C159.102 153.375 161.301 154.254 163.595 154.79C160.835 151.239 156.591 145.593 155.245 142.713C153.192 138.319 152.314 129.246 149.667 123.976C147.021 118.705 147.911 118.705 152.017 116.656Z" fill="#92E3A9"/>
</g>
<path d="M165.66 126.196C165.66 126.196 168.261 130.874 167.223 131.887C166.871 132.19 166.447 132.398 165.991 132.489C165.535 132.581 165.064 132.554 164.622 132.411" stroke="#263238" stroke-width="1.01326" stroke-linecap="round" stroke-linejoin="round"/>
<path d="M153.683 125.422C153.683 125.422 154.207 122.302 158.108 122.302" stroke="#263238" stroke-width="2.02651" stroke-linecap="round" stroke-linejoin="round"/>
<path d="M156.032 128.541C156.032 128.541 158.896 129.838 159.934 126.981" stroke="#263238" stroke-width="1.01326" stroke-linecap="round" stroke-linejoin="round"/>
<path d="M168.523 126.457C168.523 126.457 171.386 127.755 172.435 124.898" stroke="#263238" stroke-width="1.01326" stroke-linecap="round" stroke-linejoin="round"/>
<path d="M166.15 120.493C166.846 119.785 167.785 119.369 168.777 119.329C169.768 119.289 170.738 119.628 171.489 120.276" stroke="#263238" stroke-width="2.02651" stroke-linecap="round" stroke-linejoin="round"/>
<path d="M177.876 136.486C174.842 135.166 167.61 132.251 165.192 133.469C162.067 135.029 153.991 140.493 153.991 144.648C153.991 144.648 148.789 137.636 148.789 135.029C148.789 132.422 150.865 131.614 149.051 128.279C147.238 124.943 144.614 124.636 145.401 120.743C146.12 117.134 153.318 113.31 156.808 112.775C158.989 114.616 161.766 115.603 164.622 115.552C170.325 115.552 175.036 111.898 175.036 107.368C175.036 102.837 170.371 99.1945 164.622 99.1945C163.342 99.1886 162.069 99.3767 160.846 99.7523C155.394 99.3538 154.356 103.384 150.58 105.592C146.804 107.8 144.432 114.311 144.432 114.311H144.591C141.831 118.341 141.842 123.202 144.842 131.386C144.842 131.386 151.356 148.791 157.082 152.172C162.808 155.553 174.26 158.661 177.386 146.481C178.145 143.205 178.311 139.82 177.876 136.486Z" fill="#263238" stroke="#263238" stroke-width="1.01326" stroke-linecap="round" stroke-linejoin="round"/>
<path d="M171.66 136.224C171.66 136.224 167.759 141.677 163.333 138.046" stroke="white" stroke-width="1.01326" stroke-linecap="round" stroke-linejoin="round"/>
<path d="M134.166 246.391C135.712 247.365 137.072 248.606 138.181 250.057C139.54 251.914 140.994 253.7 142.538 255.407C142.538 255.407 146.211 255.737 145.88 257.41C145.55 259.084 144.877 260.074 143.2 260.074C141.523 260.074 137.85 256.739 137.85 256.739L132.5 265.083C132.5 265.083 127.481 261.417 125.804 256.739L134.166 246.391Z" fill="white" stroke="#263238" stroke-width="1.01326" stroke-linecap="round" stroke-linejoin="round"/>
<path d="M163.276 187.29C189.886 187.29 211.458 165.762 211.458 139.207C211.458 112.651 189.886 91.1237 163.276 91.1237C136.665 91.1237 115.093 112.651 115.093 139.207C115.093 165.762 136.665 187.29 163.276 187.29Z" stroke="#263238" stroke-width="2.02651" stroke-linecap="round" stroke-linejoin="round"/>
<path d="M206.781 129.861C206.781 129.861 203.428 129.519 202.766 131.523C202.105 133.526 201.089 135.53 201.089 136.873C201.089 138.216 201.42 139.207 203.097 139.537C204.774 139.867 205.778 137.533 205.778 137.533L206.781 129.861Z" fill="white" stroke="#263238" stroke-width="1.01326" stroke-linecap="round" stroke-linejoin="round"/>
<path d="M207.443 127.516C207.443 127.516 205.778 136.532 205.778 139.207C205.851 141.264 206.551 143.249 207.785 144.898C208.395 145.588 209.218 146.057 210.124 146.23L211.8 144.227C211.8 144.227 209.793 146.902 212.462 150.237C215.131 153.572 217.15 153.242 219.489 152.24C221.827 151.239 222.5 149.907 221.496 146.23C220.492 142.553 219.831 136.543 219.158 132.878C218.485 129.212 216.146 127.869 214.812 127.869C213.477 127.869 209.816 126.514 207.443 127.516Z" fill="white" stroke="#263238" stroke-width="1.01326" stroke-linecap="round" stroke-linejoin="round"/>
<path d="M206.222 141.085C206.222 141.085 205.629 139.013 208.15 138.717C210.671 138.421 214.835 137.977 214.835 137.977" stroke="#263238" stroke-width="0.506629" stroke-linecap="round" stroke-linejoin="round"/>
<path d="M206.519 135.757C206.519 135.757 212.302 134.266 214.39 134.562" stroke="#263238" stroke-width="0.506629" stroke-linecap="round" stroke-linejoin="round"/>
<path d="M206.964 131.603C209.122 131.22 211.308 131.022 213.5 131.011" stroke="#263238" stroke-width="0.506629" stroke-linecap="round" stroke-linejoin="round"/>
<path d="M208.892 142.713C209.349 143.123 209.898 143.419 210.494 143.576C211.089 143.732 211.713 143.745 212.314 143.612" stroke="#263238" stroke-width="0.506629" stroke-linecap="round" stroke-linejoin="round"/>
</svg>
