<svg width="537" height="400" viewBox="0 0 537 400" fill="none" xmlns="http://www.w3.org/2000/svg">
<path d="M537 351.514H0.810059V351.782H537V351.514Z" fill="#E6E6E6"/>
<path d="M141.774 363.85H97.7207V364.119H141.774V363.85Z" fill="#E6E6E6"/>
<path d="M89.8605 363.979H76.252V364.247H89.8605V363.979Z" fill="#E6E6E6"/>
<path d="M428.336 367.597H420.861V367.866H428.336V367.597Z" fill="#E6E6E6"/>
<path d="M194.031 361.155H186.557V361.424H194.031V361.155Z" fill="#E6E6E6"/>
<path d="M326.846 359.276H275.951V359.545H326.846V359.276Z" fill="#E6E6E6"/>
<path d="M378.105 367.769H342.738V368.037H378.105V367.769Z" fill="#E6E6E6"/>
<path d="M336.786 367.769H306.138V368.037H336.786V367.769Z" fill="#E6E6E6"/>
<path d="M457.14 361.284H399.531V361.553H457.14V361.284Z" fill="#E6E6E6"/>
<path d="M254.964 303.629H47.8982C46.2761 303.626 44.7213 302.979 43.5753 301.83C42.4293 300.68 41.7856 299.122 41.7856 297.498V6.07687C41.7998 4.46213 42.4497 2.91816 43.5942 1.78035C44.7387 0.642536 46.2853 0.00276615 47.8982 0H254.964C256.588 0 258.146 0.645896 259.294 1.7956C260.442 2.9453 261.087 4.50463 261.087 6.13056V297.498C261.087 299.124 260.442 300.684 259.294 301.833C258.146 302.983 256.588 303.629 254.964 303.629ZM47.8982 0.214731C46.3472 0.217575 44.8606 0.836445 43.7649 1.9355C42.6692 3.03456 42.0537 4.524 42.0537 6.07687V297.498C42.0537 299.051 42.6692 300.541 43.7649 301.64C44.8606 302.739 46.3472 303.358 47.8982 303.361H254.964C256.516 303.358 258.004 302.739 259.101 301.64C260.199 300.542 260.816 299.052 260.819 297.498V6.07687C260.816 4.52301 260.199 3.0336 259.101 1.93485C258.004 0.836097 256.516 0.217569 254.964 0.214731H47.8982Z" fill="#E6E6E6"/>
<path d="M486.931 303.629H279.854C278.231 303.626 276.675 302.979 275.527 301.83C274.38 300.681 273.734 299.123 273.731 297.498V6.07687C273.748 4.46115 274.4 2.9172 275.546 1.77968C276.692 0.642161 278.24 0.00273598 279.854 0H486.931C488.542 0.00558782 490.086 0.646606 491.228 1.78412C492.37 2.92163 493.018 4.46398 493.032 6.07687V297.498C493.032 299.121 492.39 300.677 491.247 301.826C490.103 302.975 488.551 303.623 486.931 303.629ZM279.854 0.214731C278.302 0.217569 276.814 0.836097 275.717 1.93485C274.619 3.0336 274.002 4.52301 273.999 6.07687V297.498C274.002 299.052 274.619 300.542 275.717 301.64C276.814 302.739 278.302 303.358 279.854 303.361H486.931C488.483 303.358 489.97 302.739 491.068 301.64C492.165 300.542 492.783 299.052 492.786 297.498V6.07687C492.783 4.52301 492.165 3.0336 491.068 1.93485C489.97 0.836097 488.483 0.217569 486.931 0.214731H279.854Z" fill="#E6E6E6"/>
<path d="M340.819 20.0021H77.0989V190.498H340.819V20.0021Z" fill="#E0E0E0"/>
<path d="M344.786 20.0021H78.9541V190.498H344.786V20.0021Z" fill="#F5F5F5"/>
<path d="M340.819 190.498H77.0989V200.054H340.819V190.498Z" fill="#E0E0E0"/>
<path d="M362.953 190.498H105.807V200.054H362.953V190.498Z" fill="#F5F5F5"/>
<path d="M339.231 183.272V27.2386L84.5197 27.2386V183.272L339.231 183.272Z" fill="#FAFAFA"/>
<path d="M146.59 183.262L179.222 27.2386H220.863L188.23 183.262H146.59Z" fill="white"/>
<path d="M200.015 183.262L232.648 27.2386H251.972L219.329 183.262H200.015Z" fill="white"/>
<path d="M339.231 166.942V26.2616H338.524V166.942H339.231Z" fill="#E0E0E0"/>
<path d="M74.6008 19.7552V80.4595H90.6865C90.6865 80.4595 119.512 61.6384 126.075 22.9118C126.231 21.9895 126.184 21.0443 125.938 20.1419C125.692 19.2396 125.253 18.4017 124.651 17.6865C124.049 16.9712 123.298 16.3959 122.451 16.0004C121.605 15.6049 120.682 15.3987 119.748 15.3962H78.9976C78.423 15.3934 77.8535 15.5039 77.3216 15.7214C76.7897 15.9389 76.3058 16.2592 75.8975 16.664C75.4892 17.0688 75.1646 17.5501 74.9421 18.0805C74.7196 18.6109 74.6036 19.18 74.6008 19.7552Z" fill="#E0E0E0"/>
<path d="M74.6008 177.765V85.3554H90.6865C90.6865 85.3554 99.909 104.015 109.11 125.467C111.538 131.176 112.516 137.399 111.956 143.578C111.397 149.758 109.318 155.703 105.904 160.883C102.491 166.062 97.8497 170.314 92.3949 173.26C86.9401 176.206 80.8415 177.754 74.6437 177.765H74.6008Z" fill="#E0E0E0"/>
<path d="M88.4984 80.4595H73.5173C72.6289 80.4595 71.9087 81.1806 71.9087 82.07V83.7449C71.9087 84.6344 72.6289 85.3554 73.5173 85.3554H88.4984C89.3868 85.3554 90.107 84.6344 90.107 83.7449V82.07C90.107 81.1806 89.3868 80.4595 88.4984 80.4595Z" fill="#FAFAFA"/>
<path d="M351.017 19.7552V80.4595H334.931C334.931 80.4595 306.106 61.6384 299.543 22.9118C299.387 21.9895 299.434 21.0443 299.68 20.1419C299.926 19.2396 300.365 18.4017 300.967 17.6865C301.569 16.9712 302.32 16.3959 303.167 16.0004C304.013 15.6049 304.936 15.3987 305.87 15.3962H346.62C347.195 15.3934 347.764 15.5039 348.296 15.7214C348.828 15.9389 349.312 16.2592 349.72 16.664C350.129 17.0688 350.453 17.5501 350.676 18.0805C350.898 18.6109 351.014 19.18 351.017 19.7552Z" fill="#E0E0E0"/>
<path d="M351.017 177.765V85.3554H334.932C334.932 85.3554 325.709 104.015 316.508 125.467C314.08 131.176 313.103 137.399 313.662 143.578C314.221 149.758 316.301 155.703 319.714 160.883C323.127 166.062 327.769 170.314 333.223 173.26C338.678 176.206 344.777 177.754 350.975 177.765H351.017Z" fill="#E0E0E0"/>
<path d="M333.763 85.3554H348.744C349.632 85.3554 350.353 84.6344 350.353 83.7449V82.07C350.353 81.1806 349.632 80.4595 348.744 80.4595H333.763C332.874 80.4595 332.154 81.1806 332.154 82.07V83.7449C332.154 84.6344 332.874 85.3554 333.763 85.3554Z" fill="#FAFAFA"/>
<path d="M469.397 45.641H406.899V166.942H469.397V45.641Z" fill="#E0E0E0"/>
<path d="M478.448 45.641H408.507V166.942H478.448V45.641Z" fill="#F5F5F5"/>
<path d="M471.231 159.717V52.8667H415.714V159.717H471.231Z" fill="white"/>
<path d="M428.743 131.662C428.743 124.34 434.674 67.6723 441.987 67.6723H444.969C452.271 67.6723 458.202 124.34 458.202 131.662C458.205 133.404 457.864 135.13 457.201 136.74C456.537 138.351 455.563 139.815 454.334 141.048C453.105 142.281 451.645 143.26 450.038 143.929C448.431 144.597 446.709 144.942 444.969 144.943H441.987C440.246 144.943 438.522 144.599 436.914 143.932C435.306 143.264 433.845 142.285 432.615 141.052C431.385 139.818 430.41 138.354 429.745 136.743C429.081 135.132 428.741 133.405 428.743 131.662Z" fill="#F5F5F5"/>
<path d="M255.06 227.035H209.044V351.514H255.06V227.035Z" fill="#E0E0E0"/>
<path d="M242.771 351.514H255.06V330.9H229.891L242.771 351.514Z" fill="#FAFAFA"/>
<path d="M123.115 227.035H77.0989V351.514H123.115V227.035Z" fill="#E0E0E0"/>
<path d="M255.061 227.035H112.391V344.417H255.061V227.035Z" fill="#FAFAFA"/>
<path d="M124.681 351.514H112.391V330.9H137.56L124.681 351.514Z" fill="#FAFAFA"/>
<path d="M245.527 237.127H121.925V280.331H245.527V237.127Z" fill="#F0F0F0"/>
<path d="M245.527 290.777H121.925V333.981H245.527V290.777Z" fill="#F0F0F0"/>
<path d="M206.3 237.127H121.925V280.331H206.3V237.127Z" fill="#E0E0E0"/>
<path d="M290.352 146.178H257.602C257.602 146.178 263.286 156.066 263.286 161.875C263.286 167.683 238.417 190.498 274.009 190.498C309.602 190.498 284.733 167.694 284.733 161.875C284.733 156.055 290.352 146.178 290.352 146.178Z" fill="#E0E0E0"/>
<path d="M206.299 173.438C206.299 182.822 218.675 190.498 233.806 190.498H247.457C262.589 190.498 274.964 182.822 274.964 173.438H206.299Z" fill="#EBEBEB"/>
<path d="M206.3 290.777H121.925V333.981H206.3V290.777Z" fill="#E0E0E0"/>
<path d="M209.184 333.197H230.567V297.541H209.184V333.197Z" fill="white"/>
<path d="M227.243 333.756H228.702V298.1H227.243V333.756Z" fill="#E0E0E0"/>
<path d="M228.82 334.035H232.551C232.836 334.035 233.066 333.804 233.066 333.519V298.347C233.066 298.062 232.836 297.831 232.551 297.831H228.82C228.535 297.831 228.305 298.062 228.305 298.347V333.519C228.305 333.804 228.535 334.035 228.82 334.035Z" fill="#E6E6E6"/>
<path d="M228.305 314.559H233.066V306.098H228.305V314.559Z" fill="white"/>
<path d="M228.305 322.375H233.066V317.157H228.305V322.375Z" fill="white"/>
<path d="M208.101 334.035H227.371C227.656 334.035 227.886 333.804 227.886 333.519V298.347C227.886 298.062 227.656 297.831 227.371 297.831H208.101C207.817 297.831 207.586 298.062 207.586 298.347V333.519C207.586 333.804 207.817 334.035 208.101 334.035Z" fill="#E6E6E6"/>
<path d="M198.771 333.122H222.364V293.784H198.771V333.122Z" fill="white"/>
<path d="M218.696 333.723H220.294V294.385H218.696V333.723Z" fill="#E6E6E6"/>
<path d="M220.423 334.024H224.541C224.854 334.024 225.109 333.769 225.109 333.455V294.653C225.109 294.339 224.854 294.084 224.541 294.084H220.423C220.109 294.084 219.854 294.339 219.854 294.653V333.455C219.854 333.769 220.109 334.024 220.423 334.024Z" fill="#F0F0F0"/>
<path d="M219.854 308.17H225.109V306.807H219.854V308.17Z" fill="white"/>
<path d="M219.854 312.121H225.109V310.758H219.854V312.121Z" fill="white"/>
<path d="M219.854 316.062H225.109V314.698H219.854V316.062Z" fill="white"/>
<path d="M197.57 334.024H218.825C219.139 334.024 219.393 333.769 219.393 333.455V294.653C219.393 294.339 219.139 294.084 218.825 294.084H197.57C197.256 294.084 197.002 294.339 197.002 294.653V333.455C197.002 333.769 197.256 334.024 197.57 334.024Z" fill="#F0F0F0"/>
<path d="M169.12 325.628C174.042 325.628 178.032 321.634 178.032 316.706C178.032 311.779 174.042 307.784 169.12 307.784C164.199 307.784 160.209 311.779 160.209 316.706C160.209 321.634 164.199 325.628 169.12 325.628Z" fill="#FAFAFA"/>
<path d="M155.865 327.947C159.715 327.947 162.836 324.823 162.836 320.968C162.836 317.114 159.715 313.99 155.865 313.99C152.016 313.99 148.895 317.114 148.895 320.968C148.895 324.823 152.016 327.947 155.865 327.947Z" fill="#FAFAFA"/>
<path d="M183.522 327.26C188.444 327.26 192.434 323.265 192.434 318.338C192.434 313.41 188.444 309.416 183.522 309.416C178.6 309.416 174.611 313.41 174.611 318.338C174.611 323.265 178.6 327.26 183.522 327.26Z" fill="#FAFAFA"/>
<path d="M138.075 322.225C138.075 322.225 138.911 334.035 170.718 334.035C202.525 334.035 203.361 322.225 203.361 322.225H138.075Z" fill="#F0F0F0"/>
<path d="M430.33 336.053C431.531 302.351 432.797 255.669 430.191 238.77L425.901 235.484C425.901 235.484 426.834 238.641 427.317 290.24C427.799 341.84 428.389 328.355 427.896 336.032L430.33 336.053Z" fill="#E0E0E0"/>
<path d="M438.234 224.458C446.094 213.786 462.641 206.206 479.767 206.206C486.502 206.206 459.746 218.606 448.915 232.285C440.507 242.903 431.22 260.769 428.196 270.689C429.655 249.86 430.384 235.13 438.234 224.458Z" fill="#E0E0E0"/>
<path d="M422.469 252.244C415.252 241.142 399.177 232.596 382.084 231.63C375.36 231.254 401.386 245.19 411.36 259.47C419.134 270.571 427.349 288.952 429.783 299.034C429.558 278.076 429.697 263.346 422.469 252.244Z" fill="#E0E0E0"/>
<path d="M425.697 206.657C419.124 193.698 403.767 181.2 387.092 176.122C380.54 174.125 407.724 196.919 415.488 214.312C421.526 227.818 428.84 244.922 430.77 255.69C431.467 234.496 432.26 219.616 425.697 206.657Z" fill="#E0E0E0"/>
<path d="M428.743 351.514C432.737 351.515 436.579 349.986 439.482 347.241C442.386 344.496 444.13 340.743 444.357 336.751L445.741 312.701H411.746L413.129 336.751C413.357 340.743 415.101 344.496 418.004 347.241C420.908 349.986 424.75 351.515 428.743 351.514Z" fill="#F0F0F0"/>
<path d="M409.548 318.145H447.939L449.043 308.17H408.443L409.548 318.145Z" fill="#F0F0F0"/>
<path d="M268.906 400C383.739 400 476.829 394.559 476.829 387.846C476.829 381.134 383.739 375.693 268.906 375.693C154.072 375.693 60.9817 381.134 60.9817 387.846C60.9817 394.559 154.072 400 268.906 400Z" fill="#F5F5F5"/>
<path d="M461.28 44.8679H76.5416C73.8101 44.8764 71.1926 45.9659 69.2601 47.8987C67.3275 49.8315 66.2367 52.4509 66.2253 55.1857V312.283C66.2338 315.018 67.3238 317.639 69.2569 319.573C71.1901 321.506 73.8092 322.595 76.5416 322.6H461.28C464.01 322.592 466.626 321.502 468.557 319.569C470.488 317.636 471.577 315.016 471.585 312.283V55.1857C471.574 52.4528 470.484 49.835 468.554 47.9024C466.624 45.9699 464.009 44.8792 461.28 44.8679Z" fill="#0EA362"/>
<path d="M66.2253 71.559V312.283C66.2338 315.018 67.3238 317.639 69.2569 319.573C71.1901 321.506 73.8092 322.595 76.5416 322.6H461.28C464.01 322.592 466.626 321.502 468.557 319.569C470.488 317.636 471.577 315.016 471.585 312.283V71.559H66.2253Z" fill="#0EA362"/>
<path opacity="0.6" d="M66.2253 71.559V312.283C66.2338 315.018 67.3238 317.639 69.2569 319.573C71.1901 321.506 73.8092 322.595 76.5416 322.6H461.28C464.01 322.592 466.626 321.502 468.557 319.569C470.488 317.636 471.577 315.016 471.585 312.283V71.559H66.2253Z" fill="white"/>
<path d="M68.134 71.559V303.017C68.1326 303.786 68.2828 304.548 68.5758 305.26C68.8689 305.971 69.2992 306.617 69.8421 307.162C70.3849 307.706 71.0297 308.138 71.7395 308.433C72.4492 308.727 73.2101 308.879 73.9785 308.879H463.832C464.6 308.879 465.361 308.727 466.071 308.433C466.78 308.138 467.425 307.706 467.968 307.162C468.511 306.617 468.941 305.971 469.234 305.26C469.527 304.548 469.677 303.786 469.676 303.017V71.559H68.134Z" fill="white"/>
<path d="M197.452 97.6702H85.1636V260.758H197.452V97.6702Z" fill="#0EA362"/>
<path d="M195.619 97.6702H83.3298V260.758H195.619V97.6702Z" fill="#0EA362"/>
<path opacity="0.2" d="M195.619 97.6702H83.3298V260.758H195.619V97.6702Z" fill="white"/>
<path opacity="0.61" d="M142.836 61.5525H88.3807C87.5275 61.5525 86.7092 61.2132 86.1059 60.6091C85.5025 60.0051 85.1636 59.1858 85.1636 58.3316C85.1636 57.4773 85.5025 56.658 86.1059 56.054C86.7092 55.4499 87.5275 55.1106 88.3807 55.1106H142.836C143.689 55.1106 144.508 55.4499 145.111 56.054C145.714 56.658 146.053 57.4773 146.053 58.3316C146.053 59.1858 145.714 60.0051 145.111 60.6091C144.508 61.2132 143.689 61.5525 142.836 61.5525Z" fill="#F5F5F5"/>
<path opacity="0.61" d="M157.142 61.5525H160.778C161.631 61.5525 162.449 61.2132 163.052 60.6091C163.656 60.0051 163.995 59.1858 163.995 58.3316C163.995 57.4773 163.656 56.658 163.052 56.054C162.449 55.4499 161.631 55.1106 160.778 55.1106H157.142C156.289 55.1106 155.471 55.4499 154.867 56.054C154.264 56.658 153.925 57.4773 153.925 58.3316C153.925 59.1858 154.264 60.0051 154.867 60.6091C155.471 61.2132 156.289 61.5525 157.142 61.5525Z" fill="#F5F5F5"/>
<path d="M173.099 247.917C168.648 241.475 171.008 235.033 173.281 228.871C175.555 222.708 177.731 216.803 173.603 210.801C169.474 204.799 163.233 204.735 156.627 204.67C150.021 204.606 143.222 204.531 138.783 198.067C134.343 191.604 136.638 185.184 138.965 179.021C141.292 172.858 143.415 166.964 139.276 160.962C135.136 154.96 128.917 154.896 122.311 154.821C115.705 154.746 108.917 154.681 104.466 148.228C100.016 141.776 102.322 135.345 104.659 129.182C106.997 123.019 109.099 117.125 104.97 111.123L105.85 110.511C110.3 116.953 107.995 123.395 105.657 129.558C103.319 135.72 101.217 141.615 105.346 147.617C109.474 153.618 115.716 153.683 122.322 153.747C128.927 153.811 135.716 153.887 140.166 160.35C144.616 166.813 142.311 173.234 139.973 179.397C137.635 185.559 135.533 191.454 139.662 197.455C143.791 203.457 150.032 203.522 156.638 203.597C163.244 203.672 170.032 203.736 174.482 210.189C178.933 216.642 176.627 223.073 174.289 229.236C171.951 235.398 169.849 241.303 173.978 247.305L173.099 247.917Z" fill="white"/>
<path d="M454.481 97.6702H342.192V260.758H454.481V97.6702Z" fill="#0EA362"/>
<path d="M452.647 97.6702H340.369V260.758H452.647V97.6702Z" fill="#0EA362"/>
<path opacity="0.6" d="M452.647 97.6702H340.369V260.758H452.647V97.6702Z" fill="white"/>
<path opacity="0.65" d="M409.022 130.234C409.012 138.675 407.105 147.006 403.443 154.61C399.781 162.213 394.457 168.895 387.866 174.159C381.276 179.424 373.586 183.136 365.368 185.022C357.15 186.908 348.613 186.92 340.39 185.055V97.7024H398.663C405.415 107.202 409.037 118.575 409.022 130.234Z" fill="#0EA362"/>
<path d="M452.647 161.048V236.891C447.673 236.891 442.748 235.91 438.152 234.004C433.557 232.098 429.381 229.305 425.864 225.784C422.347 222.262 419.557 218.082 417.654 213.481C415.75 208.88 414.771 203.949 414.771 198.969C414.771 193.989 415.75 189.058 417.654 184.457C419.557 179.857 422.347 175.676 425.864 172.155C429.381 168.633 433.557 165.84 438.152 163.934C442.748 162.029 447.673 161.048 452.647 161.048Z" fill="white"/>
<path opacity="0.78" d="M420.497 260.758H346.288C348.041 252.201 352.69 244.513 359.45 238.991C366.211 233.47 374.668 230.454 383.392 230.454C392.117 230.454 400.574 233.47 407.334 238.991C414.095 244.513 418.744 252.201 420.497 260.758Z" fill="#0EA362"/>
<path d="M325.967 175.746H213.678V308.879H325.967V175.746Z" fill="#0EA362"/>
<path d="M324.133 175.746H211.844V308.879H324.133V175.746Z" fill="#0EA362"/>
<path opacity="0.5" d="M324.133 175.746H211.844V308.879H324.133V175.746Z" fill="white"/>
<path d="M267.994 190.219C274.413 190.219 280.569 192.772 285.108 197.317C289.648 201.861 292.198 208.025 292.198 214.451V308.879H243.79V214.451C243.79 208.025 246.34 201.861 250.879 197.317C255.418 192.772 261.575 190.219 267.994 190.219Z" fill="white"/>
<path d="M239.908 224.748H198.031V322.6H239.908V224.748Z" fill="#D5E1FD"/>
<path d="M119.019 267.277L117.753 285.27L118.823 285.345L120.089 267.352L119.019 267.277Z" fill="#0EA362"/>
<path d="M117.157 293.723L116.545 302.419L117.615 302.495L118.227 293.798L117.157 293.723Z" fill="#0EA362"/>
<path d="M228.401 387.846H116.113L127.619 224.748H239.908L228.401 387.846Z" fill="#0EA362"/>
<path opacity="0.5" d="M228.401 387.846H116.113L127.619 224.748H239.908L228.401 387.846Z" fill="black"/>
<path d="M226.579 387.846H114.29L125.796 224.748H238.075L226.579 387.846Z" fill="#0EA362"/>
<path d="M162.032 309.749C157.904 309.814 153.808 309.005 150.015 307.375C146.221 305.744 142.814 303.329 140.018 300.287C137.222 297.246 135.1 293.647 133.791 289.726C132.482 285.806 132.016 281.653 132.424 277.539C133.818 259.835 149.346 245.437 167.029 245.437C171.157 245.371 175.253 246.18 179.047 247.811C182.841 249.442 186.247 251.857 189.043 254.899C191.839 257.94 193.961 261.539 195.27 265.46C196.579 269.38 197.045 273.533 196.638 277.647C195.244 295.34 179.716 309.749 162.032 309.749ZM167.029 246.521C149.871 246.521 134.858 260.479 133.485 277.657C133.091 281.623 133.54 285.627 134.802 289.406C136.063 293.186 138.109 296.655 140.805 299.587C143.502 302.518 146.787 304.846 150.445 306.416C154.103 307.986 158.052 308.763 162.032 308.697C179.19 308.697 194.203 294.739 195.565 277.561C195.961 273.596 195.514 269.592 194.253 265.812C192.993 262.033 190.948 258.563 188.253 255.631C185.557 252.7 182.273 250.372 178.615 248.802C174.957 247.232 171.009 246.455 167.029 246.521Z" fill="white"/>
<path d="M208.425 348.735C216.349 341.108 217.067 328.982 210.028 321.65C202.988 314.319 190.858 314.559 182.933 322.186C175.009 329.813 174.291 341.939 181.33 349.27C188.37 356.601 200.5 356.362 208.425 348.735Z" fill="white"/>
<path d="M324.133 71.559H211.844V158.45H324.133V71.559Z" fill="#0EA362"/>
<path opacity="0.5" d="M325.967 71.559H213.678V158.45H325.967V71.559Z" fill="black"/>
<path d="M283.736 71.559H236.015V144.761H283.736V71.559Z" fill="#0EA362"/>
<path d="M220.294 71.559C220.226 74.7976 220.805 78.0172 221.996 81.0292C223.187 84.0411 224.966 86.7847 227.23 89.0992C229.493 91.4137 232.196 93.2525 235.179 94.5079C238.161 95.7632 241.364 96.4098 244.6 96.4098C247.835 96.4098 251.038 95.7632 254.021 94.5079C257.004 93.2525 259.706 91.4137 261.97 89.0992C264.233 86.7847 266.013 84.0411 267.204 81.0292C268.395 78.0172 268.973 74.7976 268.905 71.559H220.294Z" fill="#F0F0F0"/>
<path d="M277.956 71.559C278.074 76.4968 280.115 81.1929 283.645 84.6436C287.175 88.0943 291.913 90.0261 296.846 90.0261C301.779 90.0261 306.517 88.0943 310.047 84.6436C313.577 81.1929 315.619 76.4968 315.736 71.559H277.956Z" fill="#F0F0F0"/>
<path opacity="0.5" d="M283.736 71.559H236.015V144.761H283.736V71.559Z" fill="white"/>
<path d="M263.404 141.357C263.533 141.98 263.307 142.549 262.9 142.635C262.492 142.721 262.053 142.291 261.924 141.668C261.795 141.046 262.021 140.466 262.428 140.38C262.836 140.294 263.275 140.734 263.404 141.357Z" fill="#263238"/>
<path d="M263.361 142.538C263.016 144.597 262.388 146.599 261.495 148.486C261.983 148.703 262.513 148.81 263.047 148.799C263.58 148.788 264.105 148.659 264.584 148.422L263.361 142.538Z" fill="#DE5753"/>
<path d="M261.763 137.546C261.7 137.545 261.637 137.529 261.581 137.499C261.525 137.469 261.477 137.426 261.441 137.374C261.389 137.29 261.372 137.188 261.394 137.092C261.417 136.995 261.476 136.912 261.559 136.859C262.074 136.565 262.652 136.4 263.244 136.38C263.837 136.359 264.425 136.483 264.959 136.74C265.005 136.759 265.046 136.787 265.081 136.822C265.116 136.857 265.143 136.9 265.161 136.946C265.18 136.992 265.188 137.041 265.186 137.091C265.185 137.141 265.173 137.189 265.152 137.234C265.11 137.323 265.035 137.392 264.942 137.427C264.85 137.461 264.748 137.457 264.658 137.417C264.234 137.217 263.769 137.119 263.3 137.13C262.831 137.141 262.371 137.261 261.956 137.481C261.9 137.523 261.833 137.546 261.763 137.546Z" fill="#263238"/>
<path d="M284.905 143.354C283.779 149.12 283.221 159.695 287.254 163.539C287.254 163.539 285.677 169.401 274.964 169.401C263.168 169.401 269.345 163.539 269.345 163.539C275.779 162.003 275.597 157.236 274.482 152.802L284.905 143.354Z" fill="#E4897B"/>
<path d="M283.919 135.71C285.045 143.451 286.063 147.928 283.05 152.663C278.471 159.781 268.316 158.246 264.905 150.988C261.828 144.46 260.509 132.886 267.35 128.28C268.859 127.273 270.599 126.665 272.406 126.513C274.213 126.362 276.029 126.672 277.684 127.414C279.339 128.156 280.779 129.306 281.869 130.757C282.96 132.208 283.665 133.912 283.919 135.71Z" fill="#E4897B"/>
<path d="M291.682 131.072C295.79 123.556 286.374 120.12 282.889 120.872C282.108 119.362 280.886 118.126 279.386 117.328C277.886 116.53 276.179 116.208 274.492 116.405C270.278 116.77 268.39 118.886 267.382 121.591C265.023 120.335 257.988 122.235 258.986 127.947C259.876 133.047 265.42 134.604 268.24 134.894C270.385 143.58 276.058 154.423 283.65 150.548C286.138 149.27 288.294 146.07 289.709 141.958C295.715 140.176 294.417 133.412 291.682 131.072Z" fill="#263238"/>
<path d="M274.031 140.079C273.988 142.033 273.306 143.919 272.09 145.448C270.471 147.423 268.626 146.339 268.197 144.052C267.811 141.991 268.197 138.48 270.235 137.331C272.272 136.182 274.042 137.739 274.031 140.079Z" fill="#E4897B"/>
<path d="M288.884 165.192C291.157 166.33 290.954 162.723 288.959 159.77C287.704 157.924 274.825 159.588 270.889 161.102C270.369 161.266 269.886 161.532 269.469 161.885C269.053 162.238 268.71 162.67 268.461 163.157C268.213 163.643 268.064 164.174 268.022 164.719C267.98 165.264 268.047 165.812 268.219 166.33L288.884 165.192Z" fill="#0EA362"/>
<path opacity="0.8" d="M288.884 165.192C291.157 166.33 290.954 162.723 288.959 159.77C287.704 157.924 274.825 159.588 270.889 161.102C270.369 161.266 269.886 161.532 269.469 161.885C269.053 162.238 268.71 162.67 268.461 163.157C268.213 163.643 268.064 164.174 268.022 164.719C267.98 165.264 268.047 165.812 268.219 166.33L288.884 165.192Z" fill="black"/>
<path d="M304.841 179.676C304.144 181.222 303.489 182.564 302.696 183.97C301.902 185.377 301.237 186.719 300.465 188.072C298.91 190.777 297.248 193.44 295.447 196.006C293.631 198.623 291.665 201.133 289.559 203.522C287.374 206.049 284.938 208.348 282.288 210.382C279.684 212.267 276.954 213.971 274.117 215.482C271.404 216.953 268.68 218.306 265.935 219.605C260.444 222.192 254.9 224.501 249.195 226.573L246.632 221.205L261.645 211.767C264.122 210.178 266.567 208.546 268.959 206.968C271.249 205.444 273.455 203.795 275.565 202.029C277.496 200.25 279.265 198.303 280.852 196.21C282.524 194.063 284.119 191.79 285.634 189.392C287.136 187.009 288.594 184.572 289.988 182.092C290.696 180.846 291.382 179.601 292.047 178.344L293.945 174.63L304.841 179.676Z" fill="#E4897B"/>
<path d="M307.243 170.077C310.46 176.959 300.176 198.69 300.176 198.69L282.611 190.53C284.522 184.363 286.91 178.354 289.753 172.557C294.342 163.442 303.983 163.045 307.243 170.077Z" fill="#0EA362"/>
<path opacity="0.6" d="M307.243 170.077C310.46 176.959 300.176 198.69 300.176 198.69L282.611 190.53C284.522 184.363 286.91 178.354 289.753 172.557C294.342 163.442 303.983 163.045 307.243 170.077Z" fill="black"/>
<path d="M315.189 381.147C314.856 381.191 314.518 381.168 314.194 381.08C313.87 380.991 313.566 380.839 313.302 380.631C313.209 380.502 313.158 380.346 313.158 380.186C313.158 380.026 313.209 379.87 313.302 379.74C313.363 379.629 313.448 379.532 313.549 379.456C313.651 379.38 313.768 379.327 313.892 379.3C315.039 379.042 317.216 380.524 317.313 380.588C317.341 380.612 317.362 380.642 317.375 380.675C317.388 380.709 317.393 380.746 317.388 380.782C317.38 380.816 317.363 380.847 317.339 380.872C317.314 380.897 317.283 380.914 317.248 380.921C316.572 381.067 315.882 381.143 315.189 381.147ZM314.203 379.644H313.978C313.905 379.659 313.837 379.69 313.777 379.734C313.718 379.779 313.669 379.836 313.634 379.901C313.463 380.202 313.559 380.331 313.634 380.374C313.978 380.825 315.586 380.825 316.755 380.631C315.988 380.12 315.116 379.79 314.203 379.665V379.644Z" fill="#0EA362"/>
<path d="M317.162 380.953H317.066C316.251 380.503 314.674 378.806 314.846 377.904C314.873 377.767 314.946 377.643 315.054 377.553C315.161 377.463 315.296 377.413 315.436 377.41C315.577 377.395 315.72 377.408 315.856 377.449C315.992 377.489 316.119 377.557 316.229 377.647C317.152 378.398 317.302 380.674 317.302 380.771C317.306 380.805 317.3 380.839 317.285 380.87C317.27 380.901 317.246 380.926 317.216 380.943L317.162 380.953ZM315.564 377.732H315.489C315.243 377.732 315.221 377.883 315.211 377.926C315.114 378.441 316.122 379.751 316.926 380.363C316.895 379.486 316.604 378.637 316.09 377.926C316.026 377.866 315.949 377.819 315.866 377.79C315.783 377.76 315.695 377.748 315.607 377.754L315.564 377.732Z" fill="#0EA362"/>
<path d="M326.289 380.76H318.417L311.157 362.497H319.028L326.289 380.76Z" fill="#E4897B"/>
<path d="M317.795 379.848H326.642C326.799 379.847 326.952 379.902 327.073 380.002C327.194 380.102 327.277 380.241 327.307 380.395L328.873 387.406C328.908 387.577 328.905 387.753 328.863 387.923C328.821 388.092 328.741 388.249 328.63 388.384C328.518 388.518 328.378 388.625 328.22 388.697C328.061 388.77 327.889 388.805 327.715 388.802C324.626 388.748 323.125 388.566 319.232 388.566C316.841 388.566 311.908 388.823 308.594 388.823C305.28 388.823 304.862 385.602 306.213 385.248C312.283 383.917 314.567 382.081 316.508 380.341C316.861 380.022 317.32 379.846 317.795 379.848Z" fill="#263238"/>
<path d="M319.039 362.508H311.157L316.38 375.628L323.672 374.146L319.039 362.508Z" fill="#CE6F64"/>
<path d="M275.211 233.906C275.211 233.906 273.635 265.858 267.801 294.031C265.956 302.953 267.168 312.508 272.391 319.97C287.736 341.883 312.069 371.065 312.069 371.065L324.819 369.637C324.819 369.637 304.133 331.286 293.57 312.25C291.168 307.956 289.045 304.026 290.857 299.367C308.369 254.864 298.9 233.874 298.9 233.874L275.211 233.906Z" fill="#0EA362"/>
<path opacity="0.5" d="M275.211 233.906C275.211 233.906 273.635 265.858 267.801 294.031C265.956 302.953 267.168 312.508 272.391 319.97C287.736 341.883 312.069 371.065 312.069 371.065L324.819 369.637C324.819 369.637 304.133 331.286 293.57 312.25C291.168 307.956 289.045 304.026 290.857 299.367C308.369 254.864 298.9 233.874 298.9 233.874L275.211 233.906Z" fill="black"/>
<path d="M248.455 220.346L242.685 219.444L244.766 229.3C244.766 229.3 249.184 228.752 251.061 225.424L248.455 220.346Z" fill="#E4897B"/>
<path d="M235.801 220.399L237.892 228.463L244.766 229.3L242.686 219.444L235.801 220.399Z" fill="#E4897B"/>
<path d="M264.241 176.745C261.763 181.651 259.168 186.408 256.466 191.228C253.763 196.049 250.965 200.719 248.005 205.39L246.932 207.14L246.16 208.213L245.356 209.287C244.325 210.515 243.203 211.664 241.999 212.723C239.799 214.666 237.455 216.439 234.986 218.027C230.262 221.109 225.274 223.764 220.08 225.961L217.163 220.807C221.345 217.586 225.581 214.194 229.453 210.747C231.333 209.087 233.123 207.328 234.814 205.476C235.585 204.642 236.302 203.76 236.959 202.834L237.345 202.212L237.667 201.621L238.611 199.85C243.629 190.359 248.562 180.664 253.721 171.194L264.241 176.745Z" fill="#E4897B"/>
<path opacity="0.3" d="M297.86 171.484L301.827 195.05C300.884 197.273 300.219 198.69 300.219 198.69L282.653 190.53C282.653 190.53 290.546 176.798 297.86 171.484Z" fill="black"/>
<path d="M253.828 179.697L260.337 195.802L253.828 205.282C253.184 196.766 253.184 188.213 253.828 179.697Z" fill="#1F2D43"/>
<path d="M219.029 220.528L210.782 219.519L211.104 229.075C211.104 229.075 217.592 229.644 221.088 225.381L219.029 220.528Z" fill="#E4897B"/>
<path d="M202.578 221.784L205.86 229.536L211.104 229.075L210.782 219.519L202.578 221.784Z" fill="#E4897B"/>
<path opacity="0.1" d="M272.841 261.52L285.045 246.94C285.506 253.479 281.559 277.936 268.026 292.968C270.181 282.371 271.736 271.194 272.841 261.52Z" fill="black"/>
<path d="M262.685 380.76H254.803L252.509 362.497H260.38L262.685 380.76Z" fill="#E4897B"/>
<path d="M251.361 381.147C250.353 381.147 249.377 381.007 249.056 380.556C248.972 380.437 248.927 380.294 248.927 380.148C248.927 380.002 248.972 379.86 249.056 379.74C249.118 379.63 249.203 379.534 249.305 379.459C249.406 379.383 249.522 379.329 249.645 379.3C250.964 378.946 253.71 380.513 253.828 380.578C253.86 380.598 253.887 380.626 253.904 380.66C253.921 380.695 253.928 380.733 253.924 380.771C253.918 380.809 253.9 380.843 253.873 380.87C253.846 380.897 253.812 380.915 253.774 380.921C252.978 381.07 252.171 381.146 251.361 381.147ZM250.117 379.622C249.996 379.606 249.874 379.606 249.753 379.622C249.677 379.637 249.606 379.668 249.543 379.712C249.48 379.756 249.427 379.814 249.388 379.88C249.259 380.116 249.313 380.223 249.388 380.288C249.742 380.782 251.737 380.814 253.206 380.61C252.249 380.09 251.2 379.762 250.117 379.644V379.622Z" fill="#0EA362"/>
<path d="M253.753 380.953H253.667C252.723 380.535 250.836 378.806 250.986 377.936C250.986 377.722 251.158 377.464 251.672 377.41C251.864 377.383 252.059 377.398 252.244 377.454C252.429 377.51 252.6 377.605 252.745 377.732C253.742 378.548 253.956 380.674 253.967 380.771C253.969 380.803 253.962 380.836 253.949 380.865C253.936 380.895 253.917 380.922 253.892 380.943C253.848 380.963 253.799 380.966 253.753 380.953ZM251.822 377.732H251.747C251.415 377.732 251.394 377.904 251.383 377.947C251.297 378.484 252.573 379.826 253.528 380.406C253.427 379.506 253.052 378.659 252.455 377.979C252.278 377.832 252.053 377.752 251.822 377.754V377.732Z" fill="#0EA362"/>
<path d="M254.589 379.848H263.168C263.325 379.847 263.478 379.902 263.599 380.002C263.72 380.102 263.803 380.241 263.833 380.395L265.388 387.406C265.427 387.575 265.428 387.75 265.389 387.918C265.35 388.087 265.274 388.244 265.165 388.379C265.057 388.514 264.919 388.622 264.762 388.695C264.606 388.768 264.435 388.805 264.262 388.802C261.152 388.748 256.67 388.566 252.766 388.566C248.209 388.566 244.273 388.823 238.922 388.823C235.705 388.823 234.793 385.602 236.144 385.248C242.31 383.895 247.34 383.756 252.67 380.47C253.236 380.082 253.903 379.866 254.589 379.848Z" fill="#263238"/>
<path d="M260.38 362.508H252.498L254.192 375.811L261.924 374.619L260.38 362.508Z" fill="#CE6F64"/>
<path d="M308.476 369.122L310.975 374.297L326.342 370.346L325.119 365.547L308.476 369.122Z" fill="#0EA362"/>
<path d="M256.755 233.906C256.755 233.906 250.16 255.98 239.264 284.368C235.715 293.601 234.342 302.491 236.809 310.307C244.455 334.572 251.061 371.065 251.061 371.065L264.197 369.637C264.197 369.637 264.701 332.414 260.047 313.227C257.656 303.382 258.471 299.796 260.916 296.543C294.385 251.976 285.398 233.938 285.398 233.938L256.755 233.906Z" fill="#0EA362"/>
<path opacity="0.5" d="M256.755 233.906C256.755 233.906 250.16 255.98 239.264 284.368C235.715 293.601 234.342 302.491 236.809 310.307C244.455 334.572 251.061 371.065 251.061 371.065L264.197 369.637C264.197 369.637 264.701 332.414 260.047 313.227C257.656 303.382 258.471 299.796 260.916 296.543C294.385 251.976 285.398 233.938 285.398 233.938L256.755 233.906Z" fill="black"/>
<path d="M248.787 368.832L249.473 374.071L264.98 371.441L265.441 366.652L248.787 368.832Z" fill="#0EA362"/>
<path d="M257.227 165.729C257.227 165.729 248.841 175.22 256.755 233.906H298.932C299.222 227.464 295.157 195.845 301.398 165.321C296.741 164.423 292.031 163.828 287.297 163.539C281.332 163.195 275.353 163.195 269.388 163.539C265.284 163.955 261.219 164.688 257.227 165.729Z" fill="#0EA362"/>
<path opacity="0.6" d="M257.227 165.729C257.227 165.729 248.841 175.22 256.755 233.906H298.932C299.222 227.464 295.157 195.845 301.398 165.321C296.741 164.423 292.031 163.828 287.297 163.539C281.332 163.195 275.353 163.195 269.388 163.539C265.284 163.955 261.219 164.688 257.227 165.729Z" fill="black"/>
<path d="M267.479 170.936C270.074 178.022 259.651 199.517 259.651 199.517L240.777 190.037C243.195 183.594 246.293 177.428 250.021 171.645C255.661 163.335 264.616 163.195 267.479 170.936Z" fill="#0EA362"/>
<path d="M267.479 170.936C270.074 178.022 259.651 199.517 259.651 199.517L240.777 190.037C243.195 183.594 246.293 177.428 250.021 171.645C255.661 163.335 264.616 163.195 267.479 170.936Z" fill="#0EA362"/>
<path opacity="0.6" d="M267.479 170.936C270.074 178.022 259.651 199.517 259.651 199.517L240.777 190.037C243.195 183.594 246.293 177.428 250.021 171.645C255.661 163.335 264.616 163.195 267.479 170.936Z" fill="black"/>
</svg>
