<?xml version="1.0" encoding="UTF-8"?>
<!DOCTYPE svg PUBLIC "-//W3C//DTD SVG 1.1//EN" "http://www.w3.org/Graphics/SVG/1.1/DTD/svg11.dtd">
<!-- Creator: CorelDRAW 2021 (64-Bit) -->
<svg xmlns="http://www.w3.org/2000/svg" xml:space="preserve" width="139.7mm" height="107.645mm" version="1.1" style="shape-rendering:geometricPrecision; text-rendering:geometricPrecision; image-rendering:optimizeQuality; fill-rule:evenodd; clip-rule:evenodd"
viewBox="0 0 13970 10764.52"
 xmlns:xlink="http://www.w3.org/1999/xlink"
 xmlns:xodm="http://www.corel.com/coreldraw/odm/2003">
 <defs>
  <style type="text/css">
   <![CDATA[
    .fil0 {fill:none}
    .fil3 {fill:navy}
    .fil4 {fill:navy;fill-rule:nonzero}
    .fil2 {fill:#0EA362;fill-rule:nonzero}
    .fil1 {fill:#FF9933;fill-rule:nonzero}
    .fil5 {fill:navy;fill-rule:nonzero}
   ]]>
  </style>
 </defs>
 <g id="Layer_x0020_1">
  <metadata id="CorelCorpID_0Corel-Layer"/>
  <rect class="fil0" width="13970" height="10764.52"/>
  <g id="_1947988002720">
   <g>
    <path class="fil1" d="M9514.94 1888.46c-352.99,-743.12 -1111.02,-1253.4 -2001.69,-1253.4l-3257.15 0 0 4014.55 3176.56 -2465.94 -4.89 2231.88 1973.33 -1547.79c-84.83,-86.31 -170.45,-163.35 -252.88,-228.1l-717.35 -563.46 1084.07 -187.74z"/>
    <path class="fil2" d="M4256.1 7861.88l3257.15 0c1221.45,0 2201.14,-966.96 2201.14,-2188.41 0,-486.11 -176.79,-950.11 -458.28,-1319.96l-2906.58 2271.44 0 -2229.33 -2093.43 1620.01 0 1846.25z"/>
    <path class="fil3" d="M11379.52 1977.53l-416.33 919.5 -412.61 911.44c-100.63,-230.2 -273.76,-515.55 -497.43,-804.59 -223.67,-289.05 -456.45,-528.22 -654.03,-683.4l985.78 -170.76 994.62 -172.19z"/>
   </g>
   <g>
    <polygon class="fil4" points="1868.76,10099.9 2057.96,10099.9 2057.96,8980.47 1868.76,8980.47 "/>
    <polygon class="fil4" points="2785.19,10129.46 3344.9,8980.47 3134.02,8980.47 2785.19,9695.88 2436.35,8980.47 2225.48,8980.47 "/>
    <polygon class="fil4" points="3701.62,9638.73 4160.81,9638.73 4160.81,9475.15 3701.62,9475.15 3701.62,9149.96 4279.06,9149.96 4279.06,8980.47 3512.42,8980.47 3512.42,10099.9 4279.06,10099.9 4279.06,9930.41 3701.62,9930.41 "/>
    <path class="fil4" d="M5227.04 9047.48c-61.1,-25.62 -212.85,-80.8 -340.95,-80.8 -252.27,0 -390.22,116.28 -390.22,311.39 0,400.07 603.07,311.39 603.07,528.18 0,78.83 -98.54,139.93 -201.03,139.93 -145.84,0 -256.2,-39.42 -323.21,-72.92l-67.01 134.01c128.1,90.66 271.97,102.48 407.96,102.48 157.67,0 372.48,-110.36 372.48,-287.74 0,-380.36 -603.07,-301.53 -603.07,-532.12 0,-29.56 3.95,-151.75 206.94,-151.75 80.8,0 216.79,39.42 268.03,57.15l67.01 -147.81z"/>
    <polygon class="fil4" points="6194.7,10099.9 6383.9,10099.9 6383.9,8980.47 6194.7,8980.47 6194.7,9475.15 5698.06,9475.15 5698.06,8980.47 5508.87,8980.47 5508.87,10099.9 5698.06,10099.9 5698.06,9638.73 6194.7,9638.73 "/>
    <path class="fil4" d="M7042.17 10099.9l504.53 0c189.2,0 340.96,-149.78 340.96,-338.98 0,-80.8 -31.54,-157.67 -80.81,-216.79 55.18,-61.1 82.78,-135.99 82.78,-222.7 0,-189.2 -151.76,-340.96 -342.93,-340.96l-504.53 0 0 1119.43zm252.27 -882.93l238.47 0c57.15,0 104.45,47.3 104.45,104.46 0,57.15 -47.3,104.45 -104.45,104.45l-238.47 0 0 -208.91zm0 652.34l0 -204.96 271.97 0c43.36,0 70.95,51.24 70.95,96.57 0,57.15 -47.3,108.39 -106.42,108.39l-236.5 0zm1450.52 230.59l252.26 0 0 -1119.43 -252.26 0 0 461.18 -386.28 0 0 -461.18 -252.27 0 0 1119.43 252.27 0 0 -429.64 386.28 0 0 429.64zm1271.18 0l281.82 0 -581.38 -1148.99 -581.4 1148.99 281.83 0 96.57 -195.11 405.99 0 96.57 195.11zm-394.16 -409.93l94.6 -193.14 96.57 193.14 -191.17 0zm1328.32 -222.7l-262.12 0 0 -238.47 262.12 0c57.15,0 104.45,39.41 104.45,116.28 0,74.89 -47.3,122.19 -104.45,122.19zm90.66 632.63l297.59 0 -220.73 -431.61c112.33,-59.12 189.2,-179.34 189.2,-325.18 0,-212.85 -151.76,-362.64 -340.96,-362.64l-530.15 0 0 1119.43 252.27 0 0 -396.13 149.78 0 203 396.13zm1251.47 0l281.83 0 -581.39 -1148.99 -581.4 1148.99 281.83 0 96.57 -195.11 405.99 0 96.57 195.11zm-394.16 -409.93l94.6 -193.14 96.57 193.14 -191.17 0zm1152.92 -473l283.8 0 0 -236.5 -819.86 0 0 236.5 283.8 0 0 882.93 252.26 0 0 -882.93z"/>
    <path class="fil5" d="M824.2 9409.03c255.41,230.27 510.87,460.37 766.01,690.87l2.64 2.4 0 -2.4 0 -1119.42 -189.2 0 0 696.83 -768.65 -695.48 0 256.44 0 861.63 189.2 0 0 -690.87z"/>
   </g>
  </g>
 </g>
</svg>
